ISO-10303-21;
HEADER;
FILE_DESCRIPTION (( 'STEP AP214' ),
    '1' );
FILE_NAME ('Laptop Stand.STEP',
    '2026-05-22T02:19:42',
    ( '' ),
    ( '' ),
    'SwSTEP 2.0',
    'SolidWorks 2025',
    '' );
FILE_SCHEMA (( 'AUTOMOTIVE_DESIGN' ));
ENDSEC;

DATA;
#1 = DIRECTION ( 'NONE',  ( -0.000000000000000000, -0.000000000000000000, -1.000000000000000000 ) ) ;
#2 = CARTESIAN_POINT ( 'NONE',  ( 10.00000000000000000, 12.44893540108035346, 3.000000000000000000 ) ) ;
#3 = AXIS2_PLACEMENT_3D ( 'NONE', #320, #51, #460 ) ;
#4 = MECHANICAL_DESIGN_GEOMETRIC_PRESENTATION_REPRESENTATION (  '', ( #539 ), #509 ) ;
#5 = LINE ( 'NONE', #102, #406 ) ;
#6 = DIRECTION ( 'NONE',  ( 1.000000000000000000, 0.000000000000000000, -0.000000000000000000 ) ) ;
#7 = AXIS2_PLACEMENT_3D ( 'NONE', #513, #289, #467 ) ;
#8 = EDGE_CURVE ( 'NONE', #125, #475, #258, .T. ) ;
#9 = CARTESIAN_POINT ( 'NONE',  ( -6.483853396040712092, 4.835812219247322297, 20.00000000000000000 ) ) ;
#10 = DIRECTION ( 'NONE',  ( -0.000000000000000000, -0.000000000000000000, 1.000000000000000000 ) ) ;
#11 = ORIENTED_EDGE ( 'NONE', *, *, #297, .T. ) ;
#12 = DIRECTION ( 'NONE',  ( 1.000000000000000000, 0.000000000000000000, -0.000000000000000000 ) ) ;
#13 = SURFACE_STYLE_USAGE ( .BOTH. , #328 ) ;
#14 = ORIENTED_EDGE ( 'NONE', *, *, #340, .T. ) ;
#15 = CIRCLE ( 'NONE', #477, 9.999999999999998224 ) ;
#16 = VECTOR ( 'NONE', #304, 1000.000000000000114 ) ;
#17 = DIRECTION ( 'NONE',  ( 1.000000000000000000, 0.000000000000000000, 0.000000000000000000 ) ) ;
#18 = CARTESIAN_POINT ( 'NONE',  ( 0.000000000000000000, 12.44893540108035346, 2.999999999999999112 ) ) ;
#19 = ORIENTED_EDGE ( 'NONE', *, *, #198, .F. ) ;
#20 = CARTESIAN_POINT ( 'NONE',  ( 0.000000000000000000, 12.44893540108035346, 3.000000000000000000 ) ) ;
#21 = CYLINDRICAL_SURFACE ( 'NONE', #35, 5.174999999999999822 ) ;
#22 = ORIENTED_EDGE ( 'NONE', *, *, #160, .T. ) ;
#23 = CARTESIAN_POINT ( 'NONE',  ( -5.174999999999999822, 12.44893540108035346, 2.999999999999999112 ) ) ;
#24 = FACE_OUTER_BOUND ( 'NONE', #200, .T. ) ;
#25 = VERTEX_POINT ( 'NONE', #358 ) ;
#26 = APPLICATION_CONTEXT ( 'automotive_design' ) ;
#27 = CARTESIAN_POINT ( 'NONE',  ( 0.01051512188436241543, -17.44893540108035879, 3.000000000000000000 ) ) ;
#28 = ADVANCED_FACE ( 'NONE', ( #534 ), #143, .T. ) ;
#29 = CARTESIAN_POINT ( 'NONE',  ( 0.01051512188436241543, -17.44893540108035879, 3.000000000000000000 ) ) ;
#30 = ADVANCED_FACE ( 'NONE', ( #148 ), #451, .F. ) ;
#31 = ORIENTED_EDGE ( 'NONE', *, *, #70, .T. ) ;
#32 = FACE_OUTER_BOUND ( 'NONE', #158, .T. ) ;
#33 = CYLINDRICAL_SURFACE ( 'NONE', #105, 10.00000000000000000 ) ;
#34 = VERTEX_POINT ( 'NONE', #318 ) ;
#35 = AXIS2_PLACEMENT_3D ( 'NONE', #286, #68, #464 ) ;
#36 = CARTESIAN_POINT ( 'NONE',  ( 5.174999999999999822, 12.44893540108035346, 2.999999999999999112 ) ) ;
#37 = VECTOR ( 'NONE', #560, 1000.000000000000114 ) ;
#38 = ORIENTED_EDGE ( 'NONE', *, *, #542, .T. ) ;
#39 = EDGE_CURVE ( 'NONE', #458, #548, #331, .T. ) ;
#40 = CIRCLE ( 'NONE', #110, 5.174999999999999822 ) ;
#41 = CARTESIAN_POINT ( 'NONE',  ( 6.483853284257139471, 4.835812219247322297, 20.00000000000000000 ) ) ;
#42 = ORIENTED_EDGE ( 'NONE', *, *, #351, .F. ) ;
#43 = DIRECTION ( 'NONE',  ( -0.000000000000000000, -0.000000000000000000, -1.000000000000000000 ) ) ;
#44 = ORIENTED_EDGE ( 'NONE', *, *, #157, .F. ) ;
#45 = CARTESIAN_POINT ( 'NONE',  ( -9.999999999999998224, 12.44893540108035346, 3.000000000000000000 ) ) ;
#46 = ORIENTED_EDGE ( 'NONE', *, *, #280, .F. ) ;
#47 = EDGE_CURVE ( 'NONE', #123, #168, #327, .T. ) ;
#48 = ORIENTED_EDGE ( 'NONE', *, *, #370, .F. ) ;
#49 = CARTESIAN_POINT ( 'NONE',  ( -4.957673255071607166, -18.01205550468135996, 3.000000000000000000 ) ) ;
#50 = ORIENTED_EDGE ( 'NONE', *, *, #280, .T. ) ;
#51 = DIRECTION ( 'NONE',  ( -0.000000000000000000, -0.000000000000000000, -1.000000000000000000 ) ) ;
#52 = EDGE_CURVE ( 'NONE', #34, #78, #74, .T. ) ;
#53 = VECTOR ( 'NONE', #10, 1000.000000000000000 ) ;
#54 = DIRECTION ( 'NONE',  ( 0.000000000000000000, 0.000000000000000000, 1.000000000000000000 ) ) ;
#55 = DIRECTION ( 'NONE',  ( -0.000000000000000000, -0.000000000000000000, -1.000000000000000000 ) ) ;
#56 = DIRECTION ( 'NONE',  ( 0.000000000000000000, 0.000000000000000000, 1.000000000000000000 ) ) ;
#57 = DIRECTION ( 'NONE',  ( -0.1626484622309660732, 0.9866840820312761107, 0.000000000000000000 ) ) ;
#58 = DIRECTION ( 'NONE',  ( -0.000000000000000000, -0.000000000000000000, 1.000000000000000000 ) ) ;
#59 = VECTOR ( 'NONE', #207, 1000.000000000000114 ) ;
#60 = AXIS2_PLACEMENT_3D ( 'NONE', #407, #325, #547 ) ;
#61 = CARTESIAN_POINT ( 'NONE',  ( 6.483853284257139471, 4.835812219247320520, 20.00000000000000000 ) ) ;
#62 = VERTEX_POINT ( 'NONE', #193 ) ;
#63 = VECTOR ( 'NONE', #357, 1000.000000000000000 ) ;
#64 = UNCERTAINTY_MEASURE_WITH_UNIT (LENGTH_MEASURE( 1.000000000000000082E-05 ), #268, 'distance_accuracy_value', 'NONE');
#65 = DIRECTION ( 'NONE',  ( 0.000000000000000000, 0.000000000000000000, 1.000000000000000000 ) ) ;
#66 = EDGE_LOOP ( 'NONE', ( #492, #11, #308, #441 ) ) ;
#67 = CARTESIAN_POINT ( 'NONE',  ( 0.000000000000000000, 0.000000000000000000, 0.000000000000000000 ) ) ;
#68 = DIRECTION ( 'NONE',  ( -0.000000000000000000, -0.000000000000000000, 1.000000000000000000 ) ) ;
#69 = ORIENTED_EDGE ( 'NONE', *, *, #317, .F. ) ;
#70 = EDGE_CURVE ( 'NONE', #315, #34, #15, .T. ) ;
#71 = EDGE_CURVE ( 'NONE', #130, #191, #348, .T. ) ;
#72 = DIRECTION ( 'NONE',  ( 0.000000000000000000, 0.000000000000000000, 1.000000000000000000 ) ) ;
#73 = EDGE_LOOP ( 'NONE', ( #113, #14 ) ) ;
#74 = CIRCLE ( 'NONE', #180, 9.999999999999998224 ) ;
#75 = CARTESIAN_POINT ( 'NONE',  ( -4.989484878115636235, -17.44893540108035879, 19.50000000000000000 ) ) ;
#76 = CARTESIAN_POINT ( 'NONE',  ( 0.01051512188436241543, -17.44893540108035879, 19.50000000000000000 ) ) ;
#77 = DIRECTION ( 'NONE',  ( -0.000000000000000000, -0.000000000000000000, -1.000000000000000000 ) ) ;
#78 = VERTEX_POINT ( 'NONE', #506 ) ;
#79 = EDGE_CURVE ( 'NONE', #224, #567, #5, .T. ) ;
#80 = FACE_OUTER_BOUND ( 'NONE', #161, .T. ) ;
#81 = VERTEX_POINT ( 'NONE', #456 ) ;
#82 = CIRCLE ( 'NONE', #136, 4.999999999999999112 ) ;
#83 = DIRECTION ( 'NONE',  ( 1.000000000000000000, 0.000000000000000000, -0.000000000000000000 ) ) ;
#84 = AXIS2_PLACEMENT_3D ( 'NONE', #188, #96, #57 ) ;
#85 = ORIENTED_EDGE ( 'NONE', *, *, #402, .F. ) ;
#86 = CARTESIAN_POINT ( 'NONE',  ( -4.957673255071607166, -18.01205550468135996, 3.000000000000000000 ) ) ;
#87 = LINE ( 'NONE', #90, #53 ) ;
#88 = CARTESIAN_POINT ( 'NONE',  ( 0.000000000000000000, 12.44893540108035346, 3.000000000000000000 ) ) ;
#89 = ORIENTED_EDGE ( 'NONE', *, *, #411, .T. ) ;
#90 = CARTESIAN_POINT ( 'NONE',  ( 5.175000061981791077, 12.44893515931079797, 20.00000000000000000 ) ) ;
#91 = EDGE_CURVE ( 'NONE', #81, #485, #226, .T. ) ;
#92 = ADVANCED_FACE ( 'NONE', ( #145 ), #540, .F. ) ;
#93 = ORIENTED_EDGE ( 'NONE', *, *, #52, .T. ) ;
#94 = PRODUCT ( 'Laptop Stand', 'Laptop Stand', '', ( #334 ) ) ;
#95 = CIRCLE ( 'NONE', #7, 9.999999999999998224 ) ;
#96 = DIRECTION ( 'NONE',  ( 0.9866840820312761107, 0.1626484622309660732, -0.000000000000000000 ) ) ;
#97 = EDGE_LOOP ( 'NONE', ( #471, #275, #526, #372, #173 ) ) ;
#98 = DIRECTION ( 'NONE',  ( 0.000000000000000000, 0.000000000000000000, 1.000000000000000000 ) ) ;
#99 = DIRECTION ( 'NONE',  ( -0.000000000000000000, -0.000000000000000000, -1.000000000000000000 ) ) ;
#100 = CARTESIAN_POINT ( 'NONE',  ( 0.000000000000000000, 12.44893540108035346, 23.00000000000000000 ) ) ;
#101 = DIRECTION ( 'NONE',  ( 1.000000000000000000, 0.000000000000000000, 0.000000000000000000 ) ) ;
#102 = CARTESIAN_POINT ( 'NONE',  ( 4.978703498840332031, -18.01205550468136352, 3.000000000000000000 ) ) ;
#103 = FACE_OUTER_BOUND ( 'NONE', #270, .T. ) ;
#104 = LINE ( 'NONE', #196, #390 ) ;
#105 = AXIS2_PLACEMENT_3D ( 'NONE', #118, #77, #199 ) ;
#106 = ORIENTED_EDGE ( 'NONE', *, *, #297, .F. ) ;
#107 = CIRCLE ( 'NONE', #555, 10.00000000000000000 ) ;
#108 = CARTESIAN_POINT ( 'NONE',  ( 5.010515121884361989, -17.44893540108035879, 19.50000000000000000 ) ) ;
#109 = ORIENTED_EDGE ( 'NONE', *, *, #39, .T. ) ;
#110 = AXIS2_PLACEMENT_3D ( 'NONE', #269, #353, #440 ) ;
#111 = DIRECTION ( 'NONE',  ( -0.1694349368497140851, -0.9855413751713995030, 0.000000000000000000 ) ) ;
#112 = EDGE_CURVE ( 'NONE', #532, #475, #369, .T. ) ;
#113 = ORIENTED_EDGE ( 'NONE', *, *, #459, .F. ) ;
#114 = ADVANCED_FACE ( 'NONE', ( #497 ), #414, .T. ) ;
#115 = DIRECTION ( 'NONE',  ( 1.000000000000000000, 0.000000000000000000, 0.000000000000000000 ) ) ;
#116 = EDGE_LOOP ( 'NONE', ( #203, #521 ) ) ;
#117 = LINE ( 'NONE', #480, #299 ) ;
#118 = CARTESIAN_POINT ( 'NONE',  ( 0.000000000000000000, 12.44893540108035346, 3.000000000000000000 ) ) ;
#119 = ORIENTED_EDGE ( 'NONE', *, *, #427, .F. ) ;
#120 = AXIS2_PLACEMENT_3D ( 'NONE', #363, #55, #322 ) ;
#121 = DIRECTION ( 'NONE',  ( -0.9866840820312761107, 0.1626484622309660732, 0.000000000000000000 ) ) ;
#122 = CARTESIAN_POINT ( 'NONE',  ( 0.000000000000000000, 12.44893540108035346, -11.63711037056153152 ) ) ;
#123 = VERTEX_POINT ( 'NONE', #276 ) ;
#124 = LINE ( 'NONE', #41, #368 ) ;
#125 = VERTEX_POINT ( 'NONE', #541 ) ;
#126 = FACE_OUTER_BOUND ( 'NONE', #553, .T. ) ;
#127 = AXIS2_PLACEMENT_3D ( 'NONE', #27, #170, #166 ) ;
#128 = VERTEX_POINT ( 'NONE', #452 ) ;
#129 = DIRECTION ( 'NONE',  ( 1.000000000000000000, 0.000000000000000000, -0.000000000000000000 ) ) ;
#130 = VERTEX_POINT ( 'NONE', #237 ) ;
#131 = EDGE_CURVE ( 'NONE', #485, #62, #274, .T. ) ;
#132 = DIRECTION ( 'NONE',  ( -0.9855413751713996140, 0.1694349368497140851, 0.000000000000000000 ) ) ;
#133 = EDGE_CURVE ( 'NONE', #25, #253, #366, .T. ) ;
#134 = CARTESIAN_POINT ( 'NONE',  ( -5.175000173765362810, 12.44893515931079797, 23.00000000000000000 ) ) ;
#135 = ORIENTED_EDGE ( 'NONE', *, *, #459, .T. ) ;
#136 = AXIS2_PLACEMENT_3D ( 'NONE', #386, #65, #383 ) ;
#137 = CARTESIAN_POINT ( 'NONE',  ( -5.589178577423969951E-08, 12.44893515931079797, 20.00000000000000000 ) ) ;
#138 = COLOUR_RGB ( '',0.7921568627450980005, 0.8196078431372548767, 0.9333333333333333481 ) ;
#139 = EDGE_CURVE ( 'NONE', #315, #25, #543, .T. ) ;
#140 = AXIS2_PLACEMENT_3D ( 'NONE', #18, #151, #330 ) ;
#141 = CARTESIAN_POINT ( 'NONE',  ( 0.000000000000000000, 12.44893540108035346, 23.00000000000000000 ) ) ;
#142 = EDGE_CURVE ( 'NONE', #433, #78, #234, .T. ) ;
#143 = CYLINDRICAL_SURFACE ( 'NONE', #3, 10.00000000000000000 ) ;
#144 = CARTESIAN_POINT ( 'NONE',  ( 10.00000000000000000, 12.44893540108035346, 0.000000000000000000 ) ) ;
#145 = FACE_OUTER_BOUND ( 'NONE', #337, .T. ) ;
#146 = FILL_AREA_STYLE ('',( #149 ) ) ;
#147 = ORIENTED_EDGE ( 'NONE', *, *, #71, .F. ) ;
#148 = FACE_OUTER_BOUND ( 'NONE', #175, .T. ) ;
#149 = FILL_AREA_STYLE_COLOUR ( '', #138 ) ;
#150 = CARTESIAN_POINT ( 'NONE',  ( -5.174999999999999822, 12.44893540108035346, -11.63711037056153152 ) ) ;
#151 = DIRECTION ( 'NONE',  ( -0.000000000000000000, -0.000000000000000000, -1.000000000000000000 ) ) ;
#152 = ORIENTED_EDGE ( 'NONE', *, *, #236, .F. ) ;
#153 = AXIS2_PLACEMENT_3D ( 'NONE', #137, #98, #495 ) ;
#154 = PLANE ( 'NONE',  #250 ) ;
#155 = EDGE_CURVE ( 'NONE', #253, #128, #107, .T. ) ;
#156 = LINE ( 'NONE', #421, #265 ) ;
#157 = EDGE_CURVE ( 'NONE', #349, #253, #300, .T. ) ;
#158 = EDGE_LOOP ( 'NONE', ( #42, #465 ) ) ;
#159 = CARTESIAN_POINT ( 'NONE',  ( 0.000000000000000000, 12.44893540108035346, 2.999999999999999112 ) ) ;
#160 = EDGE_CURVE ( 'NONE', #128, #125, #201, .T. ) ;
#161 = EDGE_LOOP ( 'NONE', ( #422, #356, #341, #256, #537, #178 ) ) ;
#162 = CARTESIAN_POINT ( 'NONE',  ( 5.175000061981791077, 12.44893515931079797, 23.00000000000000000 ) ) ;
#163 = DIRECTION ( 'NONE',  ( 1.000000000000000000, 0.000000000000000000, -0.000000000000000000 ) ) ;
#164 = VERTEX_POINT ( 'NONE', #420 ) ;
#165 = VECTOR ( 'NONE', #111, 1000.000000000000114 ) ;
#166 = DIRECTION ( 'NONE',  ( -1.000000000000000000, 0.000000000000000000, 0.000000000000000000 ) ) ;
#167 = LINE ( 'NONE', #566, #345 ) ;
#168 = VERTEX_POINT ( 'NONE', #162 ) ;
#169 = AXIS2_PLACEMENT_3D ( 'NONE', #527, #307, #573 ) ;
#170 = DIRECTION ( 'NONE',  ( -0.000000000000000000, -0.000000000000000000, -1.000000000000000000 ) ) ;
#171 = PRODUCT_RELATED_PRODUCT_CATEGORY ( 'part', '', ( #94 ) ) ;
#172 = PLANE ( 'NONE',  #169 ) ;
#173 = ORIENTED_EDGE ( 'NONE', *, *, #551, .T. ) ;
#174 = LINE ( 'NONE', #257, #273 ) ;
#175 = EDGE_LOOP ( 'NONE', ( #559, #508, #387, #523, #44 ) ) ;
#176 = DIRECTION ( 'NONE',  ( 1.000000000000000000, 0.000000000000000000, 0.000000000000000000 ) ) ;
#177 = EDGE_CURVE ( 'NONE', #576, #296, #439, .T. ) ;
#178 = ORIENTED_EDGE ( 'NONE', *, *, #131, .F. ) ;
#179 = DIRECTION ( 'NONE',  ( 1.000000000000000000, 0.000000000000000000, 0.000000000000000000 ) ) ;
#180 = AXIS2_PLACEMENT_3D ( 'NONE', #141, #54, #101 ) ;
#181 = FACE_OUTER_BOUND ( 'NONE', #408, .T. ) ;
#182 = ORIENTED_EDGE ( 'NONE', *, *, #446, .F. ) ;
#183 = CARTESIAN_POINT ( 'NONE',  ( 6.483853284257139471, 4.835812219247322297, 23.00000000000000000 ) ) ;
#184 = VECTOR ( 'NONE', #517, 1000.000000000000000 ) ;
#185 = DIRECTION ( 'NONE',  ( 1.000000000000000000, 0.000000000000000000, 0.000000000000000000 ) ) ;
#186 = AXIS2_PLACEMENT_3D ( 'NONE', #76, #374, #17 ) ;
#187 = CIRCLE ( 'NONE', #319, 5.174999999999999822 ) ;
#188 = CARTESIAN_POINT ( 'NONE',  ( -10.00000000000000000, 12.44893540108035346, 3.000000000000000000 ) ) ;
#189 = DIRECTION ( 'NONE',  ( 0.000000000000000000, 0.000000000000000000, 1.000000000000000000 ) ) ;
#190 = DIRECTION ( 'NONE',  ( -0.000000000000000000, -0.000000000000000000, 1.000000000000000000 ) ) ;
#191 = VERTEX_POINT ( 'NONE', #549 ) ;
#192 = ADVANCED_FACE ( 'NONE', ( #238 ), #235, .F. ) ;
#193 = CARTESIAN_POINT ( 'NONE',  ( -5.175000173765362810, 12.44893515931079797, 23.00000000000000000 ) ) ;
#194 = ORIENTED_EDGE ( 'NONE', *, *, #370, .T. ) ;
#195 = CARTESIAN_POINT ( 'NONE',  ( -4.978703498840332031, -18.01205550468136352, 3.000000000000000000 ) ) ;
#196 = CARTESIAN_POINT ( 'NONE',  ( 5.174999999999999822, 12.44893540108035346, -11.63711037056153152 ) ) ;
#197 = ORIENTED_EDGE ( 'NONE', *, *, #131, .T. ) ;
#198 = EDGE_CURVE ( 'NONE', #81, #168, #87, .T. ) ;
#199 = DIRECTION ( 'NONE',  ( -1.000000000000000000, 0.000000000000000000, 0.000000000000000000 ) ) ;
#200 = EDGE_LOOP ( 'NONE', ( #557, #213, #384, #580 ) ) ;
#201 = LINE ( 'NONE', #385, #37 ) ;
#202 = DIRECTION ( 'NONE',  ( 0.000000000000000000, 0.000000000000000000, 1.000000000000000000 ) ) ;
#203 = ORIENTED_EDGE ( 'NONE', *, *, #39, .F. ) ;
#204 = DIRECTION ( 'NONE',  ( -1.000000000000000000, 0.000000000000000000, 0.000000000000000000 ) ) ;
#205 = ORIENTED_EDGE ( 'NONE', *, *, #382, .T. ) ;
#206 = DIRECTION ( 'NONE',  ( -0.000000000000000000, -0.000000000000000000, -1.000000000000000000 ) ) ;
#207 = DIRECTION ( 'NONE',  ( 0.1626484622309660455, -0.9866840820312761107, 0.000000000000000000 ) ) ;
#208 = ORIENTED_EDGE ( 'NONE', *, *, #139, .T. ) ;
#209 = ADVANCED_FACE ( 'NONE', ( #550 ), #314, .F. ) ;
#210 = CIRCLE ( 'NONE', #565, 9.999999999999998224 ) ;
#211 = CIRCLE ( 'NONE', #60, 4.999999999999999112 ) ;
#212 = DIRECTION ( 'NONE',  ( 0.000000000000000000, 0.000000000000000000, 1.000000000000000000 ) ) ;
#213 = ORIENTED_EDGE ( 'NONE', *, *, #317, .T. ) ;
#214 = AXIS2_PLACEMENT_3D ( 'NONE', #88, #212, #129 ) ;
#215 = CARTESIAN_POINT ( 'NONE',  ( -10.00000000000000000, 12.44893540108035346, 3.000000000000000000 ) ) ;
#216 = ORIENTED_EDGE ( 'NONE', *, *, #505, .T. ) ;
#217 = EDGE_CURVE ( 'NONE', #548, #485, #544, .T. ) ;
#218 = DIRECTION ( 'NONE',  ( 0.1626484622309660455, -0.9866840820312761107, 0.000000000000000000 ) ) ;
#219 = ORIENTED_EDGE ( 'NONE', *, *, #504, .F. ) ;
#220 = CARTESIAN_POINT ( 'NONE',  ( -5.589178577423969951E-08, 12.44893515931079797, 20.00000000000000000 ) ) ;
#221 = CYLINDRICAL_SURFACE ( 'NONE', #290, 5.174999999999999822 ) ;
#222 = EDGE_CURVE ( 'NONE', #296, #576, #211, .T. ) ;
#223 = PRODUCT_DEFINITION_FORMATION_WITH_SPECIFIED_SOURCE ( 'ANY', '', #94, .NOT_KNOWN. ) ;
#224 = VERTEX_POINT ( 'NONE', #455 ) ;
#225 =( NAMED_UNIT ( * ) SI_UNIT ( $, .STERADIAN. ) SOLID_ANGLE_UNIT ( ) );
#226 = CIRCLE ( 'NONE', #120, 5.174999999999999822 ) ;
#227 = EDGE_LOOP ( 'NONE', ( #405, #381, #48, #152, #400, #313, #205, #229, #85, #135 ) ) ;
#228 = DIRECTION ( 'NONE',  ( -0.000000000000000000, -0.000000000000000000, -1.000000000000000000 ) ) ;
#229 = ORIENTED_EDGE ( 'NONE', *, *, #351, .T. ) ;
#230 = ADVANCED_FACE ( 'NONE', ( #103 ), #507, .T. ) ;
#231 = MANIFOLD_SOLID_BREP ( 'Cut-Extrude2', #486 ) ;
#232 = CARTESIAN_POINT ( 'NONE',  ( -5.175000173765362810, 12.44893515931079797, 20.00000000000000000 ) ) ;
#233 = VECTOR ( 'NONE', #454, 1000.000000000000000 ) ;
#234 = LINE ( 'NONE', #9, #332 ) ;
#235 = PLANE ( 'NONE',  #512 ) ;
#236 = EDGE_CURVE ( 'NONE', #433, #164, #418, .T. ) ;
#237 = CARTESIAN_POINT ( 'NONE',  ( 5.010515121884361989, -17.44893540108035879, 3.000000000000000000 ) ) ;
#238 = FACE_OUTER_BOUND ( 'NONE', #329, .T. ) ;
#239 = CIRCLE ( 'NONE', #259, 4.999999999999999112 ) ;
#240 = CARTESIAN_POINT ( 'NONE',  ( 0.000000000000000000, 12.44893540108035346, 23.00000000000000000 ) ) ;
#241 = DIRECTION ( 'NONE',  ( 0.000000000000000000, 0.000000000000000000, 1.000000000000000000 ) ) ;
#242 = DIRECTION ( 'NONE',  ( -0.000000000000000000, -0.000000000000000000, 1.000000000000000000 ) ) ;
#243 = CIRCLE ( 'NONE', #569, 5.000000000000000888 ) ;
#244 = EDGE_LOOP ( 'NONE', ( #109, #346, #311, #305 ) ) ;
#245 = APPLICATION_PROTOCOL_DEFINITION ( 'draft international standard', 'automotive_design', 1998, #449 ) ;
#246 = DIRECTION ( 'NONE',  ( 1.000000000000000000, 0.000000000000000000, 0.000000000000000000 ) ) ;
#247 = ORIENTED_EDGE ( 'NONE', *, *, #382, .F. ) ;
#248 = DIRECTION ( 'NONE',  ( -0.000000000000000000, -0.000000000000000000, 1.000000000000000000 ) ) ;
#249 = ORIENTED_EDGE ( 'NONE', *, *, #264, .T. ) ;
#250 = AXIS2_PLACEMENT_3D ( 'NONE', #352, #121, #294 ) ;
#251 = DIRECTION ( 'NONE',  ( 0.1626484622309660455, 0.9866840820312761107, 0.000000000000000000 ) ) ;
#252 = AXIS2_PLACEMENT_3D ( 'NONE', #498, #284, #185 ) ;
#253 = VERTEX_POINT ( 'NONE', #144 ) ;
#254 = SHAPE_DEFINITION_REPRESENTATION ( #500, #362 ) ;
#255 = DIRECTION ( 'NONE',  ( 1.000000000000000000, 0.000000000000000000, -0.000000000000000000 ) ) ;
#256 = ORIENTED_EDGE ( 'NONE', *, *, #198, .T. ) ;
#257 = CARTESIAN_POINT ( 'NONE',  ( -4.989484878115638011, -17.44893540108035879, 3.000000000000000000 ) ) ;
#258 = LINE ( 'NONE', #267, #510 ) ;
#259 = AXIS2_PLACEMENT_3D ( 'NONE', #493, #56, #499 ) ;
#260 = AXIS2_PLACEMENT_3D ( 'NONE', #501, #413, #12 ) ;
#261 = PRESENTATION_LAYER_ASSIGNMENT (  '', '', ( #539 ) ) ;
#262 = DIRECTION ( 'NONE',  ( -0.000000000000000000, -0.000000000000000000, -1.000000000000000000 ) ) ;
#263 = ORIENTED_EDGE ( 'NONE', *, *, #177, .T. ) ;
#264 = EDGE_CURVE ( 'NONE', #191, #532, #239, .T. ) ;
#265 = VECTOR ( 'NONE', #552, 1000.000000000000000 ) ;
#266 = CARTESIAN_POINT ( 'NONE',  ( 0.01051512188436241543, -17.44893540108035879, 0.000000000000000000 ) ) ;
#267 = CARTESIAN_POINT ( 'NONE',  ( -4.978703498840332031, -18.01205550468136352, 0.000000000000000000 ) ) ;
#268 =( LENGTH_UNIT ( ) NAMED_UNIT ( * ) SI_UNIT ( .MILLI., .METRE. ) );
#269 = CARTESIAN_POINT ( 'NONE',  ( 0.000000000000000000, 12.44893540108035346, 23.00000000000000000 ) ) ;
#270 = EDGE_LOOP ( 'NONE', ( #391, #89, #31, #93, #425, #563 ) ) ;
#271 = DIRECTION ( 'NONE',  ( -1.000000000000000000, -1.649741672092840319E-13, 0.000000000000000000 ) ) ;
#272 = ORIENTED_EDGE ( 'NONE', *, *, #112, .T. ) ;
#273 = VECTOR ( 'NONE', #310, 1000.000000000000000 ) ;
#274 = LINE ( 'NONE', #232, #487 ) ;
#275 = ORIENTED_EDGE ( 'NONE', *, *, #133, .F. ) ;
#276 = CARTESIAN_POINT ( 'NONE',  ( 6.483853284257139471, 4.835812219247320520, 23.00000000000000000 ) ) ;
#277 = CARTESIAN_POINT ( 'NONE',  ( 10.00000000000000000, 12.44893540108035523, 3.000000000000000000 ) ) ;
#278 = LINE ( 'NONE', #416, #59 ) ;
#279 = AXIS2_PLACEMENT_3D ( 'NONE', #20, #303, #568 ) ;
#280 = EDGE_CURVE ( 'NONE', #291, #360, #278, .T. ) ;
#281 = ADVANCED_FACE ( 'NONE', ( #561 ), #33, .T. ) ;
#282 = DIRECTION ( 'NONE',  ( -0.1694349368497140851, 0.9855413751713995030, 0.000000000000000000 ) ) ;
#283 = CARTESIAN_POINT ( 'NONE',  ( -5.175000173765362810, 12.44893515931079797, 20.00000000000000000 ) ) ;
#284 = DIRECTION ( 'NONE',  ( 0.000000000000000000, 0.000000000000000000, 1.000000000000000000 ) ) ;
#285 = VECTOR ( 'NONE', #242, 1000.000000000000000 ) ;
#286 = CARTESIAN_POINT ( 'NONE',  ( 0.000000000000000000, 12.44893540108035346, -11.63711037056153152 ) ) ;
#287 = ORIENTED_EDGE ( 'NONE', *, *, #505, .F. ) ;
#288 = DIRECTION ( 'NONE',  ( 1.000000000000000000, 0.000000000000000000, 0.000000000000000000 ) ) ;
#289 = DIRECTION ( 'NONE',  ( 0.000000000000000000, 0.000000000000000000, 1.000000000000000000 ) ) ;
#290 = AXIS2_PLACEMENT_3D ( 'NONE', #122, #447, #176 ) ;
#291 = VERTEX_POINT ( 'NONE', #376 ) ;
#292 = FACE_OUTER_BOUND ( 'NONE', #116, .T. ) ;
#293 = ORIENTED_EDGE ( 'NONE', *, *, #321, .F. ) ;
#294 = DIRECTION ( 'NONE',  ( -0.1626484622309660732, -0.9866840820312761107, 0.000000000000000000 ) ) ;
#295 = CARTESIAN_POINT ( 'NONE',  ( -5.175000173765362810, 12.44893515931079797, 20.00000000000000000 ) ) ;
#296 = VERTEX_POINT ( 'NONE', #108 ) ;
#297 = EDGE_CURVE ( 'NONE', #485, #433, #339, .T. ) ;
#298 = PLANE ( 'NONE',  #279 ) ;
#299 = VECTOR ( 'NONE', #206, 1000.000000000000000 ) ;
#300 = LINE ( 'NONE', #335, #309 ) ;
#301 = CARTESIAN_POINT ( 'NONE',  ( 0.000000000000000000, 12.44893540108035346, 3.000000000000000000 ) ) ;
#302 = ORIENTED_EDGE ( 'NONE', *, *, #518, .T. ) ;
#303 = DIRECTION ( 'NONE',  ( 0.000000000000000000, 0.000000000000000000, 1.000000000000000000 ) ) ;
#304 = DIRECTION ( 'NONE',  ( -0.1694349368497140851, -0.9855413751713995030, 0.000000000000000000 ) ) ;
#305 = ORIENTED_EDGE ( 'NONE', *, *, #361, .F. ) ;
#306 = ADVANCED_FACE ( 'NONE', ( #336 ), #344, .T. ) ;
#307 = DIRECTION ( 'NONE',  ( 0.9855413751713996140, 0.1694349368497140851, 0.000000000000000000 ) ) ;
#308 = ORIENTED_EDGE ( 'NONE', *, *, #236, .T. ) ;
#309 = VECTOR ( 'NONE', #431, 1000.000000000000114 ) ;
#310 = DIRECTION ( 'NONE',  ( -0.000000000000000000, -0.000000000000000000, -1.000000000000000000 ) ) ;
#311 = ORIENTED_EDGE ( 'NONE', *, *, #91, .F. ) ;
#312 = PLANE ( 'NONE',  #214 ) ;
#313 = ORIENTED_EDGE ( 'NONE', *, *, #52, .F. ) ;
#314 = PLANE ( 'NONE',  #380 ) ;
#315 = VERTEX_POINT ( 'NONE', #424 ) ;
#316 = AXIS2_PLACEMENT_3D ( 'NONE', #474, #72, #163 ) ;
#317 = EDGE_CURVE ( 'NONE', #296, #130, #434, .T. ) ;
#318 = CARTESIAN_POINT ( 'NONE',  ( -9.999999999999998224, 12.44893540108035346, 23.00000000000000000 ) ) ;
#319 = AXIS2_PLACEMENT_3D ( 'NONE', #159, #520, #115 ) ;
#320 = CARTESIAN_POINT ( 'NONE',  ( 0.000000000000000000, 12.44893540108035346, 3.000000000000000000 ) ) ;
#321 = EDGE_CURVE ( 'NONE', #224, #130, #82, .T. ) ;
#322 = DIRECTION ( 'NONE',  ( 1.000000000000000000, 0.000000000000000000, 0.000000000000000000 ) ) ;
#323 = ADVANCED_FACE ( 'NONE', ( #292 ), #389, .T. ) ;
#324 = CARTESIAN_POINT ( 'NONE',  ( 0.000000000000000000, 12.44893540108035346, 0.000000000000000000 ) ) ;
#325 = DIRECTION ( 'NONE',  ( 0.000000000000000000, 0.000000000000000000, 1.000000000000000000 ) ) ;
#326 = ORIENTED_EDGE ( 'NONE', *, *, #155, .T. ) ;
#327 = LINE ( 'NONE', #183, #503 ) ;
#328 = SURFACE_SIDE_STYLE ('',( #502 ) ) ;
#329 = EDGE_LOOP ( 'NONE', ( #528, #410, #182, #216 ) ) ;
#330 = DIRECTION ( 'NONE',  ( 1.000000000000000000, 0.000000000000000000, 0.000000000000000000 ) ) ;
#331 = CIRCLE ( 'NONE', #578, 5.174999999999999822 ) ;
#332 = VECTOR ( 'NONE', #190, 1000.000000000000000 ) ;
#333 = ORIENTED_EDGE ( 'NONE', *, *, #551, .F. ) ;
#334 = PRODUCT_CONTEXT ( 'NONE', #449, 'mechanical' ) ;
#335 = CARTESIAN_POINT ( 'NONE',  ( 4.978703498840332031, -18.01205550468136352, 0.000000000000000000 ) ) ;
#336 = FACE_OUTER_BOUND ( 'NONE', #448, .T. ) ;
#337 = EDGE_LOOP ( 'NONE', ( #22, #287, #46, #119, #489 ) ) ;
#338 = DIRECTION ( 'NONE',  ( 1.000000000000000000, 0.000000000000000000, 0.000000000000000000 ) ) ;
#339 = LINE ( 'NONE', #295, #165 ) ;
#340 = EDGE_CURVE ( 'NONE', #567, #25, #167, .T. ) ;
#341 = ORIENTED_EDGE ( 'NONE', *, *, #361, .T. ) ;
#342 = ADVANCED_FACE ( 'NONE', ( #24 ), #432, .T. ) ;
#343 =( LENGTH_UNIT ( ) NAMED_UNIT ( * ) SI_UNIT ( .MILLI., .METRE. ) );
#344 = PLANE ( 'NONE',  #437 ) ;
#345 = VECTOR ( 'NONE', #251, 1000.000000000000114 ) ;
#346 = ORIENTED_EDGE ( 'NONE', *, *, #217, .T. ) ;
#347 = DIRECTION ( 'NONE',  ( -0.000000000000000000, -0.000000000000000000, -1.000000000000000000 ) ) ;
#348 = CIRCLE ( 'NONE', #252, 4.999999999999999112 ) ;
#349 = VERTEX_POINT ( 'NONE', #522 ) ;
#350 = VECTOR ( 'NONE', #218, 1000.000000000000114 ) ;
#351 = EDGE_CURVE ( 'NONE', #494, #291, #210, .T. ) ;
#352 = CARTESIAN_POINT ( 'NONE',  ( 4.978703498840332031, -18.01205550468136352, 3.000000000000000000 ) ) ;
#353 = DIRECTION ( 'NONE',  ( 0.000000000000000000, 0.000000000000000000, 1.000000000000000000 ) ) ;
#354 = EDGE_LOOP ( 'NONE', ( #483, #208, #479, #326, #438, #247 ) ) ;
#355 = DIRECTION ( 'NONE',  ( 1.000000000000000000, 0.000000000000000000, 0.000000000000000000 ) ) ;
#356 = ORIENTED_EDGE ( 'NONE', *, *, #426, .T. ) ;
#357 = DIRECTION ( 'NONE',  ( 1.000000000000000000, 1.649741672092840823E-13, 0.000000000000000000 ) ) ;
#358 = CARTESIAN_POINT ( 'NONE',  ( 10.00000000000000000, 12.44893540108035346, 3.000000000000000000 ) ) ;
#359 = LINE ( 'NONE', #215, #466 ) ;
#360 = VERTEX_POINT ( 'NONE', #556 ) ;
#361 = EDGE_CURVE ( 'NONE', #458, #81, #104, .T. ) ;
#362 = ADVANCED_BREP_SHAPE_REPRESENTATION ( 'Laptop Stand', ( #231, #453 ), #577 ) ;
#363 = CARTESIAN_POINT ( 'NONE',  ( 0.000000000000000000, 12.44893540108035346, 20.00000000000000355 ) ) ;
#364 = AXIS2_PLACEMENT_3D ( 'NONE', #220, #189, #179 ) ;
#365 = VECTOR ( 'NONE', #228, 1000.000000000000000 ) ;
#366 = LINE ( 'NONE', #2, #412 ) ;
#367 = ADVANCED_FACE ( 'NONE', ( #470 ), #21, .F. ) ;
#368 = VECTOR ( 'NONE', #397, 1000.000000000000114 ) ;
#369 = LINE ( 'NONE', #49, #365 ) ;
#370 = EDGE_CURVE ( 'NONE', #164, #123, #428, .T. ) ;
#371 = DIRECTION ( 'NONE',  ( 0.000000000000000000, 0.000000000000000000, 1.000000000000000000 ) ) ;
#372 = ORIENTED_EDGE ( 'NONE', *, *, #79, .F. ) ;
#373 = DIRECTION ( 'NONE',  ( 0.1626484622309660455, 0.9866840820312761107, 0.000000000000000000 ) ) ;
#374 = DIRECTION ( 'NONE',  ( 0.000000000000000000, 0.000000000000000000, 1.000000000000000000 ) ) ;
#375 = UNCERTAINTY_MEASURE_WITH_UNIT (LENGTH_MEASURE( 1.000000000000000082E-05 ), #343, 'distance_accuracy_value', 'NONE');
#376 = CARTESIAN_POINT ( 'NONE',  ( -9.470909554678039299, 9.239282428077171261, 2.999999999999999112 ) ) ;
#377 = ORIENTED_EDGE ( 'NONE', *, *, #222, .T. ) ;
#378 = DIRECTION ( 'NONE',  ( -1.000000000000000000, 0.000000000000000000, 0.000000000000000000 ) ) ;
#379 = CARTESIAN_POINT ( 'NONE',  ( 0.01051512188436241543, -17.44893540108035879, 19.50000000000000000 ) ) ;
#380 = AXIS2_PLACEMENT_3D ( 'NONE', #283, #132, #461 ) ;
#381 = ORIENTED_EDGE ( 'NONE', *, *, #411, .F. ) ;
#382 = EDGE_CURVE ( 'NONE', #34, #494, #156, .T. ) ;
#383 = DIRECTION ( 'NONE',  ( 1.000000000000000000, 0.000000000000000000, 0.000000000000000000 ) ) ;
#384 = ORIENTED_EDGE ( 'NONE', *, *, #71, .T. ) ;
#385 = CARTESIAN_POINT ( 'NONE',  ( -10.00000000000000000, 12.44893540108035346, 0.000000000000000000 ) ) ;
#386 = CARTESIAN_POINT ( 'NONE',  ( 0.01051512188436241543, -17.44893540108035879, 3.000000000000000000 ) ) ;
#387 = ORIENTED_EDGE ( 'NONE', *, *, #160, .F. ) ;
#388 = FACE_OUTER_BOUND ( 'NONE', #469, .T. ) ;
#389 = PLANE ( 'NONE',  #316 ) ;
#390 = VECTOR ( 'NONE', #248, 1000.000000000000000 ) ;
#391 = ORIENTED_EDGE ( 'NONE', *, *, #47, .F. ) ;
#392 = AXIS2_PLACEMENT_3D ( 'NONE', #100, #241, #6 ) ;
#393 = CARTESIAN_POINT ( 'NONE',  ( 9.470909554678039299, 9.239282428077171261, 2.999999999999999112 ) ) ;
#394 = CARTESIAN_POINT ( 'NONE',  ( -5.175000173765362810, 12.44893515931079797, 20.00000000000000000 ) ) ;
#395 = ORIENTED_EDGE ( 'NONE', *, *, #177, .F. ) ;
#396 = CIRCLE ( 'NONE', #140, 9.999999999999998224 ) ;
#397 = DIRECTION ( 'NONE',  ( -0.1694349368497140851, 0.9855413751713995030, 0.000000000000000000 ) ) ;
#398 = ORIENTED_EDGE ( 'NONE', *, *, #402, .T. ) ;
#399 = CARTESIAN_POINT ( 'NONE',  ( -10.00000000000000000, 12.44893540108035346, 3.000000000000000000 ) ) ;
#400 = ORIENTED_EDGE ( 'NONE', *, *, #142, .T. ) ;
#401 = PRESENTATION_STYLE_ASSIGNMENT (( #13 ) ) ;
#402 = EDGE_CURVE ( 'NONE', #567, #291, #396, .T. ) ;
#403 = CARTESIAN_POINT ( 'NONE',  ( -6.483853396040712092, 4.835812219247322297, 20.00000000000000000 ) ) ;
#404 = PRODUCT_DEFINITION ( 'UNKNOWN', '', #223, #423 ) ;
#405 = ORIENTED_EDGE ( 'NONE', *, *, #139, .F. ) ;
#406 = VECTOR ( 'NONE', #373, 1000.000000000000114 ) ;
#407 = CARTESIAN_POINT ( 'NONE',  ( 0.01051512188436241543, -17.44893540108035879, 19.50000000000000000 ) ) ;
#408 = EDGE_LOOP ( 'NONE', ( #450, #19, #219, #194 ) ) ;
#409 = DIRECTION ( 'NONE',  ( -0.000000000000000000, -0.000000000000000000, 1.000000000000000000 ) ) ;
#410 = ORIENTED_EDGE ( 'NONE', *, *, #112, .F. ) ;
#411 = EDGE_CURVE ( 'NONE', #123, #315, #95, .T. ) ;
#412 = VECTOR ( 'NONE', #99, 1000.000000000000000 ) ;
#413 = DIRECTION ( 'NONE',  ( 0.000000000000000000, 0.000000000000000000, 1.000000000000000000 ) ) ;
#414 = PLANE ( 'NONE',  #153 ) ;
#415 = DIRECTION ( 'NONE',  ( 1.000000000000000000, 0.000000000000000000, 0.000000000000000000 ) ) ;
#416 = CARTESIAN_POINT ( 'NONE',  ( -10.00000000000000000, 12.44893540108035346, 3.000000000000000000 ) ) ;
#417 = EDGE_LOOP ( 'NONE', ( #514, #571, #106, #197 ) ) ;
#418 = CIRCLE ( 'NONE', #364, 9.999999751854053542 ) ;
#419 = AXIS2_PLACEMENT_3D ( 'NONE', #575, #443, #355 ) ;
#420 = CARTESIAN_POINT ( 'NONE',  ( 6.483853284257139471, 4.835812219247320520, 20.00000000000000000 ) ) ;
#421 = CARTESIAN_POINT ( 'NONE',  ( -10.00000000000000000, 12.44893540108035346, 3.000000000000000000 ) ) ;
#422 = ORIENTED_EDGE ( 'NONE', *, *, #217, .F. ) ;
#423 = PRODUCT_DEFINITION_CONTEXT ( 'detailed design', #26, 'design' ) ;
#424 = CARTESIAN_POINT ( 'NONE',  ( 9.999999999999998224, 12.44893540108035523, 23.00000000000000000 ) ) ;
#425 = ORIENTED_EDGE ( 'NONE', *, *, #529, .F. ) ;
#426 = EDGE_CURVE ( 'NONE', #548, #458, #187, .T. ) ;
#427 = EDGE_CURVE ( 'NONE', #494, #291, #525, .T. ) ;
#428 = LINE ( 'NONE', #61, #285 ) ;
#429 = ORIENTED_EDGE ( 'NONE', *, *, #79, .T. ) ;
#430 =( NAMED_UNIT ( * ) PLANE_ANGLE_UNIT ( ) SI_UNIT ( $, .RADIAN. ) );
#431 = DIRECTION ( 'NONE',  ( 0.1626484622309660455, 0.9866840820312761107, 0.000000000000000000 ) ) ;
#432 = CYLINDRICAL_SURFACE ( 'NONE', #462, 5.000000000000000888 ) ;
#433 = VERTEX_POINT ( 'NONE', #403 ) ;
#434 = LINE ( 'NONE', #558, #184 ) ;
#435 = ORIENTED_EDGE ( 'NONE', *, *, #321, .T. ) ;
#436 = CARTESIAN_POINT ( 'NONE',  ( 0.000000000000000000, 12.44893540108035346, 3.000000000000000000 ) ) ;
#437 = AXIS2_PLACEMENT_3D ( 'NONE', #379, #202, #255 ) ;
#438 = ORIENTED_EDGE ( 'NONE', *, *, #445, .F. ) ;
#439 = CIRCLE ( 'NONE', #186, 4.999999999999999112 ) ;
#440 = DIRECTION ( 'NONE',  ( 1.000000000000000000, 0.000000000000000000, 0.000000000000000000 ) ) ;
#441 = ORIENTED_EDGE ( 'NONE', *, *, #504, .T. ) ;
#442 = CIRCLE ( 'NONE', #419, 9.999999999999998224 ) ;
#443 = DIRECTION ( 'NONE',  ( 0.000000000000000000, 0.000000000000000000, 1.000000000000000000 ) ) ;
#444 = DIRECTION ( 'NONE',  ( 1.000000000000000000, 1.649741672092840823E-13, 0.000000000000000000 ) ) ;
#445 = EDGE_CURVE ( 'NONE', #494, #128, #359, .T. ) ;
#446 = EDGE_CURVE ( 'NONE', #360, #532, #530, .T. ) ;
#447 = DIRECTION ( 'NONE',  ( -0.000000000000000000, -0.000000000000000000, 1.000000000000000000 ) ) ;
#448 = EDGE_LOOP ( 'NONE', ( #263, #377 ) ) ;
#449 = APPLICATION_CONTEXT ( 'automotive_design' ) ;
#450 = ORIENTED_EDGE ( 'NONE', *, *, #47, .T. ) ;
#451 = PLANE ( 'NONE',  #260 ) ;
#452 = CARTESIAN_POINT ( 'NONE',  ( -10.00000000000000000, 12.44893540108035346, 0.000000000000000000 ) ) ;
#453 = AXIS2_PLACEMENT_3D ( 'NONE', #67, #515, #338 ) ;
#454 = DIRECTION ( 'NONE',  ( -0.000000000000000000, -0.000000000000000000, -1.000000000000000000 ) ) ;
#455 = CARTESIAN_POINT ( 'NONE',  ( 4.978703498840332919, -18.01205550468136352, 3.000000000000000000 ) ) ;
#456 = CARTESIAN_POINT ( 'NONE',  ( 5.174999999999999822, 12.44893540108035346, 20.00000000000000355 ) ) ;
#457 =( NAMED_UNIT ( * ) PLANE_ANGLE_UNIT ( ) SI_UNIT ( $, .RADIAN. ) );
#458 = VERTEX_POINT ( 'NONE', #36 ) ;
#459 = EDGE_CURVE ( 'NONE', #567, #25, #442, .T. ) ;
#460 = DIRECTION ( 'NONE',  ( -1.000000000000000000, 0.000000000000000000, 0.000000000000000000 ) ) ;
#461 = DIRECTION ( 'NONE',  ( -0.1694349368497140573, -0.9855413751713995030, 0.000000000000000000 ) ) ;
#462 = AXIS2_PLACEMENT_3D ( 'NONE', #29, #347, #204 ) ;
#463 = VECTOR ( 'NONE', #58, 1000.000000000000000 ) ;
#464 = DIRECTION ( 'NONE',  ( 1.000000000000000000, 0.000000000000000000, 0.000000000000000000 ) ) ;
#465 = ORIENTED_EDGE ( 'NONE', *, *, #427, .T. ) ;
#466 = VECTOR ( 'NONE', #262, 1000.000000000000000 ) ;
#467 = DIRECTION ( 'NONE',  ( 1.000000000000000000, 0.000000000000000000, 0.000000000000000000 ) ) ;
#468 = ADVANCED_FACE ( 'NONE', ( #126 ), #312, .T. ) ;
#469 = EDGE_LOOP ( 'NONE', ( #69, #395, #302, #249, #272, #38, #333, #435 ) ) ;
#470 = FACE_OUTER_BOUND ( 'NONE', #244, .T. ) ;
#471 = ORIENTED_EDGE ( 'NONE', *, *, #157, .T. ) ;
#472 = DIRECTION ( 'NONE',  ( 0.000000000000000000, 0.000000000000000000, 1.000000000000000000 ) ) ;
#473 = DIRECTION ( 'NONE',  ( 0.000000000000000000, 0.000000000000000000, 1.000000000000000000 ) ) ;
#474 = CARTESIAN_POINT ( 'NONE',  ( 0.000000000000000000, 12.44893540108035346, 3.000000000000000000 ) ) ;
#475 = VERTEX_POINT ( 'NONE', #491 ) ;
#476 = FACE_OUTER_BOUND ( 'NONE', #97, .T. ) ;
#477 = AXIS2_PLACEMENT_3D ( 'NONE', #240, #371, #538 ) ;
#478 = DIRECTION ( 'NONE',  ( 0.000000000000000000, 0.000000000000000000, 1.000000000000000000 ) ) ;
#479 = ORIENTED_EDGE ( 'NONE', *, *, #133, .T. ) ;
#480 = CARTESIAN_POINT ( 'NONE',  ( 4.978703498840332919, -18.01205550468136352, 3.000000000000000000 ) ) ;
#481 = PLANE ( 'NONE',  #496 ) ;
#482 = ADVANCED_FACE ( 'NONE', ( #80 ), #221, .F. ) ;
#483 = ORIENTED_EDGE ( 'NONE', *, *, #70, .F. ) ;
#484 = DIRECTION ( 'NONE',  ( 0.000000000000000000, 0.000000000000000000, 1.000000000000000000 ) ) ;
#485 = VERTEX_POINT ( 'NONE', #394 ) ;
#486 = CLOSED_SHELL ( 'NONE', ( #367, #342, #28, #468, #281, #92, #192, #562, #545, #30, #306, #572, #531, #230, #482, #323, #114, #511, #209 ) ) ;
#487 = VECTOR ( 'NONE', #409, 1000.000000000000000 ) ;
#488 = FACE_OUTER_BOUND ( 'NONE', #73, .T. ) ;
#489 = ORIENTED_EDGE ( 'NONE', *, *, #445, .T. ) ;
#490 = EDGE_CURVE ( 'NONE', #168, #62, #40, .T. ) ;
#491 = CARTESIAN_POINT ( 'NONE',  ( -4.957673255071607166, -18.01205550468135996, 0.000000000000000000 ) ) ;
#492 = ORIENTED_EDGE ( 'NONE', *, *, #91, .T. ) ;
#493 = CARTESIAN_POINT ( 'NONE',  ( 0.01051512188436241543, -17.44893540108035879, 3.000000000000000000 ) ) ;
#494 = VERTEX_POINT ( 'NONE', #45 ) ;
#495 = DIRECTION ( 'NONE',  ( 1.000000000000000000, 0.000000000000000000, -0.000000000000000000 ) ) ;
#496 = AXIS2_PLACEMENT_3D ( 'NONE', #436, #484, #83 ) ;
#497 = FACE_OUTER_BOUND ( 'NONE', #66, .T. ) ;
#498 = CARTESIAN_POINT ( 'NONE',  ( 0.01051512188436241543, -17.44893540108035879, 3.000000000000000000 ) ) ;
#499 = DIRECTION ( 'NONE',  ( 1.000000000000000000, 0.000000000000000000, 0.000000000000000000 ) ) ;
#500 = PRODUCT_DEFINITION_SHAPE ( 'NONE', 'NONE',  #404 ) ;
#501 = CARTESIAN_POINT ( 'NONE',  ( 0.000000000000000000, 12.44893540108035346, 0.000000000000000000 ) ) ;
#502 = SURFACE_STYLE_FILL_AREA ( #146 ) ;
#503 = VECTOR ( 'NONE', #282, 1000.000000000000114 ) ;
#504 = EDGE_CURVE ( 'NONE', #164, #81, #124, .T. ) ;
#505 = EDGE_CURVE ( 'NONE', #360, #125, #570, .T. ) ;
#506 = CARTESIAN_POINT ( 'NONE',  ( -6.483853396040712092, 4.835812219247322297, 23.00000000000000000 ) ) ;
#507 = PLANE ( 'NONE',  #392 ) ;
#508 = ORIENTED_EDGE ( 'NONE', *, *, #8, .F. ) ;
#509 =( GEOMETRIC_REPRESENTATION_CONTEXT ( 3 ) GLOBAL_UNCERTAINTY_ASSIGNED_CONTEXT ( ( #64 ) ) GLOBAL_UNIT_ASSIGNED_CONTEXT ( ( #268, #457, #225 ) ) REPRESENTATION_CONTEXT ( 'NONE', 'WORKASPACE' ) );
#510 = VECTOR ( 'NONE', #444, 1000.000000000000000 ) ;
#511 = ADVANCED_FACE ( 'NONE', ( #181 ), #172, .F. ) ;
#512 = AXIS2_PLACEMENT_3D ( 'NONE', #195, #535, #271 ) ;
#513 = CARTESIAN_POINT ( 'NONE',  ( 0.000000000000000000, 12.44893540108035346, 23.00000000000000000 ) ) ;
#514 = ORIENTED_EDGE ( 'NONE', *, *, #529, .T. ) ;
#515 = DIRECTION ( 'NONE',  ( 0.000000000000000000, 0.000000000000000000, 1.000000000000000000 ) ) ;
#516 = VECTOR ( 'NONE', #43, 1000.000000000000000 ) ;
#517 = DIRECTION ( 'NONE',  ( -0.000000000000000000, -0.000000000000000000, -1.000000000000000000 ) ) ;
#518 = EDGE_CURVE ( 'NONE', #576, #191, #174, .T. ) ;
#519 = ORIENTED_EDGE ( 'NONE', *, *, #264, .F. ) ;
#520 = DIRECTION ( 'NONE',  ( -0.000000000000000000, -0.000000000000000000, -1.000000000000000000 ) ) ;
#521 = ORIENTED_EDGE ( 'NONE', *, *, #426, .F. ) ;
#522 = CARTESIAN_POINT ( 'NONE',  ( 4.978703498840332919, -18.01205550468136352, 0.000000000000000000 ) ) ;
#523 = ORIENTED_EDGE ( 'NONE', *, *, #155, .F. ) ;
#524 = APPLICATION_PROTOCOL_DEFINITION ( 'draft international standard', 'automotive_design', 1998, #26 ) ;
#525 = LINE ( 'NONE', #399, #350 ) ;
#526 = ORIENTED_EDGE ( 'NONE', *, *, #340, .F. ) ;
#527 = CARTESIAN_POINT ( 'NONE',  ( 6.483853284257139471, 4.835812219247322297, 20.00000000000000000 ) ) ;
#528 = ORIENTED_EDGE ( 'NONE', *, *, #8, .T. ) ;
#529 = EDGE_CURVE ( 'NONE', #62, #78, #536, .T. ) ;
#530 = LINE ( 'NONE', #533, #63 ) ;
#531 = ADVANCED_FACE ( 'NONE', ( #488 ), #481, .F. ) ;
#532 = VERTEX_POINT ( 'NONE', #86 ) ;
#533 = CARTESIAN_POINT ( 'NONE',  ( -4.978703498840332031, -18.01205550468136352, 3.000000000000000000 ) ) ;
#534 = FACE_OUTER_BOUND ( 'NONE', #354, .T. ) ;
#535 = DIRECTION ( 'NONE',  ( -1.649741672092840319E-13, 1.000000000000000000, 0.000000000000000000 ) ) ;
#536 = LINE ( 'NONE', #134, #16 ) ;
#537 = ORIENTED_EDGE ( 'NONE', *, *, #490, .T. ) ;
#538 = DIRECTION ( 'NONE',  ( 1.000000000000000000, 0.000000000000000000, 0.000000000000000000 ) ) ;
#539 = STYLED_ITEM ( 'NONE', ( #401 ), #231 ) ;
#540 = PLANE ( 'NONE',  #84 ) ;
#541 = CARTESIAN_POINT ( 'NONE',  ( -4.978703498840332031, -18.01205550468136352, 0.000000000000000000 ) ) ;
#542 = EDGE_CURVE ( 'NONE', #475, #349, #243, .T. ) ;
#543 = LINE ( 'NONE', #277, #233 ) ;
#544 = LINE ( 'NONE', #150, #463 ) ;
#545 = ADVANCED_FACE ( 'NONE', ( #476 ), #154, .F. ) ;
#546 = CARTESIAN_POINT ( 'NONE',  ( 0.000000000000000000, 12.44893540108035346, 2.999999999999999112 ) ) ;
#547 = DIRECTION ( 'NONE',  ( 1.000000000000000000, 0.000000000000000000, 0.000000000000000000 ) ) ;
#548 = VERTEX_POINT ( 'NONE', #23 ) ;
#549 = CARTESIAN_POINT ( 'NONE',  ( -4.989484878115636235, -17.44893540108035879, 3.000000000000000000 ) ) ;
#550 = FACE_OUTER_BOUND ( 'NONE', #417, .T. ) ;
#551 = EDGE_CURVE ( 'NONE', #224, #349, #117, .T. ) ;
#552 = DIRECTION ( 'NONE',  ( -0.000000000000000000, -0.000000000000000000, -1.000000000000000000 ) ) ;
#553 = EDGE_LOOP ( 'NONE', ( #429, #398, #50, #574, #519, #147, #293 ) ) ;
#554 =( NAMED_UNIT ( * ) SI_UNIT ( $, .STERADIAN. ) SOLID_ANGLE_UNIT ( ) );
#555 = AXIS2_PLACEMENT_3D ( 'NONE', #324, #473, #288 ) ;
#556 = CARTESIAN_POINT ( 'NONE',  ( -4.978703498840332031, -18.01205550468136352, 3.000000000000000000 ) ) ;
#557 = ORIENTED_EDGE ( 'NONE', *, *, #222, .F. ) ;
#558 = CARTESIAN_POINT ( 'NONE',  ( 5.010515121884361989, -17.44893540108035879, 3.000000000000000000 ) ) ;
#559 = ORIENTED_EDGE ( 'NONE', *, *, #542, .F. ) ;
#560 = DIRECTION ( 'NONE',  ( 0.1626484622309660455, -0.9866840820312761107, 0.000000000000000000 ) ) ;
#561 = FACE_OUTER_BOUND ( 'NONE', #227, .T. ) ;
#562 = ADVANCED_FACE ( 'NONE', ( #388 ), #564, .T. ) ;
#563 = ORIENTED_EDGE ( 'NONE', *, *, #490, .F. ) ;
#564 = CYLINDRICAL_SURFACE ( 'NONE', #127, 5.000000000000000888 ) ;
#565 = AXIS2_PLACEMENT_3D ( 'NONE', #301, #478, #246 ) ;
#566 = CARTESIAN_POINT ( 'NONE',  ( 4.978703498840332031, -18.01205550468136352, 3.000000000000000000 ) ) ;
#567 = VERTEX_POINT ( 'NONE', #393 ) ;
#568 = DIRECTION ( 'NONE',  ( 1.000000000000000000, 0.000000000000000000, -0.000000000000000000 ) ) ;
#569 = AXIS2_PLACEMENT_3D ( 'NONE', #266, #472, #378 ) ;
#570 = LINE ( 'NONE', #579, #516 ) ;
#571 = ORIENTED_EDGE ( 'NONE', *, *, #142, .F. ) ;
#572 = ADVANCED_FACE ( 'NONE', ( #32 ), #298, .F. ) ;
#573 = DIRECTION ( 'NONE',  ( -0.1694349368497140573, 0.9855413751713995030, 0.000000000000000000 ) ) ;
#574 = ORIENTED_EDGE ( 'NONE', *, *, #446, .T. ) ;
#575 = CARTESIAN_POINT ( 'NONE',  ( 0.000000000000000000, 12.44893540108035346, 3.000000000000000000 ) ) ;
#576 = VERTEX_POINT ( 'NONE', #75 ) ;
#577 =( GEOMETRIC_REPRESENTATION_CONTEXT ( 3 ) GLOBAL_UNCERTAINTY_ASSIGNED_CONTEXT ( ( #375 ) ) GLOBAL_UNIT_ASSIGNED_CONTEXT ( ( #343, #430, #554 ) ) REPRESENTATION_CONTEXT ( 'NONE', 'WORKASPACE' ) );
#578 = AXIS2_PLACEMENT_3D ( 'NONE', #546, #1, #415 ) ;
#579 = CARTESIAN_POINT ( 'NONE',  ( -4.978703498840332031, -18.01205550468136352, 3.000000000000000000 ) ) ;
#580 = ORIENTED_EDGE ( 'NONE', *, *, #518, .F. ) ;
ENDSEC;
END-ISO-10303-21;
