ISO-10303-21;
HEADER;
/* Generated by software containing ST-Developer
 * from STEP Tools, Inc. (www.steptools.com) 
 */
/* OPTION: strings as raw bytes, not using required /X/ escapes */

FILE_DESCRIPTION(
/* description */ ('blaze/ace-Adapter AMA'),
/* implementation_level */ '2;1');

FILE_NAME(
/* name */ 'blaze_ace_adapter',
/* time_stamp */ '2021-02-02T18:09:45+01:00',
/* author */ (''),
/* organization */ ('Basler AG'),
/* preprocessor_version */ '',
/* originating_system */ '',
/* authorisation */ $);

FILE_SCHEMA (('AUTOMOTIVE_DESIGN {1 0 10303 214 3 1 1}'));
ENDSEC;

DATA;
#10=PROPERTY_DEFINITION_REPRESENTATION(#14,#12);
#11=PROPERTY_DEFINITION_REPRESENTATION(#15,#13);
#12=REPRESENTATION('',(#16),#2161);
#13=REPRESENTATION('',(#17),#2161);
#14=PROPERTY_DEFINITION('pmi validation property','',#2166);
#15=PROPERTY_DEFINITION('pmi validation property','',#2166);
#16=VALUE_REPRESENTATION_ITEM('number of annotations',COUNT_MEASURE(0.));
#17=VALUE_REPRESENTATION_ITEM('number of views',COUNT_MEASURE(0.));
#18=SHAPE_REPRESENTATION_RELATIONSHIP('','',#1211,#19);
#19=ADVANCED_BREP_SHAPE_REPRESENTATION('',(#1209),#2161);
#20=(
BOUNDED_SURFACE()
B_SPLINE_SURFACE(3,2,((#2106,#2107,#2108),(#2109,#2110,#2111),(#2112,#2113,
#2114),(#2115,#2116,#2117),(#2118,#2119,#2120)),.UNSPECIFIED.,.F.,.F.,.F.)
B_SPLINE_SURFACE_WITH_KNOTS((4,1,4),(3,3),(0.,0.785398163397448,1.5707963267949),
(0.,1.),.UNSPECIFIED.)
GEOMETRIC_REPRESENTATION_ITEM()
RATIONAL_B_SPLINE_SURFACE(((1.,0.739532006316253,1.),(1.,0.73953200631573,
1.),(1.,0.732706836882644,1.),(1.,0.715790319828064,1.),(1.,0.707106781186548,
1.)))
REPRESENTATION_ITEM('')
SURFACE()
);
#21=SPHERICAL_SURFACE('',#1319,2.25);
#22=SPHERICAL_SURFACE('',#1330,2.25);
#23=SPHERICAL_SURFACE('',#1344,2.25);
#24=SPHERICAL_SURFACE('',#1351,2.25);
#25=TOROIDAL_SURFACE('',#1285,5.75,2.25);
#26=TOROIDAL_SURFACE('',#1289,5.75,2.25);
#27=TOROIDAL_SURFACE('',#1295,5.75,2.25);
#28=TOROIDAL_SURFACE('',#1299,5.75,2.25);
#29=TOROIDAL_SURFACE('',#1332,4.5,2.25);
#30=TOROIDAL_SURFACE('',#1355,14.5,1.);
#31=B_SPLINE_CURVE_WITH_KNOTS('',3,(#1847,#1848,#1849,#1850,#1851,#1852,
#1853,#1854,#1855,#1856,#1857,#1858,#1859,#1860,#1861,#1862),
 .UNSPECIFIED.,.F.,.F.,(4,1,1,1,1,1,1,1,1,1,1,1,1,4),(4.33680868994202E-19,
0.00250054181960084,0.00500108363920167,0.00625135454900209,0.00750162545880251,
0.00875189636860293,0.0100021672784033,0.0112524381882038,0.0125027090980042,
0.0137529800078046,0.015003250917605,0.0162535218274054,0.0175037927372059,
0.0200043345568067),.UNSPECIFIED.);
#32=B_SPLINE_CURVE_WITH_KNOTS('',3,(#1879,#1880,#1881,#1882,#1883,#1884,
#1885,#1886,#1887,#1888,#1889,#1890,#1891,#1892,#1893,#1894),
 .UNSPECIFIED.,.F.,.F.,(4,1,1,1,1,1,1,1,1,1,1,1,1,4),(0.,0.00250054181960084,
0.00500108363920167,0.00625135454900209,0.00750162545880251,0.00875189636860292,
0.0100021672784033,0.0112524381882038,0.0125027090980042,0.0137529800078046,
0.015003250917605,0.0162535218274054,0.0175037927372058,0.0200043345568067),
 .UNSPECIFIED.);
#33=B_SPLINE_CURVE_WITH_KNOTS('',3,(#1947,#1948,#1949,#1950,#1951,#1952),
 .UNSPECIFIED.,.F.,.F.,(4,1,1,4),(8.67361737988404E-19,0.00242391007631193,
0.0036358651144679,0.00484782015262387),.UNSPECIFIED.);
#34=B_SPLINE_CURVE_WITH_KNOTS('',3,(#1960,#1961,#1962,#1963,#1964,#1965),
 .UNSPECIFIED.,.F.,.F.,(4,1,1,4),(0.000591668772192457,0.001815262972397,
0.00303885717260154,0.00548604557301061),.UNSPECIFIED.);
#35=B_SPLINE_CURVE_WITH_KNOTS('',3,(#1971,#1972,#1973,#1974,#1975,#1976,
#1977,#1978,#1979,#1980,#1981,#1982,#1983),.UNSPECIFIED.,.F.,.F.,(4,1,1,
1,1,1,1,1,1,1,4),(-0.00540031538954404,-0.00472505304359919,-0.00404979069765434,
-0.00269926600576463,-0.00134874131387493,1.78337801476792E-6,0.00135230806990447,
0.00270283276179417,0.00405335745368387,0.00472861979962872,0.00540388214557357),
 .UNSPECIFIED.);
#36=B_SPLINE_CURVE_WITH_KNOTS('',3,(#2093,#2094,#2095,#2096),
 .UNSPECIFIED.,.F.,.F.,(4,4),(1.85266518096569E-16,0.000666023080382315),
 .UNSPECIFIED.);
#37=B_SPLINE_CURVE_WITH_KNOTS('',3,(#2123,#2124,#2125,#2126,#2127,#2128,
#2129),.UNSPECIFIED.,.F.,.F.,(4,1,1,1,4),(0.,0.000904465417592997,0.00180893083518599,
0.00271339625277899,0.00361786167037199),.UNSPECIFIED.);
#38=B_SPLINE_CURVE_WITH_KNOTS('',3,(#2145,#2146,#2147,#2148),
 .UNSPECIFIED.,.F.,.F.,(4,4),(0.,0.000666023080382723),.UNSPECIFIED.);
#39=B_SPLINE_CURVE_WITH_KNOTS('',3,(#2150,#2151,#2152,#2153),
 .UNSPECIFIED.,.F.,.F.,(4,4),(1.48214838758361E-17,0.000512945786520303),
 .UNSPECIFIED.);
#40=B_SPLINE_CURVE_WITH_KNOTS('',3,(#2154,#2155,#2156,#2157),
 .UNSPECIFIED.,.F.,.F.,(4,4),(1.00628615961926E-15,0.000512945786519406),
 .UNSPECIFIED.);
#41=CYLINDRICAL_SURFACE('',#1223,1.7);
#42=CYLINDRICAL_SURFACE('',#1226,1.7);
#43=CYLINDRICAL_SURFACE('',#1229,1.7);
#44=CYLINDRICAL_SURFACE('',#1242,8.);
#45=CYLINDRICAL_SURFACE('',#1245,8.);
#46=CYLINDRICAL_SURFACE('',#1263,15.5);
#47=CYLINDRICAL_SURFACE('',#1268,2.15);
#48=CYLINDRICAL_SURFACE('',#1270,2.15);
#49=CYLINDRICAL_SURFACE('',#1276,4.25);
#50=CYLINDRICAL_SURFACE('',#1279,4.25);
#51=CYLINDRICAL_SURFACE('',#1282,2.25);
#52=CYLINDRICAL_SURFACE('',#1287,2.25);
#53=CYLINDRICAL_SURFACE('',#1291,2.25);
#54=CYLINDRICAL_SURFACE('',#1293,2.25);
#55=CYLINDRICAL_SURFACE('',#1297,2.25);
#56=CYLINDRICAL_SURFACE('',#1301,2.25);
#57=CYLINDRICAL_SURFACE('',#1302,3.25);
#58=CYLINDRICAL_SURFACE('',#1305,3.25);
#59=CYLINDRICAL_SURFACE('',#1308,3.25);
#60=CYLINDRICAL_SURFACE('',#1317,2.25);
#61=CYLINDRICAL_SURFACE('',#1322,2.25);
#62=CYLINDRICAL_SURFACE('',#1324,2.25);
#63=CYLINDRICAL_SURFACE('',#1326,2.25);
#64=CYLINDRICAL_SURFACE('',#1328,2.25);
#65=CYLINDRICAL_SURFACE('',#1334,2.25);
#66=CYLINDRICAL_SURFACE('',#1336,2.25);
#67=CYLINDRICAL_SURFACE('',#1339,2.25);
#68=CYLINDRICAL_SURFACE('',#1340,2.25);
#69=CYLINDRICAL_SURFACE('',#1342,2.25);
#70=CYLINDRICAL_SURFACE('',#1346,2.25);
#71=CYLINDRICAL_SURFACE('',#1347,2.25);
#72=CYLINDRICAL_SURFACE('',#1349,2.25);
#73=CYLINDRICAL_SURFACE('',#1353,2.25);
#74=CYLINDRICAL_SURFACE('',#1354,2.25);
#75=CYLINDRICAL_SURFACE('',#1356,1.);
#76=CYLINDRICAL_SURFACE('',#1357,1.);
#77=ELLIPSE('',#1216,4.51993458103808,4.5);
#78=ELLIPSE('',#1273,3.26439719741639,3.25);
#79=ELLIPSE('',#1274,3.26439719741639,3.25);
#80=ELLIPSE('',#1275,3.26439719741639,3.25);
#81=ELLIPSE('',#1335,2.28960883490257,2.25);
#82=CIRCLE('',#1214,2.25);
#83=CIRCLE('',#1217,2.25);
#84=CIRCLE('',#1218,5.75);
#85=CIRCLE('',#1219,5.75);
#86=CIRCLE('',#1220,2.25);
#87=CIRCLE('',#1221,15.5);
#88=CIRCLE('',#1222,4.5);
#89=CIRCLE('',#1224,1.7);
#90=CIRCLE('',#1225,1.7);
#91=CIRCLE('',#1227,1.7);
#92=CIRCLE('',#1228,1.7);
#93=CIRCLE('',#1230,1.7);
#94=CIRCLE('',#1231,1.7);
#95=CIRCLE('',#1233,2.25);
#96=CIRCLE('',#1234,2.25);
#97=CIRCLE('',#1235,2.25);
#98=CIRCLE('',#1236,2.25);
#99=CIRCLE('',#1237,2.25);
#100=CIRCLE('',#1238,2.25);
#101=CIRCLE('',#1239,2.15);
#102=CIRCLE('',#1243,8.);
#103=CIRCLE('',#1244,8.);
#104=CIRCLE('',#1246,8.);
#105=CIRCLE('',#1247,8.);
#106=CIRCLE('',#1249,15.5);
#107=CIRCLE('',#1251,2.25);
#108=CIRCLE('',#1252,2.25);
#109=CIRCLE('',#1253,2.15);
#110=CIRCLE('',#1255,2.25);
#111=CIRCLE('',#1257,5.75);
#112=CIRCLE('',#1258,15.5);
#113=CIRCLE('',#1259,5.75);
#114=CIRCLE('',#1261,4.25);
#115=CIRCLE('',#1262,4.25);
#116=CIRCLE('',#1264,15.5);
#117=CIRCLE('',#1269,2.15);
#118=CIRCLE('',#1271,2.15);
#119=CIRCLE('',#1277,4.25);
#120=CIRCLE('',#1280,4.25);
#121=CIRCLE('',#1283,2.25);
#122=CIRCLE('',#1284,2.25);
#123=CIRCLE('',#1286,2.25);
#124=CIRCLE('',#1288,2.25);
#125=CIRCLE('',#1290,2.25);
#126=CIRCLE('',#1292,2.25);
#127=CIRCLE('',#1294,2.25);
#128=CIRCLE('',#1296,2.25);
#129=CIRCLE('',#1298,2.25);
#130=CIRCLE('',#1300,2.25);
#131=CIRCLE('',#1303,3.25);
#132=CIRCLE('',#1306,3.25);
#133=CIRCLE('',#1309,3.25);
#134=CIRCLE('',#1318,2.25);
#135=CIRCLE('',#1320,2.25);
#136=CIRCLE('',#1321,2.25);
#137=CIRCLE('',#1323,2.25);
#138=CIRCLE('',#1325,2.25);
#139=CIRCLE('',#1327,2.25);
#140=CIRCLE('',#1329,2.25);
#141=CIRCLE('',#1331,2.25);
#142=CIRCLE('',#1333,2.25);
#143=CIRCLE('',#1337,2.25);
#144=CIRCLE('',#1338,2.25);
#145=CIRCLE('',#1341,2.25);
#146=CIRCLE('',#1343,2.25);
#147=CIRCLE('',#1345,2.25);
#148=CIRCLE('',#1348,2.25);
#149=CIRCLE('',#1350,2.25);
#150=CIRCLE('',#1352,2.25);
#151=ORIENTED_EDGE('',*,*,#481,.F.);
#152=ORIENTED_EDGE('',*,*,#482,.T.);
#153=ORIENTED_EDGE('',*,*,#483,.T.);
#154=ORIENTED_EDGE('',*,*,#484,.F.);
#155=ORIENTED_EDGE('',*,*,#485,.T.);
#156=ORIENTED_EDGE('',*,*,#486,.T.);
#157=ORIENTED_EDGE('',*,*,#487,.T.);
#158=ORIENTED_EDGE('',*,*,#488,.F.);
#159=ORIENTED_EDGE('',*,*,#489,.T.);
#160=ORIENTED_EDGE('',*,*,#490,.T.);
#161=ORIENTED_EDGE('',*,*,#491,.T.);
#162=ORIENTED_EDGE('',*,*,#492,.T.);
#163=ORIENTED_EDGE('',*,*,#493,.T.);
#164=ORIENTED_EDGE('',*,*,#494,.T.);
#165=ORIENTED_EDGE('',*,*,#495,.T.);
#166=ORIENTED_EDGE('',*,*,#496,.F.);
#167=ORIENTED_EDGE('',*,*,#497,.T.);
#168=ORIENTED_EDGE('',*,*,#498,.T.);
#169=ORIENTED_EDGE('',*,*,#499,.F.);
#170=ORIENTED_EDGE('',*,*,#500,.T.);
#171=ORIENTED_EDGE('',*,*,#501,.T.);
#172=ORIENTED_EDGE('',*,*,#502,.T.);
#173=ORIENTED_EDGE('',*,*,#503,.F.);
#174=ORIENTED_EDGE('',*,*,#504,.T.);
#175=ORIENTED_EDGE('',*,*,#505,.F.);
#176=ORIENTED_EDGE('',*,*,#506,.T.);
#177=ORIENTED_EDGE('',*,*,#507,.F.);
#178=ORIENTED_EDGE('',*,*,#508,.T.);
#179=ORIENTED_EDGE('',*,*,#509,.F.);
#180=ORIENTED_EDGE('',*,*,#510,.T.);
#181=ORIENTED_EDGE('',*,*,#511,.T.);
#182=ORIENTED_EDGE('',*,*,#512,.T.);
#183=ORIENTED_EDGE('',*,*,#513,.T.);
#184=ORIENTED_EDGE('',*,*,#514,.T.);
#185=ORIENTED_EDGE('',*,*,#515,.T.);
#186=ORIENTED_EDGE('',*,*,#516,.T.);
#187=ORIENTED_EDGE('',*,*,#517,.T.);
#188=ORIENTED_EDGE('',*,*,#518,.T.);
#189=ORIENTED_EDGE('',*,*,#519,.T.);
#190=ORIENTED_EDGE('',*,*,#520,.T.);
#191=ORIENTED_EDGE('',*,*,#484,.T.);
#192=ORIENTED_EDGE('',*,*,#521,.F.);
#193=ORIENTED_EDGE('',*,*,#522,.T.);
#194=ORIENTED_EDGE('',*,*,#523,.F.);
#195=ORIENTED_EDGE('',*,*,#524,.T.);
#196=ORIENTED_EDGE('',*,*,#525,.T.);
#197=ORIENTED_EDGE('',*,*,#526,.T.);
#198=ORIENTED_EDGE('',*,*,#527,.T.);
#199=ORIENTED_EDGE('',*,*,#528,.T.);
#200=ORIENTED_EDGE('',*,*,#529,.T.);
#201=ORIENTED_EDGE('',*,*,#513,.F.);
#202=ORIENTED_EDGE('',*,*,#530,.T.);
#203=ORIENTED_EDGE('',*,*,#531,.T.);
#204=ORIENTED_EDGE('',*,*,#532,.T.);
#205=ORIENTED_EDGE('',*,*,#486,.F.);
#206=ORIENTED_EDGE('',*,*,#533,.T.);
#207=ORIENTED_EDGE('',*,*,#534,.F.);
#208=ORIENTED_EDGE('',*,*,#535,.F.);
#209=ORIENTED_EDGE('',*,*,#536,.F.);
#210=ORIENTED_EDGE('',*,*,#537,.T.);
#211=ORIENTED_EDGE('',*,*,#538,.F.);
#212=ORIENTED_EDGE('',*,*,#539,.T.);
#213=ORIENTED_EDGE('',*,*,#540,.F.);
#214=ORIENTED_EDGE('',*,*,#541,.T.);
#215=ORIENTED_EDGE('',*,*,#542,.F.);
#216=ORIENTED_EDGE('',*,*,#543,.F.);
#217=ORIENTED_EDGE('',*,*,#517,.F.);
#218=ORIENTED_EDGE('',*,*,#544,.T.);
#219=ORIENTED_EDGE('',*,*,#545,.T.);
#220=ORIENTED_EDGE('',*,*,#546,.T.);
#221=ORIENTED_EDGE('',*,*,#547,.F.);
#222=ORIENTED_EDGE('',*,*,#548,.T.);
#223=ORIENTED_EDGE('',*,*,#549,.T.);
#224=ORIENTED_EDGE('',*,*,#550,.T.);
#225=ORIENTED_EDGE('',*,*,#551,.T.);
#226=ORIENTED_EDGE('',*,*,#499,.T.);
#227=ORIENTED_EDGE('',*,*,#552,.F.);
#228=ORIENTED_EDGE('',*,*,#553,.T.);
#229=ORIENTED_EDGE('',*,*,#554,.T.);
#230=ORIENTED_EDGE('',*,*,#555,.F.);
#231=ORIENTED_EDGE('',*,*,#556,.T.);
#232=ORIENTED_EDGE('',*,*,#540,.T.);
#233=ORIENTED_EDGE('',*,*,#557,.T.);
#234=ORIENTED_EDGE('',*,*,#548,.F.);
#235=ORIENTED_EDGE('',*,*,#558,.F.);
#236=ORIENTED_EDGE('',*,*,#559,.T.);
#237=ORIENTED_EDGE('',*,*,#560,.T.);
#238=ORIENTED_EDGE('',*,*,#561,.T.);
#239=ORIENTED_EDGE('',*,*,#519,.F.);
#240=ORIENTED_EDGE('',*,*,#562,.T.);
#241=ORIENTED_EDGE('',*,*,#563,.T.);
#242=ORIENTED_EDGE('',*,*,#564,.T.);
#243=ORIENTED_EDGE('',*,*,#550,.F.);
#244=ORIENTED_EDGE('',*,*,#565,.T.);
#245=ORIENTED_EDGE('',*,*,#566,.T.);
#246=ORIENTED_EDGE('',*,*,#567,.T.);
#247=ORIENTED_EDGE('',*,*,#534,.T.);
#248=ORIENTED_EDGE('',*,*,#568,.T.);
#249=ORIENTED_EDGE('',*,*,#538,.T.);
#250=ORIENTED_EDGE('',*,*,#569,.T.);
#251=ORIENTED_EDGE('',*,*,#542,.T.);
#252=ORIENTED_EDGE('',*,*,#570,.T.);
#253=ORIENTED_EDGE('',*,*,#536,.T.);
#254=ORIENTED_EDGE('',*,*,#571,.T.);
#255=ORIENTED_EDGE('',*,*,#572,.T.);
#256=ORIENTED_EDGE('',*,*,#573,.T.);
#257=ORIENTED_EDGE('',*,*,#574,.T.);
#258=ORIENTED_EDGE('',*,*,#575,.T.);
#259=ORIENTED_EDGE('',*,*,#576,.T.);
#260=ORIENTED_EDGE('',*,*,#501,.F.);
#261=ORIENTED_EDGE('',*,*,#577,.T.);
#262=ORIENTED_EDGE('',*,*,#563,.F.);
#263=ORIENTED_EDGE('',*,*,#578,.F.);
#264=ORIENTED_EDGE('',*,*,#545,.F.);
#265=ORIENTED_EDGE('',*,*,#551,.F.);
#266=ORIENTED_EDGE('',*,*,#564,.F.);
#267=ORIENTED_EDGE('',*,*,#577,.F.);
#268=ORIENTED_EDGE('',*,*,#500,.F.);
#269=ORIENTED_EDGE('',*,*,#578,.T.);
#270=ORIENTED_EDGE('',*,*,#562,.F.);
#271=ORIENTED_EDGE('',*,*,#518,.F.);
#272=ORIENTED_EDGE('',*,*,#546,.F.);
#273=ORIENTED_EDGE('',*,*,#505,.T.);
#274=ORIENTED_EDGE('',*,*,#507,.T.);
#275=ORIENTED_EDGE('',*,*,#509,.T.);
#276=ORIENTED_EDGE('',*,*,#579,.T.);
#277=ORIENTED_EDGE('',*,*,#580,.T.);
#278=ORIENTED_EDGE('',*,*,#581,.T.);
#279=ORIENTED_EDGE('',*,*,#515,.F.);
#280=ORIENTED_EDGE('',*,*,#582,.T.);
#281=ORIENTED_EDGE('',*,*,#583,.T.);
#282=ORIENTED_EDGE('',*,*,#584,.T.);
#283=ORIENTED_EDGE('',*,*,#585,.T.);
#284=ORIENTED_EDGE('',*,*,#586,.F.);
#285=ORIENTED_EDGE('',*,*,#554,.F.);
#286=ORIENTED_EDGE('',*,*,#587,.F.);
#287=ORIENTED_EDGE('',*,*,#525,.F.);
#288=ORIENTED_EDGE('',*,*,#588,.T.);
#289=ORIENTED_EDGE('',*,*,#511,.F.);
#290=ORIENTED_EDGE('',*,*,#589,.T.);
#291=ORIENTED_EDGE('',*,*,#590,.T.);
#292=ORIENTED_EDGE('',*,*,#591,.T.);
#293=ORIENTED_EDGE('',*,*,#592,.T.);
#294=ORIENTED_EDGE('',*,*,#593,.T.);
#295=ORIENTED_EDGE('',*,*,#594,.T.);
#296=ORIENTED_EDGE('',*,*,#595,.T.);
#297=ORIENTED_EDGE('',*,*,#543,.T.);
#298=ORIENTED_EDGE('',*,*,#569,.F.);
#299=ORIENTED_EDGE('',*,*,#586,.T.);
#300=ORIENTED_EDGE('',*,*,#595,.F.);
#301=ORIENTED_EDGE('',*,*,#596,.T.);
#302=ORIENTED_EDGE('',*,*,#535,.T.);
#303=ORIENTED_EDGE('',*,*,#571,.F.);
#304=ORIENTED_EDGE('',*,*,#587,.T.);
#305=ORIENTED_EDGE('',*,*,#596,.F.);
#306=ORIENTED_EDGE('',*,*,#597,.F.);
#307=ORIENTED_EDGE('',*,*,#487,.F.);
#308=ORIENTED_EDGE('',*,*,#598,.F.);
#309=ORIENTED_EDGE('',*,*,#491,.F.);
#310=ORIENTED_EDGE('',*,*,#598,.T.);
#311=ORIENTED_EDGE('',*,*,#537,.F.);
#312=ORIENTED_EDGE('',*,*,#599,.F.);
#313=ORIENTED_EDGE('',*,*,#492,.F.);
#314=ORIENTED_EDGE('',*,*,#599,.T.);
#315=ORIENTED_EDGE('',*,*,#570,.F.);
#316=ORIENTED_EDGE('',*,*,#600,.F.);
#317=ORIENTED_EDGE('',*,*,#493,.F.);
#318=ORIENTED_EDGE('',*,*,#600,.T.);
#319=ORIENTED_EDGE('',*,*,#541,.F.);
#320=ORIENTED_EDGE('',*,*,#601,.F.);
#321=ORIENTED_EDGE('',*,*,#494,.F.);
#322=ORIENTED_EDGE('',*,*,#602,.F.);
#323=ORIENTED_EDGE('',*,*,#495,.F.);
#324=ORIENTED_EDGE('',*,*,#601,.T.);
#325=ORIENTED_EDGE('',*,*,#556,.F.);
#326=ORIENTED_EDGE('',*,*,#549,.F.);
#327=ORIENTED_EDGE('',*,*,#557,.F.);
#328=ORIENTED_EDGE('',*,*,#603,.F.);
#329=ORIENTED_EDGE('',*,*,#565,.F.);
#330=ORIENTED_EDGE('',*,*,#603,.T.);
#331=ORIENTED_EDGE('',*,*,#539,.F.);
#332=ORIENTED_EDGE('',*,*,#604,.F.);
#333=ORIENTED_EDGE('',*,*,#566,.F.);
#334=ORIENTED_EDGE('',*,*,#604,.T.);
#335=ORIENTED_EDGE('',*,*,#568,.F.);
#336=ORIENTED_EDGE('',*,*,#605,.F.);
#337=ORIENTED_EDGE('',*,*,#567,.F.);
#338=ORIENTED_EDGE('',*,*,#605,.T.);
#339=ORIENTED_EDGE('',*,*,#533,.F.);
#340=ORIENTED_EDGE('',*,*,#606,.F.);
#341=ORIENTED_EDGE('',*,*,#560,.F.);
#342=ORIENTED_EDGE('',*,*,#606,.T.);
#343=ORIENTED_EDGE('',*,*,#485,.F.);
#344=ORIENTED_EDGE('',*,*,#520,.F.);
#345=ORIENTED_EDGE('',*,*,#561,.F.);
#346=ORIENTED_EDGE('',*,*,#607,.F.);
#347=ORIENTED_EDGE('',*,*,#594,.F.);
#348=ORIENTED_EDGE('',*,*,#510,.F.);
#349=ORIENTED_EDGE('',*,*,#607,.T.);
#350=ORIENTED_EDGE('',*,*,#608,.F.);
#351=ORIENTED_EDGE('',*,*,#591,.F.);
#352=ORIENTED_EDGE('',*,*,#508,.F.);
#353=ORIENTED_EDGE('',*,*,#608,.T.);
#354=ORIENTED_EDGE('',*,*,#609,.F.);
#355=ORIENTED_EDGE('',*,*,#588,.F.);
#356=ORIENTED_EDGE('',*,*,#506,.F.);
#357=ORIENTED_EDGE('',*,*,#609,.T.);
#358=ORIENTED_EDGE('',*,*,#610,.T.);
#359=ORIENTED_EDGE('',*,*,#611,.T.);
#360=ORIENTED_EDGE('',*,*,#558,.T.);
#361=ORIENTED_EDGE('',*,*,#547,.T.);
#362=ORIENTED_EDGE('',*,*,#498,.F.);
#363=ORIENTED_EDGE('',*,*,#612,.T.);
#364=ORIENTED_EDGE('',*,*,#613,.T.);
#365=ORIENTED_EDGE('',*,*,#552,.T.);
#366=ORIENTED_EDGE('',*,*,#614,.T.);
#367=ORIENTED_EDGE('',*,*,#615,.T.);
#368=ORIENTED_EDGE('',*,*,#496,.T.);
#369=ORIENTED_EDGE('',*,*,#602,.T.);
#370=ORIENTED_EDGE('',*,*,#555,.T.);
#371=ORIENTED_EDGE('',*,*,#523,.T.);
#372=ORIENTED_EDGE('',*,*,#616,.T.);
#373=ORIENTED_EDGE('',*,*,#617,.T.);
#374=ORIENTED_EDGE('',*,*,#618,.T.);
#375=ORIENTED_EDGE('',*,*,#483,.F.);
#376=ORIENTED_EDGE('',*,*,#619,.T.);
#377=ORIENTED_EDGE('',*,*,#620,.T.);
#378=ORIENTED_EDGE('',*,*,#521,.T.);
#379=ORIENTED_EDGE('',*,*,#621,.T.);
#380=ORIENTED_EDGE('',*,*,#622,.T.);
#381=ORIENTED_EDGE('',*,*,#481,.T.);
#382=ORIENTED_EDGE('',*,*,#597,.T.);
#383=ORIENTED_EDGE('',*,*,#623,.F.);
#384=ORIENTED_EDGE('',*,*,#582,.F.);
#385=ORIENTED_EDGE('',*,*,#514,.F.);
#386=ORIENTED_EDGE('',*,*,#532,.F.);
#387=ORIENTED_EDGE('',*,*,#624,.F.);
#388=ORIENTED_EDGE('',*,*,#623,.T.);
#389=ORIENTED_EDGE('',*,*,#625,.F.);
#390=ORIENTED_EDGE('',*,*,#512,.F.);
#391=ORIENTED_EDGE('',*,*,#593,.F.);
#392=ORIENTED_EDGE('',*,*,#626,.F.);
#393=ORIENTED_EDGE('',*,*,#530,.F.);
#394=ORIENTED_EDGE('',*,*,#625,.T.);
#395=ORIENTED_EDGE('',*,*,#531,.F.);
#396=ORIENTED_EDGE('',*,*,#627,.F.);
#397=ORIENTED_EDGE('',*,*,#526,.F.);
#398=ORIENTED_EDGE('',*,*,#624,.T.);
#399=ORIENTED_EDGE('',*,*,#529,.F.);
#400=ORIENTED_EDGE('',*,*,#628,.F.);
#401=ORIENTED_EDGE('',*,*,#583,.F.);
#402=ORIENTED_EDGE('',*,*,#576,.F.);
#403=ORIENTED_EDGE('',*,*,#629,.T.);
#404=ORIENTED_EDGE('',*,*,#584,.F.);
#405=ORIENTED_EDGE('',*,*,#630,.F.);
#406=ORIENTED_EDGE('',*,*,#502,.F.);
#407=ORIENTED_EDGE('',*,*,#627,.T.);
#408=ORIENTED_EDGE('',*,*,#626,.T.);
#409=ORIENTED_EDGE('',*,*,#631,.F.);
#410=ORIENTED_EDGE('',*,*,#630,.T.);
#411=ORIENTED_EDGE('',*,*,#628,.T.);
#412=ORIENTED_EDGE('',*,*,#632,.F.);
#413=ORIENTED_EDGE('',*,*,#503,.T.);
#414=ORIENTED_EDGE('',*,*,#592,.F.);
#415=ORIENTED_EDGE('',*,*,#590,.F.);
#416=ORIENTED_EDGE('',*,*,#633,.F.);
#417=ORIENTED_EDGE('',*,*,#527,.F.);
#418=ORIENTED_EDGE('',*,*,#631,.T.);
#419=ORIENTED_EDGE('',*,*,#632,.T.);
#420=ORIENTED_EDGE('',*,*,#528,.F.);
#421=ORIENTED_EDGE('',*,*,#634,.F.);
#422=ORIENTED_EDGE('',*,*,#504,.F.);
#423=ORIENTED_EDGE('',*,*,#634,.T.);
#424=ORIENTED_EDGE('',*,*,#633,.T.);
#425=ORIENTED_EDGE('',*,*,#635,.F.);
#426=ORIENTED_EDGE('',*,*,#488,.T.);
#427=ORIENTED_EDGE('',*,*,#524,.F.);
#428=ORIENTED_EDGE('',*,*,#618,.F.);
#429=ORIENTED_EDGE('',*,*,#636,.F.);
#430=ORIENTED_EDGE('',*,*,#489,.F.);
#431=ORIENTED_EDGE('',*,*,#635,.T.);
#432=ORIENTED_EDGE('',*,*,#589,.F.);
#433=ORIENTED_EDGE('',*,*,#522,.F.);
#434=ORIENTED_EDGE('',*,*,#620,.F.);
#435=ORIENTED_EDGE('',*,*,#637,.F.);
#436=ORIENTED_EDGE('',*,*,#616,.F.);
#437=ORIENTED_EDGE('',*,*,#636,.T.);
#438=ORIENTED_EDGE('',*,*,#617,.F.);
#439=ORIENTED_EDGE('',*,*,#638,.F.);
#440=ORIENTED_EDGE('',*,*,#621,.F.);
#441=ORIENTED_EDGE('',*,*,#490,.F.);
#442=ORIENTED_EDGE('',*,*,#638,.T.);
#443=ORIENTED_EDGE('',*,*,#637,.T.);
#444=ORIENTED_EDGE('',*,*,#639,.F.);
#445=ORIENTED_EDGE('',*,*,#639,.T.);
#446=ORIENTED_EDGE('',*,*,#619,.F.);
#447=ORIENTED_EDGE('',*,*,#482,.F.);
#448=ORIENTED_EDGE('',*,*,#622,.F.);
#449=ORIENTED_EDGE('',*,*,#553,.F.);
#450=ORIENTED_EDGE('',*,*,#613,.F.);
#451=ORIENTED_EDGE('',*,*,#640,.F.);
#452=ORIENTED_EDGE('',*,*,#610,.F.);
#453=ORIENTED_EDGE('',*,*,#559,.F.);
#454=ORIENTED_EDGE('',*,*,#611,.F.);
#455=ORIENTED_EDGE('',*,*,#641,.F.);
#456=ORIENTED_EDGE('',*,*,#614,.F.);
#457=ORIENTED_EDGE('',*,*,#641,.T.);
#458=ORIENTED_EDGE('',*,*,#640,.T.);
#459=ORIENTED_EDGE('',*,*,#642,.F.);
#460=ORIENTED_EDGE('',*,*,#642,.T.);
#461=ORIENTED_EDGE('',*,*,#612,.F.);
#462=ORIENTED_EDGE('',*,*,#497,.F.);
#463=ORIENTED_EDGE('',*,*,#615,.F.);
#464=ORIENTED_EDGE('',*,*,#516,.F.);
#465=ORIENTED_EDGE('',*,*,#581,.F.);
#466=ORIENTED_EDGE('',*,*,#643,.T.);
#467=ORIENTED_EDGE('',*,*,#572,.F.);
#468=ORIENTED_EDGE('',*,*,#544,.F.);
#469=ORIENTED_EDGE('',*,*,#579,.F.);
#470=ORIENTED_EDGE('',*,*,#644,.T.);
#471=ORIENTED_EDGE('',*,*,#574,.F.);
#472=ORIENTED_EDGE('',*,*,#645,.T.);
#473=ORIENTED_EDGE('',*,*,#629,.F.);
#474=ORIENTED_EDGE('',*,*,#575,.F.);
#475=ORIENTED_EDGE('',*,*,#644,.F.);
#476=ORIENTED_EDGE('',*,*,#585,.F.);
#477=ORIENTED_EDGE('',*,*,#645,.F.);
#478=ORIENTED_EDGE('',*,*,#573,.F.);
#479=ORIENTED_EDGE('',*,*,#643,.F.);
#480=ORIENTED_EDGE('',*,*,#580,.F.);
#481=EDGE_CURVE('',#646,#647,#753,.T.);
#482=EDGE_CURVE('',#646,#648,#82,.F.);
#483=EDGE_CURVE('',#648,#649,#754,.T.);
#484=EDGE_CURVE('',#650,#649,#755,.T.);
#485=EDGE_CURVE('',#650,#651,#756,.F.);
#486=EDGE_CURVE('',#651,#652,#757,.T.);
#487=EDGE_CURVE('',#652,#647,#758,.T.);
#488=EDGE_CURVE('',#653,#654,#77,.T.);
#489=EDGE_CURVE('',#653,#655,#759,.F.);
#490=EDGE_CURVE('',#655,#656,#83,.F.);
#491=EDGE_CURVE('',#656,#657,#760,.F.);
#492=EDGE_CURVE('',#657,#658,#84,.T.);
#493=EDGE_CURVE('',#658,#659,#761,.T.);
#494=EDGE_CURVE('',#659,#660,#85,.T.);
#495=EDGE_CURVE('',#660,#661,#762,.T.);
#496=EDGE_CURVE('',#662,#661,#763,.T.);
#497=EDGE_CURVE('',#662,#663,#86,.F.);
#498=EDGE_CURVE('',#663,#664,#764,.T.);
#499=EDGE_CURVE('',#665,#664,#765,.T.);
#500=EDGE_CURVE('',#665,#666,#766,.T.);
#501=EDGE_CURVE('',#666,#667,#87,.F.);
#502=EDGE_CURVE('',#667,#668,#767,.T.);
#503=EDGE_CURVE('',#669,#668,#88,.T.);
#504=EDGE_CURVE('',#669,#654,#768,.T.);
#505=EDGE_CURVE('',#670,#670,#89,.T.);
#506=EDGE_CURVE('',#671,#671,#90,.T.);
#507=EDGE_CURVE('',#672,#672,#91,.T.);
#508=EDGE_CURVE('',#673,#673,#92,.T.);
#509=EDGE_CURVE('',#674,#674,#93,.T.);
#510=EDGE_CURVE('',#675,#675,#94,.T.);
#511=EDGE_CURVE('',#676,#677,#769,.T.);
#512=EDGE_CURVE('',#677,#678,#95,.T.);
#513=EDGE_CURVE('',#678,#679,#770,.T.);
#514=EDGE_CURVE('',#679,#680,#96,.T.);
#515=EDGE_CURVE('',#680,#681,#771,.T.);
#516=EDGE_CURVE('',#681,#682,#97,.F.);
#517=EDGE_CURVE('',#682,#683,#772,.T.);
#518=EDGE_CURVE('',#683,#684,#773,.T.);
#519=EDGE_CURVE('',#684,#685,#774,.T.);
#520=EDGE_CURVE('',#685,#650,#98,.T.);
#521=EDGE_CURVE('',#686,#649,#775,.T.);
#522=EDGE_CURVE('',#686,#687,#99,.F.);
#523=EDGE_CURVE('',#688,#687,#776,.T.);
#524=EDGE_CURVE('',#688,#676,#100,.F.);
#525=EDGE_CURVE('',#689,#689,#101,.T.);
#526=EDGE_CURVE('',#690,#691,#777,.T.);
#527=EDGE_CURVE('',#691,#692,#778,.T.);
#528=EDGE_CURVE('',#692,#693,#779,.F.);
#529=EDGE_CURVE('',#693,#690,#780,.F.);
#530=EDGE_CURVE('',#678,#694,#781,.T.);
#531=EDGE_CURVE('',#694,#695,#782,.F.);
#532=EDGE_CURVE('',#695,#679,#783,.F.);
#533=EDGE_CURVE('',#651,#696,#102,.F.);
#534=EDGE_CURVE('',#697,#696,#784,.F.);
#535=EDGE_CURVE('',#698,#697,#31,.T.);
#536=EDGE_CURVE('',#699,#698,#785,.F.);
#537=EDGE_CURVE('',#699,#652,#103,.F.);
#538=EDGE_CURVE('',#700,#701,#786,.F.);
#539=EDGE_CURVE('',#700,#702,#104,.F.);
#540=EDGE_CURVE('',#703,#702,#787,.T.);
#541=EDGE_CURVE('',#703,#704,#105,.F.);
#542=EDGE_CURVE('',#705,#704,#788,.F.);
#543=EDGE_CURVE('',#701,#705,#32,.T.);
#544=EDGE_CURVE('',#682,#706,#789,.T.);
#545=EDGE_CURVE('',#706,#707,#106,.F.);
#546=EDGE_CURVE('',#707,#683,#790,.T.);
#547=EDGE_CURVE('',#708,#709,#791,.T.);
#548=EDGE_CURVE('',#708,#710,#792,.T.);
#549=EDGE_CURVE('',#710,#711,#107,.T.);
#550=EDGE_CURVE('',#711,#712,#793,.T.);
#551=EDGE_CURVE('',#712,#665,#794,.T.);
#552=EDGE_CURVE('',#713,#664,#795,.T.);
#553=EDGE_CURVE('',#713,#709,#108,.F.);
#554=EDGE_CURVE('',#714,#714,#109,.T.);
#555=EDGE_CURVE('',#715,#716,#796,.T.);
#556=EDGE_CURVE('',#715,#703,#797,.F.);
#557=EDGE_CURVE('',#702,#710,#798,.T.);
#558=EDGE_CURVE('',#717,#708,#799,.T.);
#559=EDGE_CURVE('',#717,#716,#110,.F.);
#560=EDGE_CURVE('',#718,#719,#111,.T.);
#561=EDGE_CURVE('',#719,#685,#800,.T.);
#562=EDGE_CURVE('',#684,#720,#801,.T.);
#563=EDGE_CURVE('',#720,#721,#112,.T.);
#564=EDGE_CURVE('',#721,#712,#802,.T.);
#565=EDGE_CURVE('',#711,#722,#803,.F.);
#566=EDGE_CURVE('',#722,#723,#113,.T.);
#567=EDGE_CURVE('',#723,#718,#804,.T.);
#568=EDGE_CURVE('',#696,#700,#805,.F.);
#569=EDGE_CURVE('',#701,#705,#114,.T.);
#570=EDGE_CURVE('',#704,#699,#806,.F.);
#571=EDGE_CURVE('',#698,#697,#115,.T.);
#572=EDGE_CURVE('',#706,#724,#33,.T.);
#573=EDGE_CURVE('',#724,#725,#807,.T.);
#574=EDGE_CURVE('',#725,#726,#116,.F.);
#575=EDGE_CURVE('',#726,#727,#808,.F.);
#576=EDGE_CURVE('',#727,#667,#34,.T.);
#577=EDGE_CURVE('',#666,#721,#809,.T.);
#578=EDGE_CURVE('',#707,#720,#810,.T.);
#579=EDGE_CURVE('',#728,#729,#35,.T.);
#580=EDGE_CURVE('',#729,#730,#811,.T.);
#581=EDGE_CURVE('',#730,#681,#812,.F.);
#582=EDGE_CURVE('',#680,#731,#813,.T.);
#583=EDGE_CURVE('',#731,#732,#814,.T.);
#584=EDGE_CURVE('',#732,#733,#815,.F.);
#585=EDGE_CURVE('',#733,#728,#816,.F.);
#586=EDGE_CURVE('',#734,#734,#117,.T.);
#587=EDGE_CURVE('',#735,#735,#118,.T.);
#588=EDGE_CURVE('',#736,#736,#78,.F.);
#589=EDGE_CURVE('',#676,#737,#817,.T.);
#590=EDGE_CURVE('',#737,#738,#818,.F.);
#591=EDGE_CURVE('',#738,#738,#79,.F.);
#592=EDGE_CURVE('',#738,#739,#819,.F.);
#593=EDGE_CURVE('',#739,#677,#820,.F.);
#594=EDGE_CURVE('',#740,#740,#80,.F.);
#595=EDGE_CURVE('',#741,#741,#119,.T.);
#596=EDGE_CURVE('',#742,#742,#120,.T.);
#597=EDGE_CURVE('',#647,#656,#121,.T.);
#598=EDGE_CURVE('',#657,#652,#122,.T.);
#599=EDGE_CURVE('',#658,#699,#123,.T.);
#600=EDGE_CURVE('',#659,#704,#124,.T.);
#601=EDGE_CURVE('',#660,#703,#125,.T.);
#602=EDGE_CURVE('',#661,#715,#126,.T.);
#603=EDGE_CURVE('',#722,#702,#127,.T.);
#604=EDGE_CURVE('',#723,#700,#128,.T.);
#605=EDGE_CURVE('',#718,#696,#129,.T.);
#606=EDGE_CURVE('',#719,#651,#130,.T.);
#607=EDGE_CURVE('',#743,#743,#131,.T.);
#608=EDGE_CURVE('',#744,#744,#132,.T.);
#609=EDGE_CURVE('',#745,#745,#133,.T.);
#610=EDGE_CURVE('',#709,#746,#821,.F.);
#611=EDGE_CURVE('',#746,#717,#822,.F.);
#612=EDGE_CURVE('',#663,#747,#823,.F.);
#613=EDGE_CURVE('',#747,#713,#824,.T.);
#614=EDGE_CURVE('',#716,#748,#825,.T.);
#615=EDGE_CURVE('',#748,#662,#826,.T.);
#616=EDGE_CURVE('',#687,#749,#827,.F.);
#617=EDGE_CURVE('',#749,#750,#828,.F.);
#618=EDGE_CURVE('',#750,#688,#829,.T.);
#619=EDGE_CURVE('',#648,#751,#830,.F.);
#620=EDGE_CURVE('',#751,#686,#831,.T.);
#621=EDGE_CURVE('',#656,#752,#832,.T.);
#622=EDGE_CURVE('',#752,#646,#833,.T.);
#623=EDGE_CURVE('',#731,#695,#134,.T.);
#624=EDGE_CURVE('',#731,#690,#135,.F.);
#625=EDGE_CURVE('',#690,#695,#136,.F.);
#626=EDGE_CURVE('',#694,#739,#137,.T.);
#627=EDGE_CURVE('',#691,#694,#138,.T.);
#628=EDGE_CURVE('',#732,#693,#139,.F.);
#629=EDGE_CURVE('',#727,#733,#36,.T.);
#630=EDGE_CURVE('',#668,#732,#140,.T.);
#631=EDGE_CURVE('',#691,#739,#141,.F.);
#632=EDGE_CURVE('',#669,#693,#142,.F.);
#633=EDGE_CURVE('',#692,#737,#81,.T.);
#634=EDGE_CURVE('',#654,#692,#143,.T.);
#635=EDGE_CURVE('',#653,#737,#144,.F.);
#636=EDGE_CURVE('',#655,#750,#37,.F.);
#637=EDGE_CURVE('',#749,#751,#145,.T.);
#638=EDGE_CURVE('',#752,#749,#146,.T.);
#639=EDGE_CURVE('',#752,#751,#147,.F.);
#640=EDGE_CURVE('',#746,#747,#148,.T.);
#641=EDGE_CURVE('',#748,#746,#149,.T.);
#642=EDGE_CURVE('',#748,#747,#150,.F.);
#643=EDGE_CURVE('',#730,#724,#38,.F.);
#644=EDGE_CURVE('',#728,#726,#39,.T.);
#645=EDGE_CURVE('',#725,#729,#40,.F.);
#646=VERTEX_POINT('',#1734);
#647=VERTEX_POINT('',#1735);
#648=VERTEX_POINT('',#1737);
#649=VERTEX_POINT('',#1739);
#650=VERTEX_POINT('',#1741);
#651=VERTEX_POINT('',#1743);
#652=VERTEX_POINT('',#1745);
#653=VERTEX_POINT('',#1749);
#654=VERTEX_POINT('',#1750);
#655=VERTEX_POINT('',#1752);
#656=VERTEX_POINT('',#1754);
#657=VERTEX_POINT('',#1756);
#658=VERTEX_POINT('',#1758);
#659=VERTEX_POINT('',#1760);
#660=VERTEX_POINT('',#1762);
#661=VERTEX_POINT('',#1764);
#662=VERTEX_POINT('',#1766);
#663=VERTEX_POINT('',#1768);
#664=VERTEX_POINT('',#1770);
#665=VERTEX_POINT('',#1772);
#666=VERTEX_POINT('',#1774);
#667=VERTEX_POINT('',#1776);
#668=VERTEX_POINT('',#1778);
#669=VERTEX_POINT('',#1780);
#670=VERTEX_POINT('',#1784);
#671=VERTEX_POINT('',#1786);
#672=VERTEX_POINT('',#1789);
#673=VERTEX_POINT('',#1791);
#674=VERTEX_POINT('',#1794);
#675=VERTEX_POINT('',#1796);
#676=VERTEX_POINT('',#1799);
#677=VERTEX_POINT('',#1800);
#678=VERTEX_POINT('',#1802);
#679=VERTEX_POINT('',#1804);
#680=VERTEX_POINT('',#1806);
#681=VERTEX_POINT('',#1808);
#682=VERTEX_POINT('',#1810);
#683=VERTEX_POINT('',#1812);
#684=VERTEX_POINT('',#1814);
#685=VERTEX_POINT('',#1816);
#686=VERTEX_POINT('',#1819);
#687=VERTEX_POINT('',#1821);
#688=VERTEX_POINT('',#1823);
#689=VERTEX_POINT('',#1826);
#690=VERTEX_POINT('',#1829);
#691=VERTEX_POINT('',#1830);
#692=VERTEX_POINT('',#1832);
#693=VERTEX_POINT('',#1834);
#694=VERTEX_POINT('',#1838);
#695=VERTEX_POINT('',#1840);
#696=VERTEX_POINT('',#1844);
#697=VERTEX_POINT('',#1846);
#698=VERTEX_POINT('',#1863);
#699=VERTEX_POINT('',#1865);
#700=VERTEX_POINT('',#1869);
#701=VERTEX_POINT('',#1870);
#702=VERTEX_POINT('',#1872);
#703=VERTEX_POINT('',#1874);
#704=VERTEX_POINT('',#1876);
#705=VERTEX_POINT('',#1878);
#706=VERTEX_POINT('',#1897);
#707=VERTEX_POINT('',#1899);
#708=VERTEX_POINT('',#1903);
#709=VERTEX_POINT('',#1904);
#710=VERTEX_POINT('',#1906);
#711=VERTEX_POINT('',#1908);
#712=VERTEX_POINT('',#1910);
#713=VERTEX_POINT('',#1913);
#714=VERTEX_POINT('',#1916);
#715=VERTEX_POINT('',#1919);
#716=VERTEX_POINT('',#1920);
#717=VERTEX_POINT('',#1924);
#718=VERTEX_POINT('',#1928);
#719=VERTEX_POINT('',#1929);
#720=VERTEX_POINT('',#1932);
#721=VERTEX_POINT('',#1934);
#722=VERTEX_POINT('',#1937);
#723=VERTEX_POINT('',#1939);
#724=VERTEX_POINT('',#1953);
#725=VERTEX_POINT('',#1955);
#726=VERTEX_POINT('',#1957);
#727=VERTEX_POINT('',#1959);
#728=VERTEX_POINT('',#1984);
#729=VERTEX_POINT('',#1985);
#730=VERTEX_POINT('',#1987);
#731=VERTEX_POINT('',#1990);
#732=VERTEX_POINT('',#1992);
#733=VERTEX_POINT('',#1994);
#734=VERTEX_POINT('',#1998);
#735=VERTEX_POINT('',#2001);
#736=VERTEX_POINT('',#2004);
#737=VERTEX_POINT('',#2006);
#738=VERTEX_POINT('',#2008);
#739=VERTEX_POINT('',#2011);
#740=VERTEX_POINT('',#2014);
#741=VERTEX_POINT('',#2017);
#742=VERTEX_POINT('',#2021);
#743=VERTEX_POINT('',#2045);
#744=VERTEX_POINT('',#2049);
#745=VERTEX_POINT('',#2053);
#746=VERTEX_POINT('',#2057);
#747=VERTEX_POINT('',#2061);
#748=VERTEX_POINT('',#2065);
#749=VERTEX_POINT('',#2069);
#750=VERTEX_POINT('',#2071);
#751=VERTEX_POINT('',#2075);
#752=VERTEX_POINT('',#2079);
#753=LINE('',#1733,#834);
#754=LINE('',#1738,#835);
#755=LINE('',#1740,#836);
#756=LINE('',#1742,#837);
#757=LINE('',#1744,#838);
#758=LINE('',#1746,#839);
#759=LINE('',#1751,#840);
#760=LINE('',#1755,#841);
#761=LINE('',#1759,#842);
#762=LINE('',#1763,#843);
#763=LINE('',#1765,#844);
#764=LINE('',#1769,#845);
#765=LINE('',#1771,#846);
#766=LINE('',#1773,#847);
#767=LINE('',#1777,#848);
#768=LINE('',#1781,#849);
#769=LINE('',#1798,#850);
#770=LINE('',#1803,#851);
#771=LINE('',#1807,#852);
#772=LINE('',#1811,#853);
#773=LINE('',#1813,#854);
#774=LINE('',#1815,#855);
#775=LINE('',#1818,#856);
#776=LINE('',#1822,#857);
#777=LINE('',#1828,#858);
#778=LINE('',#1831,#859);
#779=LINE('',#1833,#860);
#780=LINE('',#1835,#861);
#781=LINE('',#1837,#862);
#782=LINE('',#1839,#863);
#783=LINE('',#1841,#864);
#784=LINE('',#1845,#865);
#785=LINE('',#1864,#866);
#786=LINE('',#1868,#867);
#787=LINE('',#1873,#868);
#788=LINE('',#1877,#869);
#789=LINE('',#1896,#870);
#790=LINE('',#1900,#871);
#791=LINE('',#1902,#872);
#792=LINE('',#1905,#873);
#793=LINE('',#1909,#874);
#794=LINE('',#1911,#875);
#795=LINE('',#1912,#876);
#796=LINE('',#1918,#877);
#797=LINE('',#1921,#878);
#798=LINE('',#1922,#879);
#799=LINE('',#1923,#880);
#800=LINE('',#1930,#881);
#801=LINE('',#1931,#882);
#802=LINE('',#1935,#883);
#803=LINE('',#1936,#884);
#804=LINE('',#1940,#885);
#805=LINE('',#1942,#886);
#806=LINE('',#1944,#887);
#807=LINE('',#1954,#888);
#808=LINE('',#1958,#889);
#809=LINE('',#1966,#890);
#810=LINE('',#1967,#891);
#811=LINE('',#1986,#892);
#812=LINE('',#1988,#893);
#813=LINE('',#1989,#894);
#814=LINE('',#1991,#895);
#815=LINE('',#1993,#896);
#816=LINE('',#1995,#897);
#817=LINE('',#2005,#898);
#818=LINE('',#2007,#899);
#819=LINE('',#2010,#900);
#820=LINE('',#2012,#901);
#821=LINE('',#2056,#902);
#822=LINE('',#2058,#903);
#823=LINE('',#2060,#904);
#824=LINE('',#2062,#905);
#825=LINE('',#2064,#906);
#826=LINE('',#2066,#907);
#827=LINE('',#2068,#908);
#828=LINE('',#2070,#909);
#829=LINE('',#2072,#910);
#830=LINE('',#2074,#911);
#831=LINE('',#2076,#912);
#832=LINE('',#2078,#913);
#833=LINE('',#2080,#914);
#834=VECTOR('',#1362,1000.);
#835=VECTOR('',#1365,1000.);
#836=VECTOR('',#1366,1000.);
#837=VECTOR('',#1367,1000.);
#838=VECTOR('',#1368,1000.);
#839=VECTOR('',#1369,1000.);
#840=VECTOR('',#1374,1000.);
#841=VECTOR('',#1377,1000.);
#842=VECTOR('',#1380,1000.);
#843=VECTOR('',#1383,1000.);
#844=VECTOR('',#1384,1000.);
#845=VECTOR('',#1387,1000.);
#846=VECTOR('',#1388,1000.);
#847=VECTOR('',#1389,1000.);
#848=VECTOR('',#1392,1000.);
#849=VECTOR('',#1395,1000.);
#850=VECTOR('',#1416,1000.);
#851=VECTOR('',#1419,1000.);
#852=VECTOR('',#1422,1000.);
#853=VECTOR('',#1425,1000.);
#854=VECTOR('',#1426,1000.);
#855=VECTOR('',#1427,1000.);
#856=VECTOR('',#1430,1000.);
#857=VECTOR('',#1433,1000.);
#858=VECTOR('',#1440,1000.);
#859=VECTOR('',#1441,1000.);
#860=VECTOR('',#1442,1000.);
#861=VECTOR('',#1443,1000.);
#862=VECTOR('',#1446,1000.);
#863=VECTOR('',#1447,1000.);
#864=VECTOR('',#1448,1000.);
#865=VECTOR('',#1453,1000.);
#866=VECTOR('',#1454,1000.);
#867=VECTOR('',#1459,1000.);
#868=VECTOR('',#1462,1000.);
#869=VECTOR('',#1465,1000.);
#870=VECTOR('',#1468,1000.);
#871=VECTOR('',#1471,1000.);
#872=VECTOR('',#1474,1000.);
#873=VECTOR('',#1475,1000.);
#874=VECTOR('',#1478,1000.);
#875=VECTOR('',#1479,1000.);
#876=VECTOR('',#1480,1000.);
#877=VECTOR('',#1487,1000.);
#878=VECTOR('',#1488,1000.);
#879=VECTOR('',#1489,1000.);
#880=VECTOR('',#1490,1000.);
#881=VECTOR('',#1497,1000.);
#882=VECTOR('',#1498,1000.);
#883=VECTOR('',#1501,1000.);
#884=VECTOR('',#1502,1000.);
#885=VECTOR('',#1505,1000.);
#886=VECTOR('',#1508,1000.);
#887=VECTOR('',#1511,1000.);
#888=VECTOR('',#1516,1000.);
#889=VECTOR('',#1519,1000.);
#890=VECTOR('',#1520,1000.);
#891=VECTOR('',#1521,1000.);
#892=VECTOR('',#1528,1000.);
#893=VECTOR('',#1529,1000.);
#894=VECTOR('',#1530,1000.);
#895=VECTOR('',#1531,1000.);
#896=VECTOR('',#1532,1000.);
#897=VECTOR('',#1533,1000.);
#898=VECTOR('',#1546,1000.);
#899=VECTOR('',#1547,1000.);
#900=VECTOR('',#1550,1000.);
#901=VECTOR('',#1551,1000.);
#902=VECTOR('',#1626,1000.);
#903=VECTOR('',#1627,1000.);
#904=VECTOR('',#1630,1000.);
#905=VECTOR('',#1631,1000.);
#906=VECTOR('',#1634,1000.);
#907=VECTOR('',#1635,1000.);
#908=VECTOR('',#1638,1000.);
#909=VECTOR('',#1639,1000.);
#910=VECTOR('',#1640,1000.);
#911=VECTOR('',#1643,1000.);
#912=VECTOR('',#1644,1000.);
#913=VECTOR('',#1647,1000.);
#914=VECTOR('',#1648,1000.);
#915=EDGE_LOOP('',(#151,#152,#153,#154,#155,#156,#157));
#916=EDGE_LOOP('',(#158,#159,#160,#161,#162,#163,#164,#165,#166,#167,#168,
#169,#170,#171,#172,#173,#174));
#917=EDGE_LOOP('',(#175));
#918=EDGE_LOOP('',(#176));
#919=EDGE_LOOP('',(#177));
#920=EDGE_LOOP('',(#178));
#921=EDGE_LOOP('',(#179));
#922=EDGE_LOOP('',(#180));
#923=EDGE_LOOP('',(#181,#182,#183,#184,#185,#186,#187,#188,#189,#190,#191,
#192,#193,#194,#195));
#924=EDGE_LOOP('',(#196));
#925=EDGE_LOOP('',(#197,#198,#199,#200));
#926=EDGE_LOOP('',(#201,#202,#203,#204));
#927=EDGE_LOOP('',(#205,#206,#207,#208,#209,#210));
#928=EDGE_LOOP('',(#211,#212,#213,#214,#215,#216));
#929=EDGE_LOOP('',(#217,#218,#219,#220));
#930=EDGE_LOOP('',(#221,#222,#223,#224,#225,#226,#227,#228));
#931=EDGE_LOOP('',(#229));
#932=EDGE_LOOP('',(#230,#231,#232,#233,#234,#235,#236));
#933=EDGE_LOOP('',(#237,#238,#239,#240,#241,#242,#243,#244,#245,#246));
#934=EDGE_LOOP('',(#247,#248,#249,#250,#251,#252,#253,#254));
#935=EDGE_LOOP('',(#255,#256,#257,#258,#259,#260,#261,#262,#263,#264));
#936=EDGE_LOOP('',(#265,#266,#267,#268));
#937=EDGE_LOOP('',(#269,#270,#271,#272));
#938=EDGE_LOOP('',(#273));
#939=EDGE_LOOP('',(#274));
#940=EDGE_LOOP('',(#275));
#941=EDGE_LOOP('',(#276,#277,#278,#279,#280,#281,#282,#283));
#942=EDGE_LOOP('',(#284));
#943=EDGE_LOOP('',(#285));
#944=EDGE_LOOP('',(#286));
#945=EDGE_LOOP('',(#287));
#946=EDGE_LOOP('',(#288));
#947=EDGE_LOOP('',(#289,#290,#291,#292,#293,#294));
#948=EDGE_LOOP('',(#295));
#949=EDGE_LOOP('',(#296));
#950=EDGE_LOOP('',(#297,#298));
#951=EDGE_LOOP('',(#299));
#952=EDGE_LOOP('',(#300));
#953=EDGE_LOOP('',(#301));
#954=EDGE_LOOP('',(#302,#303));
#955=EDGE_LOOP('',(#304));
#956=EDGE_LOOP('',(#305));
#957=EDGE_LOOP('',(#306,#307,#308,#309));
#958=EDGE_LOOP('',(#310,#311,#312,#313));
#959=EDGE_LOOP('',(#314,#315,#316,#317));
#960=EDGE_LOOP('',(#318,#319,#320,#321));
#961=EDGE_LOOP('',(#322,#323,#324,#325));
#962=EDGE_LOOP('',(#326,#327,#328,#329));
#963=EDGE_LOOP('',(#330,#331,#332,#333));
#964=EDGE_LOOP('',(#334,#335,#336,#337));
#965=EDGE_LOOP('',(#338,#339,#340,#341));
#966=EDGE_LOOP('',(#342,#343,#344,#345));
#967=EDGE_LOOP('',(#346));
#968=EDGE_LOOP('',(#347));
#969=EDGE_LOOP('',(#348));
#970=EDGE_LOOP('',(#349));
#971=EDGE_LOOP('',(#350));
#972=EDGE_LOOP('',(#351));
#973=EDGE_LOOP('',(#352));
#974=EDGE_LOOP('',(#353));
#975=EDGE_LOOP('',(#354));
#976=EDGE_LOOP('',(#355));
#977=EDGE_LOOP('',(#356));
#978=EDGE_LOOP('',(#357));
#979=EDGE_LOOP('',(#358,#359,#360,#361));
#980=EDGE_LOOP('',(#362,#363,#364,#365));
#981=EDGE_LOOP('',(#366,#367,#368,#369,#370));
#982=EDGE_LOOP('',(#371,#372,#373,#374));
#983=EDGE_LOOP('',(#375,#376,#377,#378));
#984=EDGE_LOOP('',(#379,#380,#381,#382));
#985=EDGE_LOOP('',(#383,#384,#385,#386));
#986=EDGE_LOOP('',(#387,#388,#389));
#987=EDGE_LOOP('',(#390,#391,#392,#393));
#988=EDGE_LOOP('',(#394,#395,#396,#397));
#989=EDGE_LOOP('',(#398,#399,#400,#401));
#990=EDGE_LOOP('',(#402,#403,#404,#405,#406));
#991=EDGE_LOOP('',(#407,#408,#409));
#992=EDGE_LOOP('',(#410,#411,#412,#413));
#993=EDGE_LOOP('',(#414,#415,#416,#417,#418));
#994=EDGE_LOOP('',(#419,#420,#421,#422));
#995=EDGE_LOOP('',(#423,#424,#425,#426));
#996=EDGE_LOOP('',(#427,#428,#429,#430,#431,#432));
#997=EDGE_LOOP('',(#433,#434,#435,#436));
#998=EDGE_LOOP('',(#437,#438,#439,#440,#441));
#999=EDGE_LOOP('',(#442,#443,#444));
#1000=EDGE_LOOP('',(#445,#446,#447,#448));
#1001=EDGE_LOOP('',(#449,#450,#451,#452));
#1002=EDGE_LOOP('',(#453,#454,#455,#456));
#1003=EDGE_LOOP('',(#457,#458,#459));
#1004=EDGE_LOOP('',(#460,#461,#462,#463));
#1005=EDGE_LOOP('',(#464,#465,#466,#467,#468));
#1006=EDGE_LOOP('',(#469,#470,#471,#472));
#1007=EDGE_LOOP('',(#473,#474,#475,#476));
#1008=EDGE_LOOP('',(#477,#478,#479,#480));
#1009=FACE_BOUND('',#915,.T.);
#1010=FACE_BOUND('',#916,.T.);
#1011=FACE_BOUND('',#917,.T.);
#1012=FACE_BOUND('',#918,.T.);
#1013=FACE_BOUND('',#919,.T.);
#1014=FACE_BOUND('',#920,.T.);
#1015=FACE_BOUND('',#921,.T.);
#1016=FACE_BOUND('',#922,.T.);
#1017=FACE_BOUND('',#923,.T.);
#1018=FACE_BOUND('',#924,.T.);
#1019=FACE_BOUND('',#925,.T.);
#1020=FACE_BOUND('',#926,.T.);
#1021=FACE_BOUND('',#927,.T.);
#1022=FACE_BOUND('',#928,.T.);
#1023=FACE_BOUND('',#929,.T.);
#1024=FACE_BOUND('',#930,.T.);
#1025=FACE_BOUND('',#931,.T.);
#1026=FACE_BOUND('',#932,.T.);
#1027=FACE_BOUND('',#933,.T.);
#1028=FACE_BOUND('',#934,.T.);
#1029=FACE_BOUND('',#935,.T.);
#1030=FACE_BOUND('',#936,.T.);
#1031=FACE_BOUND('',#937,.T.);
#1032=FACE_BOUND('',#938,.T.);
#1033=FACE_BOUND('',#939,.T.);
#1034=FACE_BOUND('',#940,.T.);
#1035=FACE_BOUND('',#941,.T.);
#1036=FACE_BOUND('',#942,.T.);
#1037=FACE_BOUND('',#943,.T.);
#1038=FACE_BOUND('',#944,.T.);
#1039=FACE_BOUND('',#945,.T.);
#1040=FACE_BOUND('',#946,.T.);
#1041=FACE_BOUND('',#947,.T.);
#1042=FACE_BOUND('',#948,.T.);
#1043=FACE_BOUND('',#949,.T.);
#1044=FACE_BOUND('',#950,.T.);
#1045=FACE_BOUND('',#951,.T.);
#1046=FACE_BOUND('',#952,.T.);
#1047=FACE_BOUND('',#953,.T.);
#1048=FACE_BOUND('',#954,.T.);
#1049=FACE_BOUND('',#955,.T.);
#1050=FACE_BOUND('',#956,.T.);
#1051=FACE_BOUND('',#957,.T.);
#1052=FACE_BOUND('',#958,.T.);
#1053=FACE_BOUND('',#959,.T.);
#1054=FACE_BOUND('',#960,.T.);
#1055=FACE_BOUND('',#961,.T.);
#1056=FACE_BOUND('',#962,.T.);
#1057=FACE_BOUND('',#963,.T.);
#1058=FACE_BOUND('',#964,.T.);
#1059=FACE_BOUND('',#965,.T.);
#1060=FACE_BOUND('',#966,.T.);
#1061=FACE_BOUND('',#967,.T.);
#1062=FACE_BOUND('',#968,.T.);
#1063=FACE_BOUND('',#969,.T.);
#1064=FACE_BOUND('',#970,.T.);
#1065=FACE_BOUND('',#971,.T.);
#1066=FACE_BOUND('',#972,.T.);
#1067=FACE_BOUND('',#973,.T.);
#1068=FACE_BOUND('',#974,.T.);
#1069=FACE_BOUND('',#975,.T.);
#1070=FACE_BOUND('',#976,.T.);
#1071=FACE_BOUND('',#977,.T.);
#1072=FACE_BOUND('',#978,.T.);
#1073=FACE_BOUND('',#979,.T.);
#1074=FACE_BOUND('',#980,.T.);
#1075=FACE_BOUND('',#981,.T.);
#1076=FACE_BOUND('',#982,.T.);
#1077=FACE_BOUND('',#983,.T.);
#1078=FACE_BOUND('',#984,.T.);
#1079=FACE_BOUND('',#985,.T.);
#1080=FACE_BOUND('',#986,.T.);
#1081=FACE_BOUND('',#987,.T.);
#1082=FACE_BOUND('',#988,.T.);
#1083=FACE_BOUND('',#989,.T.);
#1084=FACE_BOUND('',#990,.T.);
#1085=FACE_BOUND('',#991,.T.);
#1086=FACE_BOUND('',#992,.T.);
#1087=FACE_BOUND('',#993,.T.);
#1088=FACE_BOUND('',#994,.T.);
#1089=FACE_BOUND('',#995,.T.);
#1090=FACE_BOUND('',#996,.T.);
#1091=FACE_BOUND('',#997,.T.);
#1092=FACE_BOUND('',#998,.T.);
#1093=FACE_BOUND('',#999,.T.);
#1094=FACE_BOUND('',#1000,.T.);
#1095=FACE_BOUND('',#1001,.T.);
#1096=FACE_BOUND('',#1002,.T.);
#1097=FACE_BOUND('',#1003,.T.);
#1098=FACE_BOUND('',#1004,.T.);
#1099=FACE_BOUND('',#1005,.T.);
#1100=FACE_BOUND('',#1006,.T.);
#1101=FACE_BOUND('',#1007,.T.);
#1102=FACE_BOUND('',#1008,.T.);
#1103=PLANE('',#1213);
#1104=PLANE('',#1215);
#1105=PLANE('',#1232);
#1106=PLANE('',#1240);
#1107=PLANE('',#1241);
#1108=PLANE('',#1248);
#1109=PLANE('',#1250);
#1110=PLANE('',#1254);
#1111=PLANE('',#1256);
#1112=PLANE('',#1260);
#1113=PLANE('',#1265);
#1114=PLANE('',#1266);
#1115=PLANE('',#1267);
#1116=PLANE('',#1272);
#1117=PLANE('',#1278);
#1118=PLANE('',#1281);
#1119=PLANE('',#1304);
#1120=PLANE('',#1307);
#1121=PLANE('',#1310);
#1122=PLANE('',#1311);
#1123=PLANE('',#1312);
#1124=PLANE('',#1313);
#1125=PLANE('',#1314);
#1126=PLANE('',#1315);
#1127=PLANE('',#1316);
#1128=ADVANCED_FACE('',(#1009),#1103,.T.);
#1129=ADVANCED_FACE('',(#1010),#1104,.T.);
#1130=ADVANCED_FACE('',(#1011,#1012),#41,.F.);
#1131=ADVANCED_FACE('',(#1013,#1014),#42,.F.);
#1132=ADVANCED_FACE('',(#1015,#1016),#43,.F.);
#1133=ADVANCED_FACE('',(#1017,#1018),#1105,.T.);
#1134=ADVANCED_FACE('',(#1019),#1106,.T.);
#1135=ADVANCED_FACE('',(#1020),#1107,.F.);
#1136=ADVANCED_FACE('',(#1021),#44,.T.);
#1137=ADVANCED_FACE('',(#1022),#45,.T.);
#1138=ADVANCED_FACE('',(#1023),#1108,.T.);
#1139=ADVANCED_FACE('',(#1024,#1025),#1109,.T.);
#1140=ADVANCED_FACE('',(#1026),#1110,.T.);
#1141=ADVANCED_FACE('',(#1027),#1111,.T.);
#1142=ADVANCED_FACE('',(#1028),#1112,.F.);
#1143=ADVANCED_FACE('',(#1029),#46,.F.);
#1144=ADVANCED_FACE('',(#1030),#1113,.T.);
#1145=ADVANCED_FACE('',(#1031),#1114,.T.);
#1146=ADVANCED_FACE('',(#1032,#1033,#1034,#1035),#1115,.T.);
#1147=ADVANCED_FACE('',(#1036,#1037),#47,.F.);
#1148=ADVANCED_FACE('',(#1038,#1039),#48,.F.);
#1149=ADVANCED_FACE('',(#1040,#1041,#1042),#1116,.T.);
#1150=ADVANCED_FACE('',(#1043,#1044),#49,.F.);
#1151=ADVANCED_FACE('',(#1045,#1046),#1117,.F.);
#1152=ADVANCED_FACE('',(#1047,#1048),#50,.F.);
#1153=ADVANCED_FACE('',(#1049,#1050),#1118,.F.);
#1154=ADVANCED_FACE('',(#1051),#51,.T.);
#1155=ADVANCED_FACE('',(#1052),#25,.T.);
#1156=ADVANCED_FACE('',(#1053),#52,.T.);
#1157=ADVANCED_FACE('',(#1054),#26,.T.);
#1158=ADVANCED_FACE('',(#1055),#53,.T.);
#1159=ADVANCED_FACE('',(#1056),#54,.T.);
#1160=ADVANCED_FACE('',(#1057),#27,.T.);
#1161=ADVANCED_FACE('',(#1058),#55,.T.);
#1162=ADVANCED_FACE('',(#1059),#28,.T.);
#1163=ADVANCED_FACE('',(#1060),#56,.T.);
#1164=ADVANCED_FACE('',(#1061,#1062),#57,.F.);
#1165=ADVANCED_FACE('',(#1063,#1064),#1119,.T.);
#1166=ADVANCED_FACE('',(#1065,#1066),#58,.F.);
#1167=ADVANCED_FACE('',(#1067,#1068),#1120,.T.);
#1168=ADVANCED_FACE('',(#1069,#1070),#59,.F.);
#1169=ADVANCED_FACE('',(#1071,#1072),#1121,.T.);
#1170=ADVANCED_FACE('',(#1073),#1122,.F.);
#1171=ADVANCED_FACE('',(#1074),#1123,.F.);
#1172=ADVANCED_FACE('',(#1075),#1124,.T.);
#1173=ADVANCED_FACE('',(#1076),#1125,.F.);
#1174=ADVANCED_FACE('',(#1077),#1126,.F.);
#1175=ADVANCED_FACE('',(#1078),#1127,.T.);
#1176=ADVANCED_FACE('',(#1079),#60,.T.);
#1177=ADVANCED_FACE('',(#1080),#21,.T.);
#1178=ADVANCED_FACE('',(#1081),#61,.T.);
#1179=ADVANCED_FACE('',(#1082),#62,.T.);
#1180=ADVANCED_FACE('',(#1083),#63,.T.);
#1181=ADVANCED_FACE('',(#1084),#64,.F.);
#1182=ADVANCED_FACE('',(#1085),#22,.T.);
#1183=ADVANCED_FACE('',(#1086),#29,.F.);
#1184=ADVANCED_FACE('',(#1087),#65,.T.);
#1185=ADVANCED_FACE('',(#1088),#66,.F.);
#1186=ADVANCED_FACE('',(#1089),#20,.T.);
#1187=ADVANCED_FACE('',(#1090),#67,.F.);
#1188=ADVANCED_FACE('',(#1091),#68,.F.);
#1189=ADVANCED_FACE('',(#1092),#69,.F.);
#1190=ADVANCED_FACE('',(#1093),#23,.F.);
#1191=ADVANCED_FACE('',(#1094),#70,.F.);
#1192=ADVANCED_FACE('',(#1095),#71,.F.);
#1193=ADVANCED_FACE('',(#1096),#72,.F.);
#1194=ADVANCED_FACE('',(#1097),#24,.F.);
#1195=ADVANCED_FACE('',(#1098),#73,.F.);
#1196=ADVANCED_FACE('',(#1099),#74,.F.);
#1197=ADVANCED_FACE('',(#1100),#30,.F.);
#1198=ADVANCED_FACE('',(#1101),#75,.F.);
#1199=ADVANCED_FACE('',(#1102),#76,.F.);
#1200=CLOSED_SHELL('',(#1128,#1129,#1130,#1131,#1132,#1133,#1134,#1135,
#1136,#1137,#1138,#1139,#1140,#1141,#1142,#1143,#1144,#1145,#1146,#1147,
#1148,#1149,#1150,#1151,#1152,#1153,#1154,#1155,#1156,#1157,#1158,#1159,
#1160,#1161,#1162,#1163,#1164,#1165,#1166,#1167,#1168,#1169,#1170,#1171,
#1172,#1173,#1174,#1175,#1176,#1177,#1178,#1179,#1180,#1181,#1182,#1183,
#1184,#1185,#1186,#1187,#1188,#1189,#1190,#1191,#1192,#1193,#1194,#1195,
#1196,#1197,#1198,#1199));
#1201=STYLED_ITEM('',(#1202),#1209);
#1202=PRESENTATION_STYLE_ASSIGNMENT((#1203));
#1203=SURFACE_STYLE_USAGE(.BOTH.,#1204);
#1204=SURFACE_SIDE_STYLE('',(#1205));
#1205=SURFACE_STYLE_FILL_AREA(#1206);
#1206=FILL_AREA_STYLE('',(#1207));
#1207=FILL_AREA_STYLE_COLOUR('',#1208);
#1208=COLOUR_RGB('',0.5,0.5,0.5);
#1209=MANIFOLD_SOLID_BREP('',#1200);
#1210=SHAPE_DEFINITION_REPRESENTATION(#2166,#1211);
#1211=SHAPE_REPRESENTATION('blaze_ace_adapter',(#1212),#2161);
#1212=AXIS2_PLACEMENT_3D('',#1731,#1358,#1359);
#1213=AXIS2_PLACEMENT_3D('',#1732,#1360,#1361);
#1214=AXIS2_PLACEMENT_3D('',#1736,#1363,#1364);
#1215=AXIS2_PLACEMENT_3D('',#1747,#1370,#1371);
#1216=AXIS2_PLACEMENT_3D('',#1748,#1372,#1373);
#1217=AXIS2_PLACEMENT_3D('',#1753,#1375,#1376);
#1218=AXIS2_PLACEMENT_3D('',#1757,#1378,#1379);
#1219=AXIS2_PLACEMENT_3D('',#1761,#1381,#1382);
#1220=AXIS2_PLACEMENT_3D('',#1767,#1385,#1386);
#1221=AXIS2_PLACEMENT_3D('',#1775,#1390,#1391);
#1222=AXIS2_PLACEMENT_3D('',#1779,#1393,#1394);
#1223=AXIS2_PLACEMENT_3D('',#1782,#1396,#1397);
#1224=AXIS2_PLACEMENT_3D('',#1783,#1398,#1399);
#1225=AXIS2_PLACEMENT_3D('',#1785,#1400,#1401);
#1226=AXIS2_PLACEMENT_3D('',#1787,#1402,#1403);
#1227=AXIS2_PLACEMENT_3D('',#1788,#1404,#1405);
#1228=AXIS2_PLACEMENT_3D('',#1790,#1406,#1407);
#1229=AXIS2_PLACEMENT_3D('',#1792,#1408,#1409);
#1230=AXIS2_PLACEMENT_3D('',#1793,#1410,#1411);
#1231=AXIS2_PLACEMENT_3D('',#1795,#1412,#1413);
#1232=AXIS2_PLACEMENT_3D('',#1797,#1414,#1415);
#1233=AXIS2_PLACEMENT_3D('',#1801,#1417,#1418);
#1234=AXIS2_PLACEMENT_3D('',#1805,#1420,#1421);
#1235=AXIS2_PLACEMENT_3D('',#1809,#1423,#1424);
#1236=AXIS2_PLACEMENT_3D('',#1817,#1428,#1429);
#1237=AXIS2_PLACEMENT_3D('',#1820,#1431,#1432);
#1238=AXIS2_PLACEMENT_3D('',#1824,#1434,#1435);
#1239=AXIS2_PLACEMENT_3D('',#1825,#1436,#1437);
#1240=AXIS2_PLACEMENT_3D('',#1827,#1438,#1439);
#1241=AXIS2_PLACEMENT_3D('',#1836,#1444,#1445);
#1242=AXIS2_PLACEMENT_3D('',#1842,#1449,#1450);
#1243=AXIS2_PLACEMENT_3D('',#1843,#1451,#1452);
#1244=AXIS2_PLACEMENT_3D('',#1866,#1455,#1456);
#1245=AXIS2_PLACEMENT_3D('',#1867,#1457,#1458);
#1246=AXIS2_PLACEMENT_3D('',#1871,#1460,#1461);
#1247=AXIS2_PLACEMENT_3D('',#1875,#1463,#1464);
#1248=AXIS2_PLACEMENT_3D('',#1895,#1466,#1467);
#1249=AXIS2_PLACEMENT_3D('',#1898,#1469,#1470);
#1250=AXIS2_PLACEMENT_3D('',#1901,#1472,#1473);
#1251=AXIS2_PLACEMENT_3D('',#1907,#1476,#1477);
#1252=AXIS2_PLACEMENT_3D('',#1914,#1481,#1482);
#1253=AXIS2_PLACEMENT_3D('',#1915,#1483,#1484);
#1254=AXIS2_PLACEMENT_3D('',#1917,#1485,#1486);
#1255=AXIS2_PLACEMENT_3D('',#1925,#1491,#1492);
#1256=AXIS2_PLACEMENT_3D('',#1926,#1493,#1494);
#1257=AXIS2_PLACEMENT_3D('',#1927,#1495,#1496);
#1258=AXIS2_PLACEMENT_3D('',#1933,#1499,#1500);
#1259=AXIS2_PLACEMENT_3D('',#1938,#1503,#1504);
#1260=AXIS2_PLACEMENT_3D('',#1941,#1506,#1507);
#1261=AXIS2_PLACEMENT_3D('',#1943,#1509,#1510);
#1262=AXIS2_PLACEMENT_3D('',#1945,#1512,#1513);
#1263=AXIS2_PLACEMENT_3D('',#1946,#1514,#1515);
#1264=AXIS2_PLACEMENT_3D('',#1956,#1517,#1518);
#1265=AXIS2_PLACEMENT_3D('',#1968,#1522,#1523);
#1266=AXIS2_PLACEMENT_3D('',#1969,#1524,#1525);
#1267=AXIS2_PLACEMENT_3D('',#1970,#1526,#1527);
#1268=AXIS2_PLACEMENT_3D('',#1996,#1534,#1535);
#1269=AXIS2_PLACEMENT_3D('',#1997,#1536,#1537);
#1270=AXIS2_PLACEMENT_3D('',#1999,#1538,#1539);
#1271=AXIS2_PLACEMENT_3D('',#2000,#1540,#1541);
#1272=AXIS2_PLACEMENT_3D('',#2002,#1542,#1543);
#1273=AXIS2_PLACEMENT_3D('',#2003,#1544,#1545);
#1274=AXIS2_PLACEMENT_3D('',#2009,#1548,#1549);
#1275=AXIS2_PLACEMENT_3D('',#2013,#1552,#1553);
#1276=AXIS2_PLACEMENT_3D('',#2015,#1554,#1555);
#1277=AXIS2_PLACEMENT_3D('',#2016,#1556,#1557);
#1278=AXIS2_PLACEMENT_3D('',#2018,#1558,#1559);
#1279=AXIS2_PLACEMENT_3D('',#2019,#1560,#1561);
#1280=AXIS2_PLACEMENT_3D('',#2020,#1562,#1563);
#1281=AXIS2_PLACEMENT_3D('',#2022,#1564,#1565);
#1282=AXIS2_PLACEMENT_3D('',#2023,#1566,#1567);
#1283=AXIS2_PLACEMENT_3D('',#2024,#1568,#1569);
#1284=AXIS2_PLACEMENT_3D('',#2025,#1570,#1571);
#1285=AXIS2_PLACEMENT_3D('',#2026,#1572,#1573);
#1286=AXIS2_PLACEMENT_3D('',#2027,#1574,#1575);
#1287=AXIS2_PLACEMENT_3D('',#2028,#1576,#1577);
#1288=AXIS2_PLACEMENT_3D('',#2029,#1578,#1579);
#1289=AXIS2_PLACEMENT_3D('',#2030,#1580,#1581);
#1290=AXIS2_PLACEMENT_3D('',#2031,#1582,#1583);
#1291=AXIS2_PLACEMENT_3D('',#2032,#1584,#1585);
#1292=AXIS2_PLACEMENT_3D('',#2033,#1586,#1587);
#1293=AXIS2_PLACEMENT_3D('',#2034,#1588,#1589);
#1294=AXIS2_PLACEMENT_3D('',#2035,#1590,#1591);
#1295=AXIS2_PLACEMENT_3D('',#2036,#1592,#1593);
#1296=AXIS2_PLACEMENT_3D('',#2037,#1594,#1595);
#1297=AXIS2_PLACEMENT_3D('',#2038,#1596,#1597);
#1298=AXIS2_PLACEMENT_3D('',#2039,#1598,#1599);
#1299=AXIS2_PLACEMENT_3D('',#2040,#1600,#1601);
#1300=AXIS2_PLACEMENT_3D('',#2041,#1602,#1603);
#1301=AXIS2_PLACEMENT_3D('',#2042,#1604,#1605);
#1302=AXIS2_PLACEMENT_3D('',#2043,#1606,#1607);
#1303=AXIS2_PLACEMENT_3D('',#2044,#1608,#1609);
#1304=AXIS2_PLACEMENT_3D('',#2046,#1610,#1611);
#1305=AXIS2_PLACEMENT_3D('',#2047,#1612,#1613);
#1306=AXIS2_PLACEMENT_3D('',#2048,#1614,#1615);
#1307=AXIS2_PLACEMENT_3D('',#2050,#1616,#1617);
#1308=AXIS2_PLACEMENT_3D('',#2051,#1618,#1619);
#1309=AXIS2_PLACEMENT_3D('',#2052,#1620,#1621);
#1310=AXIS2_PLACEMENT_3D('',#2054,#1622,#1623);
#1311=AXIS2_PLACEMENT_3D('',#2055,#1624,#1625);
#1312=AXIS2_PLACEMENT_3D('',#2059,#1628,#1629);
#1313=AXIS2_PLACEMENT_3D('',#2063,#1632,#1633);
#1314=AXIS2_PLACEMENT_3D('',#2067,#1636,#1637);
#1315=AXIS2_PLACEMENT_3D('',#2073,#1641,#1642);
#1316=AXIS2_PLACEMENT_3D('',#2077,#1645,#1646);
#1317=AXIS2_PLACEMENT_3D('',#2081,#1649,#1650);
#1318=AXIS2_PLACEMENT_3D('',#2082,#1651,#1652);
#1319=AXIS2_PLACEMENT_3D('',#2083,#1653,#1654);
#1320=AXIS2_PLACEMENT_3D('',#2084,#1655,#1656);
#1321=AXIS2_PLACEMENT_3D('',#2085,#1657,#1658);
#1322=AXIS2_PLACEMENT_3D('',#2086,#1659,#1660);
#1323=AXIS2_PLACEMENT_3D('',#2087,#1661,#1662);
#1324=AXIS2_PLACEMENT_3D('',#2088,#1663,#1664);
#1325=AXIS2_PLACEMENT_3D('',#2089,#1665,#1666);
#1326=AXIS2_PLACEMENT_3D('',#2090,#1667,#1668);
#1327=AXIS2_PLACEMENT_3D('',#2091,#1669,#1670);
#1328=AXIS2_PLACEMENT_3D('',#2092,#1671,#1672);
#1329=AXIS2_PLACEMENT_3D('',#2097,#1673,#1674);
#1330=AXIS2_PLACEMENT_3D('',#2098,#1675,#1676);
#1331=AXIS2_PLACEMENT_3D('',#2099,#1677,#1678);
#1332=AXIS2_PLACEMENT_3D('',#2100,#1679,#1680);
#1333=AXIS2_PLACEMENT_3D('',#2101,#1681,#1682);
#1334=AXIS2_PLACEMENT_3D('',#2102,#1683,#1684);
#1335=AXIS2_PLACEMENT_3D('',#2103,#1685,#1686);
#1336=AXIS2_PLACEMENT_3D('',#2104,#1687,#1688);
#1337=AXIS2_PLACEMENT_3D('',#2105,#1689,#1690);
#1338=AXIS2_PLACEMENT_3D('',#2121,#1691,#1692);
#1339=AXIS2_PLACEMENT_3D('',#2122,#1693,#1694);
#1340=AXIS2_PLACEMENT_3D('',#2130,#1695,#1696);
#1341=AXIS2_PLACEMENT_3D('',#2131,#1697,#1698);
#1342=AXIS2_PLACEMENT_3D('',#2132,#1699,#1700);
#1343=AXIS2_PLACEMENT_3D('',#2133,#1701,#1702);
#1344=AXIS2_PLACEMENT_3D('',#2134,#1703,#1704);
#1345=AXIS2_PLACEMENT_3D('',#2135,#1705,#1706);
#1346=AXIS2_PLACEMENT_3D('',#2136,#1707,#1708);
#1347=AXIS2_PLACEMENT_3D('',#2137,#1709,#1710);
#1348=AXIS2_PLACEMENT_3D('',#2138,#1711,#1712);
#1349=AXIS2_PLACEMENT_3D('',#2139,#1713,#1714);
#1350=AXIS2_PLACEMENT_3D('',#2140,#1715,#1716);
#1351=AXIS2_PLACEMENT_3D('',#2141,#1717,#1718);
#1352=AXIS2_PLACEMENT_3D('',#2142,#1719,#1720);
#1353=AXIS2_PLACEMENT_3D('',#2143,#1721,#1722);
#1354=AXIS2_PLACEMENT_3D('',#2144,#1723,#1724);
#1355=AXIS2_PLACEMENT_3D('',#2149,#1725,#1726);
#1356=AXIS2_PLACEMENT_3D('',#2158,#1727,#1728);
#1357=AXIS2_PLACEMENT_3D('',#2159,#1729,#1730);
#1358=DIRECTION('',(0.,0.,1.));
#1359=DIRECTION('',(1.,0.,0.));
#1360=DIRECTION('',(0.,-1.,0.));
#1361=DIRECTION('',(0.,0.,-1.));
#1362=DIRECTION('',(-1.,0.,0.));
#1363=DIRECTION('',(0.,-1.,0.));
#1364=DIRECTION('',(0.,0.,-1.));
#1365=DIRECTION('',(0.,0.,-1.));
#1366=DIRECTION('',(-1.,0.,0.));
#1367=DIRECTION('',(0.,0.,-1.));
#1368=DIRECTION('',(-1.,0.,0.));
#1369=DIRECTION('',(0.,0.,-1.));
#1370=DIRECTION('',(-1.,0.,0.));
#1371=DIRECTION('',(0.,0.,1.));
#1372=DIRECTION('',(-1.,0.,0.));
#1373=DIRECTION('',(0.,-1.,1.48266963758701E-16));
#1374=DIRECTION('',(0.,1.48266963758701E-16,1.));
#1375=DIRECTION('',(-1.,0.,0.));
#1376=DIRECTION('',(0.,0.,1.));
#1377=DIRECTION('',(0.,0.,-1.));
#1378=DIRECTION('',(-1.,0.,0.));
#1379=DIRECTION('',(0.,0.,1.));
#1380=DIRECTION('',(0.,1.,0.));
#1381=DIRECTION('',(-1.,0.,0.));
#1382=DIRECTION('',(0.,0.,1.));
#1383=DIRECTION('',(0.,0.,-1.));
#1384=DIRECTION('',(1.26161707343768E-15,1.,0.));
#1385=DIRECTION('',(-1.,0.,0.));
#1386=DIRECTION('',(0.,0.,1.));
#1387=DIRECTION('',(0.,0.,-1.));
#1388=DIRECTION('',(0.,1.,0.));
#1389=DIRECTION('',(0.,-3.46944695195361E-16,1.));
#1390=DIRECTION('',(-1.,0.,0.));
#1391=DIRECTION('',(0.,0.,1.));
#1392=DIRECTION('',(0.,0.,1.));
#1393=DIRECTION('',(-1.,0.,0.));
#1394=DIRECTION('',(0.,0.,1.));
#1395=DIRECTION('',(0.,-1.,1.48266963758701E-16));
#1396=DIRECTION('',(0.,1.,0.));
#1397=DIRECTION('',(0.,0.,1.));
#1398=DIRECTION('',(0.,-1.,0.));
#1399=DIRECTION('',(0.,0.,1.));
#1400=DIRECTION('',(0.,-1.,0.));
#1401=DIRECTION('',(0.,0.,-1.));
#1402=DIRECTION('',(0.,1.,0.));
#1403=DIRECTION('',(0.,0.,1.));
#1404=DIRECTION('',(0.,-1.,0.));
#1405=DIRECTION('',(0.,0.,1.));
#1406=DIRECTION('',(0.,-1.,0.));
#1407=DIRECTION('',(0.,0.,-1.));
#1408=DIRECTION('',(0.,1.,0.));
#1409=DIRECTION('',(0.,0.,1.));
#1410=DIRECTION('',(0.,-1.,0.));
#1411=DIRECTION('',(0.,0.,1.));
#1412=DIRECTION('',(0.,-1.,0.));
#1413=DIRECTION('',(0.,0.,-1.));
#1414=DIRECTION('',(0.,0.,-1.));
#1415=DIRECTION('',(-1.,0.,0.));
#1416=DIRECTION('',(-0.995589630628348,0.0938151767322867,0.));
#1417=DIRECTION('',(0.,0.,-1.));
#1418=DIRECTION('',(-1.,0.,0.));
#1419=DIRECTION('',(0.,1.,0.));
#1420=DIRECTION('',(0.,0.,-1.));
#1421=DIRECTION('',(-1.,0.,0.));
#1422=DIRECTION('',(1.,0.,0.));
#1423=DIRECTION('',(0.,0.,-1.));
#1424=DIRECTION('',(-1.,0.,0.));
#1425=DIRECTION('',(0.,1.,0.));
#1426=DIRECTION('',(1.,0.,0.));
#1427=DIRECTION('',(0.,-1.,0.));
#1428=DIRECTION('',(0.,0.,-1.));
#1429=DIRECTION('',(-1.,0.,0.));
#1430=DIRECTION('',(0.,-1.,0.));
#1431=DIRECTION('',(0.,0.,-1.));
#1432=DIRECTION('',(-1.,0.,0.));
#1433=DIRECTION('',(1.,0.,0.));
#1434=DIRECTION('',(0.,0.,-1.));
#1435=DIRECTION('',(-1.,0.,0.));
#1436=DIRECTION('',(0.,0.,1.));
#1437=DIRECTION('',(-1.,0.,0.));
#1438=DIRECTION('',(0.,1.48266963758701E-16,1.));
#1439=DIRECTION('',(0.,-1.,1.48266963758701E-16));
#1440=DIRECTION('',(0.,-1.,1.48266963758701E-16));
#1441=DIRECTION('',(0.995589630628348,-0.0938151767322867,1.39096914085821E-17));
#1442=DIRECTION('',(0.,-1.,1.48266963758701E-16));
#1443=DIRECTION('',(1.,0.,0.));
#1444=DIRECTION('',(1.,0.,0.));
#1445=DIRECTION('',(0.,0.,-1.));
#1446=DIRECTION('',(0.,1.48266963758701E-16,1.));
#1447=DIRECTION('',(0.,-1.,1.48266963758701E-16));
#1448=DIRECTION('',(0.,0.,1.));
#1449=DIRECTION('',(1.,0.,0.));
#1450=DIRECTION('',(0.,0.,-1.));
#1451=DIRECTION('',(1.,0.,0.));
#1452=DIRECTION('',(0.,0.,-1.));
#1453=DIRECTION('',(-1.,0.,0.));
#1454=DIRECTION('',(-1.,0.,0.));
#1455=DIRECTION('',(-1.,0.,0.));
#1456=DIRECTION('',(0.,0.,1.));
#1457=DIRECTION('',(-1.,0.,0.));
#1458=DIRECTION('',(0.,0.,1.));
#1459=DIRECTION('',(1.,0.,0.));
#1460=DIRECTION('',(1.,0.,0.));
#1461=DIRECTION('',(0.,0.,-1.));
#1462=DIRECTION('',(1.,0.,0.));
#1463=DIRECTION('',(-1.,0.,0.));
#1464=DIRECTION('',(0.,0.,1.));
#1465=DIRECTION('',(1.,0.,0.));
#1466=DIRECTION('',(-1.,0.,0.));
#1467=DIRECTION('',(0.,0.,1.));
#1468=DIRECTION('',(0.,0.,1.));
#1469=DIRECTION('',(-1.,0.,0.));
#1470=DIRECTION('',(0.,0.,1.));
#1471=DIRECTION('',(0.,3.46944695195361E-16,-1.));
#1472=DIRECTION('',(0.,0.,-1.));
#1473=DIRECTION('',(-1.,0.,0.));
#1474=DIRECTION('',(-8.67361737988403E-17,-1.,0.));
#1475=DIRECTION('',(1.,0.,0.));
#1476=DIRECTION('',(0.,0.,-1.));
#1477=DIRECTION('',(-1.,0.,0.));
#1478=DIRECTION('',(0.,-1.,0.));
#1479=DIRECTION('',(-1.,0.,0.));
#1480=DIRECTION('',(-1.,0.,0.));
#1481=DIRECTION('',(0.,0.,-1.));
#1482=DIRECTION('',(-1.,0.,0.));
#1483=DIRECTION('',(0.,0.,1.));
#1484=DIRECTION('',(-1.,0.,0.));
#1485=DIRECTION('',(0.,1.,0.));
#1486=DIRECTION('',(0.,0.,1.));
#1487=DIRECTION('',(1.,0.,0.));
#1488=DIRECTION('',(0.,0.,-1.));
#1489=DIRECTION('',(0.,0.,-1.));
#1490=DIRECTION('',(0.,0.,-1.));
#1491=DIRECTION('',(0.,1.,0.));
#1492=DIRECTION('',(0.,0.,1.));
#1493=DIRECTION('',(1.,0.,0.));
#1494=DIRECTION('',(0.,0.,-1.));
#1495=DIRECTION('',(1.,0.,0.));
#1496=DIRECTION('',(0.,0.,-1.));
#1497=DIRECTION('',(0.,0.,-1.));
#1498=DIRECTION('',(0.,-3.46944695195361E-16,1.));
#1499=DIRECTION('',(-1.,0.,0.));
#1500=DIRECTION('',(0.,0.,-1.));
#1501=DIRECTION('',(0.,3.46944695195361E-16,-1.));
#1502=DIRECTION('',(0.,0.,-1.));
#1503=DIRECTION('',(1.,0.,0.));
#1504=DIRECTION('',(0.,0.,-1.));
#1505=DIRECTION('',(0.,-1.,0.));
#1506=DIRECTION('',(0.,0.,-1.));
#1507=DIRECTION('',(-1.,0.,0.));
#1508=DIRECTION('',(0.,-1.,0.));
#1509=DIRECTION('',(0.,0.,-1.));
#1510=DIRECTION('',(-1.,0.,0.));
#1511=DIRECTION('',(0.,1.,0.));
#1512=DIRECTION('',(0.,0.,-1.));
#1513=DIRECTION('',(-1.,0.,0.));
#1514=DIRECTION('',(1.,0.,0.));
#1515=DIRECTION('',(0.,0.,-1.));
#1516=DIRECTION('',(1.,0.,0.));
#1517=DIRECTION('',(1.,0.,0.));
#1518=DIRECTION('',(0.,0.,-1.));
#1519=DIRECTION('',(1.,0.,0.));
#1520=DIRECTION('',(1.,0.,0.));
#1521=DIRECTION('',(1.,0.,0.));
#1522=DIRECTION('',(0.,-1.,-3.46944695195361E-16));
#1523=DIRECTION('',(0.,3.46944695195361E-16,-1.));
#1524=DIRECTION('',(0.,1.,3.46944695195361E-16));
#1525=DIRECTION('',(0.,-3.46944695195361E-16,1.));
#1526=DIRECTION('',(0.,1.,0.));
#1527=DIRECTION('',(0.,0.,1.));
#1528=DIRECTION('',(-1.,0.,0.));
#1529=DIRECTION('',(0.,0.,1.));
#1530=DIRECTION('',(0.,0.,1.));
#1531=DIRECTION('',(1.,0.,0.));
#1532=DIRECTION('',(0.,0.,1.));
#1533=DIRECTION('',(-1.,0.,0.));
#1534=DIRECTION('',(0.,0.,-1.));
#1535=DIRECTION('',(-1.,0.,0.));
#1536=DIRECTION('',(0.,0.,-1.));
#1537=DIRECTION('',(-1.,0.,0.));
#1538=DIRECTION('',(0.,0.,-1.));
#1539=DIRECTION('',(-1.,0.,0.));
#1540=DIRECTION('',(0.,0.,-1.));
#1541=DIRECTION('',(-1.,0.,0.));
#1542=DIRECTION('',(-0.0938151767322867,-0.995589630628348,1.47613051682912E-16));
#1543=DIRECTION('',(0.995589630628348,-0.0938151767322867,0.));
#1544=DIRECTION('',(-0.0938151767322867,-0.995589630628348,1.47613051682912E-16));
#1545=DIRECTION('',(-0.995589630628348,0.0938151767322867,1.56650585459417E-15));
#1546=DIRECTION('',(-1.54074395550979E-33,1.48266963758701E-16,1.));
#1547=DIRECTION('',(0.995589630628348,-0.0938151767322867,1.39096914085821E-17));
#1548=DIRECTION('',(-0.0938151767322867,-0.995589630628348,1.47613051682912E-16));
#1549=DIRECTION('',(-0.995589630628348,0.0938151767322867,1.56650585459417E-15));
#1550=DIRECTION('',(0.995589630628348,-0.0938151767322867,1.39096914085821E-17));
#1551=DIRECTION('',(-1.54074395550979E-33,1.48266963758701E-16,1.));
#1552=DIRECTION('',(-0.0938151767322867,-0.995589630628348,1.47613051682912E-16));
#1553=DIRECTION('',(-0.995589630628348,0.0938151767322867,1.56650585459417E-15));
#1554=DIRECTION('',(0.,0.,-1.));
#1555=DIRECTION('',(-1.,0.,0.));
#1556=DIRECTION('',(0.,0.,-1.));
#1557=DIRECTION('',(1.,0.,0.));
#1558=DIRECTION('',(0.,0.,-1.));
#1559=DIRECTION('',(-1.,0.,0.));
#1560=DIRECTION('',(0.,0.,-1.));
#1561=DIRECTION('',(-1.,0.,0.));
#1562=DIRECTION('',(0.,0.,-1.));
#1563=DIRECTION('',(1.,0.,0.));
#1564=DIRECTION('',(0.,0.,-1.));
#1565=DIRECTION('',(-1.,0.,0.));
#1566=DIRECTION('',(0.,0.,-1.));
#1567=DIRECTION('',(-1.,0.,0.));
#1568=DIRECTION('',(0.,0.,-1.));
#1569=DIRECTION('',(1.,0.,0.));
#1570=DIRECTION('',(0.,0.,1.));
#1571=DIRECTION('',(1.,0.,0.));
#1572=DIRECTION('',(-1.,0.,0.));
#1573=DIRECTION('',(0.,0.,1.));
#1574=DIRECTION('',(0.,1.,0.));
#1575=DIRECTION('',(0.,0.,1.));
#1576=DIRECTION('',(0.,-1.,0.));
#1577=DIRECTION('',(0.,0.,-1.));
#1578=DIRECTION('',(0.,1.,0.));
#1579=DIRECTION('',(0.,0.,1.));
#1580=DIRECTION('',(-1.,0.,0.));
#1581=DIRECTION('',(0.,0.,1.));
#1582=DIRECTION('',(0.,0.,-1.));
#1583=DIRECTION('',(-1.,0.,0.));
#1584=DIRECTION('',(0.,0.,-1.));
#1585=DIRECTION('',(-1.,0.,0.));
#1586=DIRECTION('',(0.,0.,-1.));
#1587=DIRECTION('',(1.,0.,0.));
#1588=DIRECTION('',(0.,0.,-1.));
#1589=DIRECTION('',(-1.,0.,0.));
#1590=DIRECTION('',(0.,0.,1.));
#1591=DIRECTION('',(1.,0.,0.));
#1592=DIRECTION('',(1.,0.,0.));
#1593=DIRECTION('',(0.,0.,-1.));
#1594=DIRECTION('',(0.,-1.,0.));
#1595=DIRECTION('',(0.,0.,-1.));
#1596=DIRECTION('',(0.,1.,0.));
#1597=DIRECTION('',(0.,0.,1.));
#1598=DIRECTION('',(0.,-1.,0.));
#1599=DIRECTION('',(0.,0.,-1.));
#1600=DIRECTION('',(1.,0.,0.));
#1601=DIRECTION('',(0.,0.,-1.));
#1602=DIRECTION('',(0.,0.,-1.));
#1603=DIRECTION('',(-1.,0.,0.));
#1604=DIRECTION('',(0.,0.,-1.));
#1605=DIRECTION('',(-1.,0.,0.));
#1606=DIRECTION('',(0.,1.,0.));
#1607=DIRECTION('',(0.,0.,1.));
#1608=DIRECTION('',(0.,-1.,0.));
#1609=DIRECTION('',(0.,0.,1.));
#1610=DIRECTION('',(0.,-1.,0.));
#1611=DIRECTION('',(0.,0.,-1.));
#1612=DIRECTION('',(0.,1.,0.));
#1613=DIRECTION('',(0.,0.,1.));
#1614=DIRECTION('',(0.,-1.,0.));
#1615=DIRECTION('',(0.,0.,1.));
#1616=DIRECTION('',(0.,-1.,0.));
#1617=DIRECTION('',(0.,0.,-1.));
#1618=DIRECTION('',(0.,1.,0.));
#1619=DIRECTION('',(0.,0.,1.));
#1620=DIRECTION('',(0.,-1.,0.));
#1621=DIRECTION('',(0.,0.,1.));
#1622=DIRECTION('',(0.,-1.,0.));
#1623=DIRECTION('',(0.,0.,-1.));
#1624=DIRECTION('',(1.,-8.67361737988403E-17,0.));
#1625=DIRECTION('',(8.67361737988403E-17,1.,0.));
#1626=DIRECTION('',(0.,0.,-1.));
#1627=DIRECTION('',(-8.67361737988403E-17,-1.,0.));
#1628=DIRECTION('',(0.,-1.,0.));
#1629=DIRECTION('',(0.,0.,-1.));
#1630=DIRECTION('',(-1.,0.,0.));
#1631=DIRECTION('',(0.,0.,-1.));
#1632=DIRECTION('',(0.,0.,-1.));
#1633=DIRECTION('',(-1.,0.,0.));
#1634=DIRECTION('',(-8.67361737988403E-17,-1.,0.));
#1635=DIRECTION('',(-1.,0.,0.));
#1636=DIRECTION('',(0.,1.,0.));
#1637=DIRECTION('',(0.,0.,1.));
#1638=DIRECTION('',(0.,0.,-1.));
#1639=DIRECTION('',(1.,0.,0.));
#1640=DIRECTION('',(0.,-1.48266963758701E-16,-1.));
#1641=DIRECTION('',(1.,0.,0.));
#1642=DIRECTION('',(0.,0.,-1.));
#1643=DIRECTION('',(0.,-1.,0.));
#1644=DIRECTION('',(0.,0.,-1.));
#1645=DIRECTION('',(0.,0.,-1.));
#1646=DIRECTION('',(-1.,0.,0.));
#1647=DIRECTION('',(1.,0.,0.));
#1648=DIRECTION('',(0.,-1.,0.));
#1649=DIRECTION('',(0.,0.,-1.));
#1650=DIRECTION('',(-1.,0.,0.));
#1651=DIRECTION('',(0.,0.,1.));
#1652=DIRECTION('',(1.,0.,0.));
#1653=DIRECTION('',(0.,0.,1.));
#1654=DIRECTION('',(1.,0.,0.));
#1655=DIRECTION('',(-1.,0.,0.));
#1656=DIRECTION('',(0.,0.,1.));
#1657=DIRECTION('',(0.,1.,0.));
#1658=DIRECTION('',(0.,0.,1.));
#1659=DIRECTION('',(0.,-1.48266963758701E-16,-1.));
#1660=DIRECTION('',(0.,1.,-1.48266963758701E-16));
#1661=DIRECTION('',(0.,-1.5488072350827E-15,1.));
#1662=DIRECTION('',(0.,-1.,-1.5488072350827E-15));
#1663=DIRECTION('',(0.,1.,-1.48266963758701E-16));
#1664=DIRECTION('',(0.,1.48266963758701E-16,1.));
#1665=DIRECTION('',(1.54197642309049E-15,-1.,0.));
#1666=DIRECTION('',(1.,1.54197642309049E-15,0.));
#1667=DIRECTION('',(1.,0.,0.));
#1668=DIRECTION('',(0.,0.,-1.));
#1669=DIRECTION('',(-1.,0.,0.));
#1670=DIRECTION('',(0.,0.,1.));
#1671=DIRECTION('',(0.,0.,-1.));
#1672=DIRECTION('',(-1.,0.,0.));
#1673=DIRECTION('',(0.,0.,-1.));
#1674=DIRECTION('',(-1.,0.,0.));
#1675=DIRECTION('',(0.,0.,1.));
#1676=DIRECTION('',(1.,0.,0.));
#1677=DIRECTION('',(-0.995589630628348,0.0938151767322864,-1.44660790649253E-16));
#1678=DIRECTION('',(-0.0938151767322864,-0.995589630628348,0.));
#1679=DIRECTION('',(-1.,0.,0.));
#1680=DIRECTION('',(0.,0.,1.));
#1681=DIRECTION('',(0.,-1.,0.));
#1682=DIRECTION('',(0.,0.,-1.));
#1683=DIRECTION('',(0.995589630628348,-0.0938151767322867,1.39096914085821E-17));
#1684=DIRECTION('',(0.0938151767322867,0.995589630628348,0.));
#1685=DIRECTION('',(0.995741227658791,0.0921922314545168,-1.36690622399007E-17));
#1686=DIRECTION('',(0.0921922314545168,-0.995741227658791,0.));
#1687=DIRECTION('',(0.,1.,-1.48266963758701E-16));
#1688=DIRECTION('',(0.,1.48266963758701E-16,1.));
#1689=DIRECTION('',(0.,1.,0.));
#1690=DIRECTION('',(0.,0.,1.));
#1691=DIRECTION('',(0.,0.,-1.));
#1692=DIRECTION('',(-1.,0.,0.));
#1693=DIRECTION('',(0.,-1.48266963758701E-16,-1.));
#1694=DIRECTION('',(0.,1.,-1.48266963758701E-16));
#1695=DIRECTION('',(0.,0.,1.));
#1696=DIRECTION('',(1.,0.,0.));
#1697=DIRECTION('',(0.,0.,-1.));
#1698=DIRECTION('',(-1.,0.,0.));
#1699=DIRECTION('',(1.,0.,0.));
#1700=DIRECTION('',(0.,0.,-1.));
#1701=DIRECTION('',(-1.,0.,0.));
#1702=DIRECTION('',(0.,0.,1.));
#1703=DIRECTION('',(0.,0.,1.));
#1704=DIRECTION('',(1.,0.,0.));
#1705=DIRECTION('',(0.,-1.,0.));
#1706=DIRECTION('',(0.,0.,-1.));
#1707=DIRECTION('',(0.,-1.,0.));
#1708=DIRECTION('',(0.,0.,-1.));
#1709=DIRECTION('',(0.,0.,1.));
#1710=DIRECTION('',(1.,0.,0.));
#1711=DIRECTION('',(0.,0.,-1.));
#1712=DIRECTION('',(-1.,0.,0.));
#1713=DIRECTION('',(-8.67361737988403E-17,-1.,0.));
#1714=DIRECTION('',(1.,-8.67361737988403E-17,0.));
#1715=DIRECTION('',(0.,1.,0.));
#1716=DIRECTION('',(0.,0.,1.));
#1717=DIRECTION('',(0.,0.,1.));
#1718=DIRECTION('',(1.,0.,0.));
#1719=DIRECTION('',(-1.,0.,0.));
#1720=DIRECTION('',(0.,0.,1.));
#1721=DIRECTION('',(-1.,0.,0.));
#1722=DIRECTION('',(0.,0.,1.));
#1723=DIRECTION('',(0.,0.,-1.));
#1724=DIRECTION('',(-1.,0.,0.));
#1725=DIRECTION('',(1.,0.,0.));
#1726=DIRECTION('',(0.,0.,-1.));
#1727=DIRECTION('',(1.,0.,0.));
#1728=DIRECTION('',(0.,0.,-1.));
#1729=DIRECTION('',(1.,0.,0.));
#1730=DIRECTION('',(0.,0.,-1.));
#1731=CARTESIAN_POINT('',(0.,0.,0.));
#1732=CARTESIAN_POINT('',(11.75,-37.9,41.));
#1733=CARTESIAN_POINT('',(-3.75,-37.9,4.));
#1734=CARTESIAN_POINT('',(-6.,-37.9,4.));
#1735=CARTESIAN_POINT('',(-9.49999999999999,-37.9,4.));
#1736=CARTESIAN_POINT('',(-6.,-37.9,1.75));
#1737=CARTESIAN_POINT('',(-3.75,-37.9,1.75));
#1738=CARTESIAN_POINT('',(-3.75,-37.9,4.));
#1739=CARTESIAN_POINT('',(-3.75,-37.9,0.));
#1740=CARTESIAN_POINT('',(11.75,-37.9,0.));
#1741=CARTESIAN_POINT('',(9.5,-37.9,0.));
#1742=CARTESIAN_POINT('',(9.5,-37.9,41.));
#1743=CARTESIAN_POINT('',(9.5,-37.9,33.));
#1744=CARTESIAN_POINT('',(-11.75,-37.9,33.));
#1745=CARTESIAN_POINT('',(-9.49999999999999,-37.9,33.));
#1746=CARTESIAN_POINT('',(-9.49999999999999,-37.9,41.));
#1747=CARTESIAN_POINT('',(-11.75,-37.9,41.));
#1748=CARTESIAN_POINT('',(-11.75,-30.9280134787117,28.75));
#1749=CARTESIAN_POINT('',(-11.75,-35.4479480597498,28.75));
#1750=CARTESIAN_POINT('',(-11.75,-30.9280134787117,33.25));
#1751=CARTESIAN_POINT('',(-11.75,-35.4479480597498,4.));
#1752=CARTESIAN_POINT('',(-11.75,-35.4479480597498,3.99090941660772));
#1753=CARTESIAN_POINT('',(-11.75,-35.65,1.75));
#1754=CARTESIAN_POINT('',(-11.75,-35.65,4.));
#1755=CARTESIAN_POINT('',(-11.75,-35.65,41.));
#1756=CARTESIAN_POINT('',(-11.75,-35.65,33.));
#1757=CARTESIAN_POINT('',(-11.75,-29.9,33.));
#1758=CARTESIAN_POINT('',(-11.75,-29.9,38.75));
#1759=CARTESIAN_POINT('',(-11.75,29.9,38.75));
#1760=CARTESIAN_POINT('',(-11.75,29.9,38.75));
#1761=CARTESIAN_POINT('',(-11.75,29.9,33.));
#1762=CARTESIAN_POINT('',(-11.75,35.65,33.));
#1763=CARTESIAN_POINT('',(-11.75,35.65,41.));
#1764=CARTESIAN_POINT('',(-11.75,35.65,4.));
#1765=CARTESIAN_POINT('',(-11.75,32.9,4.));
#1766=CARTESIAN_POINT('',(-11.75,35.15,4.));
#1767=CARTESIAN_POINT('',(-11.75,35.15,1.75));
#1768=CARTESIAN_POINT('',(-11.75,32.9,1.75));
#1769=CARTESIAN_POINT('',(-11.75,32.9,4.));
#1770=CARTESIAN_POINT('',(-11.75,32.9,0.));
#1771=CARTESIAN_POINT('',(-11.75,-37.9,0.));
#1772=CARTESIAN_POINT('',(-11.75,11.4017542509914,3.46944695195361E-15));
#1773=CARTESIAN_POINT('',(-11.75,11.4017542509914,41.));
#1774=CARTESIAN_POINT('',(-11.75,11.4017542509914,5.00000000000001));
#1775=CARTESIAN_POINT('',(-11.75,0.,15.5));
#1776=CARTESIAN_POINT('',(-11.75,-12.25,24.9967099566113));
#1777=CARTESIAN_POINT('',(-11.75,-12.25,31.));
#1778=CARTESIAN_POINT('',(-11.75,-12.25,28.75));
#1779=CARTESIAN_POINT('',(-11.75,-16.75,28.75));
#1780=CARTESIAN_POINT('',(-11.75,-16.75,33.25));
#1781=CARTESIAN_POINT('',(-11.75,-33.4,33.25));
#1782=CARTESIAN_POINT('',(-24.75,-129.072640713217,5.5));
#1783=CARTESIAN_POINT('',(-24.75,-14.5,5.5));
#1784=CARTESIAN_POINT('',(-24.75,-14.5,7.2));
#1785=CARTESIAN_POINT('',(-24.75,-25.5,5.5));
#1786=CARTESIAN_POINT('',(-24.75,-25.5,3.8));
#1787=CARTESIAN_POINT('',(-24.75,-129.072640713217,25.5));
#1788=CARTESIAN_POINT('',(-24.75,-14.5,25.5));
#1789=CARTESIAN_POINT('',(-24.75,-14.5,27.2));
#1790=CARTESIAN_POINT('',(-24.75,-25.5,25.5));
#1791=CARTESIAN_POINT('',(-24.75,-25.5,23.8));
#1792=CARTESIAN_POINT('',(-48.45,-129.072640713217,15.5));
#1793=CARTESIAN_POINT('',(-48.45,-14.5,15.5));
#1794=CARTESIAN_POINT('',(-48.45,-14.5,17.2));
#1795=CARTESIAN_POINT('',(-48.45,-25.5,15.5));
#1796=CARTESIAN_POINT('',(-48.45,-25.5,13.8));
#1797=CARTESIAN_POINT('',(0.,0.,0.));
#1798=CARTESIAN_POINT('',(-3.22302245959509,-34.2035036528459,0.));
#1799=CARTESIAN_POINT('',(-13.7889158523523,-33.207871390836,0.));
#1800=CARTESIAN_POINT('',(-61.7110841476476,-28.692128609164,0.));
#1801=CARTESIAN_POINT('',(-61.5,-26.4520519402502,0.));
#1802=CARTESIAN_POINT('',(-63.75,-26.4520519402502,0.));
#1803=CARTESIAN_POINT('',(-63.75,-37.9,0.));
#1804=CARTESIAN_POINT('',(-63.75,-16.75,0.));
#1805=CARTESIAN_POINT('',(-61.5,-16.75,0.));
#1806=CARTESIAN_POINT('',(-61.5,-14.5,0.));
#1807=CARTESIAN_POINT('',(-63.75,-14.5,0.));
#1808=CARTESIAN_POINT('',(-14.,-14.5,0.));
#1809=CARTESIAN_POINT('',(-14.,-12.25,0.));
#1810=CARTESIAN_POINT('',(-11.75,-12.25,0.));
#1811=CARTESIAN_POINT('',(-11.75,-37.9,0.));
#1812=CARTESIAN_POINT('',(-11.75,-11.4017542509914,0.));
#1813=CARTESIAN_POINT('',(0.,-11.4017542509914,0.));
#1814=CARTESIAN_POINT('',(11.75,-11.4017542509914,0.));
#1815=CARTESIAN_POINT('',(11.75,37.9,0.));
#1816=CARTESIAN_POINT('',(11.75,-35.65,0.));
#1817=CARTESIAN_POINT('',(9.5,-35.65,0.));
#1818=CARTESIAN_POINT('',(-3.75,-33.4,0.));
#1819=CARTESIAN_POINT('',(-3.75,-35.65,0.));
#1820=CARTESIAN_POINT('',(-6.,-35.65,0.));
#1821=CARTESIAN_POINT('',(-6.,-33.4,0.));
#1822=CARTESIAN_POINT('',(-11.75,-33.4,0.));
#1823=CARTESIAN_POINT('',(-13.0681154875378,-33.4,0.));
#1824=CARTESIAN_POINT('',(-14.,-35.4479480597498,0.));
#1825=CARTESIAN_POINT('',(1.32869789389728E-15,-32.3,0.));
#1826=CARTESIAN_POINT('',(-2.15,-32.3,0.));
#1827=CARTESIAN_POINT('',(-63.75,-14.5,31.));
#1828=CARTESIAN_POINT('',(-61.5,-28.5,31.));
#1829=CARTESIAN_POINT('',(-61.5,-16.75,31.));
#1830=CARTESIAN_POINT('',(-61.5,-26.4520519402502,31.));
#1831=CARTESIAN_POINT('',(-64.8465356924556,-26.1367053076919,31.));
#1832=CARTESIAN_POINT('',(-14.,-30.9280134787117,31.));
#1833=CARTESIAN_POINT('',(-14.,-14.5,31.));
#1834=CARTESIAN_POINT('',(-14.,-16.75,31.));
#1835=CARTESIAN_POINT('',(-63.75,-16.75,31.));
#1836=CARTESIAN_POINT('',(-63.75,0.,0.));
#1837=CARTESIAN_POINT('',(-63.75,-26.4520519402502,31.));
#1838=CARTESIAN_POINT('',(-63.75,-26.4520519402502,28.75));
#1839=CARTESIAN_POINT('',(-63.75,-14.5,28.75));
#1840=CARTESIAN_POINT('',(-63.75,-16.75,28.75));
#1841=CARTESIAN_POINT('',(-63.75,-16.75,0.));
#1842=CARTESIAN_POINT('',(11.75,-29.9,33.));
#1843=CARTESIAN_POINT('',(9.5,-29.9,33.));
#1844=CARTESIAN_POINT('',(9.5,-29.9,41.));
#1845=CARTESIAN_POINT('',(11.75,-29.9,41.));
#1846=CARTESIAN_POINT('',(3.50749198145912,-29.9,41.));
#1847=CARTESIAN_POINT('',(-3.50749198145912,-29.9,41.));
#1848=CARTESIAN_POINT('',(-3.98481499522792,-30.5975861014,41.));
#1849=CARTESIAN_POINT('',(-4.48253525397769,-32.2663292781545,40.7901159691267));
#1850=CARTESIAN_POINT('',(-3.93893872157295,-34.1593772053268,39.8464787162591));
#1851=CARTESIAN_POINT('',(-3.08181746367286,-35.2885759620193,38.9418797272637));
#1852=CARTESIAN_POINT('',(-2.25635181235182,-35.9538609673311,38.2546503232089));
#1853=CARTESIAN_POINT('',(-1.24531295183515,-36.4206145247742,37.646650969956));
#1854=CARTESIAN_POINT('',(0.000625316286024037,-36.6151869206483,37.3466950401484));
#1855=CARTESIAN_POINT('',(1.25380658318435,-36.4186354222843,37.6497131585661));
#1856=CARTESIAN_POINT('',(2.26126474335974,-35.9498617511785,38.2588176010642));
#1857=CARTESIAN_POINT('',(3.08243443392619,-35.2888475853945,38.9423717657556));
#1858=CARTESIAN_POINT('',(3.72671257608019,-34.4348526182796,39.6229739828797));
#1859=CARTESIAN_POINT('',(4.15036474279596,-33.4242484463878,40.2162290436531));
#1860=CARTESIAN_POINT('',(4.3617658477383,-31.8528324369207,40.8419467855716));
#1861=CARTESIAN_POINT('',(3.98591978505669,-30.5992007020107,41.));
#1862=CARTESIAN_POINT('',(3.50749198145912,-29.9,41.));
#1863=CARTESIAN_POINT('',(-3.50749198145912,-29.9,41.));
#1864=CARTESIAN_POINT('',(11.75,-29.9,41.));
#1865=CARTESIAN_POINT('',(-9.49999999999999,-29.9,41.));
#1866=CARTESIAN_POINT('',(-9.49999999999999,-29.9,33.));
#1867=CARTESIAN_POINT('',(-11.75,29.9,33.));
#1868=CARTESIAN_POINT('',(-11.75,29.9,41.));
#1869=CARTESIAN_POINT('',(9.5,29.9,41.));
#1870=CARTESIAN_POINT('',(3.50749198145912,29.9,41.));
#1871=CARTESIAN_POINT('',(9.5,29.9,33.));
#1872=CARTESIAN_POINT('',(9.5,37.9,33.));
#1873=CARTESIAN_POINT('',(11.75,37.9,33.));
#1874=CARTESIAN_POINT('',(-9.49999999999999,37.9,33.));
#1875=CARTESIAN_POINT('',(-9.49999999999999,29.9,33.));
#1876=CARTESIAN_POINT('',(-9.49999999999999,29.9,41.));
#1877=CARTESIAN_POINT('',(-11.75,29.9,41.));
#1878=CARTESIAN_POINT('',(-3.50749198145912,29.9,41.));
#1879=CARTESIAN_POINT('',(3.50749198145912,29.9,41.));
#1880=CARTESIAN_POINT('',(3.98481499522791,30.5975861014,41.));
#1881=CARTESIAN_POINT('',(4.48253525397768,32.2663292781545,40.7901159691267));
#1882=CARTESIAN_POINT('',(3.93893872157295,34.1593772053268,39.8464787162591));
#1883=CARTESIAN_POINT('',(3.08181746367285,35.2885759620193,38.9418797272638));
#1884=CARTESIAN_POINT('',(2.25635181235183,35.9538609673311,38.2546503232089));
#1885=CARTESIAN_POINT('',(1.24531295183515,36.4206145247742,37.6466509699561));
#1886=CARTESIAN_POINT('',(-0.000625316286019288,36.6151869206484,37.3466950401484));
#1887=CARTESIAN_POINT('',(-1.25380658318435,36.4186354222843,37.6497131585661));
#1888=CARTESIAN_POINT('',(-2.26126474335974,35.9498617511785,38.2588176010642));
#1889=CARTESIAN_POINT('',(-3.08243443392619,35.2888475853945,38.9423717657556));
#1890=CARTESIAN_POINT('',(-3.72671257608018,34.4348526182796,39.6229739828797));
#1891=CARTESIAN_POINT('',(-4.15036474279596,33.4242484463878,40.216229043653));
#1892=CARTESIAN_POINT('',(-4.3617658477383,31.8528324369207,40.8419467855717));
#1893=CARTESIAN_POINT('',(-3.9859197850567,30.5992007020107,41.));
#1894=CARTESIAN_POINT('',(-3.50749198145912,29.9,41.));
#1895=CARTESIAN_POINT('',(-11.75,-37.9,41.));
#1896=CARTESIAN_POINT('',(-11.75,-12.25,10.0227744249483));
#1897=CARTESIAN_POINT('',(-11.75,-12.25,6.0032900433887));
#1898=CARTESIAN_POINT('',(-11.75,0.,15.5));
#1899=CARTESIAN_POINT('',(-11.75,-11.4017542509914,5.));
#1900=CARTESIAN_POINT('',(-11.75,-11.4017542509914,41.));
#1901=CARTESIAN_POINT('',(0.,0.,0.));
#1902=CARTESIAN_POINT('',(-3.74999999999999,37.9,0.));
#1903=CARTESIAN_POINT('',(-3.74999999999999,37.9,0.));
#1904=CARTESIAN_POINT('',(-3.74999999999999,35.15,0.));
#1905=CARTESIAN_POINT('',(-11.75,37.9,0.));
#1906=CARTESIAN_POINT('',(9.5,37.9,0.));
#1907=CARTESIAN_POINT('',(9.5,35.65,0.));
#1908=CARTESIAN_POINT('',(11.75,35.65,0.));
#1909=CARTESIAN_POINT('',(11.75,37.9,0.));
#1910=CARTESIAN_POINT('',(11.75,11.4017542509914,3.46944695195361E-15));
#1911=CARTESIAN_POINT('',(0.,11.4017542509914,0.));
#1912=CARTESIAN_POINT('',(-3.74999999999999,32.9,0.));
#1913=CARTESIAN_POINT('',(-5.99999999999999,32.9,0.));
#1914=CARTESIAN_POINT('',(-5.99999999999999,35.15,0.));
#1915=CARTESIAN_POINT('',(1.32869789389728E-15,32.3,0.));
#1916=CARTESIAN_POINT('',(-2.15,32.3,0.));
#1917=CARTESIAN_POINT('',(-11.75,37.9,41.));
#1918=CARTESIAN_POINT('',(-3.74999999999999,37.9,4.));
#1919=CARTESIAN_POINT('',(-9.49999999999999,37.9,4.));
#1920=CARTESIAN_POINT('',(-5.99999999999999,37.9,4.));
#1921=CARTESIAN_POINT('',(-9.49999999999999,37.9,41.));
#1922=CARTESIAN_POINT('',(9.5,37.9,41.));
#1923=CARTESIAN_POINT('',(-3.74999999999999,37.9,4.));
#1924=CARTESIAN_POINT('',(-3.74999999999999,37.9,1.75));
#1925=CARTESIAN_POINT('',(-5.99999999999999,37.9,1.75));
#1926=CARTESIAN_POINT('',(11.75,37.9,41.));
#1927=CARTESIAN_POINT('',(11.75,-29.9,33.));
#1928=CARTESIAN_POINT('',(11.75,-29.9,38.75));
#1929=CARTESIAN_POINT('',(11.75,-35.65,33.));
#1930=CARTESIAN_POINT('',(11.75,-35.65,41.));
#1931=CARTESIAN_POINT('',(11.75,-11.4017542509914,5.));
#1932=CARTESIAN_POINT('',(11.75,-11.4017542509914,5.));
#1933=CARTESIAN_POINT('',(11.75,0.,15.5));
#1934=CARTESIAN_POINT('',(11.75,11.4017542509914,5.00000000000001));
#1935=CARTESIAN_POINT('',(11.75,11.4017542509914,5.));
#1936=CARTESIAN_POINT('',(11.75,35.65,41.));
#1937=CARTESIAN_POINT('',(11.75,35.65,33.));
#1938=CARTESIAN_POINT('',(11.75,29.9,33.));
#1939=CARTESIAN_POINT('',(11.75,29.9,38.75));
#1940=CARTESIAN_POINT('',(11.75,-29.9,38.75));
#1941=CARTESIAN_POINT('',(0.,0.,41.));
#1942=CARTESIAN_POINT('',(9.5,29.9,41.));
#1943=CARTESIAN_POINT('',(-1.32869789389728E-15,32.3,41.));
#1944=CARTESIAN_POINT('',(-9.49999999999999,-29.9,41.));
#1945=CARTESIAN_POINT('',(-1.32869789389728E-15,-32.3,41.));
#1946=CARTESIAN_POINT('',(-77.5746326608736,0.,15.5));
#1947=CARTESIAN_POINT('',(-11.75,-12.25,6.0032900433887));
#1948=CARTESIAN_POINT('',(-11.75,-12.7519473783891,6.65076221147214));
#1949=CARTESIAN_POINT('',(-11.9830066516075,-13.4126407784785,7.66739341273684));
#1950=CARTESIAN_POINT('',(-12.6280439601207,-14.0810013539047,8.98975723442332));
#1951=CARTESIAN_POINT('',(-13.1125677681918,-14.3462194318315,9.62718089936982));
#1952=CARTESIAN_POINT('',(-13.447199326142,-14.4310344827586,9.84356616255155));
#1953=CARTESIAN_POINT('',(-13.447199326142,-14.4310344827586,9.84356616255155));
#1954=CARTESIAN_POINT('',(-77.5746326608736,-14.4310344827586,9.84356616255155));
#1955=CARTESIAN_POINT('',(-10.75,-14.4310344827586,9.84356616255155));
#1956=CARTESIAN_POINT('',(-10.75,0.,15.5));
#1957=CARTESIAN_POINT('',(-10.75,-14.4310344827586,21.1564338374484));
#1958=CARTESIAN_POINT('',(-77.5746326608736,-14.4310344827586,21.1564338374484));
#1959=CARTESIAN_POINT('',(-13.4471993261425,-14.4310344827587,21.1564338374481));
#1960=CARTESIAN_POINT('',(-13.4471993261425,-14.4310344827587,21.1564338374481));
#1961=CARTESIAN_POINT('',(-13.1112496867991,-14.3458853535362,21.3736714212862));
#1962=CARTESIAN_POINT('',(-12.6297942242296,-14.0817698422723,22.0083478976011));
#1963=CARTESIAN_POINT('',(-11.9831008173135,-13.4140226210841,23.3305417490766));
#1964=CARTESIAN_POINT('',(-11.75,-12.750699849319,24.3508470017373));
#1965=CARTESIAN_POINT('',(-11.75,-12.25,24.9967099566113));
#1966=CARTESIAN_POINT('',(-77.5746326608736,11.4017542509914,5.00000000000001));
#1967=CARTESIAN_POINT('',(-77.5746326608736,-11.4017542509914,5.));
#1968=CARTESIAN_POINT('',(-77.5746326608736,11.4017542509914,5.));
#1969=CARTESIAN_POINT('',(-77.5746326608736,-11.4017542509914,5.));
#1970=CARTESIAN_POINT('',(-63.75,-14.5,0.));
#1971=CARTESIAN_POINT('',(-11.1037261264889,-14.5,20.7915026221292));
#1972=CARTESIAN_POINT('',(-11.2564992790212,-14.5,20.6229723535792));
#1973=CARTESIAN_POINT('',(-11.4422323962397,-14.5,20.1991411242745));
#1974=CARTESIAN_POINT('',(-11.6464243954764,-14.5,19.3184175805005));
#1975=CARTESIAN_POINT('',(-11.7325660869897,-14.5,18.2001277586879));
#1976=CARTESIAN_POINT('',(-11.7516139257204,-14.5,16.848499147426));
#1977=CARTESIAN_POINT('',(-11.7492130617883,-14.5,15.4983432059253));
#1978=CARTESIAN_POINT('',(-11.7515338271262,-14.5,14.1474276408874));
#1979=CARTESIAN_POINT('',(-11.7327615943516,-14.5,12.7980631818881));
#1980=CARTESIAN_POINT('',(-11.6449630742,-14.5,11.6714216139962));
#1981=CARTESIAN_POINT('',(-11.4407093074748,-14.5,10.7963994041468));
#1982=CARTESIAN_POINT('',(-11.2549045325422,-14.5,10.3752684168151));
#1983=CARTESIAN_POINT('',(-11.103726126489,-14.5,10.2084973778679));
#1984=CARTESIAN_POINT('',(-11.1037261264889,-14.5,20.7915026221292));
#1985=CARTESIAN_POINT('',(-11.1037261264876,-14.5,10.2084973778694));
#1986=CARTESIAN_POINT('',(-14.,-14.5,10.2084973778708));
#1987=CARTESIAN_POINT('',(-14.,-14.5,10.2084973778708));
#1988=CARTESIAN_POINT('',(-14.,-14.5,0.));
#1989=CARTESIAN_POINT('',(-61.5,-14.5,31.));
#1990=CARTESIAN_POINT('',(-61.5,-14.5,28.75));
#1991=CARTESIAN_POINT('',(-63.75,-14.5,28.75));
#1992=CARTESIAN_POINT('',(-14.,-14.5,28.75));
#1993=CARTESIAN_POINT('',(-14.,-14.5,20.9772255750517));
#1994=CARTESIAN_POINT('',(-14.,-14.5,20.7915026221292));
#1995=CARTESIAN_POINT('',(-10.75,-14.5,20.7915026221292));
#1996=CARTESIAN_POINT('',(1.32869789389728E-15,32.3,114.572640713217));
#1997=CARTESIAN_POINT('',(1.32869789389728E-15,32.3,30.));
#1998=CARTESIAN_POINT('',(-2.15,32.3,30.));
#1999=CARTESIAN_POINT('',(1.32869789389728E-15,-32.3,114.572640713217));
#2000=CARTESIAN_POINT('',(1.32869789389728E-15,-32.3,30.));
#2001=CARTESIAN_POINT('',(-2.15,-32.3,30.));
#2002=CARTESIAN_POINT('',(-63.75,-28.5,-83.5726407132174));
#2003=CARTESIAN_POINT('',(-24.75,-32.175,5.5));
#2004=CARTESIAN_POINT('',(-28.,-31.86875,5.50000000000001));
#2005=CARTESIAN_POINT('',(-13.7889158523523,-33.207871390836,31.));
#2006=CARTESIAN_POINT('',(-13.7889158523523,-33.207871390836,28.75));
#2007=CARTESIAN_POINT('',(-63.75,-28.5,28.75));
#2008=CARTESIAN_POINT('',(-24.75,-32.175,28.75));
#2009=CARTESIAN_POINT('',(-24.75,-32.175,25.5));
#2010=CARTESIAN_POINT('',(-63.75,-28.5,28.75));
#2011=CARTESIAN_POINT('',(-61.7110841476476,-28.692128609164,28.75));
#2012=CARTESIAN_POINT('',(-61.7110841476476,-28.692128609164,2.84863255319252E-17));
#2013=CARTESIAN_POINT('',(-48.45,-29.9417307692308,15.5));
#2014=CARTESIAN_POINT('',(-51.7,-29.6354807692308,15.5));
#2015=CARTESIAN_POINT('',(-1.32869789389728E-15,32.3,144.572640713217));
#2016=CARTESIAN_POINT('',(-1.32869789389728E-15,32.3,30.));
#2017=CARTESIAN_POINT('',(4.25,32.3,30.));
#2018=CARTESIAN_POINT('',(-1.32869789389728E-15,32.3,30.));
#2019=CARTESIAN_POINT('',(-1.32869789389728E-15,-32.3,144.572640713217));
#2020=CARTESIAN_POINT('',(-1.32869789389728E-15,-32.3,30.));
#2021=CARTESIAN_POINT('',(4.25,-32.3,30.));
#2022=CARTESIAN_POINT('',(-1.32869789389728E-15,-32.3,30.));
#2023=CARTESIAN_POINT('',(-9.49999999999999,-35.65,41.));
#2024=CARTESIAN_POINT('',(-9.49999999999999,-35.65,4.));
#2025=CARTESIAN_POINT('',(-9.49999999999999,-35.65,33.));
#2026=CARTESIAN_POINT('',(-9.49999999999999,-29.9,33.));
#2027=CARTESIAN_POINT('',(-9.49999999999999,-29.9,38.75));
#2028=CARTESIAN_POINT('',(-9.49999999999999,-37.9,38.75));
#2029=CARTESIAN_POINT('',(-9.49999999999999,29.9,38.75));
#2030=CARTESIAN_POINT('',(-9.49999999999999,29.9,33.));
#2031=CARTESIAN_POINT('',(-9.49999999999999,35.65,33.));
#2032=CARTESIAN_POINT('',(-9.49999999999999,35.65,41.));
#2033=CARTESIAN_POINT('',(-9.49999999999999,35.65,4.));
#2034=CARTESIAN_POINT('',(9.5,35.65,41.));
#2035=CARTESIAN_POINT('',(9.5,35.65,33.));
#2036=CARTESIAN_POINT('',(9.5,29.9,33.));
#2037=CARTESIAN_POINT('',(9.5,29.9,38.75));
#2038=CARTESIAN_POINT('',(9.5,37.9,38.75));
#2039=CARTESIAN_POINT('',(9.5,-29.9,38.75));
#2040=CARTESIAN_POINT('',(9.5,-29.9,33.));
#2041=CARTESIAN_POINT('',(9.5,-35.65,33.));
#2042=CARTESIAN_POINT('',(9.5,-35.65,41.));
#2043=CARTESIAN_POINT('',(-48.45,-140.072640713217,15.5));
#2044=CARTESIAN_POINT('',(-48.45,-25.5,15.5));
#2045=CARTESIAN_POINT('',(-48.45,-25.5,18.75));
#2046=CARTESIAN_POINT('',(-48.45,-25.5,15.5));
#2047=CARTESIAN_POINT('',(-24.75,-140.072640713217,25.5));
#2048=CARTESIAN_POINT('',(-24.75,-25.5,25.5));
#2049=CARTESIAN_POINT('',(-24.75,-25.5,28.75));
#2050=CARTESIAN_POINT('',(-24.75,-25.5,25.5));
#2051=CARTESIAN_POINT('',(-24.75,-140.072640713217,5.5));
#2052=CARTESIAN_POINT('',(-24.75,-25.5,5.5));
#2053=CARTESIAN_POINT('',(-24.75,-25.5,8.75));
#2054=CARTESIAN_POINT('',(-24.75,-25.5,5.5));
#2055=CARTESIAN_POINT('',(-3.74999999999999,37.9,4.));
#2056=CARTESIAN_POINT('',(-3.74999999999999,35.15,4.));
#2057=CARTESIAN_POINT('',(-3.74999999999999,35.15,1.75));
#2058=CARTESIAN_POINT('',(-3.74999999999999,37.9,1.75));
#2059=CARTESIAN_POINT('',(-3.74999999999999,32.9,4.));
#2060=CARTESIAN_POINT('',(-3.74999999999999,32.9,1.75));
#2061=CARTESIAN_POINT('',(-5.99999999999999,32.9,1.75));
#2062=CARTESIAN_POINT('',(-5.99999999999999,32.9,0.));
#2063=CARTESIAN_POINT('',(-9.49999999999999,35.65,4.));
#2064=CARTESIAN_POINT('',(-5.99999999999999,35.65,4.));
#2065=CARTESIAN_POINT('',(-5.99999999999999,35.15,4.));
#2066=CARTESIAN_POINT('',(-9.49999999999999,35.15,4.));
#2067=CARTESIAN_POINT('',(-11.75,-33.4,4.));
#2068=CARTESIAN_POINT('',(-6.,-33.4,4.));
#2069=CARTESIAN_POINT('',(-6.,-33.4,1.75));
#2070=CARTESIAN_POINT('',(-11.75,-33.4,1.75));
#2071=CARTESIAN_POINT('',(-13.0681154875378,-33.4,1.75));
#2072=CARTESIAN_POINT('',(-13.0681154875378,-33.4,1.75));
#2073=CARTESIAN_POINT('',(-3.75,-33.4,4.));
#2074=CARTESIAN_POINT('',(-3.75,-33.4,1.75));
#2075=CARTESIAN_POINT('',(-3.75,-35.65,1.75));
#2076=CARTESIAN_POINT('',(-3.75,-35.65,0.));
#2077=CARTESIAN_POINT('',(-9.49999999999999,-35.65,4.));
#2078=CARTESIAN_POINT('',(-9.49999999999999,-35.65,4.));
#2079=CARTESIAN_POINT('',(-6.,-35.65,4.));
#2080=CARTESIAN_POINT('',(-6.,-35.65,4.));
#2081=CARTESIAN_POINT('',(-61.5,-16.75,0.));
#2082=CARTESIAN_POINT('',(-61.5,-16.75,28.75));
#2083=CARTESIAN_POINT('',(-61.5,-16.75,28.75));
#2084=CARTESIAN_POINT('',(-61.5,-16.75,28.75));
#2085=CARTESIAN_POINT('',(-61.5,-16.75,28.75));
#2086=CARTESIAN_POINT('',(-61.5,-26.4520519402502,3.92196542636836E-15));
#2087=CARTESIAN_POINT('',(-61.5,-26.4520519402502,28.75));
#2088=CARTESIAN_POINT('',(-61.5,-14.5,28.75));
#2089=CARTESIAN_POINT('',(-61.5,-26.4520519402502,28.75));
#2090=CARTESIAN_POINT('',(-63.75,-16.75,28.75));
#2091=CARTESIAN_POINT('',(-14.,-16.75,28.75));
#2092=CARTESIAN_POINT('',(-14.,-12.25,41.));
#2093=CARTESIAN_POINT('',(-13.4471993261425,-14.4310344827586,21.1564338374484));
#2094=CARTESIAN_POINT('',(-13.6305498225762,-14.4775061359039,21.0378725586847));
#2095=CARTESIAN_POINT('',(-13.8152781393237,-14.5000000000005,20.9146503185586));
#2096=CARTESIAN_POINT('',(-13.9999999999999,-14.5000000000005,20.7915026221292));
#2097=CARTESIAN_POINT('',(-14.,-12.25,28.75));
#2098=CARTESIAN_POINT('',(-61.5,-26.4520519402502,28.75));
#2099=CARTESIAN_POINT('',(-61.5,-26.4520519402502,28.75));
#2100=CARTESIAN_POINT('',(-14.,-16.75,28.75));
#2101=CARTESIAN_POINT('',(-14.,-16.75,33.25));
#2102=CARTESIAN_POINT('',(-64.8465356924556,-26.1367053076919,28.75));
#2103=CARTESIAN_POINT('',(-14.,-30.9280134787117,28.75));
#2104=CARTESIAN_POINT('',(-14.,-37.9,33.25));
#2105=CARTESIAN_POINT('',(-14.,-30.9280134787117,33.25));
#2106=CARTESIAN_POINT('',(-13.7889158523523,-33.207871390836,28.75));
#2107=CARTESIAN_POINT('',(-11.75,-33.4,28.75));
#2108=CARTESIAN_POINT('',(-11.75,-35.4479480597498,28.75));
#2109=CARTESIAN_POINT('',(-13.7889158523572,-33.2078713908356,29.3390486322459));
#2110=CARTESIAN_POINT('',(-11.75,-33.3999999999877,29.389570609527));
#2111=CARTESIAN_POINT('',(-11.75,-35.4479480597416,29.9280972644938));
#2112=CARTESIAN_POINT('',(-13.8346548601805,-32.7138577945574,30.5124561992165));
#2113=CARTESIAN_POINT('',(-11.7499999999992,-32.8020065287374,30.6698394220096));
#2114=CARTESIAN_POINT('',(-11.75,-34.4685409109838,32.2749123984382));
#2115=CARTESIAN_POINT('',(-13.9447382984713,-31.524878894116,31.));
#2116=CARTESIAN_POINT('',(-11.7500000000015,-31.5176380813707,31.054591303712));
#2117=CARTESIAN_POINT('',(-11.75,-32.1113296042241,33.2499999999877));
#2118=CARTESIAN_POINT('',(-14.,-30.9280134787117,31.));
#2119=CARTESIAN_POINT('',(-11.75,-30.9280134787117,31.));
#2120=CARTESIAN_POINT('',(-11.75,-30.9280134787117,33.25));
#2121=CARTESIAN_POINT('',(-14.,-35.4479480597498,28.75));
#2122=CARTESIAN_POINT('',(-14.,-35.4479480597498,-83.5726407132174));
#2123=CARTESIAN_POINT('',(-13.0681154875378,-33.4,1.75));
#2124=CARTESIAN_POINT('',(-13.0681154875378,-33.4,2.05755811200002));
#2125=CARTESIAN_POINT('',(-12.7902307451554,-33.5231559277396,2.61073747693031));
#2126=CARTESIAN_POINT('',(-12.2992213876718,-33.9217373704914,3.25778302929643));
#2127=CARTESIAN_POINT('',(-11.8782629541326,-34.5590930400049,3.78095843003881));
#2128=CARTESIAN_POINT('',(-11.75,-35.1431091174734,3.96342356675842));
#2129=CARTESIAN_POINT('',(-11.75,-35.4479480597498,3.99090941660772));
#2130=CARTESIAN_POINT('',(-6.,-35.65,4.));
#2131=CARTESIAN_POINT('',(-6.,-35.65,1.75));
#2132=CARTESIAN_POINT('',(-9.49999999999999,-35.65,1.75));
#2133=CARTESIAN_POINT('',(-6.,-35.65,1.75));
#2134=CARTESIAN_POINT('',(-6.,-35.65,1.75));
#2135=CARTESIAN_POINT('',(-6.,-35.65,1.75));
#2136=CARTESIAN_POINT('',(-6.,-35.65,1.75));
#2137=CARTESIAN_POINT('',(-5.99999999999999,35.15,4.));
#2138=CARTESIAN_POINT('',(-5.99999999999999,35.15,1.75));
#2139=CARTESIAN_POINT('',(-5.99999999999999,35.65,1.75));
#2140=CARTESIAN_POINT('',(-5.99999999999999,35.15,1.75));
#2141=CARTESIAN_POINT('',(-5.99999999999999,35.15,1.75));
#2142=CARTESIAN_POINT('',(-5.99999999999999,35.15,1.75));
#2143=CARTESIAN_POINT('',(-9.49999999999999,35.15,1.75));
#2144=CARTESIAN_POINT('',(-14.,-12.25,41.));
#2145=CARTESIAN_POINT('',(-13.447199326142,-14.4310344827586,9.84356616255155));
#2146=CARTESIAN_POINT('',(-13.6305498225759,-14.477506135904,9.96212744131548));
#2147=CARTESIAN_POINT('',(-13.8152781393235,-14.5,10.0853496814414));
#2148=CARTESIAN_POINT('',(-13.9999999999999,-14.5,10.2084973778708));
#2149=CARTESIAN_POINT('',(-10.75,0.,15.5));
#2150=CARTESIAN_POINT('',(-11.1037261264889,-14.5,20.7915026221292));
#2151=CARTESIAN_POINT('',(-10.9878013127858,-14.5,20.919383991736));
#2152=CARTESIAN_POINT('',(-10.8688705529182,-14.4758849523423,21.0420086197706));
#2153=CARTESIAN_POINT('',(-10.75,-14.4310344827586,21.1564338374484));
#2154=CARTESIAN_POINT('',(-11.1037261264876,-14.5,10.2084973778708));
#2155=CARTESIAN_POINT('',(-10.9878013127847,-14.5,10.0806160082647));
#2156=CARTESIAN_POINT('',(-10.8688705529169,-14.4758849523425,9.95799138022977));
#2157=CARTESIAN_POINT('',(-10.75,-14.4310344827586,9.84356616255155));
#2158=CARTESIAN_POINT('',(-77.5746326608736,-13.5,20.7915026221292));
#2159=CARTESIAN_POINT('',(-77.5746326608736,-13.5,10.2084973778708));
#2160=MECHANICAL_DESIGN_GEOMETRIC_PRESENTATION_REPRESENTATION('',(#1201),
#2161);
#2161=(
GEOMETRIC_REPRESENTATION_CONTEXT(3)
GLOBAL_UNCERTAINTY_ASSIGNED_CONTEXT((#2162))
GLOBAL_UNIT_ASSIGNED_CONTEXT((#2165,#2164,#2163))
REPRESENTATION_CONTEXT('blaze_ace_adapter','TOP_LEVEL_ASSEMBLY_PART')
);
#2162=UNCERTAINTY_MEASURE_WITH_UNIT(LENGTH_MEASURE(0.005),#2165,
'DISTANCE_ACCURACY_VALUE','Maximum Tolerance applied to model');
#2163=(
NAMED_UNIT(*)
SI_UNIT($,.STERADIAN.)
SOLID_ANGLE_UNIT()
);
#2164=(
NAMED_UNIT(*)
PLANE_ANGLE_UNIT()
SI_UNIT($,.RADIAN.)
);
#2165=(
LENGTH_UNIT()
NAMED_UNIT(*)
SI_UNIT(.MILLI.,.METRE.)
);
#2166=PRODUCT_DEFINITION_SHAPE('','',#2167);
#2167=PRODUCT_DEFINITION('','',#2169,#2168);
#2168=PRODUCT_DEFINITION_CONTEXT('',#2175,'design');
#2169=PRODUCT_DEFINITION_FORMATION_WITH_SPECIFIED_SOURCE('','',#2171,
 .NOT_KNOWN.);
#2170=PRODUCT_RELATED_PRODUCT_CATEGORY('','',(#2171));
#2171=PRODUCT('blaze_ace_adapter','blaze_ace_adapter',
'blaze_ace_adapter',(#2173));
#2172=PRODUCT_CATEGORY('','');
#2173=PRODUCT_CONTEXT('',#2175,'mechanical');
#2174=APPLICATION_PROTOCOL_DEFINITION('international standard',
'automotive_design',2010,#2175);
#2175=APPLICATION_CONTEXT(
'core data for automotive mechanical design processes');
ENDSEC;
END-ISO-10303-21;
