ISO-10303-21;
HEADER;
/* Generated by software containing ST-Developer
 * from STEP Tools, Inc. (www.steptools.com) 
 */

FILE_DESCRIPTION(
/* description */ ('',
'CAx-IF Rec.Pracs.---Representation and Presentation of Product Manufa
cturing Information (PMI)---4.0---2014-10-13'),
/* implementation_level */ '2;1');

FILE_NAME(
/* name */ 'Iso527-1A v5.step',
/* time_stamp */ '2025-01-14T16:19:14+01:00',
/* author */ (''),
/* organization */ (''),
/* preprocessor_version */ 'ST-DEVELOPER v20',
/* originating_system */ 'Autodesk Translation Framework v13.20.0.188',

/* authorisation */ '');

FILE_SCHEMA (('AP242_MANAGED_MODEL_BASED_3D_ENGINEERING_MIM_LF { 1 0 10303 442 1 1 4 }'));
ENDSEC;

DATA;
#10=MECHANICAL_DESIGN_GEOMETRIC_PRESENTATION_REPRESENTATION('',(#13),#1275);
#11=SHAPE_REPRESENTATION_RELATIONSHIP('SRR','None',#1282,#12);
#12=ADVANCED_BREP_SHAPE_REPRESENTATION('',(#14),#1274);
#13=STYLED_ITEM('',(#1291),#14);
#14=MANIFOLD_SOLID_BREP('ISO527-1A-JTH',#755);
#15=CYLINDRICAL_SURFACE('',#803,23.9999999999999);
#16=CYLINDRICAL_SURFACE('',#806,23.9999999999999);
#17=CYLINDRICAL_SURFACE('',#824,24.);
#18=CYLINDRICAL_SURFACE('',#826,23.9999999999999);
#19=PLANE('',#772);
#20=PLANE('',#773);
#21=PLANE('',#774);
#22=PLANE('',#775);
#23=PLANE('',#776);
#24=PLANE('',#777);
#25=PLANE('',#778);
#26=PLANE('',#779);
#27=PLANE('',#780);
#28=PLANE('',#781);
#29=PLANE('',#782);
#30=PLANE('',#786);
#31=PLANE('',#790);
#32=PLANE('',#791);
#33=PLANE('',#792);
#34=PLANE('',#793);
#35=PLANE('',#797);
#36=PLANE('',#798);
#37=PLANE('',#799);
#38=PLANE('',#800);
#39=PLANE('',#801);
#40=PLANE('',#802);
#41=PLANE('',#805);
#42=PLANE('',#808);
#43=PLANE('',#809);
#44=PLANE('',#812);
#45=PLANE('',#816);
#46=PLANE('',#820);
#47=PLANE('',#821);
#48=PLANE('',#825);
#49=PLANE('',#827);
#50=PLANE('',#828);
#51=PLANE('',#829);
#52=PLANE('',#830);
#53=FACE_OUTER_BOUND('',#99,.T.);
#54=FACE_OUTER_BOUND('',#100,.T.);
#55=FACE_OUTER_BOUND('',#101,.T.);
#56=FACE_OUTER_BOUND('',#102,.T.);
#57=FACE_OUTER_BOUND('',#103,.T.);
#58=FACE_OUTER_BOUND('',#104,.T.);
#59=FACE_OUTER_BOUND('',#105,.T.);
#60=FACE_OUTER_BOUND('',#106,.T.);
#61=FACE_OUTER_BOUND('',#107,.T.);
#62=FACE_OUTER_BOUND('',#108,.T.);
#63=FACE_OUTER_BOUND('',#109,.T.);
#64=FACE_OUTER_BOUND('',#110,.T.);
#65=FACE_OUTER_BOUND('',#111,.T.);
#66=FACE_OUTER_BOUND('',#112,.T.);
#67=FACE_OUTER_BOUND('',#113,.T.);
#68=FACE_OUTER_BOUND('',#114,.T.);
#69=FACE_OUTER_BOUND('',#115,.T.);
#70=FACE_OUTER_BOUND('',#116,.T.);
#71=FACE_OUTER_BOUND('',#117,.T.);
#72=FACE_OUTER_BOUND('',#118,.T.);
#73=FACE_OUTER_BOUND('',#119,.T.);
#74=FACE_OUTER_BOUND('',#120,.T.);
#75=FACE_OUTER_BOUND('',#121,.T.);
#76=FACE_OUTER_BOUND('',#122,.T.);
#77=FACE_OUTER_BOUND('',#123,.T.);
#78=FACE_OUTER_BOUND('',#124,.T.);
#79=FACE_OUTER_BOUND('',#125,.T.);
#80=FACE_OUTER_BOUND('',#126,.T.);
#81=FACE_OUTER_BOUND('',#127,.T.);
#82=FACE_OUTER_BOUND('',#128,.T.);
#83=FACE_OUTER_BOUND('',#129,.T.);
#84=FACE_OUTER_BOUND('',#130,.T.);
#85=FACE_OUTER_BOUND('',#131,.T.);
#86=FACE_OUTER_BOUND('',#132,.T.);
#87=FACE_OUTER_BOUND('',#133,.T.);
#88=FACE_OUTER_BOUND('',#134,.T.);
#89=FACE_OUTER_BOUND('',#135,.T.);
#90=FACE_OUTER_BOUND('',#136,.T.);
#91=FACE_OUTER_BOUND('',#137,.T.);
#92=FACE_OUTER_BOUND('',#138,.T.);
#93=FACE_OUTER_BOUND('',#139,.T.);
#94=FACE_OUTER_BOUND('',#140,.T.);
#95=FACE_OUTER_BOUND('',#141,.T.);
#96=FACE_OUTER_BOUND('',#142,.T.);
#97=FACE_OUTER_BOUND('',#143,.T.);
#98=FACE_OUTER_BOUND('',#144,.T.);
#99=EDGE_LOOP('',(#493,#494,#495,#496));
#100=EDGE_LOOP('',(#497,#498,#499));
#101=EDGE_LOOP('',(#500,#501,#502,#503,#504));
#102=EDGE_LOOP('',(#505,#506,#507,#508));
#103=EDGE_LOOP('',(#509,#510,#511));
#104=EDGE_LOOP('',(#512,#513,#514,#515,#516));
#105=EDGE_LOOP('',(#517,#518,#519));
#106=EDGE_LOOP('',(#520,#521,#522,#523,#524));
#107=EDGE_LOOP('',(#525,#526,#527,#528));
#108=EDGE_LOOP('',(#529,#530,#531));
#109=EDGE_LOOP('',(#532,#533,#534,#535,#536));
#110=EDGE_LOOP('',(#537,#538,#539,#540));
#111=EDGE_LOOP('',(#541,#542,#543,#544));
#112=EDGE_LOOP('',(#545,#546,#547,#548));
#113=EDGE_LOOP('',(#549,#550,#551,#552));
#114=EDGE_LOOP('',(#553,#554,#555,#556));
#115=EDGE_LOOP('',(#557,#558,#559,#560));
#116=EDGE_LOOP('',(#561,#562,#563,#564));
#117=EDGE_LOOP('',(#565,#566,#567,#568));
#118=EDGE_LOOP('',(#569,#570,#571,#572));
#119=EDGE_LOOP('',(#573,#574,#575,#576));
#120=EDGE_LOOP('',(#577,#578,#579,#580,#581));
#121=EDGE_LOOP('',(#582,#583,#584,#585));
#122=EDGE_LOOP('',(#586,#587,#588,#589,#590,#591));
#123=EDGE_LOOP('',(#592,#593,#594,#595,#596));
#124=EDGE_LOOP('',(#597,#598,#599,#600));
#125=EDGE_LOOP('',(#601,#602,#603,#604));
#126=EDGE_LOOP('',(#605,#606,#607,#608));
#127=EDGE_LOOP('',(#609,#610,#611,#612));
#128=EDGE_LOOP('',(#613,#614,#615,#616,#617,#618,#619,#620,#621,#622,#623,
#624));
#129=EDGE_LOOP('',(#625,#626,#627,#628,#629));
#130=EDGE_LOOP('',(#630,#631,#632,#633));
#131=EDGE_LOOP('',(#634,#635,#636,#637,#638,#639));
#132=EDGE_LOOP('',(#640,#641,#642,#643));
#133=EDGE_LOOP('',(#644,#645,#646,#647));
#134=EDGE_LOOP('',(#648,#649,#650,#651));
#135=EDGE_LOOP('',(#652,#653,#654,#655,#656));
#136=EDGE_LOOP('',(#657,#658,#659,#660));
#137=EDGE_LOOP('',(#661,#662,#663,#664));
#138=EDGE_LOOP('',(#665,#666,#667,#668));
#139=EDGE_LOOP('',(#669,#670,#671,#672));
#140=EDGE_LOOP('',(#673,#674,#675,#676));
#141=EDGE_LOOP('',(#677,#678,#679,#680,#681,#682,#683,#684,#685,#686,#687,
#688));
#142=EDGE_LOOP('',(#689,#690,#691,#692));
#143=EDGE_LOOP('',(#693,#694,#695,#696));
#144=EDGE_LOOP('',(#697,#698,#699,#700));
#145=B_SPLINE_CURVE_WITH_KNOTS('',3,(#1046,#1047,#1048,#1049),
 .UNSPECIFIED.,.F.,.F.,(4,4),(0.,0.0727072715490175),.UNSPECIFIED.);
#146=B_SPLINE_CURVE_WITH_KNOTS('',3,(#1121,#1122,#1123,#1124),
 .UNSPECIFIED.,.F.,.F.,(4,4),(0.,0.0727072715414118),.UNSPECIFIED.);
#147=B_SPLINE_CURVE_WITH_KNOTS('',3,(#1133,#1134,#1135,#1136),
 .UNSPECIFIED.,.F.,.F.,(4,4),(0.,0.0727072715553884),.UNSPECIFIED.);
#148=B_SPLINE_CURVE_WITH_KNOTS('',3,(#1157,#1158,#1159,#1160),
 .UNSPECIFIED.,.F.,.F.,(4,4),(0.,0.0727072715391627),.UNSPECIFIED.);
#149=B_SPLINE_CURVE_WITH_KNOTS('',3,(#1179,#1180,#1181,#1182),
 .UNSPECIFIED.,.F.,.F.,(4,4),(0.,0.0727072715490144),.UNSPECIFIED.);
#150=B_SPLINE_CURVE_WITH_KNOTS('',3,(#1193,#1194,#1195,#1196),
 .UNSPECIFIED.,.F.,.F.,(4,4),(0.,0.0727072715373518),.UNSPECIFIED.);
#151=B_SPLINE_CURVE_WITH_KNOTS('',3,(#1218,#1219,#1220,#1221),
 .UNSPECIFIED.,.F.,.F.,(4,4),(0.,0.0727072715596919),.UNSPECIFIED.);
#152=B_SPLINE_CURVE_WITH_KNOTS('',3,(#1240,#1241,#1242,#1243),
 .UNSPECIFIED.,.F.,.F.,(4,4),(0.,0.0727072715373112),.UNSPECIFIED.);
#153=LINE('',#1043,#233);
#154=LINE('',#1053,#234);
#155=LINE('',#1055,#235);
#156=LINE('',#1056,#236);
#157=LINE('',#1060,#237);
#158=LINE('',#1061,#238);
#159=LINE('',#1063,#239);
#160=LINE('',#1064,#240);
#161=LINE('',#1066,#241);
#162=LINE('',#1067,#242);
#163=LINE('',#1071,#243);
#164=LINE('',#1073,#244);
#165=LINE('',#1074,#245);
#166=LINE('',#1078,#246);
#167=LINE('',#1079,#247);
#168=LINE('',#1081,#248);
#169=LINE('',#1082,#249);
#170=LINE('',#1086,#250);
#171=LINE('',#1088,#251);
#172=LINE('',#1089,#252);
#173=LINE('',#1093,#253);
#174=LINE('',#1094,#254);
#175=LINE('',#1096,#255);
#176=LINE('',#1097,#256);
#177=LINE('',#1099,#257);
#178=LINE('',#1100,#258);
#179=LINE('',#1104,#259);
#180=LINE('',#1106,#260);
#181=LINE('',#1107,#261);
#182=LINE('',#1111,#262);
#183=LINE('',#1112,#263);
#184=LINE('',#1114,#264);
#185=LINE('',#1115,#265);
#186=LINE('',#1118,#266);
#187=LINE('',#1120,#267);
#188=LINE('',#1130,#268);
#189=LINE('',#1140,#269);
#190=LINE('',#1141,#270);
#191=LINE('',#1142,#271);
#192=LINE('',#1147,#272);
#193=LINE('',#1148,#273);
#194=LINE('',#1150,#274);
#195=LINE('',#1151,#275);
#196=LINE('',#1154,#276);
#197=LINE('',#1156,#277);
#198=LINE('',#1164,#278);
#199=LINE('',#1165,#279);
#200=LINE('',#1166,#280);
#201=LINE('',#1172,#281);
#202=LINE('',#1173,#282);
#203=LINE('',#1176,#283);
#204=LINE('',#1178,#284);
#205=LINE('',#1184,#285);
#206=LINE('',#1187,#286);
#207=LINE('',#1188,#287);
#208=LINE('',#1191,#288);
#209=LINE('',#1197,#289);
#210=LINE('',#1199,#290);
#211=LINE('',#1202,#291);
#212=LINE('',#1206,#292);
#213=LINE('',#1207,#293);
#214=LINE('',#1210,#294);
#215=LINE('',#1215,#295);
#216=LINE('',#1217,#296);
#217=LINE('',#1222,#297);
#218=LINE('',#1225,#298);
#219=LINE('',#1229,#299);
#220=LINE('',#1230,#300);
#221=LINE('',#1231,#301);
#222=LINE('',#1237,#302);
#223=LINE('',#1246,#303);
#224=LINE('',#1248,#304);
#225=LINE('',#1249,#305);
#226=LINE('',#1254,#306);
#227=LINE('',#1255,#307);
#228=LINE('',#1258,#308);
#229=LINE('',#1259,#309);
#230=LINE('',#1263,#310);
#231=LINE('',#1265,#311);
#232=LINE('',#1267,#312);
#233=VECTOR('',#837,10.);
#234=VECTOR('',#842,10.);
#235=VECTOR('',#843,10.);
#236=VECTOR('',#844,10.);
#237=VECTOR('',#847,10.);
#238=VECTOR('',#848,10.);
#239=VECTOR('',#849,10.);
#240=VECTOR('',#850,10.);
#241=VECTOR('',#853,10.);
#242=VECTOR('',#854,10.);
#243=VECTOR('',#857,10.);
#244=VECTOR('',#858,10.);
#245=VECTOR('',#859,10.);
#246=VECTOR('',#862,10.);
#247=VECTOR('',#863,10.);
#248=VECTOR('',#864,10.);
#249=VECTOR('',#865,10.);
#250=VECTOR('',#868,10.);
#251=VECTOR('',#869,10.);
#252=VECTOR('',#870,10.);
#253=VECTOR('',#873,10.);
#254=VECTOR('',#874,10.);
#255=VECTOR('',#875,10.);
#256=VECTOR('',#876,10.);
#257=VECTOR('',#879,10.);
#258=VECTOR('',#880,10.);
#259=VECTOR('',#883,10.);
#260=VECTOR('',#884,10.);
#261=VECTOR('',#885,10.);
#262=VECTOR('',#888,10.);
#263=VECTOR('',#889,10.);
#264=VECTOR('',#890,10.);
#265=VECTOR('',#891,10.);
#266=VECTOR('',#894,10.);
#267=VECTOR('',#895,10.);
#268=VECTOR('',#900,10.);
#269=VECTOR('',#905,10.);
#270=VECTOR('',#906,10.);
#271=VECTOR('',#907,10.);
#272=VECTOR('',#916,10.);
#273=VECTOR('',#917,10.);
#274=VECTOR('',#920,10.);
#275=VECTOR('',#921,10.);
#276=VECTOR('',#924,10.);
#277=VECTOR('',#925,10.);
#278=VECTOR('',#928,10.);
#279=VECTOR('',#929,10.);
#280=VECTOR('',#930,10.);
#281=VECTOR('',#939,10.);
#282=VECTOR('',#940,10.);
#283=VECTOR('',#943,10.);
#284=VECTOR('',#944,10.);
#285=VECTOR('',#947,10.);
#286=VECTOR('',#950,10.);
#287=VECTOR('',#951,10.);
#288=VECTOR('',#954,10.);
#289=VECTOR('',#955,10.);
#290=VECTOR('',#958,10.);
#291=VECTOR('',#961,10.);
#292=VECTOR('',#966,10.);
#293=VECTOR('',#967,10.);
#294=VECTOR('',#970,10.);
#295=VECTOR('',#977,10.);
#296=VECTOR('',#978,10.);
#297=VECTOR('',#979,10.);
#298=VECTOR('',#982,10.);
#299=VECTOR('',#987,10.);
#300=VECTOR('',#988,10.);
#301=VECTOR('',#989,10.);
#302=VECTOR('',#994,10.);
#303=VECTOR('',#999,10.);
#304=VECTOR('',#1000,10.);
#305=VECTOR('',#1001,10.);
#306=VECTOR('',#1010,10.);
#307=VECTOR('',#1011,10.);
#308=VECTOR('',#1014,10.);
#309=VECTOR('',#1015,10.);
#310=VECTOR('',#1022,10.);
#311=VECTOR('',#1025,10.);
#312=VECTOR('',#1028,10.);
#313=CIRCLE('',#770,24.);
#314=CIRCLE('',#771,24.5);
#315=CIRCLE('',#784,23.9999999999999);
#316=CIRCLE('',#785,24.5);
#317=CIRCLE('',#788,24.4999999999999);
#318=CIRCLE('',#789,23.9999999999999);
#319=CIRCLE('',#795,24.5);
#320=CIRCLE('',#796,23.9999999999999);
#321=CIRCLE('',#804,23.9999999999999);
#322=CIRCLE('',#807,23.9999999999999);
#323=CIRCLE('',#811,24.4999999999999);
#324=CIRCLE('',#814,23.9999999999999);
#325=CIRCLE('',#815,24.5);
#326=CIRCLE('',#818,24.5);
#327=CIRCLE('',#819,24.);
#328=CIRCLE('',#823,24.5);
#329=VERTEX_POINT('',#1039);
#330=VERTEX_POINT('',#1040);
#331=VERTEX_POINT('',#1042);
#332=VERTEX_POINT('',#1044);
#333=VERTEX_POINT('',#1051);
#334=VERTEX_POINT('',#1052);
#335=VERTEX_POINT('',#1054);
#336=VERTEX_POINT('',#1058);
#337=VERTEX_POINT('',#1059);
#338=VERTEX_POINT('',#1062);
#339=VERTEX_POINT('',#1069);
#340=VERTEX_POINT('',#1070);
#341=VERTEX_POINT('',#1072);
#342=VERTEX_POINT('',#1076);
#343=VERTEX_POINT('',#1077);
#344=VERTEX_POINT('',#1080);
#345=VERTEX_POINT('',#1084);
#346=VERTEX_POINT('',#1085);
#347=VERTEX_POINT('',#1087);
#348=VERTEX_POINT('',#1091);
#349=VERTEX_POINT('',#1092);
#350=VERTEX_POINT('',#1095);
#351=VERTEX_POINT('',#1102);
#352=VERTEX_POINT('',#1103);
#353=VERTEX_POINT('',#1105);
#354=VERTEX_POINT('',#1109);
#355=VERTEX_POINT('',#1110);
#356=VERTEX_POINT('',#1113);
#357=VERTEX_POINT('',#1117);
#358=VERTEX_POINT('',#1119);
#359=VERTEX_POINT('',#1126);
#360=VERTEX_POINT('',#1127);
#361=VERTEX_POINT('',#1129);
#362=VERTEX_POINT('',#1131);
#363=VERTEX_POINT('',#1138);
#364=VERTEX_POINT('',#1139);
#365=VERTEX_POINT('',#1153);
#366=VERTEX_POINT('',#1155);
#367=VERTEX_POINT('',#1162);
#368=VERTEX_POINT('',#1163);
#369=VERTEX_POINT('',#1171);
#370=VERTEX_POINT('',#1175);
#371=VERTEX_POINT('',#1177);
#372=VERTEX_POINT('',#1186);
#373=VERTEX_POINT('',#1190);
#374=VERTEX_POINT('',#1192);
#375=VERTEX_POINT('',#1201);
#376=VERTEX_POINT('',#1205);
#377=VERTEX_POINT('',#1209);
#378=VERTEX_POINT('',#1214);
#379=VERTEX_POINT('',#1216);
#380=VERTEX_POINT('',#1224);
#381=VERTEX_POINT('',#1228);
#382=VERTEX_POINT('',#1233);
#383=VERTEX_POINT('',#1234);
#384=VERTEX_POINT('',#1236);
#385=VERTEX_POINT('',#1238);
#386=VERTEX_POINT('',#1245);
#387=VERTEX_POINT('',#1247);
#388=VERTEX_POINT('',#1257);
#389=EDGE_CURVE('',#329,#330,#313,.T.);
#390=EDGE_CURVE('',#330,#331,#153,.T.);
#391=EDGE_CURVE('',#331,#332,#314,.T.);
#392=EDGE_CURVE('',#332,#329,#145,.T.);
#393=EDGE_CURVE('',#333,#334,#154,.T.);
#394=EDGE_CURVE('',#335,#333,#155,.T.);
#395=EDGE_CURVE('',#334,#335,#156,.T.);
#396=EDGE_CURVE('',#336,#337,#157,.T.);
#397=EDGE_CURVE('',#337,#335,#158,.T.);
#398=EDGE_CURVE('',#333,#338,#159,.T.);
#399=EDGE_CURVE('',#338,#336,#160,.T.);
#400=EDGE_CURVE('',#332,#334,#161,.T.);
#401=EDGE_CURVE('',#335,#329,#162,.T.);
#402=EDGE_CURVE('',#339,#340,#163,.T.);
#403=EDGE_CURVE('',#341,#339,#164,.T.);
#404=EDGE_CURVE('',#340,#341,#165,.T.);
#405=EDGE_CURVE('',#342,#343,#166,.T.);
#406=EDGE_CURVE('',#343,#341,#167,.T.);
#407=EDGE_CURVE('',#339,#344,#168,.T.);
#408=EDGE_CURVE('',#344,#342,#169,.T.);
#409=EDGE_CURVE('',#345,#346,#170,.T.);
#410=EDGE_CURVE('',#347,#345,#171,.T.);
#411=EDGE_CURVE('',#346,#347,#172,.T.);
#412=EDGE_CURVE('',#348,#349,#173,.T.);
#413=EDGE_CURVE('',#349,#347,#174,.T.);
#414=EDGE_CURVE('',#345,#350,#175,.T.);
#415=EDGE_CURVE('',#350,#348,#176,.T.);
#416=EDGE_CURVE('',#334,#346,#177,.T.);
#417=EDGE_CURVE('',#347,#333,#178,.T.);
#418=EDGE_CURVE('',#351,#352,#179,.T.);
#419=EDGE_CURVE('',#353,#351,#180,.T.);
#420=EDGE_CURVE('',#352,#353,#181,.T.);
#421=EDGE_CURVE('',#354,#355,#182,.T.);
#422=EDGE_CURVE('',#355,#353,#183,.T.);
#423=EDGE_CURVE('',#351,#356,#184,.T.);
#424=EDGE_CURVE('',#356,#354,#185,.T.);
#425=EDGE_CURVE('',#357,#345,#186,.T.);
#426=EDGE_CURVE('',#346,#358,#187,.T.);
#427=EDGE_CURVE('',#358,#357,#146,.T.);
#428=EDGE_CURVE('',#359,#360,#315,.T.);
#429=EDGE_CURVE('',#360,#361,#188,.T.);
#430=EDGE_CURVE('',#361,#362,#316,.T.);
#431=EDGE_CURVE('',#362,#359,#147,.T.);
#432=EDGE_CURVE('',#363,#364,#189,.T.);
#433=EDGE_CURVE('',#364,#361,#190,.T.);
#434=EDGE_CURVE('',#360,#363,#191,.T.);
#435=EDGE_CURVE('',#358,#364,#317,.T.);
#436=EDGE_CURVE('',#363,#357,#318,.T.);
#437=EDGE_CURVE('',#362,#352,#192,.T.);
#438=EDGE_CURVE('',#353,#359,#193,.T.);
#439=EDGE_CURVE('',#352,#340,#194,.T.);
#440=EDGE_CURVE('',#341,#351,#195,.T.);
#441=EDGE_CURVE('',#365,#339,#196,.T.);
#442=EDGE_CURVE('',#340,#366,#197,.T.);
#443=EDGE_CURVE('',#366,#365,#148,.T.);
#444=EDGE_CURVE('',#367,#368,#198,.T.);
#445=EDGE_CURVE('',#368,#331,#199,.T.);
#446=EDGE_CURVE('',#330,#367,#200,.T.);
#447=EDGE_CURVE('',#366,#368,#319,.T.);
#448=EDGE_CURVE('',#367,#365,#320,.T.);
#449=EDGE_CURVE('',#369,#337,#201,.T.);
#450=EDGE_CURVE('',#369,#329,#202,.T.);
#451=EDGE_CURVE('',#370,#336,#203,.T.);
#452=EDGE_CURVE('',#370,#371,#204,.T.);
#453=EDGE_CURVE('',#371,#369,#149,.T.);
#454=EDGE_CURVE('',#338,#349,#205,.T.);
#455=EDGE_CURVE('',#372,#348,#206,.T.);
#456=EDGE_CURVE('',#372,#370,#207,.T.);
#457=EDGE_CURVE('',#350,#373,#208,.T.);
#458=EDGE_CURVE('',#374,#373,#150,.T.);
#459=EDGE_CURVE('',#374,#372,#209,.T.);
#460=EDGE_CURVE('',#373,#357,#210,.T.);
#461=EDGE_CURVE('',#375,#363,#211,.T.);
#462=EDGE_CURVE('',#373,#375,#321,.T.);
#463=EDGE_CURVE('',#376,#360,#212,.T.);
#464=EDGE_CURVE('',#375,#376,#213,.T.);
#465=EDGE_CURVE('',#377,#359,#214,.T.);
#466=EDGE_CURVE('',#376,#377,#322,.T.);
#467=EDGE_CURVE('',#378,#354,#215,.T.);
#468=EDGE_CURVE('',#378,#379,#216,.T.);
#469=EDGE_CURVE('',#379,#377,#151,.T.);
#470=EDGE_CURVE('',#377,#355,#217,.T.);
#471=EDGE_CURVE('',#375,#380,#218,.T.);
#472=EDGE_CURVE('',#380,#374,#323,.T.);
#473=EDGE_CURVE('',#342,#381,#219,.T.);
#474=EDGE_CURVE('',#381,#378,#220,.T.);
#475=EDGE_CURVE('',#356,#343,#221,.T.);
#476=EDGE_CURVE('',#382,#383,#324,.T.);
#477=EDGE_CURVE('',#383,#384,#222,.T.);
#478=EDGE_CURVE('',#384,#385,#325,.T.);
#479=EDGE_CURVE('',#385,#382,#152,.T.);
#480=EDGE_CURVE('',#383,#386,#223,.T.);
#481=EDGE_CURVE('',#386,#387,#224,.T.);
#482=EDGE_CURVE('',#387,#384,#225,.T.);
#483=EDGE_CURVE('',#371,#387,#326,.T.);
#484=EDGE_CURVE('',#386,#369,#327,.T.);
#485=EDGE_CURVE('',#344,#382,#226,.T.);
#486=EDGE_CURVE('',#385,#381,#227,.T.);
#487=EDGE_CURVE('',#376,#388,#228,.T.);
#488=EDGE_CURVE('',#388,#380,#229,.T.);
#489=EDGE_CURVE('',#379,#388,#328,.T.);
#490=EDGE_CURVE('',#386,#330,#230,.T.);
#491=EDGE_CURVE('',#383,#367,#231,.T.);
#492=EDGE_CURVE('',#382,#365,#232,.T.);
#493=ORIENTED_EDGE('',*,*,#389,.T.);
#494=ORIENTED_EDGE('',*,*,#390,.T.);
#495=ORIENTED_EDGE('',*,*,#391,.T.);
#496=ORIENTED_EDGE('',*,*,#392,.T.);
#497=ORIENTED_EDGE('',*,*,#393,.F.);
#498=ORIENTED_EDGE('',*,*,#394,.F.);
#499=ORIENTED_EDGE('',*,*,#395,.F.);
#500=ORIENTED_EDGE('',*,*,#396,.T.);
#501=ORIENTED_EDGE('',*,*,#397,.T.);
#502=ORIENTED_EDGE('',*,*,#394,.T.);
#503=ORIENTED_EDGE('',*,*,#398,.T.);
#504=ORIENTED_EDGE('',*,*,#399,.T.);
#505=ORIENTED_EDGE('',*,*,#400,.T.);
#506=ORIENTED_EDGE('',*,*,#395,.T.);
#507=ORIENTED_EDGE('',*,*,#401,.T.);
#508=ORIENTED_EDGE('',*,*,#392,.F.);
#509=ORIENTED_EDGE('',*,*,#402,.F.);
#510=ORIENTED_EDGE('',*,*,#403,.F.);
#511=ORIENTED_EDGE('',*,*,#404,.F.);
#512=ORIENTED_EDGE('',*,*,#405,.T.);
#513=ORIENTED_EDGE('',*,*,#406,.T.);
#514=ORIENTED_EDGE('',*,*,#403,.T.);
#515=ORIENTED_EDGE('',*,*,#407,.T.);
#516=ORIENTED_EDGE('',*,*,#408,.T.);
#517=ORIENTED_EDGE('',*,*,#409,.F.);
#518=ORIENTED_EDGE('',*,*,#410,.F.);
#519=ORIENTED_EDGE('',*,*,#411,.F.);
#520=ORIENTED_EDGE('',*,*,#412,.T.);
#521=ORIENTED_EDGE('',*,*,#413,.T.);
#522=ORIENTED_EDGE('',*,*,#410,.T.);
#523=ORIENTED_EDGE('',*,*,#414,.T.);
#524=ORIENTED_EDGE('',*,*,#415,.T.);
#525=ORIENTED_EDGE('',*,*,#393,.T.);
#526=ORIENTED_EDGE('',*,*,#416,.T.);
#527=ORIENTED_EDGE('',*,*,#411,.T.);
#528=ORIENTED_EDGE('',*,*,#417,.T.);
#529=ORIENTED_EDGE('',*,*,#418,.F.);
#530=ORIENTED_EDGE('',*,*,#419,.F.);
#531=ORIENTED_EDGE('',*,*,#420,.F.);
#532=ORIENTED_EDGE('',*,*,#421,.T.);
#533=ORIENTED_EDGE('',*,*,#422,.T.);
#534=ORIENTED_EDGE('',*,*,#419,.T.);
#535=ORIENTED_EDGE('',*,*,#423,.T.);
#536=ORIENTED_EDGE('',*,*,#424,.T.);
#537=ORIENTED_EDGE('',*,*,#425,.T.);
#538=ORIENTED_EDGE('',*,*,#409,.T.);
#539=ORIENTED_EDGE('',*,*,#426,.T.);
#540=ORIENTED_EDGE('',*,*,#427,.T.);
#541=ORIENTED_EDGE('',*,*,#428,.T.);
#542=ORIENTED_EDGE('',*,*,#429,.T.);
#543=ORIENTED_EDGE('',*,*,#430,.T.);
#544=ORIENTED_EDGE('',*,*,#431,.T.);
#545=ORIENTED_EDGE('',*,*,#432,.T.);
#546=ORIENTED_EDGE('',*,*,#433,.T.);
#547=ORIENTED_EDGE('',*,*,#429,.F.);
#548=ORIENTED_EDGE('',*,*,#434,.T.);
#549=ORIENTED_EDGE('',*,*,#435,.T.);
#550=ORIENTED_EDGE('',*,*,#432,.F.);
#551=ORIENTED_EDGE('',*,*,#436,.T.);
#552=ORIENTED_EDGE('',*,*,#427,.F.);
#553=ORIENTED_EDGE('',*,*,#437,.T.);
#554=ORIENTED_EDGE('',*,*,#420,.T.);
#555=ORIENTED_EDGE('',*,*,#438,.T.);
#556=ORIENTED_EDGE('',*,*,#431,.F.);
#557=ORIENTED_EDGE('',*,*,#418,.T.);
#558=ORIENTED_EDGE('',*,*,#439,.T.);
#559=ORIENTED_EDGE('',*,*,#404,.T.);
#560=ORIENTED_EDGE('',*,*,#440,.T.);
#561=ORIENTED_EDGE('',*,*,#441,.T.);
#562=ORIENTED_EDGE('',*,*,#402,.T.);
#563=ORIENTED_EDGE('',*,*,#442,.T.);
#564=ORIENTED_EDGE('',*,*,#443,.T.);
#565=ORIENTED_EDGE('',*,*,#444,.T.);
#566=ORIENTED_EDGE('',*,*,#445,.T.);
#567=ORIENTED_EDGE('',*,*,#390,.F.);
#568=ORIENTED_EDGE('',*,*,#446,.T.);
#569=ORIENTED_EDGE('',*,*,#447,.T.);
#570=ORIENTED_EDGE('',*,*,#444,.F.);
#571=ORIENTED_EDGE('',*,*,#448,.T.);
#572=ORIENTED_EDGE('',*,*,#443,.F.);
#573=ORIENTED_EDGE('',*,*,#401,.F.);
#574=ORIENTED_EDGE('',*,*,#397,.F.);
#575=ORIENTED_EDGE('',*,*,#449,.F.);
#576=ORIENTED_EDGE('',*,*,#450,.T.);
#577=ORIENTED_EDGE('',*,*,#396,.F.);
#578=ORIENTED_EDGE('',*,*,#451,.F.);
#579=ORIENTED_EDGE('',*,*,#452,.T.);
#580=ORIENTED_EDGE('',*,*,#453,.T.);
#581=ORIENTED_EDGE('',*,*,#449,.T.);
#582=ORIENTED_EDGE('',*,*,#398,.F.);
#583=ORIENTED_EDGE('',*,*,#417,.F.);
#584=ORIENTED_EDGE('',*,*,#413,.F.);
#585=ORIENTED_EDGE('',*,*,#454,.F.);
#586=ORIENTED_EDGE('',*,*,#399,.F.);
#587=ORIENTED_EDGE('',*,*,#454,.T.);
#588=ORIENTED_EDGE('',*,*,#412,.F.);
#589=ORIENTED_EDGE('',*,*,#455,.F.);
#590=ORIENTED_EDGE('',*,*,#456,.T.);
#591=ORIENTED_EDGE('',*,*,#451,.T.);
#592=ORIENTED_EDGE('',*,*,#415,.F.);
#593=ORIENTED_EDGE('',*,*,#457,.T.);
#594=ORIENTED_EDGE('',*,*,#458,.F.);
#595=ORIENTED_EDGE('',*,*,#459,.T.);
#596=ORIENTED_EDGE('',*,*,#455,.T.);
#597=ORIENTED_EDGE('',*,*,#414,.F.);
#598=ORIENTED_EDGE('',*,*,#425,.F.);
#599=ORIENTED_EDGE('',*,*,#460,.F.);
#600=ORIENTED_EDGE('',*,*,#457,.F.);
#601=ORIENTED_EDGE('',*,*,#436,.F.);
#602=ORIENTED_EDGE('',*,*,#461,.F.);
#603=ORIENTED_EDGE('',*,*,#462,.F.);
#604=ORIENTED_EDGE('',*,*,#460,.T.);
#605=ORIENTED_EDGE('',*,*,#434,.F.);
#606=ORIENTED_EDGE('',*,*,#463,.F.);
#607=ORIENTED_EDGE('',*,*,#464,.F.);
#608=ORIENTED_EDGE('',*,*,#461,.T.);
#609=ORIENTED_EDGE('',*,*,#428,.F.);
#610=ORIENTED_EDGE('',*,*,#465,.F.);
#611=ORIENTED_EDGE('',*,*,#466,.F.);
#612=ORIENTED_EDGE('',*,*,#463,.T.);
#613=ORIENTED_EDGE('',*,*,#430,.F.);
#614=ORIENTED_EDGE('',*,*,#433,.F.);
#615=ORIENTED_EDGE('',*,*,#435,.F.);
#616=ORIENTED_EDGE('',*,*,#426,.F.);
#617=ORIENTED_EDGE('',*,*,#416,.F.);
#618=ORIENTED_EDGE('',*,*,#400,.F.);
#619=ORIENTED_EDGE('',*,*,#391,.F.);
#620=ORIENTED_EDGE('',*,*,#445,.F.);
#621=ORIENTED_EDGE('',*,*,#447,.F.);
#622=ORIENTED_EDGE('',*,*,#442,.F.);
#623=ORIENTED_EDGE('',*,*,#439,.F.);
#624=ORIENTED_EDGE('',*,*,#437,.F.);
#625=ORIENTED_EDGE('',*,*,#421,.F.);
#626=ORIENTED_EDGE('',*,*,#467,.F.);
#627=ORIENTED_EDGE('',*,*,#468,.T.);
#628=ORIENTED_EDGE('',*,*,#469,.T.);
#629=ORIENTED_EDGE('',*,*,#470,.T.);
#630=ORIENTED_EDGE('',*,*,#462,.T.);
#631=ORIENTED_EDGE('',*,*,#471,.T.);
#632=ORIENTED_EDGE('',*,*,#472,.T.);
#633=ORIENTED_EDGE('',*,*,#458,.T.);
#634=ORIENTED_EDGE('',*,*,#405,.F.);
#635=ORIENTED_EDGE('',*,*,#473,.T.);
#636=ORIENTED_EDGE('',*,*,#474,.T.);
#637=ORIENTED_EDGE('',*,*,#467,.T.);
#638=ORIENTED_EDGE('',*,*,#424,.F.);
#639=ORIENTED_EDGE('',*,*,#475,.T.);
#640=ORIENTED_EDGE('',*,*,#476,.T.);
#641=ORIENTED_EDGE('',*,*,#477,.T.);
#642=ORIENTED_EDGE('',*,*,#478,.T.);
#643=ORIENTED_EDGE('',*,*,#479,.T.);
#644=ORIENTED_EDGE('',*,*,#477,.F.);
#645=ORIENTED_EDGE('',*,*,#480,.T.);
#646=ORIENTED_EDGE('',*,*,#481,.T.);
#647=ORIENTED_EDGE('',*,*,#482,.T.);
#648=ORIENTED_EDGE('',*,*,#483,.T.);
#649=ORIENTED_EDGE('',*,*,#481,.F.);
#650=ORIENTED_EDGE('',*,*,#484,.T.);
#651=ORIENTED_EDGE('',*,*,#453,.F.);
#652=ORIENTED_EDGE('',*,*,#408,.F.);
#653=ORIENTED_EDGE('',*,*,#485,.T.);
#654=ORIENTED_EDGE('',*,*,#479,.F.);
#655=ORIENTED_EDGE('',*,*,#486,.T.);
#656=ORIENTED_EDGE('',*,*,#473,.F.);
#657=ORIENTED_EDGE('',*,*,#487,.T.);
#658=ORIENTED_EDGE('',*,*,#488,.T.);
#659=ORIENTED_EDGE('',*,*,#471,.F.);
#660=ORIENTED_EDGE('',*,*,#464,.T.);
#661=ORIENTED_EDGE('',*,*,#489,.T.);
#662=ORIENTED_EDGE('',*,*,#487,.F.);
#663=ORIENTED_EDGE('',*,*,#466,.T.);
#664=ORIENTED_EDGE('',*,*,#469,.F.);
#665=ORIENTED_EDGE('',*,*,#389,.F.);
#666=ORIENTED_EDGE('',*,*,#450,.F.);
#667=ORIENTED_EDGE('',*,*,#484,.F.);
#668=ORIENTED_EDGE('',*,*,#490,.T.);
#669=ORIENTED_EDGE('',*,*,#446,.F.);
#670=ORIENTED_EDGE('',*,*,#490,.F.);
#671=ORIENTED_EDGE('',*,*,#480,.F.);
#672=ORIENTED_EDGE('',*,*,#491,.T.);
#673=ORIENTED_EDGE('',*,*,#448,.F.);
#674=ORIENTED_EDGE('',*,*,#491,.F.);
#675=ORIENTED_EDGE('',*,*,#476,.F.);
#676=ORIENTED_EDGE('',*,*,#492,.T.);
#677=ORIENTED_EDGE('',*,*,#478,.F.);
#678=ORIENTED_EDGE('',*,*,#482,.F.);
#679=ORIENTED_EDGE('',*,*,#483,.F.);
#680=ORIENTED_EDGE('',*,*,#452,.F.);
#681=ORIENTED_EDGE('',*,*,#456,.F.);
#682=ORIENTED_EDGE('',*,*,#459,.F.);
#683=ORIENTED_EDGE('',*,*,#472,.F.);
#684=ORIENTED_EDGE('',*,*,#488,.F.);
#685=ORIENTED_EDGE('',*,*,#489,.F.);
#686=ORIENTED_EDGE('',*,*,#468,.F.);
#687=ORIENTED_EDGE('',*,*,#474,.F.);
#688=ORIENTED_EDGE('',*,*,#486,.F.);
#689=ORIENTED_EDGE('',*,*,#441,.F.);
#690=ORIENTED_EDGE('',*,*,#492,.F.);
#691=ORIENTED_EDGE('',*,*,#485,.F.);
#692=ORIENTED_EDGE('',*,*,#407,.F.);
#693=ORIENTED_EDGE('',*,*,#422,.F.);
#694=ORIENTED_EDGE('',*,*,#470,.F.);
#695=ORIENTED_EDGE('',*,*,#465,.T.);
#696=ORIENTED_EDGE('',*,*,#438,.F.);
#697=ORIENTED_EDGE('',*,*,#406,.F.);
#698=ORIENTED_EDGE('',*,*,#475,.F.);
#699=ORIENTED_EDGE('',*,*,#423,.F.);
#700=ORIENTED_EDGE('',*,*,#440,.F.);
#701=CONICAL_SURFACE('',#769,24.25,0.785398163397451);
#702=CONICAL_SURFACE('',#783,24.2499999999999,0.785398163397451);
#703=CONICAL_SURFACE('',#787,24.2499999999999,0.785398163397446);
#704=CONICAL_SURFACE('',#794,24.25,0.785398163397451);
#705=CONICAL_SURFACE('',#810,24.2499999999999,0.785398163397447);
#706=CONICAL_SURFACE('',#813,24.25,0.785398163397451);
#707=CONICAL_SURFACE('',#817,24.25,0.785398163397451);
#708=CONICAL_SURFACE('',#822,24.2499999999999,0.785398163397451);
#709=ADVANCED_FACE('',(#53),#701,.F.);
#710=ADVANCED_FACE('',(#54),#19,.T.);
#711=ADVANCED_FACE('',(#55),#20,.T.);
#712=ADVANCED_FACE('',(#56),#21,.T.);
#713=ADVANCED_FACE('',(#57),#22,.T.);
#714=ADVANCED_FACE('',(#58),#23,.T.);
#715=ADVANCED_FACE('',(#59),#24,.T.);
#716=ADVANCED_FACE('',(#60),#25,.T.);
#717=ADVANCED_FACE('',(#61),#26,.T.);
#718=ADVANCED_FACE('',(#62),#27,.T.);
#719=ADVANCED_FACE('',(#63),#28,.T.);
#720=ADVANCED_FACE('',(#64),#29,.T.);
#721=ADVANCED_FACE('',(#65),#702,.F.);
#722=ADVANCED_FACE('',(#66),#30,.T.);
#723=ADVANCED_FACE('',(#67),#703,.F.);
#724=ADVANCED_FACE('',(#68),#31,.T.);
#725=ADVANCED_FACE('',(#69),#32,.T.);
#726=ADVANCED_FACE('',(#70),#33,.T.);
#727=ADVANCED_FACE('',(#71),#34,.T.);
#728=ADVANCED_FACE('',(#72),#704,.F.);
#729=ADVANCED_FACE('',(#73),#35,.T.);
#730=ADVANCED_FACE('',(#74),#36,.T.);
#731=ADVANCED_FACE('',(#75),#37,.T.);
#732=ADVANCED_FACE('',(#76),#38,.T.);
#733=ADVANCED_FACE('',(#77),#39,.T.);
#734=ADVANCED_FACE('',(#78),#40,.T.);
#735=ADVANCED_FACE('',(#79),#15,.F.);
#736=ADVANCED_FACE('',(#80),#41,.T.);
#737=ADVANCED_FACE('',(#81),#16,.F.);
#738=ADVANCED_FACE('',(#82),#42,.T.);
#739=ADVANCED_FACE('',(#83),#43,.T.);
#740=ADVANCED_FACE('',(#84),#705,.F.);
#741=ADVANCED_FACE('',(#85),#44,.T.);
#742=ADVANCED_FACE('',(#86),#706,.F.);
#743=ADVANCED_FACE('',(#87),#45,.T.);
#744=ADVANCED_FACE('',(#88),#707,.F.);
#745=ADVANCED_FACE('',(#89),#46,.T.);
#746=ADVANCED_FACE('',(#90),#47,.T.);
#747=ADVANCED_FACE('',(#91),#708,.F.);
#748=ADVANCED_FACE('',(#92),#17,.F.);
#749=ADVANCED_FACE('',(#93),#48,.T.);
#750=ADVANCED_FACE('',(#94),#18,.F.);
#751=ADVANCED_FACE('',(#95),#49,.F.);
#752=ADVANCED_FACE('',(#96),#50,.T.);
#753=ADVANCED_FACE('',(#97),#51,.T.);
#754=ADVANCED_FACE('',(#98),#52,.T.);
#755=CLOSED_SHELL('',(#709,#710,#711,#712,#713,#714,#715,#716,#717,#718,
#719,#720,#721,#722,#723,#724,#725,#726,#727,#728,#729,#730,#731,#732,#733,
#734,#735,#736,#737,#738,#739,#740,#741,#742,#743,#744,#745,#746,#747,#748,
#749,#750,#751,#752,#753,#754));
#756=DERIVED_UNIT_ELEMENT(#758,1.);
#757=DERIVED_UNIT_ELEMENT(#1277,-3.);
#758=(
MASS_UNIT()
NAMED_UNIT(*)
SI_UNIT(.KILO.,.GRAM.)
);
#759=DERIVED_UNIT((#756,#757));
#760=MEASURE_REPRESENTATION_ITEM('density measure',
POSITIVE_RATIO_MEASURE(7850.),#759);
#761=PROPERTY_DEFINITION_REPRESENTATION(#766,#763);
#762=PROPERTY_DEFINITION_REPRESENTATION(#767,#764);
#763=REPRESENTATION('material name',(#765),#1274);
#764=REPRESENTATION('density',(#760),#1274);
#765=DESCRIPTIVE_REPRESENTATION_ITEM('Steel','Steel');
#766=PROPERTY_DEFINITION('material property','material name',#1284);
#767=PROPERTY_DEFINITION('material property','density of part',#1284);
#768=AXIS2_PLACEMENT_3D('',#1037,#831,#832);
#769=AXIS2_PLACEMENT_3D('',#1038,#833,#834);
#770=AXIS2_PLACEMENT_3D('',#1041,#835,#836);
#771=AXIS2_PLACEMENT_3D('',#1045,#838,#839);
#772=AXIS2_PLACEMENT_3D('',#1050,#840,#841);
#773=AXIS2_PLACEMENT_3D('',#1057,#845,#846);
#774=AXIS2_PLACEMENT_3D('',#1065,#851,#852);
#775=AXIS2_PLACEMENT_3D('',#1068,#855,#856);
#776=AXIS2_PLACEMENT_3D('',#1075,#860,#861);
#777=AXIS2_PLACEMENT_3D('',#1083,#866,#867);
#778=AXIS2_PLACEMENT_3D('',#1090,#871,#872);
#779=AXIS2_PLACEMENT_3D('',#1098,#877,#878);
#780=AXIS2_PLACEMENT_3D('',#1101,#881,#882);
#781=AXIS2_PLACEMENT_3D('',#1108,#886,#887);
#782=AXIS2_PLACEMENT_3D('',#1116,#892,#893);
#783=AXIS2_PLACEMENT_3D('',#1125,#896,#897);
#784=AXIS2_PLACEMENT_3D('',#1128,#898,#899);
#785=AXIS2_PLACEMENT_3D('',#1132,#901,#902);
#786=AXIS2_PLACEMENT_3D('',#1137,#903,#904);
#787=AXIS2_PLACEMENT_3D('',#1143,#908,#909);
#788=AXIS2_PLACEMENT_3D('',#1144,#910,#911);
#789=AXIS2_PLACEMENT_3D('',#1145,#912,#913);
#790=AXIS2_PLACEMENT_3D('',#1146,#914,#915);
#791=AXIS2_PLACEMENT_3D('',#1149,#918,#919);
#792=AXIS2_PLACEMENT_3D('',#1152,#922,#923);
#793=AXIS2_PLACEMENT_3D('',#1161,#926,#927);
#794=AXIS2_PLACEMENT_3D('',#1167,#931,#932);
#795=AXIS2_PLACEMENT_3D('',#1168,#933,#934);
#796=AXIS2_PLACEMENT_3D('',#1169,#935,#936);
#797=AXIS2_PLACEMENT_3D('',#1170,#937,#938);
#798=AXIS2_PLACEMENT_3D('',#1174,#941,#942);
#799=AXIS2_PLACEMENT_3D('',#1183,#945,#946);
#800=AXIS2_PLACEMENT_3D('',#1185,#948,#949);
#801=AXIS2_PLACEMENT_3D('',#1189,#952,#953);
#802=AXIS2_PLACEMENT_3D('',#1198,#956,#957);
#803=AXIS2_PLACEMENT_3D('',#1200,#959,#960);
#804=AXIS2_PLACEMENT_3D('',#1203,#962,#963);
#805=AXIS2_PLACEMENT_3D('',#1204,#964,#965);
#806=AXIS2_PLACEMENT_3D('',#1208,#968,#969);
#807=AXIS2_PLACEMENT_3D('',#1211,#971,#972);
#808=AXIS2_PLACEMENT_3D('',#1212,#973,#974);
#809=AXIS2_PLACEMENT_3D('',#1213,#975,#976);
#810=AXIS2_PLACEMENT_3D('',#1223,#980,#981);
#811=AXIS2_PLACEMENT_3D('',#1226,#983,#984);
#812=AXIS2_PLACEMENT_3D('',#1227,#985,#986);
#813=AXIS2_PLACEMENT_3D('',#1232,#990,#991);
#814=AXIS2_PLACEMENT_3D('',#1235,#992,#993);
#815=AXIS2_PLACEMENT_3D('',#1239,#995,#996);
#816=AXIS2_PLACEMENT_3D('',#1244,#997,#998);
#817=AXIS2_PLACEMENT_3D('',#1250,#1002,#1003);
#818=AXIS2_PLACEMENT_3D('',#1251,#1004,#1005);
#819=AXIS2_PLACEMENT_3D('',#1252,#1006,#1007);
#820=AXIS2_PLACEMENT_3D('',#1253,#1008,#1009);
#821=AXIS2_PLACEMENT_3D('',#1256,#1012,#1013);
#822=AXIS2_PLACEMENT_3D('',#1260,#1016,#1017);
#823=AXIS2_PLACEMENT_3D('',#1261,#1018,#1019);
#824=AXIS2_PLACEMENT_3D('',#1262,#1020,#1021);
#825=AXIS2_PLACEMENT_3D('',#1264,#1023,#1024);
#826=AXIS2_PLACEMENT_3D('',#1266,#1026,#1027);
#827=AXIS2_PLACEMENT_3D('',#1268,#1029,#1030);
#828=AXIS2_PLACEMENT_3D('',#1269,#1031,#1032);
#829=AXIS2_PLACEMENT_3D('',#1270,#1033,#1034);
#830=AXIS2_PLACEMENT_3D('',#1271,#1035,#1036);
#831=DIRECTION('axis',(0.,0.,1.));
#832=DIRECTION('refdir',(1.,0.,0.));
#833=DIRECTION('center_axis',(0.,0.,1.));
#834=DIRECTION('ref_axis',(-1.85037170770859E-16,1.,0.));
#835=DIRECTION('center_axis',(0.,0.,-1.));
#836=DIRECTION('ref_axis',(-1.85037170770859E-16,1.,0.));
#837=DIRECTION('',(0.,0.707106781186544,0.707106781186551));
#838=DIRECTION('center_axis',(0.,0.,1.));
#839=DIRECTION('ref_axis',(-1.85037170770859E-16,1.,0.));
#840=DIRECTION('center_axis',(-0.577350269189459,-0.577350269189945,0.577350269189473));
#841=DIRECTION('ref_axis',(0.707106781186556,0.,0.707106781186539));
#842=DIRECTION('',(0.707106781186552,6.28036983473505E-15,0.707106781186543));
#843=DIRECTION('',(-0.707106781186845,0.70710678118625,0.));
#844=DIRECTION('',(5.77794024795629E-13,-0.707106781186547,-0.707106781186547));
#845=DIRECTION('center_axis',(-0.70710678118625,-0.707106781186845,0.));
#846=DIRECTION('ref_axis',(0.,0.,1.));
#847=DIRECTION('',(0.577350269189948,-0.577350269189462,0.577350269189468));
#848=DIRECTION('',(0.,0.,1.));
#849=DIRECTION('',(0.,0.,-1.));
#850=DIRECTION('',(0.57735026918979,-0.577350269189305,-0.577350269189782));
#851=DIRECTION('center_axis',(7.39779972295825E-15,-0.707106781186548,0.707106781186548));
#852=DIRECTION('ref_axis',(1.,0.,-1.04620686999275E-14));
#853=DIRECTION('',(-1.,-1.04620686999275E-14,0.));
#854=DIRECTION('',(1.,1.04620686999275E-14,0.));
#855=DIRECTION('center_axis',(0.577350269188284,-0.577350269192298,0.577350269188295));
#856=DIRECTION('ref_axis',(0.707106781186554,0.,-0.70710678118654));
#857=DIRECTION('',(4.89868847109338E-12,0.707106781186547,0.707106781186548));
#858=DIRECTION('',(-0.707106781189005,-0.70710678118409,0.));
#859=DIRECTION('',(0.707106781186552,-4.71027737605129E-15,-0.707106781186543));
#860=DIRECTION('center_axis',(0.70710678118409,-0.707106781189005,0.));
#861=DIRECTION('ref_axis',(0.,0.,-1.));
#862=DIRECTION('',(0.577350269192297,0.577350269188283,0.577350269188297));
#863=DIRECTION('',(0.,0.,1.));
#864=DIRECTION('',(0.,0.,-1.));
#865=DIRECTION('',(0.577350269192299,0.577350269188285,-0.577350269188292));
#866=DIRECTION('center_axis',(-0.577350269189616,0.577350269189631,0.577350269189631));
#867=DIRECTION('ref_axis',(0.707106781186556,0.,0.707106781186539));
#868=DIRECTION('',(0.,-0.707106781186547,0.707106781186547));
#869=DIRECTION('',(0.707106781186556,0.707106781186539,0.));
#870=DIRECTION('',(-0.707106781186552,7.85046229341881E-15,-0.707106781186543));
#871=DIRECTION('center_axis',(-0.707106781186539,0.707106781186556,0.));
#872=DIRECTION('ref_axis',(0.,0.,1.));
#873=DIRECTION('',(-0.577350269189633,-0.577350269189619,0.577350269189625));
#874=DIRECTION('',(0.,0.,1.));
#875=DIRECTION('',(0.,0.,-1.));
#876=DIRECTION('',(-0.577350269189634,-0.577350269189619,-0.577350269189625));
#877=DIRECTION('center_axis',(-0.707106781186543,0.,0.707106781186552));
#878=DIRECTION('ref_axis',(0.707106781186552,0.,0.707106781186543));
#879=DIRECTION('',(0.,1.,0.));
#880=DIRECTION('',(0.,-1.,0.));
#881=DIRECTION('center_axis',(0.577350269137872,0.577350269293139,0.577350269137867));
#882=DIRECTION('ref_axis',(0.707106781186544,0.,-0.707106781186551));
#883=DIRECTION('',(-0.707106781186552,-7.85046229341881E-15,0.707106781186543));
#884=DIRECTION('',(0.707106781281629,-0.707106781091466,0.));
#885=DIRECTION('',(-1.90169598595779E-10,0.707106781186547,-0.707106781186547));
#886=DIRECTION('center_axis',(0.707106781091466,0.707106781281629,0.));
#887=DIRECTION('ref_axis',(0.,0.,-1.));
#888=DIRECTION('',(-0.577350269293136,0.577350269137868,0.577350269137873));
#889=DIRECTION('',(0.,0.,1.));
#890=DIRECTION('',(0.,0.,-1.));
#891=DIRECTION('',(-0.577350269240054,0.577350269084786,-0.577350269244037));
#892=DIRECTION('center_axis',(7.29433399256712E-15,0.707106781186548,0.707106781186548));
#893=DIRECTION('ref_axis',(1.,0.,-1.03157460607675E-14));
#894=DIRECTION('',(-1.,1.03157460607675E-14,0.));
#895=DIRECTION('',(1.,-1.03157460607675E-14,0.));
#896=DIRECTION('center_axis',(0.,0.,1.));
#897=DIRECTION('ref_axis',(-1.48029736616688E-15,-1.,0.));
#898=DIRECTION('center_axis',(0.,0.,-1.));
#899=DIRECTION('ref_axis',(-1.48029736616688E-15,-1.,0.));
#900=DIRECTION('',(0.,-0.707106781186549,0.707106781186546));
#901=DIRECTION('center_axis',(0.,0.,1.));
#902=DIRECTION('ref_axis',(-1.48029736616688E-15,-1.,0.));
#903=DIRECTION('center_axis',(-7.85046229341888E-17,0.707106781186548,0.707106781186547));
#904=DIRECTION('ref_axis',(1.,0.,1.11022302462516E-16));
#905=DIRECTION('',(0.,-0.707106781186588,0.707106781186507));
#906=DIRECTION('',(1.,1.11022302462516E-16,0.));
#907=DIRECTION('',(-1.,-1.11022302462516E-16,0.));
#908=DIRECTION('center_axis',(0.,0.,1.));
#909=DIRECTION('ref_axis',(-0.610416666666668,-0.792080483950687,0.));
#910=DIRECTION('center_axis',(0.,0.,1.));
#911=DIRECTION('ref_axis',(-0.610416666666668,-0.792080483950687,0.));
#912=DIRECTION('center_axis',(0.,0.,-1.));
#913=DIRECTION('ref_axis',(-0.610416666666668,-0.792080483950687,0.));
#914=DIRECTION('center_axis',(-7.26846755996937E-15,0.707106781186548,0.707106781186548));
#915=DIRECTION('ref_axis',(1.,0.,1.02791654009776E-14));
#916=DIRECTION('',(1.,1.02791654009776E-14,0.));
#917=DIRECTION('',(-1.,-1.02791654009776E-14,0.));
#918=DIRECTION('center_axis',(0.707106781186543,-4.88847062421795E-12,0.707106781186552));
#919=DIRECTION('ref_axis',(0.707106781186552,0.,-0.707106781186543));
#920=DIRECTION('',(-6.91334145603154E-12,-1.,0.));
#921=DIRECTION('',(6.91334145603154E-12,1.,0.));
#922=DIRECTION('center_axis',(-7.21673469477392E-15,-0.707106781186548,
0.707106781186547));
#923=DIRECTION('ref_axis',(1.,0.,1.02060040813977E-14));
#924=DIRECTION('',(1.,-1.02060040813977E-14,0.));
#925=DIRECTION('',(-1.,1.02060040813977E-14,0.));
#926=DIRECTION('center_axis',(-7.85046229341888E-17,-0.707106781186548,
0.707106781186547));
#927=DIRECTION('ref_axis',(1.,0.,1.11022302462516E-16));
#928=DIRECTION('',(0.,0.707106781186575,0.70710678118652));
#929=DIRECTION('',(-1.,1.11022302462516E-16,0.));
#930=DIRECTION('',(1.,-1.11022302462516E-16,0.));
#931=DIRECTION('center_axis',(0.,0.,1.));
#932=DIRECTION('ref_axis',(0.610416666666668,0.792080483950687,0.));
#933=DIRECTION('center_axis',(0.,0.,1.));
#934=DIRECTION('ref_axis',(0.610416666666668,0.792080483950687,0.));
#935=DIRECTION('center_axis',(0.,0.,-1.));
#936=DIRECTION('ref_axis',(0.610416666666668,0.792080483950687,0.));
#937=DIRECTION('center_axis',(1.04620686999275E-14,-1.,0.));
#938=DIRECTION('ref_axis',(1.,1.04620686999275E-14,0.));
#939=DIRECTION('',(-1.,-1.04620686999275E-14,0.));
#940=DIRECTION('',(0.,0.,1.));
#941=DIRECTION('center_axis',(7.39779972295825E-15,-0.707106781186547,-0.707106781186548));
#942=DIRECTION('ref_axis',(-1.,0.,-1.04620686999275E-14));
#943=DIRECTION('',(-0.577350269189315,-0.577350269189784,0.577350269189778));
#944=DIRECTION('',(1.,1.04620686999275E-14,0.));
#945=DIRECTION('center_axis',(-1.,0.,0.));
#946=DIRECTION('ref_axis',(0.,-1.,0.));
#947=DIRECTION('',(0.,1.,0.));
#948=DIRECTION('center_axis',(-0.707106781186543,0.,-0.707106781186553));
#949=DIRECTION('ref_axis',(-0.707106781186553,0.,0.707106781186543));
#950=DIRECTION('',(-0.577350269189629,0.577350269189628,0.577350269189621));
#951=DIRECTION('',(0.,-1.,0.));
#952=DIRECTION('center_axis',(7.29433399256712E-15,0.707106781186547,-0.707106781186548));
#953=DIRECTION('ref_axis',(-1.,0.,-1.03157460607675E-14));
#954=DIRECTION('',(1.,-1.03157460607675E-14,0.));
#955=DIRECTION('',(-1.,1.03157460607675E-14,0.));
#956=DIRECTION('center_axis',(1.03157460607675E-14,1.,0.));
#957=DIRECTION('ref_axis',(-1.,1.03157460607675E-14,0.));
#958=DIRECTION('',(0.,0.,1.));
#959=DIRECTION('center_axis',(0.,0.,1.));
#960=DIRECTION('ref_axis',(-0.610416666666668,-0.792080483950687,0.));
#961=DIRECTION('',(0.,0.,1.));
#962=DIRECTION('center_axis',(0.,0.,1.));
#963=DIRECTION('ref_axis',(-0.610416666666668,-0.792080483950687,0.));
#964=DIRECTION('center_axis',(-1.11022302462516E-16,1.,0.));
#965=DIRECTION('ref_axis',(-1.,-1.11022302462516E-16,0.));
#966=DIRECTION('',(0.,0.,1.));
#967=DIRECTION('',(1.,1.11022302462516E-16,0.));
#968=DIRECTION('center_axis',(0.,0.,1.));
#969=DIRECTION('ref_axis',(-1.48029736616688E-15,-1.,0.));
#970=DIRECTION('',(0.,0.,1.));
#971=DIRECTION('center_axis',(0.,0.,1.));
#972=DIRECTION('ref_axis',(-1.48029736616688E-15,-1.,0.));
#973=DIRECTION('center_axis',(0.,0.,1.));
#974=DIRECTION('ref_axis',(1.,0.,0.));
#975=DIRECTION('center_axis',(-7.26846755996937E-15,0.707106781186547,-0.707106781186548));
#976=DIRECTION('ref_axis',(-1.,0.,1.02791654009776E-14));
#977=DIRECTION('',(0.577350269086114,0.577350269241384,0.577350269241379));
#978=DIRECTION('',(-1.,-1.02791654009776E-14,0.));
#979=DIRECTION('',(1.,1.02791654009776E-14,0.));
#980=DIRECTION('center_axis',(0.,0.,-1.));
#981=DIRECTION('ref_axis',(-0.610416666666668,-0.792080483950687,0.));
#982=DIRECTION('',(0.,-0.707106781186546,-0.707106781186549));
#983=DIRECTION('center_axis',(0.,0.,-1.));
#984=DIRECTION('ref_axis',(-0.610416666666668,-0.792080483950687,0.));
#985=DIRECTION('center_axis',(0.707106781186543,-4.88847062421795E-12,-0.707106781186553));
#986=DIRECTION('ref_axis',(-0.707106781186553,0.,-0.707106781186543));
#987=DIRECTION('',(-0.577350269186963,0.577350269190959,-0.577350269190955));
#988=DIRECTION('',(6.91334145603154E-12,1.,0.));
#989=DIRECTION('',(-6.91334145603154E-12,-1.,0.));
#990=DIRECTION('center_axis',(0.,0.,-1.));
#991=DIRECTION('ref_axis',(0.610416666666668,0.792080483950687,0.));
#992=DIRECTION('center_axis',(0.,0.,1.));
#993=DIRECTION('ref_axis',(0.610416666666668,0.792080483950687,0.));
#994=DIRECTION('',(0.,0.70710678118655,-0.707106781186545));
#995=DIRECTION('center_axis',(0.,0.,-1.));
#996=DIRECTION('ref_axis',(0.610416666666668,0.792080483950687,0.));
#997=DIRECTION('center_axis',(-7.85046229341888E-17,-0.707106781186548,
-0.707106781186547));
#998=DIRECTION('ref_axis',(-1.,0.,1.11022302462516E-16));
#999=DIRECTION('',(-1.,1.11022302462516E-16,0.));
#1000=DIRECTION('',(0.,0.707106781186547,-0.707106781186548));
#1001=DIRECTION('',(1.,-1.11022302462516E-16,0.));
#1002=DIRECTION('center_axis',(0.,0.,-1.));
#1003=DIRECTION('ref_axis',(-1.85037170770859E-16,1.,0.));
#1004=DIRECTION('center_axis',(0.,0.,-1.));
#1005=DIRECTION('ref_axis',(-1.85037170770859E-16,1.,0.));
#1006=DIRECTION('center_axis',(0.,0.,1.));
#1007=DIRECTION('ref_axis',(-1.85037170770859E-16,1.,0.));
#1008=DIRECTION('center_axis',(-7.21673469477392E-15,-0.707106781186548,
-0.707106781186547));
#1009=DIRECTION('ref_axis',(-1.,0.,1.02060040813977E-14));
#1010=DIRECTION('',(-1.,1.02060040813977E-14,0.));
#1011=DIRECTION('',(1.,-1.02060040813977E-14,0.));
#1012=DIRECTION('center_axis',(-7.85046229341888E-17,0.707106781186548,
-0.707106781186547));
#1013=DIRECTION('ref_axis',(-1.,0.,1.11022302462516E-16));
#1014=DIRECTION('',(0.,-0.707106781186547,-0.707106781186548));
#1015=DIRECTION('',(-1.,-1.11022302462516E-16,0.));
#1016=DIRECTION('center_axis',(0.,0.,-1.));
#1017=DIRECTION('ref_axis',(-1.48029736616688E-15,-1.,0.));
#1018=DIRECTION('center_axis',(0.,0.,-1.));
#1019=DIRECTION('ref_axis',(-1.48029736616688E-15,-1.,0.));
#1020=DIRECTION('center_axis',(0.,0.,1.));
#1021=DIRECTION('ref_axis',(-1.85037170770859E-16,1.,0.));
#1022=DIRECTION('',(0.,0.,1.));
#1023=DIRECTION('center_axis',(-1.11022302462516E-16,-1.,0.));
#1024=DIRECTION('ref_axis',(1.,-1.11022302462516E-16,0.));
#1025=DIRECTION('',(0.,0.,1.));
#1026=DIRECTION('center_axis',(0.,0.,1.));
#1027=DIRECTION('ref_axis',(0.610416666666668,0.792080483950687,0.));
#1028=DIRECTION('',(0.,0.,1.));
#1029=DIRECTION('center_axis',(0.,0.,1.));
#1030=DIRECTION('ref_axis',(1.,0.,0.));
#1031=DIRECTION('center_axis',(-1.02060040813977E-14,-1.,0.));
#1032=DIRECTION('ref_axis',(1.,-1.02060040813977E-14,0.));
#1033=DIRECTION('center_axis',(-1.02791654009776E-14,1.,0.));
#1034=DIRECTION('ref_axis',(-1.,-1.02791654009776E-14,0.));
#1035=DIRECTION('center_axis',(1.,-6.91334145603154E-12,0.));
#1036=DIRECTION('ref_axis',(6.91334145603154E-12,1.,0.));
#1037=CARTESIAN_POINT('',(0.,0.,0.));
#1038=CARTESIAN_POINT('Origin',(-40.,-29.,7.75));
#1039=CARTESIAN_POINT('',(-54.65,-9.99006838518353,7.5));
#1040=CARTESIAN_POINT('',(-40.,-5.,7.5));
#1041=CARTESIAN_POINT('Origin',(-40.,-29.,7.5));
#1042=CARTESIAN_POINT('',(-40.,-4.5,8.));
#1043=CARTESIAN_POINT('',(-40.,-5.,7.5));
#1044=CARTESIAN_POINT('',(-54.8193309020747,-9.49006838518357,8.));
#1045=CARTESIAN_POINT('Origin',(-40.,-29.,8.));
#1046=CARTESIAN_POINT('Ctrl Pts',(-54.8193309020747,-9.49006838518357,8.));
#1047=CARTESIAN_POINT('Ctrl Pts',(-54.7631944218419,-9.65678054462377,7.8332878405598));
#1048=CARTESIAN_POINT('Ctrl Pts',(-54.7067499520898,-9.82346008767317,7.66660829751036));
#1049=CARTESIAN_POINT('Ctrl Pts',(-54.65,-9.99006838518353,7.5));
#1050=CARTESIAN_POINT('Origin',(-84.4999999999996,-9.99006838518388,7.5));
#1051=CARTESIAN_POINT('',(-85.,-9.49006838518388,7.5));
#1052=CARTESIAN_POINT('',(-84.5,-9.49006838518388,8.));
#1053=CARTESIAN_POINT('',(-85.,-9.49006838518388,7.5));
#1054=CARTESIAN_POINT('',(-84.4999999999996,-9.99006838518388,7.5));
#1055=CARTESIAN_POINT('',(-84.4999999999996,-9.99006838518388,7.5));
#1056=CARTESIAN_POINT('',(-84.5,-9.49006838518388,8.));
#1057=CARTESIAN_POINT('Origin',(-84.7499999999998,-9.74006838518388,0.));
#1058=CARTESIAN_POINT('',(-84.7499999999998,-9.74006838518388,0.250000000000004));
#1059=CARTESIAN_POINT('',(-84.4999999999996,-9.99006838518388,0.5));
#1060=CARTESIAN_POINT('',(-77.7499999999891,-16.7400683851886,7.25000000000482));
#1061=CARTESIAN_POINT('',(-84.4999999999996,-9.99006838518388,0.));
#1062=CARTESIAN_POINT('',(-85.,-9.49006838518388,0.5));
#1063=CARTESIAN_POINT('',(-85.,-9.49006838518388,0.));
#1064=CARTESIAN_POINT('',(-87.1641837629618,-7.32588462222387,2.66418376296182));
#1065=CARTESIAN_POINT('Origin',(-42.4999999999825,-9.74006838518344,7.75));
#1066=CARTESIAN_POINT('',(-42.4999999999825,-9.49006838518344,8.));
#1067=CARTESIAN_POINT('',(-42.4999999999825,-9.99006838518344,7.5));
#1068=CARTESIAN_POINT('Origin',(85.0000000000033,-9.49006838518386,7.5));
#1069=CARTESIAN_POINT('',(84.4999999999998,-9.99006838518386,7.5));
#1070=CARTESIAN_POINT('',(84.5000000000032,-9.49006838518386,8.));
#1071=CARTESIAN_POINT('',(84.4999999999998,-9.99006838518386,7.5));
#1072=CARTESIAN_POINT('',(85.0000000000033,-9.49006838518386,7.5));
#1073=CARTESIAN_POINT('',(85.0000000000033,-9.49006838518386,7.5));
#1074=CARTESIAN_POINT('',(84.5000000000032,-9.49006838518386,8.));
#1075=CARTESIAN_POINT('Origin',(84.7500000000015,-9.74006838518386,0.));
#1076=CARTESIAN_POINT('',(84.7500000000015,-9.74006838518386,0.249999999999995));
#1077=CARTESIAN_POINT('',(85.0000000000033,-9.49006838518386,0.5));
#1078=CARTESIAN_POINT('',(85.499172365392,-8.99089601979857,0.999172365385305));
#1079=CARTESIAN_POINT('',(85.0000000000033,-9.49006838518386,0.));
#1080=CARTESIAN_POINT('',(84.4999999999998,-9.99006838518386,0.5));
#1081=CARTESIAN_POINT('',(84.4999999999998,-9.99006838518386,0.));
#1082=CARTESIAN_POINT('',(75.220833333249,-19.2692350518701,9.77916666668637));
#1083=CARTESIAN_POINT('Origin',(-85.,9.49006838518387,7.5));
#1084=CARTESIAN_POINT('',(-84.5,9.99006838518387,7.5));
#1085=CARTESIAN_POINT('',(-84.5,9.49006838518387,8.));
#1086=CARTESIAN_POINT('',(-84.5,9.99006838518387,7.5));
#1087=CARTESIAN_POINT('',(-85.,9.49006838518387,7.5));
#1088=CARTESIAN_POINT('',(-85.,9.49006838518387,7.5));
#1089=CARTESIAN_POINT('',(-84.5,9.49006838518387,8.));
#1090=CARTESIAN_POINT('Origin',(-84.75,9.74006838518387,0.));
#1091=CARTESIAN_POINT('',(-84.75,9.74006838518387,0.25));
#1092=CARTESIAN_POINT('',(-85.,9.49006838518387,0.5));
#1093=CARTESIAN_POINT('',(-85.499172365432,8.9908960197519,0.999172365431978));
#1094=CARTESIAN_POINT('',(-85.,9.49006838518387,0.));
#1095=CARTESIAN_POINT('',(-84.5,9.99006838518387,0.5));
#1096=CARTESIAN_POINT('',(-84.5,9.99006838518387,0.));
#1097=CARTESIAN_POINT('',(-75.2208333333303,19.2692350518533,9.77916666666955));
#1098=CARTESIAN_POINT('Origin',(-84.75,4.99503419259193,7.75));
#1099=CARTESIAN_POINT('',(-84.5,4.99503419259193,8.));
#1100=CARTESIAN_POINT('',(-85.,4.99503419259193,7.5));
#1101=CARTESIAN_POINT('Origin',(84.5,9.99006838518387,7.5));
#1102=CARTESIAN_POINT('',(85.0000000001344,9.49006838518387,7.5));
#1103=CARTESIAN_POINT('',(84.5000000001344,9.49006838518386,8.));
#1104=CARTESIAN_POINT('',(85.0000000001344,9.49006838518387,7.5));
#1105=CARTESIAN_POINT('',(84.5,9.99006838518387,7.5));
#1106=CARTESIAN_POINT('',(84.5,9.99006838518387,7.5));
#1107=CARTESIAN_POINT('',(84.5000000001345,9.49006838518387,8.));
#1108=CARTESIAN_POINT('Origin',(84.7500000000672,9.74006838518387,0.));
#1109=CARTESIAN_POINT('',(84.7500000000672,9.74006838518388,0.250000000000009));
#1110=CARTESIAN_POINT('',(84.5,9.99006838518387,0.5));
#1111=CARTESIAN_POINT('',(77.7499999975378,16.7400683858308,7.25000000064701));
#1112=CARTESIAN_POINT('',(84.5,9.99006838518387,0.));
#1113=CARTESIAN_POINT('',(85.0000000001344,9.49006838518387,0.5));
#1114=CARTESIAN_POINT('',(85.0000000001344,9.49006838518387,0.));
#1115=CARTESIAN_POINT('',(87.164183762857,7.32588462304332,2.66418376273751));
#1116=CARTESIAN_POINT('Origin',(-27.3249999999827,9.74006838518328,7.75));
#1117=CARTESIAN_POINT('',(-54.65,9.99006838518356,7.5));
#1118=CARTESIAN_POINT('',(-27.3249999999827,9.99006838518328,7.5));
#1119=CARTESIAN_POINT('',(-54.8193309020746,9.49006838518356,8.));
#1120=CARTESIAN_POINT('',(-27.3249999999827,9.49006838518328,8.));
#1121=CARTESIAN_POINT('Ctrl Pts',(-54.8193309020746,9.49006838518356,8.));
#1122=CARTESIAN_POINT('Ctrl Pts',(-54.7631944218476,9.65678054460632,7.83328784057724));
#1123=CARTESIAN_POINT('Ctrl Pts',(-54.7067499520927,9.8234600876647,7.66660829751885));
#1124=CARTESIAN_POINT('Ctrl Pts',(-54.65,9.99006838518356,7.5));
#1125=CARTESIAN_POINT('Origin',(40.,29.,7.75));
#1126=CARTESIAN_POINT('',(54.65,9.99006838518356,7.5));
#1127=CARTESIAN_POINT('',(40.,5.,7.5));
#1128=CARTESIAN_POINT('Origin',(40.,29.,7.5));
#1129=CARTESIAN_POINT('',(40.,4.5,8.));
#1130=CARTESIAN_POINT('',(40.,5.,7.5));
#1131=CARTESIAN_POINT('',(54.8193309020747,9.49006838518356,8.));
#1132=CARTESIAN_POINT('Origin',(40.,29.,8.));
#1133=CARTESIAN_POINT('Ctrl Pts',(54.8193309020747,9.49006838518356,8.));
#1134=CARTESIAN_POINT('Ctrl Pts',(54.7631944218369,9.65678054463837,7.83328784054519));
#1135=CARTESIAN_POINT('Ctrl Pts',(54.7067499520874,9.82346008768027,7.66660829750324));
#1136=CARTESIAN_POINT('Ctrl Pts',(54.65,9.99006838518354,7.49999999999997));
#1137=CARTESIAN_POINT('Origin',(20.0000000000172,4.75,7.75));
#1138=CARTESIAN_POINT('',(-40.,5.00000000000005,7.5));
#1139=CARTESIAN_POINT('',(-40.,4.5,8.));
#1140=CARTESIAN_POINT('',(-40.,5.00000000000005,7.5));
#1141=CARTESIAN_POINT('',(20.0000000000172,4.5,8.));
#1142=CARTESIAN_POINT('',(20.0000000000172,5.,7.5));
#1143=CARTESIAN_POINT('Origin',(-40.,29.,7.75));
#1144=CARTESIAN_POINT('Origin',(-40.,29.,8.));
#1145=CARTESIAN_POINT('Origin',(-40.,29.,7.5));
#1146=CARTESIAN_POINT('Origin',(42.5000000000172,9.74006838518343,7.75));
#1147=CARTESIAN_POINT('',(42.5000000000172,9.49006838518343,8.));
#1148=CARTESIAN_POINT('',(42.5000000000172,9.99006838518343,7.5));
#1149=CARTESIAN_POINT('Origin',(84.7500000000343,-4.99503419288402,7.75));
#1150=CARTESIAN_POINT('',(84.5000000000343,-4.99503419288229,8.));
#1151=CARTESIAN_POINT('',(85.0000000000343,-4.99503419288575,7.5));
#1152=CARTESIAN_POINT('Origin',(27.3250000000172,-9.74006838518327,7.75));
#1153=CARTESIAN_POINT('',(54.65,-9.99006838518355,7.5));
#1154=CARTESIAN_POINT('',(27.3250000000172,-9.99006838518327,7.5));
#1155=CARTESIAN_POINT('',(54.8193309020746,-9.49006838518356,8.));
#1156=CARTESIAN_POINT('',(27.3250000000172,-9.49006838518327,8.));
#1157=CARTESIAN_POINT('Ctrl Pts',(54.8193309020746,-9.49006838518356,8.));
#1158=CARTESIAN_POINT('Ctrl Pts',(54.7631944218494,-9.65678054460116,7.8332878405824));
#1159=CARTESIAN_POINT('Ctrl Pts',(54.7067499520936,-9.82346008766219,7.66660829752136));
#1160=CARTESIAN_POINT('Ctrl Pts',(54.65,-9.99006838518355,7.5));
#1161=CARTESIAN_POINT('Origin',(-19.9999999999828,-4.75,7.75));
#1162=CARTESIAN_POINT('',(40.,-5.00000000000004,7.5));
#1163=CARTESIAN_POINT('',(40.,-4.50000000000001,8.));
#1164=CARTESIAN_POINT('',(40.,-5.00000000000004,7.5));
#1165=CARTESIAN_POINT('',(-19.9999999999828,-4.5,8.));
#1166=CARTESIAN_POINT('',(-19.9999999999828,-5.,7.5));
#1167=CARTESIAN_POINT('Origin',(40.,-29.,7.75));
#1168=CARTESIAN_POINT('Origin',(40.,-29.,8.));
#1169=CARTESIAN_POINT('Origin',(40.,-29.,7.5));
#1170=CARTESIAN_POINT('Origin',(-84.9999999999996,-9.99006838518388,0.));
#1171=CARTESIAN_POINT('',(-54.65,-9.99006838518353,0.5));
#1172=CARTESIAN_POINT('',(-42.4999999999825,-9.99006838518344,0.5));
#1173=CARTESIAN_POINT('',(-54.65,-9.99006838518353,0.));
#1174=CARTESIAN_POINT('Origin',(-42.4999999999825,-9.74006838518344,0.25));
#1175=CARTESIAN_POINT('',(-84.5,-9.49006838518388,0.));
#1176=CARTESIAN_POINT('',(-84.5,-9.49006838518388,0.));
#1177=CARTESIAN_POINT('',(-54.8193309020747,-9.49006838518357,0.));
#1178=CARTESIAN_POINT('',(-42.4999999999825,-9.49006838518344,0.));
#1179=CARTESIAN_POINT('Ctrl Pts',(-54.8193309020747,-9.49006838518357,-6.93889390390723E-17));
#1180=CARTESIAN_POINT('Ctrl Pts',(-54.7631944218419,-9.65678054462376,0.166712159440194));
#1181=CARTESIAN_POINT('Ctrl Pts',(-54.7067499520898,-9.82346008767319,0.33339170248962));
#1182=CARTESIAN_POINT('Ctrl Pts',(-54.65,-9.99006838518355,0.499999999999981));
#1183=CARTESIAN_POINT('Origin',(-85.,9.99006838518387,0.));
#1184=CARTESIAN_POINT('',(-85.,4.99503419259193,0.5));
#1185=CARTESIAN_POINT('Origin',(-84.75,4.99503419259193,0.25));
#1186=CARTESIAN_POINT('',(-84.5,9.49006838518387,0.));
#1187=CARTESIAN_POINT('',(-84.5,9.49006838518387,0.));
#1188=CARTESIAN_POINT('',(-84.5,4.99503419259193,0.));
#1189=CARTESIAN_POINT('Origin',(-27.3249999999827,9.74006838518328,0.25));
#1190=CARTESIAN_POINT('',(-54.65,9.99006838518356,0.5));
#1191=CARTESIAN_POINT('',(-27.3249999999827,9.99006838518328,0.5));
#1192=CARTESIAN_POINT('',(-54.8193309020746,9.49006838518356,0.));
#1193=CARTESIAN_POINT('Ctrl Pts',(-54.8193309020746,9.49006838518356,-4.40619762898109E-15));
#1194=CARTESIAN_POINT('Ctrl Pts',(-54.7631944218508,9.65678054459701,0.166712159413448));
#1195=CARTESIAN_POINT('Ctrl Pts',(-54.7067499520942,9.82346008766019,0.333391702476633));
#1196=CARTESIAN_POINT('Ctrl Pts',(-54.65,9.99006838518356,0.499999999999998));
#1197=CARTESIAN_POINT('',(-27.3249999999827,9.49006838518328,0.));
#1198=CARTESIAN_POINT('Origin',(-54.65,9.99006838518356,0.));
#1199=CARTESIAN_POINT('',(-54.65,9.99006838518356,0.));
#1200=CARTESIAN_POINT('Origin',(-40.,29.,0.));
#1201=CARTESIAN_POINT('',(-40.,5.00000000000005,0.5));
#1202=CARTESIAN_POINT('',(-40.,5.00000000000005,0.));
#1203=CARTESIAN_POINT('Origin',(-40.,29.,0.5));
#1204=CARTESIAN_POINT('Origin',(40.,5.00000000000001,0.));
#1205=CARTESIAN_POINT('',(40.,5.,0.5));
#1206=CARTESIAN_POINT('',(40.,5.,0.));
#1207=CARTESIAN_POINT('',(20.0000000000172,5.,0.5));
#1208=CARTESIAN_POINT('Origin',(40.,29.,0.));
#1209=CARTESIAN_POINT('',(54.65,9.99006838518356,0.5));
#1210=CARTESIAN_POINT('',(54.65,9.99006838518356,0.));
#1211=CARTESIAN_POINT('Origin',(40.,29.,0.5));
#1212=CARTESIAN_POINT('Origin',(3.44257955475769E-11,-5.55111512312578E-15,
8.));
#1213=CARTESIAN_POINT('Origin',(42.5000000000172,9.74006838518343,0.25));
#1214=CARTESIAN_POINT('',(84.5000000001344,9.49006838518387,0.));
#1215=CARTESIAN_POINT('',(84.5000000001344,9.49006838518387,0.));
#1216=CARTESIAN_POINT('',(54.8193309020747,9.49006838518356,0.));
#1217=CARTESIAN_POINT('',(42.5000000000172,9.49006838518343,0.));
#1218=CARTESIAN_POINT('Ctrl Pts',(54.8193309020747,9.49006838518356,1.04083408558608E-15));
#1219=CARTESIAN_POINT('Ctrl Pts',(54.7631944218336,9.65678054464824,0.166712159464677));
#1220=CARTESIAN_POINT('Ctrl Pts',(54.7067499520858,9.82346008768508,0.333391702501523));
#1221=CARTESIAN_POINT('Ctrl Pts',(54.65,9.99006838518356,0.5));
#1222=CARTESIAN_POINT('',(42.5000000000172,9.99006838518343,0.5));
#1223=CARTESIAN_POINT('Origin',(-40.,29.,0.25));
#1224=CARTESIAN_POINT('',(-40.,4.50000000000006,0.));
#1225=CARTESIAN_POINT('',(-40.,5.00000000000005,0.5));
#1226=CARTESIAN_POINT('Origin',(-40.,29.,0.));
#1227=CARTESIAN_POINT('Origin',(84.7500000000343,-4.99503419288402,0.25));
#1228=CARTESIAN_POINT('',(84.5000000000032,-9.49006838518386,0.));
#1229=CARTESIAN_POINT('',(84.9999999999998,-9.99006838518386,0.5));
#1230=CARTESIAN_POINT('',(84.5000000000343,-4.99503419288229,0.));
#1231=CARTESIAN_POINT('',(85.0000000000343,-4.99503419288575,0.5));
#1232=CARTESIAN_POINT('Origin',(40.,-29.,0.25));
#1233=CARTESIAN_POINT('',(54.65,-9.99006838518355,0.5));
#1234=CARTESIAN_POINT('',(40.,-5.00000000000004,0.5));
#1235=CARTESIAN_POINT('Origin',(40.,-29.,0.5));
#1236=CARTESIAN_POINT('',(40.,-4.50000000000004,0.));
#1237=CARTESIAN_POINT('',(40.,-5.00000000000004,0.5));
#1238=CARTESIAN_POINT('',(54.8193309020746,-9.49006838518356,0.));
#1239=CARTESIAN_POINT('Origin',(40.,-29.,0.));
#1240=CARTESIAN_POINT('Ctrl Pts',(54.8193309020746,-9.49006838518356,1.17961196366423E-15));
#1241=CARTESIAN_POINT('Ctrl Pts',(54.7631944218508,-9.65678054459691,0.16671215941336));
#1242=CARTESIAN_POINT('Ctrl Pts',(54.7067499520943,-9.82346008766014,0.333391702476593));
#1243=CARTESIAN_POINT('Ctrl Pts',(54.65,-9.99006838518355,0.500000000000001));
#1244=CARTESIAN_POINT('Origin',(-19.9999999999828,-4.75,0.25));
#1245=CARTESIAN_POINT('',(-40.,-5.,0.5));
#1246=CARTESIAN_POINT('',(-19.9999999999828,-5.,0.5));
#1247=CARTESIAN_POINT('',(-40.,-4.5,0.));
#1248=CARTESIAN_POINT('',(-40.,-5.,0.5));
#1249=CARTESIAN_POINT('',(-19.9999999999828,-4.5,0.));
#1250=CARTESIAN_POINT('Origin',(-40.,-29.,0.25));
#1251=CARTESIAN_POINT('Origin',(-40.,-29.,0.));
#1252=CARTESIAN_POINT('Origin',(-40.,-29.,0.5));
#1253=CARTESIAN_POINT('Origin',(27.3250000000172,-9.74006838518327,0.25));
#1254=CARTESIAN_POINT('',(27.3250000000172,-9.99006838518327,0.5));
#1255=CARTESIAN_POINT('',(27.3250000000172,-9.49006838518327,0.));
#1256=CARTESIAN_POINT('Origin',(20.0000000000172,4.75,0.25));
#1257=CARTESIAN_POINT('',(40.,4.50000000000001,0.));
#1258=CARTESIAN_POINT('',(40.,5.,0.5));
#1259=CARTESIAN_POINT('',(20.0000000000172,4.5,0.));
#1260=CARTESIAN_POINT('Origin',(40.,29.,0.25));
#1261=CARTESIAN_POINT('Origin',(40.,29.,0.));
#1262=CARTESIAN_POINT('Origin',(-40.,-29.,0.));
#1263=CARTESIAN_POINT('',(-40.,-5.,0.));
#1264=CARTESIAN_POINT('Origin',(-40.,-5.,0.));
#1265=CARTESIAN_POINT('',(40.,-5.00000000000004,0.));
#1266=CARTESIAN_POINT('Origin',(40.,-29.,0.));
#1267=CARTESIAN_POINT('',(54.65,-9.99006838518355,0.));
#1268=CARTESIAN_POINT('Origin',(3.44257955475769E-11,-5.55111512312578E-15,
0.));
#1269=CARTESIAN_POINT('Origin',(54.65,-9.99006838518355,0.));
#1270=CARTESIAN_POINT('Origin',(85.,9.99006838518387,0.));
#1271=CARTESIAN_POINT('Origin',(84.9999999999998,-9.99006838518386,0.));
#1272=UNCERTAINTY_MEASURE_WITH_UNIT(LENGTH_MEASURE(0.01),#1276,
'DISTANCE_ACCURACY_VALUE',
'Maximum model space distance between geometric entities at asserted c
onnectivities');
#1273=UNCERTAINTY_MEASURE_WITH_UNIT(LENGTH_MEASURE(0.01),#1276,
'DISTANCE_ACCURACY_VALUE',
'Maximum model space distance between geometric entities at asserted c
onnectivities');
#1274=(
GEOMETRIC_REPRESENTATION_CONTEXT(3)
GLOBAL_UNCERTAINTY_ASSIGNED_CONTEXT((#1272))
GLOBAL_UNIT_ASSIGNED_CONTEXT((#1276,#1278,#1279))
REPRESENTATION_CONTEXT('','3D')
);
#1275=(
GEOMETRIC_REPRESENTATION_CONTEXT(3)
GLOBAL_UNCERTAINTY_ASSIGNED_CONTEXT((#1273))
GLOBAL_UNIT_ASSIGNED_CONTEXT((#1276,#1278,#1279))
REPRESENTATION_CONTEXT('','3D')
);
#1276=(
LENGTH_UNIT()
NAMED_UNIT(*)
SI_UNIT(.MILLI.,.METRE.)
);
#1277=(
LENGTH_UNIT()
NAMED_UNIT(*)
SI_UNIT($,.METRE.)
);
#1278=(
NAMED_UNIT(*)
PLANE_ANGLE_UNIT()
SI_UNIT($,.RADIAN.)
);
#1279=(
NAMED_UNIT(*)
SI_UNIT($,.STERADIAN.)
SOLID_ANGLE_UNIT()
);
#1280=SHAPE_DEFINITION_REPRESENTATION(#1281,#1282);
#1281=PRODUCT_DEFINITION_SHAPE('',$,#1284);
#1282=SHAPE_REPRESENTATION('',(#768),#1274);
#1283=PRODUCT_DEFINITION_CONTEXT('part definition',#1288,'design');
#1284=PRODUCT_DEFINITION('Iso527-1A','Iso527-1A v5',#1285,#1283);
#1285=PRODUCT_DEFINITION_FORMATION('',$,#1290);
#1286=PRODUCT_RELATED_PRODUCT_CATEGORY('Iso527-1A v5','Iso527-1A v5',(#1290));
#1287=APPLICATION_PROTOCOL_DEFINITION('international standard',
'ap242_managed_model_based_3d_engineering',2011,#1288);
#1288=APPLICATION_CONTEXT('Managed model based 3d engineering');
#1289=PRODUCT_CONTEXT('part definition',#1288,'mechanical');
#1290=PRODUCT('Iso527-1A','Iso527-1A v5',$,(#1289));
#1291=PRESENTATION_STYLE_ASSIGNMENT((#1292));
#1292=SURFACE_STYLE_USAGE(.BOTH.,#1293);
#1293=SURFACE_SIDE_STYLE('',(#1294));
#1294=SURFACE_STYLE_FILL_AREA(#1295);
#1295=FILL_AREA_STYLE('Steel - Satin',(#1296));
#1296=FILL_AREA_STYLE_COLOUR('Steel - Satin',#1297);
#1297=COLOUR_RGB('Steel - Satin',0.627450980392157,0.627450980392157,0.627450980392157);
ENDSEC;
END-ISO-10303-21;
