ISO-10303-21;
HEADER;
/* Generated by software containing ST-Developer
 * from STEP Tools, Inc. (www.steptools.com) 
 */
/* OPTION: strings as raw bytes, not using required /X/ escapes */

FILE_DESCRIPTION(
/* description */ ('blaze/ace-Adapter AMA'),
/* implementation_level */ '2;1');

FILE_NAME(
/* name */ 'blaze_ace2_adapter',
/* time_stamp */ '2021-02-02T18:09:35+01:00',
/* author */ (''),
/* organization */ ('Basler AG'),
/* preprocessor_version */ '',
/* originating_system */ '',
/* authorisation */ $);

FILE_SCHEMA (('AUTOMOTIVE_DESIGN {1 0 10303 214 3 1 1}'));
ENDSEC;

DATA;
#10=PROPERTY_DEFINITION_REPRESENTATION(#14,#12);
#11=PROPERTY_DEFINITION_REPRESENTATION(#15,#13);
#12=REPRESENTATION('',(#16),#2218);
#13=REPRESENTATION('',(#17),#2218);
#14=PROPERTY_DEFINITION('pmi validation property','',#2223);
#15=PROPERTY_DEFINITION('pmi validation property','',#2223);
#16=VALUE_REPRESENTATION_ITEM('number of annotations',COUNT_MEASURE(0.));
#17=VALUE_REPRESENTATION_ITEM('number of views',COUNT_MEASURE(0.));
#18=SHAPE_REPRESENTATION_RELATIONSHIP('','',#1243,#19);
#19=ADVANCED_BREP_SHAPE_REPRESENTATION('',(#1241),#2218);
#20=(
BOUNDED_SURFACE()
B_SPLINE_SURFACE(3,2,((#2163,#2164,#2165),(#2166,#2167,#2168),(#2169,#2170,
#2171),(#2172,#2173,#2174),(#2175,#2176,#2177)),.UNSPECIFIED.,.F.,.F.,.F.)
B_SPLINE_SURFACE_WITH_KNOTS((4,1,4),(3,3),(0.,0.785398163397448,1.5707963267949),
(0.,1.),.UNSPECIFIED.)
GEOMETRIC_REPRESENTATION_ITEM()
RATIONAL_B_SPLINE_SURFACE(((1.,0.736766252999719,1.),(1.,0.736766252998999,
1.),(1.,0.730508243412553,1.),(1.,0.715034460137592,1.),(1.,0.707106781186548,
1.)))
REPRESENTATION_ITEM('')
SURFACE()
);
#21=SPHERICAL_SURFACE('',#1353,2.25);
#22=SPHERICAL_SURFACE('',#1364,2.25);
#23=SPHERICAL_SURFACE('',#1378,2.25);
#24=SPHERICAL_SURFACE('',#1385,2.25);
#25=TOROIDAL_SURFACE('',#1319,5.75,2.25);
#26=TOROIDAL_SURFACE('',#1323,5.75,2.25);
#27=TOROIDAL_SURFACE('',#1329,5.75,2.25);
#28=TOROIDAL_SURFACE('',#1333,5.75,2.25);
#29=TOROIDAL_SURFACE('',#1366,4.5,2.25);
#30=TOROIDAL_SURFACE('',#1389,15.,1.);
#31=B_SPLINE_CURVE_WITH_KNOTS('',3,(#1887,#1888,#1889,#1890,#1891,#1892,
#1893,#1894,#1895,#1896,#1897,#1898,#1899,#1900,#1901,#1902),
 .UNSPECIFIED.,.F.,.F.,(4,1,1,1,1,1,1,1,1,1,1,1,1,4),(4.33680868994202E-19,
0.00250054181960084,0.00500108363920167,0.00625135454900209,0.00750162545880251,
0.00875189636860293,0.0100021672784033,0.0112524381882038,0.0125027090980042,
0.0137529800078046,0.015003250917605,0.0162535218274054,0.0175037927372059,
0.0200043345568067),.UNSPECIFIED.);
#32=B_SPLINE_CURVE_WITH_KNOTS('',3,(#1919,#1920,#1921,#1922,#1923,#1924,
#1925,#1926,#1927,#1928,#1929,#1930,#1931,#1932,#1933,#1934),
 .UNSPECIFIED.,.F.,.F.,(4,1,1,1,1,1,1,1,1,1,1,1,1,4),(0.,0.00250054181960084,
0.00500108363920167,0.00625135454900209,0.00750162545880251,0.00875189636860292,
0.0100021672784033,0.0112524381882038,0.0125027090980042,0.0137529800078046,
0.015003250917605,0.0162535218274054,0.0175037927372058,0.0200043345568067),
 .UNSPECIFIED.);
#33=B_SPLINE_CURVE_WITH_KNOTS('',3,(#1987,#1988,#1989,#1990,#1991,#1992),
 .UNSPECIFIED.,.F.,.F.,(4,1,1,4),(0.,0.0021845079970016,0.0032767619955024,
0.0043690159940032),.UNSPECIFIED.);
#34=B_SPLINE_CURVE_WITH_KNOTS('',3,(#2000,#2001,#2002,#2003,#2004,#2005),
 .UNSPECIFIED.,.F.,.F.,(4,1,1,4),(0.000711505193294425,0.00181602190837873,
0.00292053862346303,0.00512957205363163),.UNSPECIFIED.);
#35=B_SPLINE_CURVE_WITH_KNOTS('',3,(#2011,#2012,#2013,#2014,#2015,#2016),
 .UNSPECIFIED.,.F.,.F.,(4,1,1,4),(0.,0.00139508231271306,0.00209262346906959,
0.00279016462542612),.UNSPECIFIED.);
#36=B_SPLINE_CURVE_WITH_KNOTS('',3,(#2030,#2031,#2032,#2033,#2034,#2035),
 .UNSPECIFIED.,.F.,.F.,(4,1,1,4),(0.000492968966054864,0.00120263449124687,
0.00191230001643889,0.00333163106682291),.UNSPECIFIED.);
#37=B_SPLINE_CURVE_WITH_KNOTS('',3,(#2093,#2094,#2095,#2096,#2097),
 .UNSPECIFIED.,.F.,.F.,(4,1,4),(3.46944695195361E-18,0.00171700379898667,
0.00343400759797334),.UNSPECIFIED.);
#38=B_SPLINE_CURVE_WITH_KNOTS('',3,(#2102,#2103,#2104,#2105,#2106),
 .UNSPECIFIED.,.F.,.F.,(4,1,4),(0.,0.00182190990867509,0.00364381981735018),
 .UNSPECIFIED.);
#39=B_SPLINE_CURVE_WITH_KNOTS('',3,(#2150,#2151,#2152,#2153),
 .UNSPECIFIED.,.F.,.F.,(4,4),(5.81585287368077E-17,0.000800073765314917),
 .UNSPECIFIED.);
#40=B_SPLINE_CURVE_WITH_KNOTS('',3,(#2180,#2181,#2182,#2183,#2184,#2185,
#2186),.UNSPECIFIED.,.F.,.F.,(4,1,1,1,4),(0.,0.000912379231740894,0.00182475846348179,
0.00273713769522268,0.00364951692696358),.UNSPECIFIED.);
#41=B_SPLINE_CURVE_WITH_KNOTS('',3,(#2202,#2203,#2204,#2205),
 .UNSPECIFIED.,.F.,.F.,(4,4),(2.4532694666934E-18,0.00080007376531548),
 .UNSPECIFIED.);
#42=B_SPLINE_CURVE_WITH_KNOTS('',3,(#2207,#2208,#2209,#2210),
 .UNSPECIFIED.,.F.,.F.,(4,4),(3.87895961444886E-18,0.000615887439981085),
 .UNSPECIFIED.);
#43=B_SPLINE_CURVE_WITH_KNOTS('',3,(#2211,#2212,#2213,#2214),
 .UNSPECIFIED.,.F.,.F.,(4,4),(8.5651941323585E-15,0.000615887439989576),
 .UNSPECIFIED.);
#44=CYLINDRICAL_SURFACE('',#1255,1.7);
#45=CYLINDRICAL_SURFACE('',#1258,1.7);
#46=CYLINDRICAL_SURFACE('',#1261,1.7);
#47=CYLINDRICAL_SURFACE('',#1274,8.);
#48=CYLINDRICAL_SURFACE('',#1277,8.);
#49=CYLINDRICAL_SURFACE('',#1295,16.);
#50=CYLINDRICAL_SURFACE('',#1302,2.15);
#51=CYLINDRICAL_SURFACE('',#1304,2.15);
#52=CYLINDRICAL_SURFACE('',#1310,4.25);
#53=CYLINDRICAL_SURFACE('',#1313,4.25);
#54=CYLINDRICAL_SURFACE('',#1316,2.25);
#55=CYLINDRICAL_SURFACE('',#1321,2.25);
#56=CYLINDRICAL_SURFACE('',#1325,2.25);
#57=CYLINDRICAL_SURFACE('',#1327,2.25);
#58=CYLINDRICAL_SURFACE('',#1331,2.25);
#59=CYLINDRICAL_SURFACE('',#1335,2.25);
#60=CYLINDRICAL_SURFACE('',#1336,3.25);
#61=CYLINDRICAL_SURFACE('',#1339,3.25);
#62=CYLINDRICAL_SURFACE('',#1342,3.25);
#63=CYLINDRICAL_SURFACE('',#1351,2.25);
#64=CYLINDRICAL_SURFACE('',#1356,2.25);
#65=CYLINDRICAL_SURFACE('',#1358,2.25);
#66=CYLINDRICAL_SURFACE('',#1360,2.25);
#67=CYLINDRICAL_SURFACE('',#1362,2.25);
#68=CYLINDRICAL_SURFACE('',#1368,2.25);
#69=CYLINDRICAL_SURFACE('',#1370,2.25);
#70=CYLINDRICAL_SURFACE('',#1373,2.25);
#71=CYLINDRICAL_SURFACE('',#1374,2.25);
#72=CYLINDRICAL_SURFACE('',#1376,2.25);
#73=CYLINDRICAL_SURFACE('',#1380,2.25);
#74=CYLINDRICAL_SURFACE('',#1381,2.25);
#75=CYLINDRICAL_SURFACE('',#1383,2.25);
#76=CYLINDRICAL_SURFACE('',#1387,2.25);
#77=CYLINDRICAL_SURFACE('',#1388,2.25);
#78=CYLINDRICAL_SURFACE('',#1390,1.);
#79=CYLINDRICAL_SURFACE('',#1391,1.);
#80=ELLIPSE('',#1248,4.51659681778266,4.5);
#81=ELLIPSE('',#1307,3.26198659062081,3.25);
#82=ELLIPSE('',#1308,3.26198659062081,3.25);
#83=ELLIPSE('',#1309,3.26198659062081,3.25);
#84=ELLIPSE('',#1369,2.28301266190191,2.25);
#85=CIRCLE('',#1246,2.25);
#86=CIRCLE('',#1249,2.25);
#87=CIRCLE('',#1250,5.75);
#88=CIRCLE('',#1251,5.75);
#89=CIRCLE('',#1252,2.25);
#90=CIRCLE('',#1253,16.);
#91=CIRCLE('',#1254,4.5);
#92=CIRCLE('',#1256,1.7);
#93=CIRCLE('',#1257,1.7);
#94=CIRCLE('',#1259,1.7);
#95=CIRCLE('',#1260,1.7);
#96=CIRCLE('',#1262,1.7);
#97=CIRCLE('',#1263,1.7);
#98=CIRCLE('',#1265,2.25);
#99=CIRCLE('',#1266,2.25);
#100=CIRCLE('',#1267,2.25);
#101=CIRCLE('',#1268,2.25);
#102=CIRCLE('',#1269,2.25);
#103=CIRCLE('',#1270,2.25);
#104=CIRCLE('',#1271,2.15);
#105=CIRCLE('',#1275,8.);
#106=CIRCLE('',#1276,8.);
#107=CIRCLE('',#1278,8.);
#108=CIRCLE('',#1279,8.);
#109=CIRCLE('',#1281,16.);
#110=CIRCLE('',#1283,2.25);
#111=CIRCLE('',#1284,2.25);
#112=CIRCLE('',#1285,2.15);
#113=CIRCLE('',#1287,2.25);
#114=CIRCLE('',#1289,5.75);
#115=CIRCLE('',#1290,16.);
#116=CIRCLE('',#1291,5.75);
#117=CIRCLE('',#1293,4.25);
#118=CIRCLE('',#1294,4.25);
#119=CIRCLE('',#1296,16.);
#120=CIRCLE('',#1301,15.);
#121=CIRCLE('',#1303,2.15);
#122=CIRCLE('',#1305,2.15);
#123=CIRCLE('',#1311,4.25);
#124=CIRCLE('',#1314,4.25);
#125=CIRCLE('',#1317,2.25);
#126=CIRCLE('',#1318,2.25);
#127=CIRCLE('',#1320,2.25);
#128=CIRCLE('',#1322,2.25);
#129=CIRCLE('',#1324,2.25);
#130=CIRCLE('',#1326,2.25);
#131=CIRCLE('',#1328,2.25);
#132=CIRCLE('',#1330,2.25);
#133=CIRCLE('',#1332,2.25);
#134=CIRCLE('',#1334,2.25);
#135=CIRCLE('',#1337,3.25);
#136=CIRCLE('',#1340,3.25);
#137=CIRCLE('',#1343,3.25);
#138=CIRCLE('',#1352,2.25);
#139=CIRCLE('',#1354,2.25);
#140=CIRCLE('',#1355,2.25);
#141=CIRCLE('',#1357,2.25);
#142=CIRCLE('',#1359,2.25);
#143=CIRCLE('',#1361,2.25);
#144=CIRCLE('',#1363,2.25);
#145=CIRCLE('',#1365,2.25);
#146=CIRCLE('',#1367,2.25);
#147=CIRCLE('',#1371,2.25);
#148=CIRCLE('',#1372,2.25);
#149=CIRCLE('',#1375,2.25);
#150=CIRCLE('',#1377,2.25);
#151=CIRCLE('',#1379,2.25);
#152=CIRCLE('',#1382,2.25);
#153=CIRCLE('',#1384,2.25);
#154=CIRCLE('',#1386,2.25);
#155=ORIENTED_EDGE('',*,*,#497,.F.);
#156=ORIENTED_EDGE('',*,*,#498,.T.);
#157=ORIENTED_EDGE('',*,*,#499,.T.);
#158=ORIENTED_EDGE('',*,*,#500,.F.);
#159=ORIENTED_EDGE('',*,*,#501,.T.);
#160=ORIENTED_EDGE('',*,*,#502,.T.);
#161=ORIENTED_EDGE('',*,*,#503,.T.);
#162=ORIENTED_EDGE('',*,*,#504,.F.);
#163=ORIENTED_EDGE('',*,*,#505,.T.);
#164=ORIENTED_EDGE('',*,*,#506,.T.);
#165=ORIENTED_EDGE('',*,*,#507,.T.);
#166=ORIENTED_EDGE('',*,*,#508,.T.);
#167=ORIENTED_EDGE('',*,*,#509,.T.);
#168=ORIENTED_EDGE('',*,*,#510,.T.);
#169=ORIENTED_EDGE('',*,*,#511,.T.);
#170=ORIENTED_EDGE('',*,*,#512,.F.);
#171=ORIENTED_EDGE('',*,*,#513,.T.);
#172=ORIENTED_EDGE('',*,*,#514,.T.);
#173=ORIENTED_EDGE('',*,*,#515,.F.);
#174=ORIENTED_EDGE('',*,*,#516,.T.);
#175=ORIENTED_EDGE('',*,*,#517,.T.);
#176=ORIENTED_EDGE('',*,*,#518,.T.);
#177=ORIENTED_EDGE('',*,*,#519,.F.);
#178=ORIENTED_EDGE('',*,*,#520,.T.);
#179=ORIENTED_EDGE('',*,*,#521,.F.);
#180=ORIENTED_EDGE('',*,*,#522,.T.);
#181=ORIENTED_EDGE('',*,*,#523,.F.);
#182=ORIENTED_EDGE('',*,*,#524,.T.);
#183=ORIENTED_EDGE('',*,*,#525,.F.);
#184=ORIENTED_EDGE('',*,*,#526,.T.);
#185=ORIENTED_EDGE('',*,*,#527,.T.);
#186=ORIENTED_EDGE('',*,*,#528,.T.);
#187=ORIENTED_EDGE('',*,*,#529,.T.);
#188=ORIENTED_EDGE('',*,*,#530,.T.);
#189=ORIENTED_EDGE('',*,*,#531,.T.);
#190=ORIENTED_EDGE('',*,*,#532,.T.);
#191=ORIENTED_EDGE('',*,*,#533,.T.);
#192=ORIENTED_EDGE('',*,*,#534,.T.);
#193=ORIENTED_EDGE('',*,*,#535,.T.);
#194=ORIENTED_EDGE('',*,*,#536,.T.);
#195=ORIENTED_EDGE('',*,*,#500,.T.);
#196=ORIENTED_EDGE('',*,*,#537,.F.);
#197=ORIENTED_EDGE('',*,*,#538,.T.);
#198=ORIENTED_EDGE('',*,*,#539,.F.);
#199=ORIENTED_EDGE('',*,*,#540,.T.);
#200=ORIENTED_EDGE('',*,*,#541,.T.);
#201=ORIENTED_EDGE('',*,*,#542,.T.);
#202=ORIENTED_EDGE('',*,*,#543,.T.);
#203=ORIENTED_EDGE('',*,*,#544,.T.);
#204=ORIENTED_EDGE('',*,*,#545,.T.);
#205=ORIENTED_EDGE('',*,*,#529,.F.);
#206=ORIENTED_EDGE('',*,*,#546,.T.);
#207=ORIENTED_EDGE('',*,*,#547,.T.);
#208=ORIENTED_EDGE('',*,*,#548,.T.);
#209=ORIENTED_EDGE('',*,*,#502,.F.);
#210=ORIENTED_EDGE('',*,*,#549,.T.);
#211=ORIENTED_EDGE('',*,*,#550,.F.);
#212=ORIENTED_EDGE('',*,*,#551,.F.);
#213=ORIENTED_EDGE('',*,*,#552,.F.);
#214=ORIENTED_EDGE('',*,*,#553,.T.);
#215=ORIENTED_EDGE('',*,*,#554,.F.);
#216=ORIENTED_EDGE('',*,*,#555,.T.);
#217=ORIENTED_EDGE('',*,*,#556,.F.);
#218=ORIENTED_EDGE('',*,*,#557,.T.);
#219=ORIENTED_EDGE('',*,*,#558,.F.);
#220=ORIENTED_EDGE('',*,*,#559,.F.);
#221=ORIENTED_EDGE('',*,*,#533,.F.);
#222=ORIENTED_EDGE('',*,*,#560,.T.);
#223=ORIENTED_EDGE('',*,*,#561,.T.);
#224=ORIENTED_EDGE('',*,*,#562,.T.);
#225=ORIENTED_EDGE('',*,*,#563,.F.);
#226=ORIENTED_EDGE('',*,*,#564,.T.);
#227=ORIENTED_EDGE('',*,*,#565,.T.);
#228=ORIENTED_EDGE('',*,*,#566,.T.);
#229=ORIENTED_EDGE('',*,*,#567,.T.);
#230=ORIENTED_EDGE('',*,*,#515,.T.);
#231=ORIENTED_EDGE('',*,*,#568,.F.);
#232=ORIENTED_EDGE('',*,*,#569,.T.);
#233=ORIENTED_EDGE('',*,*,#570,.T.);
#234=ORIENTED_EDGE('',*,*,#571,.F.);
#235=ORIENTED_EDGE('',*,*,#572,.T.);
#236=ORIENTED_EDGE('',*,*,#556,.T.);
#237=ORIENTED_EDGE('',*,*,#573,.T.);
#238=ORIENTED_EDGE('',*,*,#564,.F.);
#239=ORIENTED_EDGE('',*,*,#574,.F.);
#240=ORIENTED_EDGE('',*,*,#575,.T.);
#241=ORIENTED_EDGE('',*,*,#576,.T.);
#242=ORIENTED_EDGE('',*,*,#577,.T.);
#243=ORIENTED_EDGE('',*,*,#535,.F.);
#244=ORIENTED_EDGE('',*,*,#578,.T.);
#245=ORIENTED_EDGE('',*,*,#579,.T.);
#246=ORIENTED_EDGE('',*,*,#580,.T.);
#247=ORIENTED_EDGE('',*,*,#566,.F.);
#248=ORIENTED_EDGE('',*,*,#581,.T.);
#249=ORIENTED_EDGE('',*,*,#582,.T.);
#250=ORIENTED_EDGE('',*,*,#583,.T.);
#251=ORIENTED_EDGE('',*,*,#550,.T.);
#252=ORIENTED_EDGE('',*,*,#584,.T.);
#253=ORIENTED_EDGE('',*,*,#554,.T.);
#254=ORIENTED_EDGE('',*,*,#585,.T.);
#255=ORIENTED_EDGE('',*,*,#558,.T.);
#256=ORIENTED_EDGE('',*,*,#586,.T.);
#257=ORIENTED_EDGE('',*,*,#552,.T.);
#258=ORIENTED_EDGE('',*,*,#587,.T.);
#259=ORIENTED_EDGE('',*,*,#588,.T.);
#260=ORIENTED_EDGE('',*,*,#589,.T.);
#261=ORIENTED_EDGE('',*,*,#590,.T.);
#262=ORIENTED_EDGE('',*,*,#591,.T.);
#263=ORIENTED_EDGE('',*,*,#592,.T.);
#264=ORIENTED_EDGE('',*,*,#517,.F.);
#265=ORIENTED_EDGE('',*,*,#593,.T.);
#266=ORIENTED_EDGE('',*,*,#579,.F.);
#267=ORIENTED_EDGE('',*,*,#594,.F.);
#268=ORIENTED_EDGE('',*,*,#561,.F.);
#269=ORIENTED_EDGE('',*,*,#567,.F.);
#270=ORIENTED_EDGE('',*,*,#580,.F.);
#271=ORIENTED_EDGE('',*,*,#593,.F.);
#272=ORIENTED_EDGE('',*,*,#516,.F.);
#273=ORIENTED_EDGE('',*,*,#594,.T.);
#274=ORIENTED_EDGE('',*,*,#578,.F.);
#275=ORIENTED_EDGE('',*,*,#534,.F.);
#276=ORIENTED_EDGE('',*,*,#562,.F.);
#277=ORIENTED_EDGE('',*,*,#521,.T.);
#278=ORIENTED_EDGE('',*,*,#523,.T.);
#279=ORIENTED_EDGE('',*,*,#525,.T.);
#280=ORIENTED_EDGE('',*,*,#595,.T.);
#281=ORIENTED_EDGE('',*,*,#596,.T.);
#282=ORIENTED_EDGE('',*,*,#597,.T.);
#283=ORIENTED_EDGE('',*,*,#531,.F.);
#284=ORIENTED_EDGE('',*,*,#598,.T.);
#285=ORIENTED_EDGE('',*,*,#599,.T.);
#286=ORIENTED_EDGE('',*,*,#600,.T.);
#287=ORIENTED_EDGE('',*,*,#601,.T.);
#288=ORIENTED_EDGE('',*,*,#602,.T.);
#289=ORIENTED_EDGE('',*,*,#603,.F.);
#290=ORIENTED_EDGE('',*,*,#603,.T.);
#291=ORIENTED_EDGE('',*,*,#604,.T.);
#292=ORIENTED_EDGE('',*,*,#605,.F.);
#293=ORIENTED_EDGE('',*,*,#570,.F.);
#294=ORIENTED_EDGE('',*,*,#606,.F.);
#295=ORIENTED_EDGE('',*,*,#541,.F.);
#296=ORIENTED_EDGE('',*,*,#607,.T.);
#297=ORIENTED_EDGE('',*,*,#608,.T.);
#298=ORIENTED_EDGE('',*,*,#609,.T.);
#299=ORIENTED_EDGE('',*,*,#527,.F.);
#300=ORIENTED_EDGE('',*,*,#610,.T.);
#301=ORIENTED_EDGE('',*,*,#611,.T.);
#302=ORIENTED_EDGE('',*,*,#612,.T.);
#303=ORIENTED_EDGE('',*,*,#613,.T.);
#304=ORIENTED_EDGE('',*,*,#614,.T.);
#305=ORIENTED_EDGE('',*,*,#615,.T.);
#306=ORIENTED_EDGE('',*,*,#559,.T.);
#307=ORIENTED_EDGE('',*,*,#585,.F.);
#308=ORIENTED_EDGE('',*,*,#605,.T.);
#309=ORIENTED_EDGE('',*,*,#615,.F.);
#310=ORIENTED_EDGE('',*,*,#616,.T.);
#311=ORIENTED_EDGE('',*,*,#551,.T.);
#312=ORIENTED_EDGE('',*,*,#587,.F.);
#313=ORIENTED_EDGE('',*,*,#606,.T.);
#314=ORIENTED_EDGE('',*,*,#616,.F.);
#315=ORIENTED_EDGE('',*,*,#617,.F.);
#316=ORIENTED_EDGE('',*,*,#503,.F.);
#317=ORIENTED_EDGE('',*,*,#618,.F.);
#318=ORIENTED_EDGE('',*,*,#507,.F.);
#319=ORIENTED_EDGE('',*,*,#618,.T.);
#320=ORIENTED_EDGE('',*,*,#553,.F.);
#321=ORIENTED_EDGE('',*,*,#619,.F.);
#322=ORIENTED_EDGE('',*,*,#508,.F.);
#323=ORIENTED_EDGE('',*,*,#619,.T.);
#324=ORIENTED_EDGE('',*,*,#586,.F.);
#325=ORIENTED_EDGE('',*,*,#620,.F.);
#326=ORIENTED_EDGE('',*,*,#509,.F.);
#327=ORIENTED_EDGE('',*,*,#620,.T.);
#328=ORIENTED_EDGE('',*,*,#557,.F.);
#329=ORIENTED_EDGE('',*,*,#621,.F.);
#330=ORIENTED_EDGE('',*,*,#510,.F.);
#331=ORIENTED_EDGE('',*,*,#622,.F.);
#332=ORIENTED_EDGE('',*,*,#511,.F.);
#333=ORIENTED_EDGE('',*,*,#621,.T.);
#334=ORIENTED_EDGE('',*,*,#572,.F.);
#335=ORIENTED_EDGE('',*,*,#565,.F.);
#336=ORIENTED_EDGE('',*,*,#573,.F.);
#337=ORIENTED_EDGE('',*,*,#623,.F.);
#338=ORIENTED_EDGE('',*,*,#581,.F.);
#339=ORIENTED_EDGE('',*,*,#623,.T.);
#340=ORIENTED_EDGE('',*,*,#555,.F.);
#341=ORIENTED_EDGE('',*,*,#624,.F.);
#342=ORIENTED_EDGE('',*,*,#582,.F.);
#343=ORIENTED_EDGE('',*,*,#624,.T.);
#344=ORIENTED_EDGE('',*,*,#584,.F.);
#345=ORIENTED_EDGE('',*,*,#625,.F.);
#346=ORIENTED_EDGE('',*,*,#583,.F.);
#347=ORIENTED_EDGE('',*,*,#625,.T.);
#348=ORIENTED_EDGE('',*,*,#549,.F.);
#349=ORIENTED_EDGE('',*,*,#626,.F.);
#350=ORIENTED_EDGE('',*,*,#576,.F.);
#351=ORIENTED_EDGE('',*,*,#626,.T.);
#352=ORIENTED_EDGE('',*,*,#501,.F.);
#353=ORIENTED_EDGE('',*,*,#536,.F.);
#354=ORIENTED_EDGE('',*,*,#577,.F.);
#355=ORIENTED_EDGE('',*,*,#627,.F.);
#356=ORIENTED_EDGE('',*,*,#608,.F.);
#357=ORIENTED_EDGE('',*,*,#628,.T.);
#358=ORIENTED_EDGE('',*,*,#526,.F.);
#359=ORIENTED_EDGE('',*,*,#627,.T.);
#360=ORIENTED_EDGE('',*,*,#629,.F.);
#361=ORIENTED_EDGE('',*,*,#612,.F.);
#362=ORIENTED_EDGE('',*,*,#630,.T.);
#363=ORIENTED_EDGE('',*,*,#524,.F.);
#364=ORIENTED_EDGE('',*,*,#629,.T.);
#365=ORIENTED_EDGE('',*,*,#631,.F.);
#366=ORIENTED_EDGE('',*,*,#607,.F.);
#367=ORIENTED_EDGE('',*,*,#522,.F.);
#368=ORIENTED_EDGE('',*,*,#631,.T.);
#369=ORIENTED_EDGE('',*,*,#632,.T.);
#370=ORIENTED_EDGE('',*,*,#633,.T.);
#371=ORIENTED_EDGE('',*,*,#574,.T.);
#372=ORIENTED_EDGE('',*,*,#563,.T.);
#373=ORIENTED_EDGE('',*,*,#514,.F.);
#374=ORIENTED_EDGE('',*,*,#634,.T.);
#375=ORIENTED_EDGE('',*,*,#635,.T.);
#376=ORIENTED_EDGE('',*,*,#568,.T.);
#377=ORIENTED_EDGE('',*,*,#636,.T.);
#378=ORIENTED_EDGE('',*,*,#637,.T.);
#379=ORIENTED_EDGE('',*,*,#512,.T.);
#380=ORIENTED_EDGE('',*,*,#622,.T.);
#381=ORIENTED_EDGE('',*,*,#571,.T.);
#382=ORIENTED_EDGE('',*,*,#539,.T.);
#383=ORIENTED_EDGE('',*,*,#638,.T.);
#384=ORIENTED_EDGE('',*,*,#639,.T.);
#385=ORIENTED_EDGE('',*,*,#640,.T.);
#386=ORIENTED_EDGE('',*,*,#499,.F.);
#387=ORIENTED_EDGE('',*,*,#641,.T.);
#388=ORIENTED_EDGE('',*,*,#642,.T.);
#389=ORIENTED_EDGE('',*,*,#537,.T.);
#390=ORIENTED_EDGE('',*,*,#643,.T.);
#391=ORIENTED_EDGE('',*,*,#644,.T.);
#392=ORIENTED_EDGE('',*,*,#497,.T.);
#393=ORIENTED_EDGE('',*,*,#617,.T.);
#394=ORIENTED_EDGE('',*,*,#645,.F.);
#395=ORIENTED_EDGE('',*,*,#598,.F.);
#396=ORIENTED_EDGE('',*,*,#530,.F.);
#397=ORIENTED_EDGE('',*,*,#548,.F.);
#398=ORIENTED_EDGE('',*,*,#646,.F.);
#399=ORIENTED_EDGE('',*,*,#645,.T.);
#400=ORIENTED_EDGE('',*,*,#647,.F.);
#401=ORIENTED_EDGE('',*,*,#628,.F.);
#402=ORIENTED_EDGE('',*,*,#614,.F.);
#403=ORIENTED_EDGE('',*,*,#648,.F.);
#404=ORIENTED_EDGE('',*,*,#546,.F.);
#405=ORIENTED_EDGE('',*,*,#528,.F.);
#406=ORIENTED_EDGE('',*,*,#609,.F.);
#407=ORIENTED_EDGE('',*,*,#647,.T.);
#408=ORIENTED_EDGE('',*,*,#547,.F.);
#409=ORIENTED_EDGE('',*,*,#649,.F.);
#410=ORIENTED_EDGE('',*,*,#542,.F.);
#411=ORIENTED_EDGE('',*,*,#646,.T.);
#412=ORIENTED_EDGE('',*,*,#545,.F.);
#413=ORIENTED_EDGE('',*,*,#650,.F.);
#414=ORIENTED_EDGE('',*,*,#599,.F.);
#415=ORIENTED_EDGE('',*,*,#592,.F.);
#416=ORIENTED_EDGE('',*,*,#651,.T.);
#417=ORIENTED_EDGE('',*,*,#600,.F.);
#418=ORIENTED_EDGE('',*,*,#652,.F.);
#419=ORIENTED_EDGE('',*,*,#518,.F.);
#420=ORIENTED_EDGE('',*,*,#649,.T.);
#421=ORIENTED_EDGE('',*,*,#648,.T.);
#422=ORIENTED_EDGE('',*,*,#653,.F.);
#423=ORIENTED_EDGE('',*,*,#652,.T.);
#424=ORIENTED_EDGE('',*,*,#650,.T.);
#425=ORIENTED_EDGE('',*,*,#654,.F.);
#426=ORIENTED_EDGE('',*,*,#519,.T.);
#427=ORIENTED_EDGE('',*,*,#630,.F.);
#428=ORIENTED_EDGE('',*,*,#611,.F.);
#429=ORIENTED_EDGE('',*,*,#655,.F.);
#430=ORIENTED_EDGE('',*,*,#543,.F.);
#431=ORIENTED_EDGE('',*,*,#653,.T.);
#432=ORIENTED_EDGE('',*,*,#613,.F.);
#433=ORIENTED_EDGE('',*,*,#654,.T.);
#434=ORIENTED_EDGE('',*,*,#544,.F.);
#435=ORIENTED_EDGE('',*,*,#656,.F.);
#436=ORIENTED_EDGE('',*,*,#520,.F.);
#437=ORIENTED_EDGE('',*,*,#656,.T.);
#438=ORIENTED_EDGE('',*,*,#655,.T.);
#439=ORIENTED_EDGE('',*,*,#657,.F.);
#440=ORIENTED_EDGE('',*,*,#504,.T.);
#441=ORIENTED_EDGE('',*,*,#540,.F.);
#442=ORIENTED_EDGE('',*,*,#640,.F.);
#443=ORIENTED_EDGE('',*,*,#658,.F.);
#444=ORIENTED_EDGE('',*,*,#505,.F.);
#445=ORIENTED_EDGE('',*,*,#657,.T.);
#446=ORIENTED_EDGE('',*,*,#610,.F.);
#447=ORIENTED_EDGE('',*,*,#538,.F.);
#448=ORIENTED_EDGE('',*,*,#642,.F.);
#449=ORIENTED_EDGE('',*,*,#659,.F.);
#450=ORIENTED_EDGE('',*,*,#638,.F.);
#451=ORIENTED_EDGE('',*,*,#658,.T.);
#452=ORIENTED_EDGE('',*,*,#639,.F.);
#453=ORIENTED_EDGE('',*,*,#660,.F.);
#454=ORIENTED_EDGE('',*,*,#643,.F.);
#455=ORIENTED_EDGE('',*,*,#506,.F.);
#456=ORIENTED_EDGE('',*,*,#660,.T.);
#457=ORIENTED_EDGE('',*,*,#659,.T.);
#458=ORIENTED_EDGE('',*,*,#661,.F.);
#459=ORIENTED_EDGE('',*,*,#661,.T.);
#460=ORIENTED_EDGE('',*,*,#641,.F.);
#461=ORIENTED_EDGE('',*,*,#498,.F.);
#462=ORIENTED_EDGE('',*,*,#644,.F.);
#463=ORIENTED_EDGE('',*,*,#569,.F.);
#464=ORIENTED_EDGE('',*,*,#635,.F.);
#465=ORIENTED_EDGE('',*,*,#662,.F.);
#466=ORIENTED_EDGE('',*,*,#632,.F.);
#467=ORIENTED_EDGE('',*,*,#575,.F.);
#468=ORIENTED_EDGE('',*,*,#633,.F.);
#469=ORIENTED_EDGE('',*,*,#663,.F.);
#470=ORIENTED_EDGE('',*,*,#636,.F.);
#471=ORIENTED_EDGE('',*,*,#663,.T.);
#472=ORIENTED_EDGE('',*,*,#662,.T.);
#473=ORIENTED_EDGE('',*,*,#664,.F.);
#474=ORIENTED_EDGE('',*,*,#664,.T.);
#475=ORIENTED_EDGE('',*,*,#634,.F.);
#476=ORIENTED_EDGE('',*,*,#513,.F.);
#477=ORIENTED_EDGE('',*,*,#637,.F.);
#478=ORIENTED_EDGE('',*,*,#532,.F.);
#479=ORIENTED_EDGE('',*,*,#597,.F.);
#480=ORIENTED_EDGE('',*,*,#665,.T.);
#481=ORIENTED_EDGE('',*,*,#588,.F.);
#482=ORIENTED_EDGE('',*,*,#560,.F.);
#483=ORIENTED_EDGE('',*,*,#602,.F.);
#484=ORIENTED_EDGE('',*,*,#666,.T.);
#485=ORIENTED_EDGE('',*,*,#590,.F.);
#486=ORIENTED_EDGE('',*,*,#667,.T.);
#487=ORIENTED_EDGE('',*,*,#595,.F.);
#488=ORIENTED_EDGE('',*,*,#604,.F.);
#489=ORIENTED_EDGE('',*,*,#651,.F.);
#490=ORIENTED_EDGE('',*,*,#591,.F.);
#491=ORIENTED_EDGE('',*,*,#666,.F.);
#492=ORIENTED_EDGE('',*,*,#601,.F.);
#493=ORIENTED_EDGE('',*,*,#667,.F.);
#494=ORIENTED_EDGE('',*,*,#589,.F.);
#495=ORIENTED_EDGE('',*,*,#665,.F.);
#496=ORIENTED_EDGE('',*,*,#596,.F.);
#497=EDGE_CURVE('',#668,#669,#779,.T.);
#498=EDGE_CURVE('',#668,#670,#85,.F.);
#499=EDGE_CURVE('',#670,#671,#780,.T.);
#500=EDGE_CURVE('',#672,#671,#781,.T.);
#501=EDGE_CURVE('',#672,#673,#782,.F.);
#502=EDGE_CURVE('',#673,#674,#783,.T.);
#503=EDGE_CURVE('',#674,#669,#784,.T.);
#504=EDGE_CURVE('',#675,#676,#80,.T.);
#505=EDGE_CURVE('',#675,#677,#785,.F.);
#506=EDGE_CURVE('',#677,#678,#86,.F.);
#507=EDGE_CURVE('',#678,#679,#786,.F.);
#508=EDGE_CURVE('',#679,#680,#87,.T.);
#509=EDGE_CURVE('',#680,#681,#787,.T.);
#510=EDGE_CURVE('',#681,#682,#88,.T.);
#511=EDGE_CURVE('',#682,#683,#788,.T.);
#512=EDGE_CURVE('',#684,#683,#789,.T.);
#513=EDGE_CURVE('',#684,#685,#89,.F.);
#514=EDGE_CURVE('',#685,#686,#790,.T.);
#515=EDGE_CURVE('',#687,#686,#791,.T.);
#516=EDGE_CURVE('',#687,#688,#792,.T.);
#517=EDGE_CURVE('',#688,#689,#90,.F.);
#518=EDGE_CURVE('',#689,#690,#793,.T.);
#519=EDGE_CURVE('',#691,#690,#91,.T.);
#520=EDGE_CURVE('',#691,#676,#794,.T.);
#521=EDGE_CURVE('',#692,#692,#92,.T.);
#522=EDGE_CURVE('',#693,#693,#93,.T.);
#523=EDGE_CURVE('',#694,#694,#94,.T.);
#524=EDGE_CURVE('',#695,#695,#95,.T.);
#525=EDGE_CURVE('',#696,#696,#96,.T.);
#526=EDGE_CURVE('',#697,#697,#97,.T.);
#527=EDGE_CURVE('',#698,#699,#795,.T.);
#528=EDGE_CURVE('',#699,#700,#98,.T.);
#529=EDGE_CURVE('',#700,#701,#796,.T.);
#530=EDGE_CURVE('',#701,#702,#99,.T.);
#531=EDGE_CURVE('',#702,#703,#797,.T.);
#532=EDGE_CURVE('',#703,#704,#100,.F.);
#533=EDGE_CURVE('',#704,#705,#798,.T.);
#534=EDGE_CURVE('',#705,#706,#799,.T.);
#535=EDGE_CURVE('',#706,#707,#800,.T.);
#536=EDGE_CURVE('',#707,#672,#101,.T.);
#537=EDGE_CURVE('',#708,#671,#801,.T.);
#538=EDGE_CURVE('',#708,#709,#102,.F.);
#539=EDGE_CURVE('',#710,#709,#802,.T.);
#540=EDGE_CURVE('',#710,#698,#103,.F.);
#541=EDGE_CURVE('',#711,#711,#104,.T.);
#542=EDGE_CURVE('',#712,#713,#803,.T.);
#543=EDGE_CURVE('',#713,#714,#804,.T.);
#544=EDGE_CURVE('',#714,#715,#805,.F.);
#545=EDGE_CURVE('',#715,#712,#806,.F.);
#546=EDGE_CURVE('',#700,#716,#807,.T.);
#547=EDGE_CURVE('',#716,#717,#808,.F.);
#548=EDGE_CURVE('',#717,#701,#809,.F.);
#549=EDGE_CURVE('',#673,#718,#105,.F.);
#550=EDGE_CURVE('',#719,#718,#810,.F.);
#551=EDGE_CURVE('',#720,#719,#31,.T.);
#552=EDGE_CURVE('',#721,#720,#811,.F.);
#553=EDGE_CURVE('',#721,#674,#106,.F.);
#554=EDGE_CURVE('',#722,#723,#812,.F.);
#555=EDGE_CURVE('',#722,#724,#107,.F.);
#556=EDGE_CURVE('',#725,#724,#813,.T.);
#557=EDGE_CURVE('',#725,#726,#108,.F.);
#558=EDGE_CURVE('',#727,#726,#814,.F.);
#559=EDGE_CURVE('',#723,#727,#32,.T.);
#560=EDGE_CURVE('',#704,#728,#815,.T.);
#561=EDGE_CURVE('',#728,#729,#109,.F.);
#562=EDGE_CURVE('',#729,#705,#816,.T.);
#563=EDGE_CURVE('',#730,#731,#817,.T.);
#564=EDGE_CURVE('',#730,#732,#818,.T.);
#565=EDGE_CURVE('',#732,#733,#110,.T.);
#566=EDGE_CURVE('',#733,#734,#819,.T.);
#567=EDGE_CURVE('',#734,#687,#820,.T.);
#568=EDGE_CURVE('',#735,#686,#821,.T.);
#569=EDGE_CURVE('',#735,#731,#111,.F.);
#570=EDGE_CURVE('',#736,#736,#112,.T.);
#571=EDGE_CURVE('',#737,#738,#822,.T.);
#572=EDGE_CURVE('',#737,#725,#823,.F.);
#573=EDGE_CURVE('',#724,#732,#824,.T.);
#574=EDGE_CURVE('',#739,#730,#825,.T.);
#575=EDGE_CURVE('',#739,#738,#113,.F.);
#576=EDGE_CURVE('',#740,#741,#114,.T.);
#577=EDGE_CURVE('',#741,#707,#826,.T.);
#578=EDGE_CURVE('',#706,#742,#827,.T.);
#579=EDGE_CURVE('',#742,#743,#115,.T.);
#580=EDGE_CURVE('',#743,#734,#828,.T.);
#581=EDGE_CURVE('',#733,#744,#829,.F.);
#582=EDGE_CURVE('',#744,#745,#116,.T.);
#583=EDGE_CURVE('',#745,#740,#830,.T.);
#584=EDGE_CURVE('',#718,#722,#831,.F.);
#585=EDGE_CURVE('',#723,#727,#117,.T.);
#586=EDGE_CURVE('',#726,#721,#832,.F.);
#587=EDGE_CURVE('',#720,#719,#118,.T.);
#588=EDGE_CURVE('',#728,#746,#33,.T.);
#589=EDGE_CURVE('',#746,#747,#833,.T.);
#590=EDGE_CURVE('',#747,#748,#119,.F.);
#591=EDGE_CURVE('',#748,#749,#834,.F.);
#592=EDGE_CURVE('',#749,#689,#34,.T.);
#593=EDGE_CURVE('',#688,#743,#835,.T.);
#594=EDGE_CURVE('',#729,#742,#836,.T.);
#595=EDGE_CURVE('',#750,#751,#35,.T.);
#596=EDGE_CURVE('',#751,#752,#837,.T.);
#597=EDGE_CURVE('',#752,#703,#838,.F.);
#598=EDGE_CURVE('',#702,#753,#839,.T.);
#599=EDGE_CURVE('',#753,#754,#840,.T.);
#600=EDGE_CURVE('',#754,#755,#841,.F.);
#601=EDGE_CURVE('',#755,#756,#842,.F.);
#602=EDGE_CURVE('',#756,#757,#36,.T.);
#603=EDGE_CURVE('',#750,#757,#843,.T.);
#604=EDGE_CURVE('',#757,#750,#120,.T.);
#605=EDGE_CURVE('',#758,#758,#121,.T.);
#606=EDGE_CURVE('',#759,#759,#122,.T.);
#607=EDGE_CURVE('',#760,#760,#81,.F.);
#608=EDGE_CURVE('',#761,#762,#82,.F.);
#609=EDGE_CURVE('',#762,#699,#844,.F.);
#610=EDGE_CURVE('',#698,#763,#845,.T.);
#611=EDGE_CURVE('',#763,#764,#846,.F.);
#612=EDGE_CURVE('',#764,#765,#83,.F.);
#613=EDGE_CURVE('',#765,#766,#847,.F.);
#614=EDGE_CURVE('',#766,#761,#848,.F.);
#615=EDGE_CURVE('',#767,#767,#123,.T.);
#616=EDGE_CURVE('',#768,#768,#124,.T.);
#617=EDGE_CURVE('',#669,#678,#125,.T.);
#618=EDGE_CURVE('',#679,#674,#126,.T.);
#619=EDGE_CURVE('',#680,#721,#127,.T.);
#620=EDGE_CURVE('',#681,#726,#128,.T.);
#621=EDGE_CURVE('',#682,#725,#129,.T.);
#622=EDGE_CURVE('',#683,#737,#130,.T.);
#623=EDGE_CURVE('',#744,#724,#131,.T.);
#624=EDGE_CURVE('',#745,#722,#132,.T.);
#625=EDGE_CURVE('',#740,#718,#133,.T.);
#626=EDGE_CURVE('',#741,#673,#134,.T.);
#627=EDGE_CURVE('',#769,#769,#135,.T.);
#628=EDGE_CURVE('',#761,#762,#37,.T.);
#629=EDGE_CURVE('',#770,#770,#136,.T.);
#630=EDGE_CURVE('',#764,#765,#38,.T.);
#631=EDGE_CURVE('',#771,#771,#137,.T.);
#632=EDGE_CURVE('',#731,#772,#849,.F.);
#633=EDGE_CURVE('',#772,#739,#850,.F.);
#634=EDGE_CURVE('',#685,#773,#851,.F.);
#635=EDGE_CURVE('',#773,#735,#852,.T.);
#636=EDGE_CURVE('',#738,#774,#853,.T.);
#637=EDGE_CURVE('',#774,#684,#854,.T.);
#638=EDGE_CURVE('',#709,#775,#855,.F.);
#639=EDGE_CURVE('',#775,#776,#856,.F.);
#640=EDGE_CURVE('',#776,#710,#857,.T.);
#641=EDGE_CURVE('',#670,#777,#858,.F.);
#642=EDGE_CURVE('',#777,#708,#859,.T.);
#643=EDGE_CURVE('',#678,#778,#860,.T.);
#644=EDGE_CURVE('',#778,#668,#861,.T.);
#645=EDGE_CURVE('',#753,#717,#138,.T.);
#646=EDGE_CURVE('',#753,#712,#139,.F.);
#647=EDGE_CURVE('',#712,#717,#140,.F.);
#648=EDGE_CURVE('',#716,#766,#141,.T.);
#649=EDGE_CURVE('',#713,#716,#142,.T.);
#650=EDGE_CURVE('',#754,#715,#143,.F.);
#651=EDGE_CURVE('',#749,#755,#39,.T.);
#652=EDGE_CURVE('',#690,#754,#144,.T.);
#653=EDGE_CURVE('',#713,#766,#145,.F.);
#654=EDGE_CURVE('',#691,#715,#146,.F.);
#655=EDGE_CURVE('',#714,#763,#84,.T.);
#656=EDGE_CURVE('',#676,#714,#147,.T.);
#657=EDGE_CURVE('',#675,#763,#148,.F.);
#658=EDGE_CURVE('',#677,#776,#40,.F.);
#659=EDGE_CURVE('',#775,#777,#149,.T.);
#660=EDGE_CURVE('',#778,#775,#150,.T.);
#661=EDGE_CURVE('',#778,#777,#151,.F.);
#662=EDGE_CURVE('',#772,#773,#152,.T.);
#663=EDGE_CURVE('',#774,#772,#153,.T.);
#664=EDGE_CURVE('',#774,#773,#154,.F.);
#665=EDGE_CURVE('',#752,#746,#41,.F.);
#666=EDGE_CURVE('',#756,#748,#42,.T.);
#667=EDGE_CURVE('',#747,#751,#43,.F.);
#668=VERTEX_POINT('',#1774);
#669=VERTEX_POINT('',#1775);
#670=VERTEX_POINT('',#1777);
#671=VERTEX_POINT('',#1779);
#672=VERTEX_POINT('',#1781);
#673=VERTEX_POINT('',#1783);
#674=VERTEX_POINT('',#1785);
#675=VERTEX_POINT('',#1789);
#676=VERTEX_POINT('',#1790);
#677=VERTEX_POINT('',#1792);
#678=VERTEX_POINT('',#1794);
#679=VERTEX_POINT('',#1796);
#680=VERTEX_POINT('',#1798);
#681=VERTEX_POINT('',#1800);
#682=VERTEX_POINT('',#1802);
#683=VERTEX_POINT('',#1804);
#684=VERTEX_POINT('',#1806);
#685=VERTEX_POINT('',#1808);
#686=VERTEX_POINT('',#1810);
#687=VERTEX_POINT('',#1812);
#688=VERTEX_POINT('',#1814);
#689=VERTEX_POINT('',#1816);
#690=VERTEX_POINT('',#1818);
#691=VERTEX_POINT('',#1820);
#692=VERTEX_POINT('',#1824);
#693=VERTEX_POINT('',#1826);
#694=VERTEX_POINT('',#1829);
#695=VERTEX_POINT('',#1831);
#696=VERTEX_POINT('',#1834);
#697=VERTEX_POINT('',#1836);
#698=VERTEX_POINT('',#1839);
#699=VERTEX_POINT('',#1840);
#700=VERTEX_POINT('',#1842);
#701=VERTEX_POINT('',#1844);
#702=VERTEX_POINT('',#1846);
#703=VERTEX_POINT('',#1848);
#704=VERTEX_POINT('',#1850);
#705=VERTEX_POINT('',#1852);
#706=VERTEX_POINT('',#1854);
#707=VERTEX_POINT('',#1856);
#708=VERTEX_POINT('',#1859);
#709=VERTEX_POINT('',#1861);
#710=VERTEX_POINT('',#1863);
#711=VERTEX_POINT('',#1866);
#712=VERTEX_POINT('',#1869);
#713=VERTEX_POINT('',#1870);
#714=VERTEX_POINT('',#1872);
#715=VERTEX_POINT('',#1874);
#716=VERTEX_POINT('',#1878);
#717=VERTEX_POINT('',#1880);
#718=VERTEX_POINT('',#1884);
#719=VERTEX_POINT('',#1886);
#720=VERTEX_POINT('',#1903);
#721=VERTEX_POINT('',#1905);
#722=VERTEX_POINT('',#1909);
#723=VERTEX_POINT('',#1910);
#724=VERTEX_POINT('',#1912);
#725=VERTEX_POINT('',#1914);
#726=VERTEX_POINT('',#1916);
#727=VERTEX_POINT('',#1918);
#728=VERTEX_POINT('',#1937);
#729=VERTEX_POINT('',#1939);
#730=VERTEX_POINT('',#1943);
#731=VERTEX_POINT('',#1944);
#732=VERTEX_POINT('',#1946);
#733=VERTEX_POINT('',#1948);
#734=VERTEX_POINT('',#1950);
#735=VERTEX_POINT('',#1953);
#736=VERTEX_POINT('',#1956);
#737=VERTEX_POINT('',#1959);
#738=VERTEX_POINT('',#1960);
#739=VERTEX_POINT('',#1964);
#740=VERTEX_POINT('',#1968);
#741=VERTEX_POINT('',#1969);
#742=VERTEX_POINT('',#1972);
#743=VERTEX_POINT('',#1974);
#744=VERTEX_POINT('',#1977);
#745=VERTEX_POINT('',#1979);
#746=VERTEX_POINT('',#1993);
#747=VERTEX_POINT('',#1995);
#748=VERTEX_POINT('',#1997);
#749=VERTEX_POINT('',#1999);
#750=VERTEX_POINT('',#2017);
#751=VERTEX_POINT('',#2018);
#752=VERTEX_POINT('',#2020);
#753=VERTEX_POINT('',#2023);
#754=VERTEX_POINT('',#2025);
#755=VERTEX_POINT('',#2027);
#756=VERTEX_POINT('',#2029);
#757=VERTEX_POINT('',#2036);
#758=VERTEX_POINT('',#2042);
#759=VERTEX_POINT('',#2045);
#760=VERTEX_POINT('',#2048);
#761=VERTEX_POINT('',#2050);
#762=VERTEX_POINT('',#2051);
#763=VERTEX_POINT('',#2054);
#764=VERTEX_POINT('',#2056);
#765=VERTEX_POINT('',#2058);
#766=VERTEX_POINT('',#2060);
#767=VERTEX_POINT('',#2064);
#768=VERTEX_POINT('',#2068);
#769=VERTEX_POINT('',#2092);
#770=VERTEX_POINT('',#2101);
#771=VERTEX_POINT('',#2110);
#772=VERTEX_POINT('',#2114);
#773=VERTEX_POINT('',#2118);
#774=VERTEX_POINT('',#2122);
#775=VERTEX_POINT('',#2126);
#776=VERTEX_POINT('',#2128);
#777=VERTEX_POINT('',#2132);
#778=VERTEX_POINT('',#2136);
#779=LINE('',#1773,#862);
#780=LINE('',#1778,#863);
#781=LINE('',#1780,#864);
#782=LINE('',#1782,#865);
#783=LINE('',#1784,#866);
#784=LINE('',#1786,#867);
#785=LINE('',#1791,#868);
#786=LINE('',#1795,#869);
#787=LINE('',#1799,#870);
#788=LINE('',#1803,#871);
#789=LINE('',#1805,#872);
#790=LINE('',#1809,#873);
#791=LINE('',#1811,#874);
#792=LINE('',#1813,#875);
#793=LINE('',#1817,#876);
#794=LINE('',#1821,#877);
#795=LINE('',#1838,#878);
#796=LINE('',#1843,#879);
#797=LINE('',#1847,#880);
#798=LINE('',#1851,#881);
#799=LINE('',#1853,#882);
#800=LINE('',#1855,#883);
#801=LINE('',#1858,#884);
#802=LINE('',#1862,#885);
#803=LINE('',#1868,#886);
#804=LINE('',#1871,#887);
#805=LINE('',#1873,#888);
#806=LINE('',#1875,#889);
#807=LINE('',#1877,#890);
#808=LINE('',#1879,#891);
#809=LINE('',#1881,#892);
#810=LINE('',#1885,#893);
#811=LINE('',#1904,#894);
#812=LINE('',#1908,#895);
#813=LINE('',#1913,#896);
#814=LINE('',#1917,#897);
#815=LINE('',#1936,#898);
#816=LINE('',#1940,#899);
#817=LINE('',#1942,#900);
#818=LINE('',#1945,#901);
#819=LINE('',#1949,#902);
#820=LINE('',#1951,#903);
#821=LINE('',#1952,#904);
#822=LINE('',#1958,#905);
#823=LINE('',#1961,#906);
#824=LINE('',#1962,#907);
#825=LINE('',#1963,#908);
#826=LINE('',#1970,#909);
#827=LINE('',#1971,#910);
#828=LINE('',#1975,#911);
#829=LINE('',#1976,#912);
#830=LINE('',#1980,#913);
#831=LINE('',#1982,#914);
#832=LINE('',#1984,#915);
#833=LINE('',#1994,#916);
#834=LINE('',#1998,#917);
#835=LINE('',#2006,#918);
#836=LINE('',#2007,#919);
#837=LINE('',#2019,#920);
#838=LINE('',#2021,#921);
#839=LINE('',#2022,#922);
#840=LINE('',#2024,#923);
#841=LINE('',#2026,#924);
#842=LINE('',#2028,#925);
#843=LINE('',#2037,#926);
#844=LINE('',#2052,#927);
#845=LINE('',#2053,#928);
#846=LINE('',#2055,#929);
#847=LINE('',#2059,#930);
#848=LINE('',#2061,#931);
#849=LINE('',#2113,#932);
#850=LINE('',#2115,#933);
#851=LINE('',#2117,#934);
#852=LINE('',#2119,#935);
#853=LINE('',#2121,#936);
#854=LINE('',#2123,#937);
#855=LINE('',#2125,#938);
#856=LINE('',#2127,#939);
#857=LINE('',#2129,#940);
#858=LINE('',#2131,#941);
#859=LINE('',#2133,#942);
#860=LINE('',#2135,#943);
#861=LINE('',#2137,#944);
#862=VECTOR('',#1396,1000.);
#863=VECTOR('',#1399,1000.);
#864=VECTOR('',#1400,1000.);
#865=VECTOR('',#1401,1000.);
#866=VECTOR('',#1402,1000.);
#867=VECTOR('',#1403,1000.);
#868=VECTOR('',#1408,1000.);
#869=VECTOR('',#1411,1000.);
#870=VECTOR('',#1414,1000.);
#871=VECTOR('',#1417,1000.);
#872=VECTOR('',#1418,1000.);
#873=VECTOR('',#1421,1000.);
#874=VECTOR('',#1422,1000.);
#875=VECTOR('',#1423,1000.);
#876=VECTOR('',#1426,1000.);
#877=VECTOR('',#1429,1000.);
#878=VECTOR('',#1450,1000.);
#879=VECTOR('',#1453,1000.);
#880=VECTOR('',#1456,1000.);
#881=VECTOR('',#1459,1000.);
#882=VECTOR('',#1460,1000.);
#883=VECTOR('',#1461,1000.);
#884=VECTOR('',#1464,1000.);
#885=VECTOR('',#1467,1000.);
#886=VECTOR('',#1474,1000.);
#887=VECTOR('',#1475,1000.);
#888=VECTOR('',#1476,1000.);
#889=VECTOR('',#1477,1000.);
#890=VECTOR('',#1480,1000.);
#891=VECTOR('',#1481,1000.);
#892=VECTOR('',#1482,1000.);
#893=VECTOR('',#1487,1000.);
#894=VECTOR('',#1488,1000.);
#895=VECTOR('',#1493,1000.);
#896=VECTOR('',#1496,1000.);
#897=VECTOR('',#1499,1000.);
#898=VECTOR('',#1502,1000.);
#899=VECTOR('',#1505,1000.);
#900=VECTOR('',#1508,1000.);
#901=VECTOR('',#1509,1000.);
#902=VECTOR('',#1512,1000.);
#903=VECTOR('',#1513,1000.);
#904=VECTOR('',#1514,1000.);
#905=VECTOR('',#1521,1000.);
#906=VECTOR('',#1522,1000.);
#907=VECTOR('',#1523,1000.);
#908=VECTOR('',#1524,1000.);
#909=VECTOR('',#1531,1000.);
#910=VECTOR('',#1532,1000.);
#911=VECTOR('',#1535,1000.);
#912=VECTOR('',#1536,1000.);
#913=VECTOR('',#1539,1000.);
#914=VECTOR('',#1542,1000.);
#915=VECTOR('',#1545,1000.);
#916=VECTOR('',#1550,1000.);
#917=VECTOR('',#1553,1000.);
#918=VECTOR('',#1554,1000.);
#919=VECTOR('',#1555,1000.);
#920=VECTOR('',#1562,1000.);
#921=VECTOR('',#1563,1000.);
#922=VECTOR('',#1564,1000.);
#923=VECTOR('',#1565,1000.);
#924=VECTOR('',#1566,1000.);
#925=VECTOR('',#1567,1000.);
#926=VECTOR('',#1568,1000.);
#927=VECTOR('',#1587,1000.);
#928=VECTOR('',#1588,1000.);
#929=VECTOR('',#1589,1000.);
#930=VECTOR('',#1592,1000.);
#931=VECTOR('',#1593,1000.);
#932=VECTOR('',#1666,1000.);
#933=VECTOR('',#1667,1000.);
#934=VECTOR('',#1670,1000.);
#935=VECTOR('',#1671,1000.);
#936=VECTOR('',#1674,1000.);
#937=VECTOR('',#1675,1000.);
#938=VECTOR('',#1678,1000.);
#939=VECTOR('',#1679,1000.);
#940=VECTOR('',#1680,1000.);
#941=VECTOR('',#1683,1000.);
#942=VECTOR('',#1684,1000.);
#943=VECTOR('',#1687,1000.);
#944=VECTOR('',#1688,1000.);
#945=EDGE_LOOP('',(#155,#156,#157,#158,#159,#160,#161));
#946=EDGE_LOOP('',(#162,#163,#164,#165,#166,#167,#168,#169,#170,#171,#172,
#173,#174,#175,#176,#177,#178));
#947=EDGE_LOOP('',(#179));
#948=EDGE_LOOP('',(#180));
#949=EDGE_LOOP('',(#181));
#950=EDGE_LOOP('',(#182));
#951=EDGE_LOOP('',(#183));
#952=EDGE_LOOP('',(#184));
#953=EDGE_LOOP('',(#185,#186,#187,#188,#189,#190,#191,#192,#193,#194,#195,
#196,#197,#198,#199));
#954=EDGE_LOOP('',(#200));
#955=EDGE_LOOP('',(#201,#202,#203,#204));
#956=EDGE_LOOP('',(#205,#206,#207,#208));
#957=EDGE_LOOP('',(#209,#210,#211,#212,#213,#214));
#958=EDGE_LOOP('',(#215,#216,#217,#218,#219,#220));
#959=EDGE_LOOP('',(#221,#222,#223,#224));
#960=EDGE_LOOP('',(#225,#226,#227,#228,#229,#230,#231,#232));
#961=EDGE_LOOP('',(#233));
#962=EDGE_LOOP('',(#234,#235,#236,#237,#238,#239,#240));
#963=EDGE_LOOP('',(#241,#242,#243,#244,#245,#246,#247,#248,#249,#250));
#964=EDGE_LOOP('',(#251,#252,#253,#254,#255,#256,#257,#258));
#965=EDGE_LOOP('',(#259,#260,#261,#262,#263,#264,#265,#266,#267,#268));
#966=EDGE_LOOP('',(#269,#270,#271,#272));
#967=EDGE_LOOP('',(#273,#274,#275,#276));
#968=EDGE_LOOP('',(#277));
#969=EDGE_LOOP('',(#278));
#970=EDGE_LOOP('',(#279));
#971=EDGE_LOOP('',(#280,#281,#282,#283,#284,#285,#286,#287,#288,#289));
#972=EDGE_LOOP('',(#290,#291));
#973=EDGE_LOOP('',(#292));
#974=EDGE_LOOP('',(#293));
#975=EDGE_LOOP('',(#294));
#976=EDGE_LOOP('',(#295));
#977=EDGE_LOOP('',(#296));
#978=EDGE_LOOP('',(#297,#298,#299,#300,#301,#302,#303,#304));
#979=EDGE_LOOP('',(#305));
#980=EDGE_LOOP('',(#306,#307));
#981=EDGE_LOOP('',(#308));
#982=EDGE_LOOP('',(#309));
#983=EDGE_LOOP('',(#310));
#984=EDGE_LOOP('',(#311,#312));
#985=EDGE_LOOP('',(#313));
#986=EDGE_LOOP('',(#314));
#987=EDGE_LOOP('',(#315,#316,#317,#318));
#988=EDGE_LOOP('',(#319,#320,#321,#322));
#989=EDGE_LOOP('',(#323,#324,#325,#326));
#990=EDGE_LOOP('',(#327,#328,#329,#330));
#991=EDGE_LOOP('',(#331,#332,#333,#334));
#992=EDGE_LOOP('',(#335,#336,#337,#338));
#993=EDGE_LOOP('',(#339,#340,#341,#342));
#994=EDGE_LOOP('',(#343,#344,#345,#346));
#995=EDGE_LOOP('',(#347,#348,#349,#350));
#996=EDGE_LOOP('',(#351,#352,#353,#354));
#997=EDGE_LOOP('',(#355));
#998=EDGE_LOOP('',(#356,#357));
#999=EDGE_LOOP('',(#358));
#1000=EDGE_LOOP('',(#359));
#1001=EDGE_LOOP('',(#360));
#1002=EDGE_LOOP('',(#361,#362));
#1003=EDGE_LOOP('',(#363));
#1004=EDGE_LOOP('',(#364));
#1005=EDGE_LOOP('',(#365));
#1006=EDGE_LOOP('',(#366));
#1007=EDGE_LOOP('',(#367));
#1008=EDGE_LOOP('',(#368));
#1009=EDGE_LOOP('',(#369,#370,#371,#372));
#1010=EDGE_LOOP('',(#373,#374,#375,#376));
#1011=EDGE_LOOP('',(#377,#378,#379,#380,#381));
#1012=EDGE_LOOP('',(#382,#383,#384,#385));
#1013=EDGE_LOOP('',(#386,#387,#388,#389));
#1014=EDGE_LOOP('',(#390,#391,#392,#393));
#1015=EDGE_LOOP('',(#394,#395,#396,#397));
#1016=EDGE_LOOP('',(#398,#399,#400));
#1017=EDGE_LOOP('',(#401,#402,#403,#404,#405,#406));
#1018=EDGE_LOOP('',(#407,#408,#409,#410));
#1019=EDGE_LOOP('',(#411,#412,#413,#414));
#1020=EDGE_LOOP('',(#415,#416,#417,#418,#419));
#1021=EDGE_LOOP('',(#420,#421,#422));
#1022=EDGE_LOOP('',(#423,#424,#425,#426));
#1023=EDGE_LOOP('',(#427,#428,#429,#430,#431,#432));
#1024=EDGE_LOOP('',(#433,#434,#435,#436));
#1025=EDGE_LOOP('',(#437,#438,#439,#440));
#1026=EDGE_LOOP('',(#441,#442,#443,#444,#445,#446));
#1027=EDGE_LOOP('',(#447,#448,#449,#450));
#1028=EDGE_LOOP('',(#451,#452,#453,#454,#455));
#1029=EDGE_LOOP('',(#456,#457,#458));
#1030=EDGE_LOOP('',(#459,#460,#461,#462));
#1031=EDGE_LOOP('',(#463,#464,#465,#466));
#1032=EDGE_LOOP('',(#467,#468,#469,#470));
#1033=EDGE_LOOP('',(#471,#472,#473));
#1034=EDGE_LOOP('',(#474,#475,#476,#477));
#1035=EDGE_LOOP('',(#478,#479,#480,#481,#482));
#1036=EDGE_LOOP('',(#483,#484,#485,#486,#487,#488));
#1037=EDGE_LOOP('',(#489,#490,#491,#492));
#1038=EDGE_LOOP('',(#493,#494,#495,#496));
#1039=FACE_BOUND('',#945,.T.);
#1040=FACE_BOUND('',#946,.T.);
#1041=FACE_BOUND('',#947,.T.);
#1042=FACE_BOUND('',#948,.T.);
#1043=FACE_BOUND('',#949,.T.);
#1044=FACE_BOUND('',#950,.T.);
#1045=FACE_BOUND('',#951,.T.);
#1046=FACE_BOUND('',#952,.T.);
#1047=FACE_BOUND('',#953,.T.);
#1048=FACE_BOUND('',#954,.T.);
#1049=FACE_BOUND('',#955,.T.);
#1050=FACE_BOUND('',#956,.T.);
#1051=FACE_BOUND('',#957,.T.);
#1052=FACE_BOUND('',#958,.T.);
#1053=FACE_BOUND('',#959,.T.);
#1054=FACE_BOUND('',#960,.T.);
#1055=FACE_BOUND('',#961,.T.);
#1056=FACE_BOUND('',#962,.T.);
#1057=FACE_BOUND('',#963,.T.);
#1058=FACE_BOUND('',#964,.T.);
#1059=FACE_BOUND('',#965,.T.);
#1060=FACE_BOUND('',#966,.T.);
#1061=FACE_BOUND('',#967,.T.);
#1062=FACE_BOUND('',#968,.T.);
#1063=FACE_BOUND('',#969,.T.);
#1064=FACE_BOUND('',#970,.T.);
#1065=FACE_BOUND('',#971,.T.);
#1066=FACE_BOUND('',#972,.T.);
#1067=FACE_BOUND('',#973,.T.);
#1068=FACE_BOUND('',#974,.T.);
#1069=FACE_BOUND('',#975,.T.);
#1070=FACE_BOUND('',#976,.T.);
#1071=FACE_BOUND('',#977,.T.);
#1072=FACE_BOUND('',#978,.T.);
#1073=FACE_BOUND('',#979,.T.);
#1074=FACE_BOUND('',#980,.T.);
#1075=FACE_BOUND('',#981,.T.);
#1076=FACE_BOUND('',#982,.T.);
#1077=FACE_BOUND('',#983,.T.);
#1078=FACE_BOUND('',#984,.T.);
#1079=FACE_BOUND('',#985,.T.);
#1080=FACE_BOUND('',#986,.T.);
#1081=FACE_BOUND('',#987,.T.);
#1082=FACE_BOUND('',#988,.T.);
#1083=FACE_BOUND('',#989,.T.);
#1084=FACE_BOUND('',#990,.T.);
#1085=FACE_BOUND('',#991,.T.);
#1086=FACE_BOUND('',#992,.T.);
#1087=FACE_BOUND('',#993,.T.);
#1088=FACE_BOUND('',#994,.T.);
#1089=FACE_BOUND('',#995,.T.);
#1090=FACE_BOUND('',#996,.T.);
#1091=FACE_BOUND('',#997,.T.);
#1092=FACE_BOUND('',#998,.T.);
#1093=FACE_BOUND('',#999,.T.);
#1094=FACE_BOUND('',#1000,.T.);
#1095=FACE_BOUND('',#1001,.T.);
#1096=FACE_BOUND('',#1002,.T.);
#1097=FACE_BOUND('',#1003,.T.);
#1098=FACE_BOUND('',#1004,.T.);
#1099=FACE_BOUND('',#1005,.T.);
#1100=FACE_BOUND('',#1006,.T.);
#1101=FACE_BOUND('',#1007,.T.);
#1102=FACE_BOUND('',#1008,.T.);
#1103=FACE_BOUND('',#1009,.T.);
#1104=FACE_BOUND('',#1010,.T.);
#1105=FACE_BOUND('',#1011,.T.);
#1106=FACE_BOUND('',#1012,.T.);
#1107=FACE_BOUND('',#1013,.T.);
#1108=FACE_BOUND('',#1014,.T.);
#1109=FACE_BOUND('',#1015,.T.);
#1110=FACE_BOUND('',#1016,.T.);
#1111=FACE_BOUND('',#1017,.T.);
#1112=FACE_BOUND('',#1018,.T.);
#1113=FACE_BOUND('',#1019,.T.);
#1114=FACE_BOUND('',#1020,.T.);
#1115=FACE_BOUND('',#1021,.T.);
#1116=FACE_BOUND('',#1022,.T.);
#1117=FACE_BOUND('',#1023,.T.);
#1118=FACE_BOUND('',#1024,.T.);
#1119=FACE_BOUND('',#1025,.T.);
#1120=FACE_BOUND('',#1026,.T.);
#1121=FACE_BOUND('',#1027,.T.);
#1122=FACE_BOUND('',#1028,.T.);
#1123=FACE_BOUND('',#1029,.T.);
#1124=FACE_BOUND('',#1030,.T.);
#1125=FACE_BOUND('',#1031,.T.);
#1126=FACE_BOUND('',#1032,.T.);
#1127=FACE_BOUND('',#1033,.T.);
#1128=FACE_BOUND('',#1034,.T.);
#1129=FACE_BOUND('',#1035,.T.);
#1130=FACE_BOUND('',#1036,.T.);
#1131=FACE_BOUND('',#1037,.T.);
#1132=FACE_BOUND('',#1038,.T.);
#1133=PLANE('',#1245);
#1134=PLANE('',#1247);
#1135=PLANE('',#1264);
#1136=PLANE('',#1272);
#1137=PLANE('',#1273);
#1138=PLANE('',#1280);
#1139=PLANE('',#1282);
#1140=PLANE('',#1286);
#1141=PLANE('',#1288);
#1142=PLANE('',#1292);
#1143=PLANE('',#1297);
#1144=PLANE('',#1298);
#1145=PLANE('',#1299);
#1146=PLANE('',#1300);
#1147=PLANE('',#1306);
#1148=PLANE('',#1312);
#1149=PLANE('',#1315);
#1150=PLANE('',#1338);
#1151=PLANE('',#1341);
#1152=PLANE('',#1344);
#1153=PLANE('',#1345);
#1154=PLANE('',#1346);
#1155=PLANE('',#1347);
#1156=PLANE('',#1348);
#1157=PLANE('',#1349);
#1158=PLANE('',#1350);
#1159=ADVANCED_FACE('',(#1039),#1133,.T.);
#1160=ADVANCED_FACE('',(#1040),#1134,.T.);
#1161=ADVANCED_FACE('',(#1041,#1042),#44,.F.);
#1162=ADVANCED_FACE('',(#1043,#1044),#45,.F.);
#1163=ADVANCED_FACE('',(#1045,#1046),#46,.F.);
#1164=ADVANCED_FACE('',(#1047,#1048),#1135,.T.);
#1165=ADVANCED_FACE('',(#1049),#1136,.T.);
#1166=ADVANCED_FACE('',(#1050),#1137,.F.);
#1167=ADVANCED_FACE('',(#1051),#47,.T.);
#1168=ADVANCED_FACE('',(#1052),#48,.T.);
#1169=ADVANCED_FACE('',(#1053),#1138,.T.);
#1170=ADVANCED_FACE('',(#1054,#1055),#1139,.T.);
#1171=ADVANCED_FACE('',(#1056),#1140,.T.);
#1172=ADVANCED_FACE('',(#1057),#1141,.T.);
#1173=ADVANCED_FACE('',(#1058),#1142,.F.);
#1174=ADVANCED_FACE('',(#1059),#49,.F.);
#1175=ADVANCED_FACE('',(#1060),#1143,.T.);
#1176=ADVANCED_FACE('',(#1061),#1144,.T.);
#1177=ADVANCED_FACE('',(#1062,#1063,#1064,#1065),#1145,.T.);
#1178=ADVANCED_FACE('',(#1066),#1146,.T.);
#1179=ADVANCED_FACE('',(#1067,#1068),#50,.F.);
#1180=ADVANCED_FACE('',(#1069,#1070),#51,.F.);
#1181=ADVANCED_FACE('',(#1071,#1072),#1147,.T.);
#1182=ADVANCED_FACE('',(#1073,#1074),#52,.F.);
#1183=ADVANCED_FACE('',(#1075,#1076),#1148,.F.);
#1184=ADVANCED_FACE('',(#1077,#1078),#53,.F.);
#1185=ADVANCED_FACE('',(#1079,#1080),#1149,.F.);
#1186=ADVANCED_FACE('',(#1081),#54,.T.);
#1187=ADVANCED_FACE('',(#1082),#25,.T.);
#1188=ADVANCED_FACE('',(#1083),#55,.T.);
#1189=ADVANCED_FACE('',(#1084),#26,.T.);
#1190=ADVANCED_FACE('',(#1085),#56,.T.);
#1191=ADVANCED_FACE('',(#1086),#57,.T.);
#1192=ADVANCED_FACE('',(#1087),#27,.T.);
#1193=ADVANCED_FACE('',(#1088),#58,.T.);
#1194=ADVANCED_FACE('',(#1089),#28,.T.);
#1195=ADVANCED_FACE('',(#1090),#59,.T.);
#1196=ADVANCED_FACE('',(#1091,#1092),#60,.F.);
#1197=ADVANCED_FACE('',(#1093,#1094),#1150,.T.);
#1198=ADVANCED_FACE('',(#1095,#1096),#61,.F.);
#1199=ADVANCED_FACE('',(#1097,#1098),#1151,.T.);
#1200=ADVANCED_FACE('',(#1099,#1100),#62,.F.);
#1201=ADVANCED_FACE('',(#1101,#1102),#1152,.T.);
#1202=ADVANCED_FACE('',(#1103),#1153,.F.);
#1203=ADVANCED_FACE('',(#1104),#1154,.F.);
#1204=ADVANCED_FACE('',(#1105),#1155,.T.);
#1205=ADVANCED_FACE('',(#1106),#1156,.F.);
#1206=ADVANCED_FACE('',(#1107),#1157,.F.);
#1207=ADVANCED_FACE('',(#1108),#1158,.T.);
#1208=ADVANCED_FACE('',(#1109),#63,.T.);
#1209=ADVANCED_FACE('',(#1110),#21,.T.);
#1210=ADVANCED_FACE('',(#1111),#64,.T.);
#1211=ADVANCED_FACE('',(#1112),#65,.T.);
#1212=ADVANCED_FACE('',(#1113),#66,.T.);
#1213=ADVANCED_FACE('',(#1114),#67,.F.);
#1214=ADVANCED_FACE('',(#1115),#22,.T.);
#1215=ADVANCED_FACE('',(#1116),#29,.F.);
#1216=ADVANCED_FACE('',(#1117),#68,.T.);
#1217=ADVANCED_FACE('',(#1118),#69,.F.);
#1218=ADVANCED_FACE('',(#1119),#20,.T.);
#1219=ADVANCED_FACE('',(#1120),#70,.F.);
#1220=ADVANCED_FACE('',(#1121),#71,.F.);
#1221=ADVANCED_FACE('',(#1122),#72,.F.);
#1222=ADVANCED_FACE('',(#1123),#23,.F.);
#1223=ADVANCED_FACE('',(#1124),#73,.F.);
#1224=ADVANCED_FACE('',(#1125),#74,.F.);
#1225=ADVANCED_FACE('',(#1126),#75,.F.);
#1226=ADVANCED_FACE('',(#1127),#24,.F.);
#1227=ADVANCED_FACE('',(#1128),#76,.F.);
#1228=ADVANCED_FACE('',(#1129),#77,.F.);
#1229=ADVANCED_FACE('',(#1130),#30,.F.);
#1230=ADVANCED_FACE('',(#1131),#78,.F.);
#1231=ADVANCED_FACE('',(#1132),#79,.F.);
#1232=CLOSED_SHELL('',(#1159,#1160,#1161,#1162,#1163,#1164,#1165,#1166,
#1167,#1168,#1169,#1170,#1171,#1172,#1173,#1174,#1175,#1176,#1177,#1178,
#1179,#1180,#1181,#1182,#1183,#1184,#1185,#1186,#1187,#1188,#1189,#1190,
#1191,#1192,#1193,#1194,#1195,#1196,#1197,#1198,#1199,#1200,#1201,#1202,
#1203,#1204,#1205,#1206,#1207,#1208,#1209,#1210,#1211,#1212,#1213,#1214,
#1215,#1216,#1217,#1218,#1219,#1220,#1221,#1222,#1223,#1224,#1225,#1226,
#1227,#1228,#1229,#1230,#1231));
#1233=STYLED_ITEM('',(#1234),#1241);
#1234=PRESENTATION_STYLE_ASSIGNMENT((#1235));
#1235=SURFACE_STYLE_USAGE(.BOTH.,#1236);
#1236=SURFACE_SIDE_STYLE('',(#1237));
#1237=SURFACE_STYLE_FILL_AREA(#1238);
#1238=FILL_AREA_STYLE('',(#1239));
#1239=FILL_AREA_STYLE_COLOUR('',#1240);
#1240=COLOUR_RGB('',0.5,0.5,0.5);
#1241=MANIFOLD_SOLID_BREP('',#1232);
#1242=SHAPE_DEFINITION_REPRESENTATION(#2223,#1243);
#1243=SHAPE_REPRESENTATION('blaze_ace2_adapter',(#1244),#2218);
#1244=AXIS2_PLACEMENT_3D('',#1771,#1392,#1393);
#1245=AXIS2_PLACEMENT_3D('',#1772,#1394,#1395);
#1246=AXIS2_PLACEMENT_3D('',#1776,#1397,#1398);
#1247=AXIS2_PLACEMENT_3D('',#1787,#1404,#1405);
#1248=AXIS2_PLACEMENT_3D('',#1788,#1406,#1407);
#1249=AXIS2_PLACEMENT_3D('',#1793,#1409,#1410);
#1250=AXIS2_PLACEMENT_3D('',#1797,#1412,#1413);
#1251=AXIS2_PLACEMENT_3D('',#1801,#1415,#1416);
#1252=AXIS2_PLACEMENT_3D('',#1807,#1419,#1420);
#1253=AXIS2_PLACEMENT_3D('',#1815,#1424,#1425);
#1254=AXIS2_PLACEMENT_3D('',#1819,#1427,#1428);
#1255=AXIS2_PLACEMENT_3D('',#1822,#1430,#1431);
#1256=AXIS2_PLACEMENT_3D('',#1823,#1432,#1433);
#1257=AXIS2_PLACEMENT_3D('',#1825,#1434,#1435);
#1258=AXIS2_PLACEMENT_3D('',#1827,#1436,#1437);
#1259=AXIS2_PLACEMENT_3D('',#1828,#1438,#1439);
#1260=AXIS2_PLACEMENT_3D('',#1830,#1440,#1441);
#1261=AXIS2_PLACEMENT_3D('',#1832,#1442,#1443);
#1262=AXIS2_PLACEMENT_3D('',#1833,#1444,#1445);
#1263=AXIS2_PLACEMENT_3D('',#1835,#1446,#1447);
#1264=AXIS2_PLACEMENT_3D('',#1837,#1448,#1449);
#1265=AXIS2_PLACEMENT_3D('',#1841,#1451,#1452);
#1266=AXIS2_PLACEMENT_3D('',#1845,#1454,#1455);
#1267=AXIS2_PLACEMENT_3D('',#1849,#1457,#1458);
#1268=AXIS2_PLACEMENT_3D('',#1857,#1462,#1463);
#1269=AXIS2_PLACEMENT_3D('',#1860,#1465,#1466);
#1270=AXIS2_PLACEMENT_3D('',#1864,#1468,#1469);
#1271=AXIS2_PLACEMENT_3D('',#1865,#1470,#1471);
#1272=AXIS2_PLACEMENT_3D('',#1867,#1472,#1473);
#1273=AXIS2_PLACEMENT_3D('',#1876,#1478,#1479);
#1274=AXIS2_PLACEMENT_3D('',#1882,#1483,#1484);
#1275=AXIS2_PLACEMENT_3D('',#1883,#1485,#1486);
#1276=AXIS2_PLACEMENT_3D('',#1906,#1489,#1490);
#1277=AXIS2_PLACEMENT_3D('',#1907,#1491,#1492);
#1278=AXIS2_PLACEMENT_3D('',#1911,#1494,#1495);
#1279=AXIS2_PLACEMENT_3D('',#1915,#1497,#1498);
#1280=AXIS2_PLACEMENT_3D('',#1935,#1500,#1501);
#1281=AXIS2_PLACEMENT_3D('',#1938,#1503,#1504);
#1282=AXIS2_PLACEMENT_3D('',#1941,#1506,#1507);
#1283=AXIS2_PLACEMENT_3D('',#1947,#1510,#1511);
#1284=AXIS2_PLACEMENT_3D('',#1954,#1515,#1516);
#1285=AXIS2_PLACEMENT_3D('',#1955,#1517,#1518);
#1286=AXIS2_PLACEMENT_3D('',#1957,#1519,#1520);
#1287=AXIS2_PLACEMENT_3D('',#1965,#1525,#1526);
#1288=AXIS2_PLACEMENT_3D('',#1966,#1527,#1528);
#1289=AXIS2_PLACEMENT_3D('',#1967,#1529,#1530);
#1290=AXIS2_PLACEMENT_3D('',#1973,#1533,#1534);
#1291=AXIS2_PLACEMENT_3D('',#1978,#1537,#1538);
#1292=AXIS2_PLACEMENT_3D('',#1981,#1540,#1541);
#1293=AXIS2_PLACEMENT_3D('',#1983,#1543,#1544);
#1294=AXIS2_PLACEMENT_3D('',#1985,#1546,#1547);
#1295=AXIS2_PLACEMENT_3D('',#1986,#1548,#1549);
#1296=AXIS2_PLACEMENT_3D('',#1996,#1551,#1552);
#1297=AXIS2_PLACEMENT_3D('',#2008,#1556,#1557);
#1298=AXIS2_PLACEMENT_3D('',#2009,#1558,#1559);
#1299=AXIS2_PLACEMENT_3D('',#2010,#1560,#1561);
#1300=AXIS2_PLACEMENT_3D('',#2038,#1569,#1570);
#1301=AXIS2_PLACEMENT_3D('',#2039,#1571,#1572);
#1302=AXIS2_PLACEMENT_3D('',#2040,#1573,#1574);
#1303=AXIS2_PLACEMENT_3D('',#2041,#1575,#1576);
#1304=AXIS2_PLACEMENT_3D('',#2043,#1577,#1578);
#1305=AXIS2_PLACEMENT_3D('',#2044,#1579,#1580);
#1306=AXIS2_PLACEMENT_3D('',#2046,#1581,#1582);
#1307=AXIS2_PLACEMENT_3D('',#2047,#1583,#1584);
#1308=AXIS2_PLACEMENT_3D('',#2049,#1585,#1586);
#1309=AXIS2_PLACEMENT_3D('',#2057,#1590,#1591);
#1310=AXIS2_PLACEMENT_3D('',#2062,#1594,#1595);
#1311=AXIS2_PLACEMENT_3D('',#2063,#1596,#1597);
#1312=AXIS2_PLACEMENT_3D('',#2065,#1598,#1599);
#1313=AXIS2_PLACEMENT_3D('',#2066,#1600,#1601);
#1314=AXIS2_PLACEMENT_3D('',#2067,#1602,#1603);
#1315=AXIS2_PLACEMENT_3D('',#2069,#1604,#1605);
#1316=AXIS2_PLACEMENT_3D('',#2070,#1606,#1607);
#1317=AXIS2_PLACEMENT_3D('',#2071,#1608,#1609);
#1318=AXIS2_PLACEMENT_3D('',#2072,#1610,#1611);
#1319=AXIS2_PLACEMENT_3D('',#2073,#1612,#1613);
#1320=AXIS2_PLACEMENT_3D('',#2074,#1614,#1615);
#1321=AXIS2_PLACEMENT_3D('',#2075,#1616,#1617);
#1322=AXIS2_PLACEMENT_3D('',#2076,#1618,#1619);
#1323=AXIS2_PLACEMENT_3D('',#2077,#1620,#1621);
#1324=AXIS2_PLACEMENT_3D('',#2078,#1622,#1623);
#1325=AXIS2_PLACEMENT_3D('',#2079,#1624,#1625);
#1326=AXIS2_PLACEMENT_3D('',#2080,#1626,#1627);
#1327=AXIS2_PLACEMENT_3D('',#2081,#1628,#1629);
#1328=AXIS2_PLACEMENT_3D('',#2082,#1630,#1631);
#1329=AXIS2_PLACEMENT_3D('',#2083,#1632,#1633);
#1330=AXIS2_PLACEMENT_3D('',#2084,#1634,#1635);
#1331=AXIS2_PLACEMENT_3D('',#2085,#1636,#1637);
#1332=AXIS2_PLACEMENT_3D('',#2086,#1638,#1639);
#1333=AXIS2_PLACEMENT_3D('',#2087,#1640,#1641);
#1334=AXIS2_PLACEMENT_3D('',#2088,#1642,#1643);
#1335=AXIS2_PLACEMENT_3D('',#2089,#1644,#1645);
#1336=AXIS2_PLACEMENT_3D('',#2090,#1646,#1647);
#1337=AXIS2_PLACEMENT_3D('',#2091,#1648,#1649);
#1338=AXIS2_PLACEMENT_3D('',#2098,#1650,#1651);
#1339=AXIS2_PLACEMENT_3D('',#2099,#1652,#1653);
#1340=AXIS2_PLACEMENT_3D('',#2100,#1654,#1655);
#1341=AXIS2_PLACEMENT_3D('',#2107,#1656,#1657);
#1342=AXIS2_PLACEMENT_3D('',#2108,#1658,#1659);
#1343=AXIS2_PLACEMENT_3D('',#2109,#1660,#1661);
#1344=AXIS2_PLACEMENT_3D('',#2111,#1662,#1663);
#1345=AXIS2_PLACEMENT_3D('',#2112,#1664,#1665);
#1346=AXIS2_PLACEMENT_3D('',#2116,#1668,#1669);
#1347=AXIS2_PLACEMENT_3D('',#2120,#1672,#1673);
#1348=AXIS2_PLACEMENT_3D('',#2124,#1676,#1677);
#1349=AXIS2_PLACEMENT_3D('',#2130,#1681,#1682);
#1350=AXIS2_PLACEMENT_3D('',#2134,#1685,#1686);
#1351=AXIS2_PLACEMENT_3D('',#2138,#1689,#1690);
#1352=AXIS2_PLACEMENT_3D('',#2139,#1691,#1692);
#1353=AXIS2_PLACEMENT_3D('',#2140,#1693,#1694);
#1354=AXIS2_PLACEMENT_3D('',#2141,#1695,#1696);
#1355=AXIS2_PLACEMENT_3D('',#2142,#1697,#1698);
#1356=AXIS2_PLACEMENT_3D('',#2143,#1699,#1700);
#1357=AXIS2_PLACEMENT_3D('',#2144,#1701,#1702);
#1358=AXIS2_PLACEMENT_3D('',#2145,#1703,#1704);
#1359=AXIS2_PLACEMENT_3D('',#2146,#1705,#1706);
#1360=AXIS2_PLACEMENT_3D('',#2147,#1707,#1708);
#1361=AXIS2_PLACEMENT_3D('',#2148,#1709,#1710);
#1362=AXIS2_PLACEMENT_3D('',#2149,#1711,#1712);
#1363=AXIS2_PLACEMENT_3D('',#2154,#1713,#1714);
#1364=AXIS2_PLACEMENT_3D('',#2155,#1715,#1716);
#1365=AXIS2_PLACEMENT_3D('',#2156,#1717,#1718);
#1366=AXIS2_PLACEMENT_3D('',#2157,#1719,#1720);
#1367=AXIS2_PLACEMENT_3D('',#2158,#1721,#1722);
#1368=AXIS2_PLACEMENT_3D('',#2159,#1723,#1724);
#1369=AXIS2_PLACEMENT_3D('',#2160,#1725,#1726);
#1370=AXIS2_PLACEMENT_3D('',#2161,#1727,#1728);
#1371=AXIS2_PLACEMENT_3D('',#2162,#1729,#1730);
#1372=AXIS2_PLACEMENT_3D('',#2178,#1731,#1732);
#1373=AXIS2_PLACEMENT_3D('',#2179,#1733,#1734);
#1374=AXIS2_PLACEMENT_3D('',#2187,#1735,#1736);
#1375=AXIS2_PLACEMENT_3D('',#2188,#1737,#1738);
#1376=AXIS2_PLACEMENT_3D('',#2189,#1739,#1740);
#1377=AXIS2_PLACEMENT_3D('',#2190,#1741,#1742);
#1378=AXIS2_PLACEMENT_3D('',#2191,#1743,#1744);
#1379=AXIS2_PLACEMENT_3D('',#2192,#1745,#1746);
#1380=AXIS2_PLACEMENT_3D('',#2193,#1747,#1748);
#1381=AXIS2_PLACEMENT_3D('',#2194,#1749,#1750);
#1382=AXIS2_PLACEMENT_3D('',#2195,#1751,#1752);
#1383=AXIS2_PLACEMENT_3D('',#2196,#1753,#1754);
#1384=AXIS2_PLACEMENT_3D('',#2197,#1755,#1756);
#1385=AXIS2_PLACEMENT_3D('',#2198,#1757,#1758);
#1386=AXIS2_PLACEMENT_3D('',#2199,#1759,#1760);
#1387=AXIS2_PLACEMENT_3D('',#2200,#1761,#1762);
#1388=AXIS2_PLACEMENT_3D('',#2201,#1763,#1764);
#1389=AXIS2_PLACEMENT_3D('',#2206,#1765,#1766);
#1390=AXIS2_PLACEMENT_3D('',#2215,#1767,#1768);
#1391=AXIS2_PLACEMENT_3D('',#2216,#1769,#1770);
#1392=DIRECTION('',(0.,0.,1.));
#1393=DIRECTION('',(1.,0.,0.));
#1394=DIRECTION('',(0.,-1.,0.));
#1395=DIRECTION('',(0.,0.,-1.));
#1396=DIRECTION('',(-1.,0.,0.));
#1397=DIRECTION('',(0.,-1.,0.));
#1398=DIRECTION('',(0.,0.,-1.));
#1399=DIRECTION('',(0.,0.,-1.));
#1400=DIRECTION('',(-1.,0.,0.));
#1401=DIRECTION('',(0.,0.,-1.));
#1402=DIRECTION('',(-1.,0.,0.));
#1403=DIRECTION('',(0.,0.,-1.));
#1404=DIRECTION('',(-1.,0.,0.));
#1405=DIRECTION('',(0.,0.,1.));
#1406=DIRECTION('',(-1.,0.,0.));
#1407=DIRECTION('',(0.,-1.,1.48266963758701E-16));
#1408=DIRECTION('',(0.,1.48266963758701E-16,1.));
#1409=DIRECTION('',(-1.,0.,0.));
#1410=DIRECTION('',(0.,0.,1.));
#1411=DIRECTION('',(0.,0.,-1.));
#1412=DIRECTION('',(-1.,0.,0.));
#1413=DIRECTION('',(0.,0.,1.));
#1414=DIRECTION('',(0.,1.,0.));
#1415=DIRECTION('',(-1.,0.,0.));
#1416=DIRECTION('',(0.,0.,1.));
#1417=DIRECTION('',(0.,0.,-1.));
#1418=DIRECTION('',(1.26161707343768E-15,1.,0.));
#1419=DIRECTION('',(-1.,0.,0.));
#1420=DIRECTION('',(0.,0.,1.));
#1421=DIRECTION('',(0.,0.,-1.));
#1422=DIRECTION('',(0.,1.,0.));
#1423=DIRECTION('',(0.,-3.46944695195361E-16,1.));
#1424=DIRECTION('',(-1.,0.,0.));
#1425=DIRECTION('',(0.,0.,1.));
#1426=DIRECTION('',(0.,0.,1.));
#1427=DIRECTION('',(-1.,0.,0.));
#1428=DIRECTION('',(0.,0.,1.));
#1429=DIRECTION('',(0.,-1.,1.48266963758701E-16));
#1430=DIRECTION('',(0.,1.,0.));
#1431=DIRECTION('',(0.,0.,1.));
#1432=DIRECTION('',(0.,-1.,0.));
#1433=DIRECTION('',(0.,0.,1.));
#1434=DIRECTION('',(0.,-1.,0.));
#1435=DIRECTION('',(0.,0.,-1.));
#1436=DIRECTION('',(0.,1.,0.));
#1437=DIRECTION('',(0.,0.,1.));
#1438=DIRECTION('',(0.,-1.,0.));
#1439=DIRECTION('',(0.,0.,1.));
#1440=DIRECTION('',(0.,-1.,0.));
#1441=DIRECTION('',(0.,0.,-1.));
#1442=DIRECTION('',(0.,1.,0.));
#1443=DIRECTION('',(0.,0.,1.));
#1444=DIRECTION('',(0.,-1.,0.));
#1445=DIRECTION('',(0.,0.,1.));
#1446=DIRECTION('',(0.,-1.,0.));
#1447=DIRECTION('',(0.,0.,-1.));
#1448=DIRECTION('',(0.,0.,-1.));
#1449=DIRECTION('',(-1.,0.,0.));
#1450=DIRECTION('',(-0.996325370970171,0.0856490231184885,0.));
#1451=DIRECTION('',(0.,0.,-1.));
#1452=DIRECTION('',(-1.,0.,0.));
#1453=DIRECTION('',(0.,1.,0.));
#1454=DIRECTION('',(0.,0.,-1.));
#1455=DIRECTION('',(-1.,0.,0.));
#1456=DIRECTION('',(1.,0.,0.));
#1457=DIRECTION('',(0.,0.,-1.));
#1458=DIRECTION('',(-1.,0.,0.));
#1459=DIRECTION('',(0.,1.,0.));
#1460=DIRECTION('',(1.,0.,0.));
#1461=DIRECTION('',(0.,-1.,0.));
#1462=DIRECTION('',(0.,0.,-1.));
#1463=DIRECTION('',(-1.,0.,0.));
#1464=DIRECTION('',(0.,-1.,0.));
#1465=DIRECTION('',(0.,0.,-1.));
#1466=DIRECTION('',(-1.,0.,0.));
#1467=DIRECTION('',(1.,0.,0.));
#1468=DIRECTION('',(0.,0.,-1.));
#1469=DIRECTION('',(-1.,0.,0.));
#1470=DIRECTION('',(0.,0.,1.));
#1471=DIRECTION('',(-1.,0.,0.));
#1472=DIRECTION('',(0.,1.48266963758701E-16,1.));
#1473=DIRECTION('',(0.,-1.,1.48266963758701E-16));
#1474=DIRECTION('',(0.,-1.,1.48266963758701E-16));
#1475=DIRECTION('',(0.996325370970171,-0.0856490231184884,1.26989206066771E-17));
#1476=DIRECTION('',(0.,-1.,1.48266963758701E-16));
#1477=DIRECTION('',(1.,0.,0.));
#1478=DIRECTION('',(1.,0.,0.));
#1479=DIRECTION('',(0.,0.,-1.));
#1480=DIRECTION('',(0.,1.48266963758701E-16,1.));
#1481=DIRECTION('',(0.,-1.,1.48266963758701E-16));
#1482=DIRECTION('',(0.,0.,1.));
#1483=DIRECTION('',(1.,0.,0.));
#1484=DIRECTION('',(0.,0.,-1.));
#1485=DIRECTION('',(1.,0.,0.));
#1486=DIRECTION('',(0.,0.,-1.));
#1487=DIRECTION('',(-1.,0.,0.));
#1488=DIRECTION('',(-1.,0.,0.));
#1489=DIRECTION('',(-1.,0.,0.));
#1490=DIRECTION('',(0.,0.,1.));
#1491=DIRECTION('',(-1.,0.,0.));
#1492=DIRECTION('',(0.,0.,1.));
#1493=DIRECTION('',(1.,0.,0.));
#1494=DIRECTION('',(1.,0.,0.));
#1495=DIRECTION('',(0.,0.,-1.));
#1496=DIRECTION('',(1.,0.,0.));
#1497=DIRECTION('',(-1.,0.,0.));
#1498=DIRECTION('',(0.,0.,1.));
#1499=DIRECTION('',(1.,0.,0.));
#1500=DIRECTION('',(-1.,0.,0.));
#1501=DIRECTION('',(0.,0.,1.));
#1502=DIRECTION('',(0.,0.,1.));
#1503=DIRECTION('',(-1.,0.,0.));
#1504=DIRECTION('',(0.,0.,1.));
#1505=DIRECTION('',(0.,3.46944695195361E-16,-1.));
#1506=DIRECTION('',(0.,0.,-1.));
#1507=DIRECTION('',(-1.,0.,0.));
#1508=DIRECTION('',(-8.67361737988403E-17,-1.,0.));
#1509=DIRECTION('',(1.,0.,0.));
#1510=DIRECTION('',(0.,0.,-1.));
#1511=DIRECTION('',(-1.,0.,0.));
#1512=DIRECTION('',(0.,-1.,0.));
#1513=DIRECTION('',(-1.,0.,0.));
#1514=DIRECTION('',(-1.,0.,0.));
#1515=DIRECTION('',(0.,0.,-1.));
#1516=DIRECTION('',(-1.,0.,0.));
#1517=DIRECTION('',(0.,0.,1.));
#1518=DIRECTION('',(-1.,0.,0.));
#1519=DIRECTION('',(0.,1.,0.));
#1520=DIRECTION('',(0.,0.,1.));
#1521=DIRECTION('',(1.,0.,0.));
#1522=DIRECTION('',(0.,0.,-1.));
#1523=DIRECTION('',(0.,0.,-1.));
#1524=DIRECTION('',(0.,0.,-1.));
#1525=DIRECTION('',(0.,1.,0.));
#1526=DIRECTION('',(0.,0.,1.));
#1527=DIRECTION('',(1.,0.,0.));
#1528=DIRECTION('',(0.,0.,-1.));
#1529=DIRECTION('',(1.,0.,0.));
#1530=DIRECTION('',(0.,0.,-1.));
#1531=DIRECTION('',(0.,0.,-1.));
#1532=DIRECTION('',(0.,-3.46944695195361E-16,1.));
#1533=DIRECTION('',(-1.,0.,0.));
#1534=DIRECTION('',(0.,0.,-1.));
#1535=DIRECTION('',(0.,3.46944695195361E-16,-1.));
#1536=DIRECTION('',(0.,0.,-1.));
#1537=DIRECTION('',(1.,0.,0.));
#1538=DIRECTION('',(0.,0.,-1.));
#1539=DIRECTION('',(0.,-1.,0.));
#1540=DIRECTION('',(0.,0.,-1.));
#1541=DIRECTION('',(-1.,0.,0.));
#1542=DIRECTION('',(0.,-1.,0.));
#1543=DIRECTION('',(0.,0.,-1.));
#1544=DIRECTION('',(-1.,0.,0.));
#1545=DIRECTION('',(0.,1.,0.));
#1546=DIRECTION('',(0.,0.,-1.));
#1547=DIRECTION('',(-1.,0.,0.));
#1548=DIRECTION('',(1.,0.,0.));
#1549=DIRECTION('',(0.,0.,-1.));
#1550=DIRECTION('',(1.,0.,0.));
#1551=DIRECTION('',(1.,0.,0.));
#1552=DIRECTION('',(0.,0.,-1.));
#1553=DIRECTION('',(1.,0.,0.));
#1554=DIRECTION('',(1.,0.,0.));
#1555=DIRECTION('',(1.,0.,0.));
#1556=DIRECTION('',(0.,-1.,-3.46944695195361E-16));
#1557=DIRECTION('',(0.,3.46944695195361E-16,-1.));
#1558=DIRECTION('',(0.,1.,3.46944695195361E-16));
#1559=DIRECTION('',(0.,-3.46944695195361E-16,1.));
#1560=DIRECTION('',(0.,1.,0.));
#1561=DIRECTION('',(0.,0.,1.));
#1562=DIRECTION('',(-1.,0.,0.));
#1563=DIRECTION('',(0.,0.,1.));
#1564=DIRECTION('',(0.,0.,1.));
#1565=DIRECTION('',(1.,0.,0.));
#1566=DIRECTION('',(0.,0.,1.));
#1567=DIRECTION('',(-1.,0.,0.));
#1568=DIRECTION('',(0.,0.,1.));
#1569=DIRECTION('',(1.,0.,0.));
#1570=DIRECTION('',(0.,0.,-1.));
#1571=DIRECTION('',(1.,0.,0.));
#1572=DIRECTION('',(0.,0.,-1.));
#1573=DIRECTION('',(0.,0.,-1.));
#1574=DIRECTION('',(-1.,0.,0.));
#1575=DIRECTION('',(0.,0.,-1.));
#1576=DIRECTION('',(-1.,0.,0.));
#1577=DIRECTION('',(0.,0.,-1.));
#1578=DIRECTION('',(-1.,0.,0.));
#1579=DIRECTION('',(0.,0.,-1.));
#1580=DIRECTION('',(-1.,0.,0.));
#1581=DIRECTION('',(-0.0856490231184884,-0.996325370970171,1.47722137669509E-16));
#1582=DIRECTION('',(0.996325370970171,-0.0856490231184885,0.));
#1583=DIRECTION('',(-0.0856490231184884,-0.996325370970171,1.47722137669509E-16));
#1584=DIRECTION('',(-0.996325370970171,0.0856490231184885,1.71840037697184E-15));
#1585=DIRECTION('',(-0.0856490231184884,-0.996325370970171,1.47722137669509E-16));
#1586=DIRECTION('',(-0.996325370970171,0.0856490231184885,1.71840037697184E-15));
#1587=DIRECTION('',(-2.11707309710852E-33,1.48266963758701E-16,1.));
#1588=DIRECTION('',(-2.11707309710852E-33,1.48266963758701E-16,1.));
#1589=DIRECTION('',(0.996325370970171,-0.0856490231184885,1.26989206066771E-17));
#1590=DIRECTION('',(-0.0856490231184884,-0.996325370970171,1.47722137669509E-16));
#1591=DIRECTION('',(-0.996325370970171,0.0856490231184885,1.71840037697184E-15));
#1592=DIRECTION('',(0.996325370970171,-0.0856490231184885,1.26989206066771E-17));
#1593=DIRECTION('',(-2.11707309710852E-33,1.48266963758701E-16,1.));
#1594=DIRECTION('',(0.,0.,-1.));
#1595=DIRECTION('',(-1.,0.,0.));
#1596=DIRECTION('',(0.,0.,-1.));
#1597=DIRECTION('',(1.,0.,0.));
#1598=DIRECTION('',(0.,0.,-1.));
#1599=DIRECTION('',(-1.,0.,0.));
#1600=DIRECTION('',(0.,0.,-1.));
#1601=DIRECTION('',(-1.,0.,0.));
#1602=DIRECTION('',(0.,0.,-1.));
#1603=DIRECTION('',(1.,0.,0.));
#1604=DIRECTION('',(0.,0.,-1.));
#1605=DIRECTION('',(-1.,0.,0.));
#1606=DIRECTION('',(0.,0.,-1.));
#1607=DIRECTION('',(-1.,0.,0.));
#1608=DIRECTION('',(0.,0.,-1.));
#1609=DIRECTION('',(1.,0.,0.));
#1610=DIRECTION('',(0.,0.,1.));
#1611=DIRECTION('',(1.,0.,0.));
#1612=DIRECTION('',(-1.,0.,0.));
#1613=DIRECTION('',(0.,0.,1.));
#1614=DIRECTION('',(0.,1.,0.));
#1615=DIRECTION('',(0.,0.,1.));
#1616=DIRECTION('',(0.,-1.,0.));
#1617=DIRECTION('',(0.,0.,-1.));
#1618=DIRECTION('',(0.,1.,0.));
#1619=DIRECTION('',(0.,0.,1.));
#1620=DIRECTION('',(-1.,0.,0.));
#1621=DIRECTION('',(0.,0.,1.));
#1622=DIRECTION('',(0.,0.,-1.));
#1623=DIRECTION('',(-1.,0.,0.));
#1624=DIRECTION('',(0.,0.,-1.));
#1625=DIRECTION('',(-1.,0.,0.));
#1626=DIRECTION('',(0.,0.,-1.));
#1627=DIRECTION('',(1.,0.,0.));
#1628=DIRECTION('',(0.,0.,-1.));
#1629=DIRECTION('',(-1.,0.,0.));
#1630=DIRECTION('',(0.,0.,1.));
#1631=DIRECTION('',(1.,0.,0.));
#1632=DIRECTION('',(1.,0.,0.));
#1633=DIRECTION('',(0.,0.,-1.));
#1634=DIRECTION('',(0.,-1.,0.));
#1635=DIRECTION('',(0.,0.,-1.));
#1636=DIRECTION('',(0.,1.,0.));
#1637=DIRECTION('',(0.,0.,1.));
#1638=DIRECTION('',(0.,-1.,0.));
#1639=DIRECTION('',(0.,0.,-1.));
#1640=DIRECTION('',(1.,0.,0.));
#1641=DIRECTION('',(0.,0.,-1.));
#1642=DIRECTION('',(0.,0.,-1.));
#1643=DIRECTION('',(-1.,0.,0.));
#1644=DIRECTION('',(0.,0.,-1.));
#1645=DIRECTION('',(-1.,0.,0.));
#1646=DIRECTION('',(0.,1.,0.));
#1647=DIRECTION('',(0.,0.,1.));
#1648=DIRECTION('',(0.,-1.,0.));
#1649=DIRECTION('',(0.,0.,1.));
#1650=DIRECTION('',(0.,-1.,0.));
#1651=DIRECTION('',(0.,0.,-1.));
#1652=DIRECTION('',(0.,1.,0.));
#1653=DIRECTION('',(0.,0.,1.));
#1654=DIRECTION('',(0.,-1.,0.));
#1655=DIRECTION('',(0.,0.,1.));
#1656=DIRECTION('',(0.,-1.,0.));
#1657=DIRECTION('',(0.,0.,-1.));
#1658=DIRECTION('',(0.,1.,0.));
#1659=DIRECTION('',(0.,0.,1.));
#1660=DIRECTION('',(0.,-1.,0.));
#1661=DIRECTION('',(0.,0.,1.));
#1662=DIRECTION('',(0.,-1.,0.));
#1663=DIRECTION('',(0.,0.,-1.));
#1664=DIRECTION('',(1.,-8.67361737988403E-17,0.));
#1665=DIRECTION('',(8.67361737988403E-17,1.,0.));
#1666=DIRECTION('',(0.,0.,-1.));
#1667=DIRECTION('',(-8.67361737988403E-17,-1.,0.));
#1668=DIRECTION('',(0.,-1.,0.));
#1669=DIRECTION('',(0.,0.,-1.));
#1670=DIRECTION('',(-1.,0.,0.));
#1671=DIRECTION('',(0.,0.,-1.));
#1672=DIRECTION('',(0.,0.,-1.));
#1673=DIRECTION('',(-1.,0.,0.));
#1674=DIRECTION('',(-8.67361737988403E-17,-1.,0.));
#1675=DIRECTION('',(-1.,0.,0.));
#1676=DIRECTION('',(0.,1.,0.));
#1677=DIRECTION('',(0.,0.,1.));
#1678=DIRECTION('',(0.,0.,-1.));
#1679=DIRECTION('',(1.,0.,0.));
#1680=DIRECTION('',(0.,-1.48266963758701E-16,-1.));
#1681=DIRECTION('',(1.,0.,0.));
#1682=DIRECTION('',(0.,0.,-1.));
#1683=DIRECTION('',(0.,-1.,0.));
#1684=DIRECTION('',(0.,0.,-1.));
#1685=DIRECTION('',(0.,0.,-1.));
#1686=DIRECTION('',(-1.,0.,0.));
#1687=DIRECTION('',(1.,0.,0.));
#1688=DIRECTION('',(0.,-1.,0.));
#1689=DIRECTION('',(0.,0.,-1.));
#1690=DIRECTION('',(-1.,0.,0.));
#1691=DIRECTION('',(0.,0.,1.));
#1692=DIRECTION('',(1.,0.,0.));
#1693=DIRECTION('',(0.,0.,1.));
#1694=DIRECTION('',(1.,0.,0.));
#1695=DIRECTION('',(-1.,0.,0.));
#1696=DIRECTION('',(0.,0.,1.));
#1697=DIRECTION('',(0.,1.,0.));
#1698=DIRECTION('',(0.,0.,1.));
#1699=DIRECTION('',(0.,-1.48266963758701E-16,-1.));
#1700=DIRECTION('',(0.,1.,-1.48266963758701E-16));
#1701=DIRECTION('',(0.,-1.54766351236143E-15,1.));
#1702=DIRECTION('',(0.,-1.,-1.54766351236143E-15));
#1703=DIRECTION('',(0.,1.,-1.48266963758701E-16));
#1704=DIRECTION('',(0.,1.48266963758701E-16,1.));
#1705=DIRECTION('',(-1.54197642309049E-15,-1.,0.));
#1706=DIRECTION('',(1.,-1.54197642309049E-15,0.));
#1707=DIRECTION('',(1.,0.,0.));
#1708=DIRECTION('',(0.,0.,-1.));
#1709=DIRECTION('',(-1.,0.,0.));
#1710=DIRECTION('',(0.,0.,1.));
#1711=DIRECTION('',(0.,0.,-1.));
#1712=DIRECTION('',(-1.,0.,0.));
#1713=DIRECTION('',(0.,0.,-1.));
#1714=DIRECTION('',(-1.,0.,0.));
#1715=DIRECTION('',(0.,0.,1.));
#1716=DIRECTION('',(1.,0.,0.));
#1717=DIRECTION('',(-0.996325370970171,0.085649023118491,1.32068774309446E-16));
#1718=DIRECTION('',(-0.085649023118491,-0.996325370970171,0.));
#1719=DIRECTION('',(-1.,0.,0.));
#1720=DIRECTION('',(0.,0.,1.));
#1721=DIRECTION('',(0.,-1.,0.));
#1722=DIRECTION('',(0.,0.,-1.));
#1723=DIRECTION('',(0.996325370970171,-0.0856490231184884,1.26989206066771E-17));
#1724=DIRECTION('',(0.0856490231184884,0.996325370970171,0.));
#1725=DIRECTION('',(0.99643106280657,0.084410527034072,-1.25152925526136E-17));
#1726=DIRECTION('',(0.084410527034072,-0.99643106280657,0.));
#1727=DIRECTION('',(0.,1.,-1.48266963758701E-16));
#1728=DIRECTION('',(0.,1.48266963758701E-16,1.));
#1729=DIRECTION('',(0.,1.,0.));
#1730=DIRECTION('',(0.,0.,1.));
#1731=DIRECTION('',(0.,0.,-1.));
#1732=DIRECTION('',(-1.,0.,0.));
#1733=DIRECTION('',(0.,-1.48266963758701E-16,-1.));
#1734=DIRECTION('',(0.,1.,-1.48266963758701E-16));
#1735=DIRECTION('',(0.,0.,1.));
#1736=DIRECTION('',(1.,0.,0.));
#1737=DIRECTION('',(0.,0.,-1.));
#1738=DIRECTION('',(-1.,0.,0.));
#1739=DIRECTION('',(1.,0.,0.));
#1740=DIRECTION('',(0.,0.,-1.));
#1741=DIRECTION('',(-1.,0.,0.));
#1742=DIRECTION('',(0.,0.,1.));
#1743=DIRECTION('',(0.,0.,1.));
#1744=DIRECTION('',(1.,0.,0.));
#1745=DIRECTION('',(0.,-1.,0.));
#1746=DIRECTION('',(0.,0.,-1.));
#1747=DIRECTION('',(0.,-1.,0.));
#1748=DIRECTION('',(0.,0.,-1.));
#1749=DIRECTION('',(0.,0.,1.));
#1750=DIRECTION('',(1.,0.,0.));
#1751=DIRECTION('',(0.,0.,-1.));
#1752=DIRECTION('',(-1.,0.,0.));
#1753=DIRECTION('',(-8.67361737988403E-17,-1.,0.));
#1754=DIRECTION('',(1.,-8.67361737988403E-17,0.));
#1755=DIRECTION('',(0.,1.,0.));
#1756=DIRECTION('',(0.,0.,1.));
#1757=DIRECTION('',(0.,0.,1.));
#1758=DIRECTION('',(1.,0.,0.));
#1759=DIRECTION('',(-1.,0.,0.));
#1760=DIRECTION('',(0.,0.,1.));
#1761=DIRECTION('',(-1.,0.,0.));
#1762=DIRECTION('',(0.,0.,1.));
#1763=DIRECTION('',(0.,0.,-1.));
#1764=DIRECTION('',(-1.,0.,0.));
#1765=DIRECTION('',(1.,0.,0.));
#1766=DIRECTION('',(0.,0.,-1.));
#1767=DIRECTION('',(1.,0.,0.));
#1768=DIRECTION('',(0.,0.,-1.));
#1769=DIRECTION('',(1.,0.,0.));
#1770=DIRECTION('',(0.,0.,-1.));
#1771=CARTESIAN_POINT('',(0.,0.,0.));
#1772=CARTESIAN_POINT('',(11.75,-37.9,41.));
#1773=CARTESIAN_POINT('',(-3.75,-37.9,4.));
#1774=CARTESIAN_POINT('',(-6.,-37.9,4.));
#1775=CARTESIAN_POINT('',(-9.49999999999999,-37.9,4.));
#1776=CARTESIAN_POINT('',(-6.,-37.9,1.75));
#1777=CARTESIAN_POINT('',(-3.75,-37.9,1.75));
#1778=CARTESIAN_POINT('',(-3.75,-37.9,4.));
#1779=CARTESIAN_POINT('',(-3.75,-37.9,0.));
#1780=CARTESIAN_POINT('',(11.75,-37.9,0.));
#1781=CARTESIAN_POINT('',(9.5,-37.9,0.));
#1782=CARTESIAN_POINT('',(9.5,-37.9,41.));
#1783=CARTESIAN_POINT('',(9.5,-37.9,33.));
#1784=CARTESIAN_POINT('',(-11.75,-37.9,33.));
#1785=CARTESIAN_POINT('',(-9.49999999999999,-37.9,33.));
#1786=CARTESIAN_POINT('',(-9.49999999999999,-37.9,41.));
#1787=CARTESIAN_POINT('',(-11.75,-37.9,41.));
#1788=CARTESIAN_POINT('',(-11.75,-30.9482805384771,28.75));
#1789=CARTESIAN_POINT('',(-11.75,-35.4648773562597,28.75));
#1790=CARTESIAN_POINT('',(-11.75,-30.9482805384771,33.25));
#1791=CARTESIAN_POINT('',(-11.75,-35.4648773562598,4.));
#1792=CARTESIAN_POINT('',(-11.75,-35.4648773562598,3.99237142480335));
#1793=CARTESIAN_POINT('',(-11.75,-35.65,1.75));
#1794=CARTESIAN_POINT('',(-11.75,-35.65,4.));
#1795=CARTESIAN_POINT('',(-11.75,-35.65,41.));
#1796=CARTESIAN_POINT('',(-11.75,-35.65,33.));
#1797=CARTESIAN_POINT('',(-11.75,-29.9,33.));
#1798=CARTESIAN_POINT('',(-11.75,-29.9,38.75));
#1799=CARTESIAN_POINT('',(-11.75,29.9,38.75));
#1800=CARTESIAN_POINT('',(-11.75,29.9,38.75));
#1801=CARTESIAN_POINT('',(-11.75,29.9,33.));
#1802=CARTESIAN_POINT('',(-11.75,35.65,33.));
#1803=CARTESIAN_POINT('',(-11.75,35.65,41.));
#1804=CARTESIAN_POINT('',(-11.75,35.65,4.));
#1805=CARTESIAN_POINT('',(-11.75,32.9,4.));
#1806=CARTESIAN_POINT('',(-11.75,35.15,4.));
#1807=CARTESIAN_POINT('',(-11.75,35.15,1.75));
#1808=CARTESIAN_POINT('',(-11.75,32.9,1.75));
#1809=CARTESIAN_POINT('',(-11.75,32.9,4.));
#1810=CARTESIAN_POINT('',(-11.75,32.9,0.));
#1811=CARTESIAN_POINT('',(-11.75,-37.9,0.));
#1812=CARTESIAN_POINT('',(-11.75,12.0726964676496,3.46944695195361E-15));
#1813=CARTESIAN_POINT('',(-11.75,12.0726964676496,41.));
#1814=CARTESIAN_POINT('',(-11.75,12.0726964676496,5.));
#1815=CARTESIAN_POINT('',(-11.75,0.,15.5));
#1816=CARTESIAN_POINT('',(-11.75,-12.25,25.7925944251195));
#1817=CARTESIAN_POINT('',(-11.75,-12.25,31.));
#1818=CARTESIAN_POINT('',(-11.75,-12.25,28.75));
#1819=CARTESIAN_POINT('',(-11.75,-16.75,28.75));
#1820=CARTESIAN_POINT('',(-11.75,-16.75,33.25));
#1821=CARTESIAN_POINT('',(-11.75,-33.4,33.25));
#1822=CARTESIAN_POINT('',(-19.75,-132.427477714059,5.));
#1823=CARTESIAN_POINT('',(-19.75,-14.5,5.));
#1824=CARTESIAN_POINT('',(-19.75,-14.5,6.7));
#1825=CARTESIAN_POINT('',(-19.75,-25.5,5.));
#1826=CARTESIAN_POINT('',(-19.75,-25.5,3.3));
#1827=CARTESIAN_POINT('',(-19.75,-132.427477714059,26.));
#1828=CARTESIAN_POINT('',(-19.75,-14.5,26.));
#1829=CARTESIAN_POINT('',(-19.75,-14.5,27.7));
#1830=CARTESIAN_POINT('',(-19.75,-25.5,26.));
#1831=CARTESIAN_POINT('',(-19.75,-25.5,24.3));
#1832=CARTESIAN_POINT('',(-63.89,-132.427477714059,15.5));
#1833=CARTESIAN_POINT('',(-63.89,-14.5,15.5));
#1834=CARTESIAN_POINT('',(-63.89,-14.5,17.2));
#1835=CARTESIAN_POINT('',(-63.89,-25.5,15.5));
#1836=CARTESIAN_POINT('',(-63.89,-25.5,13.8));
#1837=CARTESIAN_POINT('',(0.,0.,0.));
#1838=CARTESIAN_POINT('',(-2.93636056718434,-34.1576637407157,0.));
#1839=CARTESIAN_POINT('',(-13.8072896979834,-33.2231452715769,0.));
#1840=CARTESIAN_POINT('',(-66.6927103020166,-28.6768547284231,0.));
#1841=CARTESIAN_POINT('',(-66.5,-26.4351226437403,0.));
#1842=CARTESIAN_POINT('',(-68.75,-26.4351226437403,0.));
#1843=CARTESIAN_POINT('',(-68.75,-37.9,0.));
#1844=CARTESIAN_POINT('',(-68.75,-16.75,0.));
#1845=CARTESIAN_POINT('',(-66.5,-16.75,0.));
#1846=CARTESIAN_POINT('',(-66.5,-14.5,0.));
#1847=CARTESIAN_POINT('',(-68.75,-14.5,0.));
#1848=CARTESIAN_POINT('',(-14.,-14.5,0.));
#1849=CARTESIAN_POINT('',(-14.,-12.25,0.));
#1850=CARTESIAN_POINT('',(-11.75,-12.25,0.));
#1851=CARTESIAN_POINT('',(-11.75,-37.9,0.));
#1852=CARTESIAN_POINT('',(-11.75,-12.0726964676496,0.));
#1853=CARTESIAN_POINT('',(0.,-12.0726964676496,0.));
#1854=CARTESIAN_POINT('',(11.75,-12.0726964676496,0.));
#1855=CARTESIAN_POINT('',(11.75,37.9,0.));
#1856=CARTESIAN_POINT('',(11.75,-35.65,0.));
#1857=CARTESIAN_POINT('',(9.5,-35.65,0.));
#1858=CARTESIAN_POINT('',(-3.75,-33.4,0.));
#1859=CARTESIAN_POINT('',(-3.75,-35.65,0.));
#1860=CARTESIAN_POINT('',(-6.,-35.65,0.));
#1861=CARTESIAN_POINT('',(-6.,-33.4,0.));
#1862=CARTESIAN_POINT('',(-11.75,-33.4,0.));
#1863=CARTESIAN_POINT('',(-13.106254228762,-33.4,0.));
#1864=CARTESIAN_POINT('',(-14.,-35.4648773562598,0.));
#1865=CARTESIAN_POINT('',(1.32869789389728E-15,-32.3,0.));
#1866=CARTESIAN_POINT('',(-2.15,-32.3,0.));
#1867=CARTESIAN_POINT('',(-68.75,-14.5,31.));
#1868=CARTESIAN_POINT('',(-66.5,-28.5,31.));
#1869=CARTESIAN_POINT('',(-66.5,-16.75,31.));
#1870=CARTESIAN_POINT('',(-66.5,-26.4351226437403,31.));
#1871=CARTESIAN_POINT('',(-69.751969824228,-26.155567343061,31.));
#1872=CARTESIAN_POINT('',(-14.,-30.9482805384771,31.));
#1873=CARTESIAN_POINT('',(-14.,-14.5,31.));
#1874=CARTESIAN_POINT('',(-14.,-16.75,31.));
#1875=CARTESIAN_POINT('',(-68.75,-16.75,31.));
#1876=CARTESIAN_POINT('',(-68.75,0.,0.));
#1877=CARTESIAN_POINT('',(-68.75,-26.4351226437402,31.));
#1878=CARTESIAN_POINT('',(-68.75,-26.4351226437402,28.75));
#1879=CARTESIAN_POINT('',(-68.75,-14.5,28.75));
#1880=CARTESIAN_POINT('',(-68.75,-16.75,28.75));
#1881=CARTESIAN_POINT('',(-68.75,-16.75,0.));
#1882=CARTESIAN_POINT('',(11.75,-29.9,33.));
#1883=CARTESIAN_POINT('',(9.5,-29.9,33.));
#1884=CARTESIAN_POINT('',(9.5,-29.9,41.));
#1885=CARTESIAN_POINT('',(11.75,-29.9,41.));
#1886=CARTESIAN_POINT('',(3.50749198145912,-29.9,41.));
#1887=CARTESIAN_POINT('',(-3.50749198145912,-29.9,41.));
#1888=CARTESIAN_POINT('',(-3.98481499522792,-30.5975861014,41.));
#1889=CARTESIAN_POINT('',(-4.48253525397769,-32.2663292781545,40.7901159691267));
#1890=CARTESIAN_POINT('',(-3.93893872157295,-34.1593772053268,39.8464787162591));
#1891=CARTESIAN_POINT('',(-3.08181746367286,-35.2885759620193,38.9418797272637));
#1892=CARTESIAN_POINT('',(-2.25635181235182,-35.9538609673311,38.2546503232089));
#1893=CARTESIAN_POINT('',(-1.24531295183515,-36.4206145247742,37.646650969956));
#1894=CARTESIAN_POINT('',(0.000625316286024037,-36.6151869206483,37.3466950401484));
#1895=CARTESIAN_POINT('',(1.25380658318435,-36.4186354222843,37.6497131585661));
#1896=CARTESIAN_POINT('',(2.26126474335974,-35.9498617511785,38.2588176010642));
#1897=CARTESIAN_POINT('',(3.08243443392619,-35.2888475853945,38.9423717657556));
#1898=CARTESIAN_POINT('',(3.72671257608019,-34.4348526182796,39.6229739828797));
#1899=CARTESIAN_POINT('',(4.15036474279596,-33.4242484463878,40.2162290436531));
#1900=CARTESIAN_POINT('',(4.3617658477383,-31.8528324369207,40.8419467855716));
#1901=CARTESIAN_POINT('',(3.98591978505669,-30.5992007020107,41.));
#1902=CARTESIAN_POINT('',(3.50749198145912,-29.9,41.));
#1903=CARTESIAN_POINT('',(-3.50749198145912,-29.9,41.));
#1904=CARTESIAN_POINT('',(11.75,-29.9,41.));
#1905=CARTESIAN_POINT('',(-9.49999999999999,-29.9,41.));
#1906=CARTESIAN_POINT('',(-9.49999999999999,-29.9,33.));
#1907=CARTESIAN_POINT('',(-11.75,29.9,33.));
#1908=CARTESIAN_POINT('',(-11.75,29.9,41.));
#1909=CARTESIAN_POINT('',(9.5,29.9,41.));
#1910=CARTESIAN_POINT('',(3.50749198145912,29.9,41.));
#1911=CARTESIAN_POINT('',(9.5,29.9,33.));
#1912=CARTESIAN_POINT('',(9.5,37.9,33.));
#1913=CARTESIAN_POINT('',(11.75,37.9,33.));
#1914=CARTESIAN_POINT('',(-9.49999999999999,37.9,33.));
#1915=CARTESIAN_POINT('',(-9.49999999999999,29.9,33.));
#1916=CARTESIAN_POINT('',(-9.49999999999999,29.9,41.));
#1917=CARTESIAN_POINT('',(-11.75,29.9,41.));
#1918=CARTESIAN_POINT('',(-3.50749198145912,29.9,41.));
#1919=CARTESIAN_POINT('',(3.50749198145912,29.9,41.));
#1920=CARTESIAN_POINT('',(3.98481499522791,30.5975861014,41.));
#1921=CARTESIAN_POINT('',(4.48253525397768,32.2663292781545,40.7901159691267));
#1922=CARTESIAN_POINT('',(3.93893872157295,34.1593772053268,39.8464787162591));
#1923=CARTESIAN_POINT('',(3.08181746367285,35.2885759620193,38.9418797272638));
#1924=CARTESIAN_POINT('',(2.25635181235183,35.9538609673311,38.2546503232089));
#1925=CARTESIAN_POINT('',(1.24531295183515,36.4206145247742,37.6466509699561));
#1926=CARTESIAN_POINT('',(-0.000625316286019288,36.6151869206484,37.3466950401484));
#1927=CARTESIAN_POINT('',(-1.25380658318435,36.4186354222843,37.6497131585661));
#1928=CARTESIAN_POINT('',(-2.26126474335974,35.9498617511785,38.2588176010642));
#1929=CARTESIAN_POINT('',(-3.08243443392619,35.2888475853945,38.9423717657556));
#1930=CARTESIAN_POINT('',(-3.72671257608018,34.4348526182796,39.6229739828797));
#1931=CARTESIAN_POINT('',(-4.15036474279596,33.4242484463878,40.216229043653));
#1932=CARTESIAN_POINT('',(-4.3617658477383,31.8528324369207,40.8419467855717));
#1933=CARTESIAN_POINT('',(-3.9859197850567,30.5992007020107,41.));
#1934=CARTESIAN_POINT('',(-3.50749198145912,29.9,41.));
#1935=CARTESIAN_POINT('',(-11.75,-37.9,41.));
#1936=CARTESIAN_POINT('',(-11.75,-12.25,8.73612537076565));
#1937=CARTESIAN_POINT('',(-11.75,-12.25,5.20740557488054));
#1938=CARTESIAN_POINT('',(-11.75,0.,15.5));
#1939=CARTESIAN_POINT('',(-11.75,-12.0726964676496,5.));
#1940=CARTESIAN_POINT('',(-11.75,-12.0726964676497,41.));
#1941=CARTESIAN_POINT('',(0.,0.,0.));
#1942=CARTESIAN_POINT('',(-3.74999999999999,37.9,0.));
#1943=CARTESIAN_POINT('',(-3.74999999999999,37.9,0.));
#1944=CARTESIAN_POINT('',(-3.74999999999999,35.15,0.));
#1945=CARTESIAN_POINT('',(-11.75,37.9,0.));
#1946=CARTESIAN_POINT('',(9.5,37.9,0.));
#1947=CARTESIAN_POINT('',(9.5,35.65,0.));
#1948=CARTESIAN_POINT('',(11.75,35.65,0.));
#1949=CARTESIAN_POINT('',(11.75,37.9,0.));
#1950=CARTESIAN_POINT('',(11.75,12.0726964676496,3.46944695195361E-15));
#1951=CARTESIAN_POINT('',(0.,12.0726964676496,0.));
#1952=CARTESIAN_POINT('',(-3.74999999999999,32.9,0.));
#1953=CARTESIAN_POINT('',(-5.99999999999999,32.9,0.));
#1954=CARTESIAN_POINT('',(-5.99999999999999,35.15,0.));
#1955=CARTESIAN_POINT('',(1.32869789389728E-15,32.3,0.));
#1956=CARTESIAN_POINT('',(-2.15,32.3,0.));
#1957=CARTESIAN_POINT('',(-11.75,37.9,41.));
#1958=CARTESIAN_POINT('',(-3.74999999999999,37.9,4.));
#1959=CARTESIAN_POINT('',(-9.49999999999999,37.9,4.));
#1960=CARTESIAN_POINT('',(-5.99999999999999,37.9,4.));
#1961=CARTESIAN_POINT('',(-9.49999999999999,37.9,41.));
#1962=CARTESIAN_POINT('',(9.5,37.9,41.));
#1963=CARTESIAN_POINT('',(-3.74999999999999,37.9,4.));
#1964=CARTESIAN_POINT('',(-3.74999999999999,37.9,1.75));
#1965=CARTESIAN_POINT('',(-5.99999999999999,37.9,1.75));
#1966=CARTESIAN_POINT('',(11.75,37.9,41.));
#1967=CARTESIAN_POINT('',(11.75,-29.9,33.));
#1968=CARTESIAN_POINT('',(11.75,-29.9,38.75));
#1969=CARTESIAN_POINT('',(11.75,-35.65,33.));
#1970=CARTESIAN_POINT('',(11.75,-35.65,41.));
#1971=CARTESIAN_POINT('',(11.75,-12.0726964676496,5.));
#1972=CARTESIAN_POINT('',(11.75,-12.0726964676496,5.));
#1973=CARTESIAN_POINT('',(11.75,0.,15.5));
#1974=CARTESIAN_POINT('',(11.75,12.0726964676496,5.));
#1975=CARTESIAN_POINT('',(11.75,12.0726964676496,5.00000000000001));
#1976=CARTESIAN_POINT('',(11.75,35.65,41.));
#1977=CARTESIAN_POINT('',(11.75,35.65,33.));
#1978=CARTESIAN_POINT('',(11.75,29.9,33.));
#1979=CARTESIAN_POINT('',(11.75,29.9,38.75));
#1980=CARTESIAN_POINT('',(11.75,-29.9,38.75));
#1981=CARTESIAN_POINT('',(0.,0.,41.));
#1982=CARTESIAN_POINT('',(9.5,29.9,41.));
#1983=CARTESIAN_POINT('',(-1.32869789389728E-15,32.3,41.));
#1984=CARTESIAN_POINT('',(-9.49999999999999,-29.9,41.));
#1985=CARTESIAN_POINT('',(-1.32869789389728E-15,-32.3,41.));
#1986=CARTESIAN_POINT('',(-77.5746326608736,0.,15.5));
#1987=CARTESIAN_POINT('',(-11.75,-12.25,5.20740557488054));
#1988=CARTESIAN_POINT('',(-11.75,-12.7251079761211,5.77286773797511));
#1989=CARTESIAN_POINT('',(-11.9612373159189,-13.3650654972924,6.6577232615191));
#1990=CARTESIAN_POINT('',(-12.5721380834311,-14.0375222134818,7.80177194794598));
#1991=CARTESIAN_POINT('',(-13.0379630672888,-14.3078404148588,8.33547596060963));
#1992=CARTESIAN_POINT('',(-13.3366750419289,-14.4,8.52576169033491));
#1993=CARTESIAN_POINT('',(-13.3366750419289,-14.4,8.52576169033491));
#1994=CARTESIAN_POINT('',(-77.5746326608736,-14.4,8.5257616903349));
#1995=CARTESIAN_POINT('',(-10.75,-14.4,8.5257616903349));
#1996=CARTESIAN_POINT('',(-10.75,0.,15.5));
#1997=CARTESIAN_POINT('',(-10.75,-14.4,22.4742383096651));
#1998=CARTESIAN_POINT('',(-77.5746326608736,-14.4,22.4742383096651));
#1999=CARTESIAN_POINT('',(-13.3366750419296,-14.4000000000002,22.474238309665));
#2000=CARTESIAN_POINT('',(-13.3366750419296,-14.4000000000002,22.474238309665));
#2001=CARTESIAN_POINT('',(-13.0350486616449,-14.3069412529978,22.6663805762948));
#2002=CARTESIAN_POINT('',(-12.5734281747214,-14.0379057285077,23.1974313961926));
#2003=CARTESIAN_POINT('',(-11.9604728113617,-13.3648343019038,24.342750577511));
#2004=CARTESIAN_POINT('',(-11.75,-12.725183393767,25.2270425017444));
#2005=CARTESIAN_POINT('',(-11.75,-12.25,25.7925944251195));
#2006=CARTESIAN_POINT('',(-77.5746326608736,12.0726964676496,5.));
#2007=CARTESIAN_POINT('',(-77.5746326608736,-12.0726964676496,5.));
#2008=CARTESIAN_POINT('',(-77.5746326608736,12.0726964676496,5.00000000000001));
#2009=CARTESIAN_POINT('',(-77.5746326608736,-12.0726964676496,5.));
#2010=CARTESIAN_POINT('',(-68.75,-14.5,0.));
#2011=CARTESIAN_POINT('',(-11.75,-14.5,11.6594271260657));
#2012=CARTESIAN_POINT('',(-11.75,-14.5,11.1914634224085));
#2013=CARTESIAN_POINT('',(-11.7223751330862,-14.5,10.4937714044091));
#2014=CARTESIAN_POINT('',(-11.5243780286595,-14.5,9.57707782007843));
#2015=CARTESIAN_POINT('',(-11.3287087042047,-14.5,9.13827170929031));
#2016=CARTESIAN_POINT('',(-11.1733339315559,-14.5,8.96165158468841));
#2017=CARTESIAN_POINT('',(-11.75,-14.5,11.6594271260657));
#2018=CARTESIAN_POINT('',(-11.1733339315551,-14.5,8.96165158468892));
#2019=CARTESIAN_POINT('',(-14.,-14.5,8.96165158468897));
#2020=CARTESIAN_POINT('',(-14.,-14.5,8.96165158468897));
#2021=CARTESIAN_POINT('',(-14.,-14.5,0.));
#2022=CARTESIAN_POINT('',(-66.5,-14.5,31.));
#2023=CARTESIAN_POINT('',(-66.5,-14.5,28.75));
#2024=CARTESIAN_POINT('',(-68.75,-14.5,28.75));
#2025=CARTESIAN_POINT('',(-14.,-14.5,28.75));
#2026=CARTESIAN_POINT('',(-14.,-14.5,22.2638746292343));
#2027=CARTESIAN_POINT('',(-14.,-14.5,22.038348415311));
#2028=CARTESIAN_POINT('',(-10.75,-14.5,22.038348415311));
#2029=CARTESIAN_POINT('',(-11.1733339315552,-14.5,22.038348415311));
#2030=CARTESIAN_POINT('',(-11.1733339315552,-14.5,22.038348415311));
#2031=CARTESIAN_POINT('',(-11.3290906986842,-14.5,21.8612940637655));
#2032=CARTESIAN_POINT('',(-11.5251770039772,-14.5,21.4204066328029));
#2033=CARTESIAN_POINT('',(-11.7221785292254,-14.5,20.5059624975334));
#2034=CARTESIAN_POINT('',(-11.75,-14.5,19.8083008739924));
#2035=CARTESIAN_POINT('',(-11.75,-14.5,19.3405728739343));
#2036=CARTESIAN_POINT('',(-11.75,-14.5,19.3405728739343));
#2037=CARTESIAN_POINT('',(-11.75,-14.5,0.));
#2038=CARTESIAN_POINT('',(-11.75,0.,0.));
#2039=CARTESIAN_POINT('',(-11.75,0.,15.5));
#2040=CARTESIAN_POINT('',(1.32869789389728E-15,32.3,117.927477714059));
#2041=CARTESIAN_POINT('',(1.32869789389728E-15,32.3,30.));
#2042=CARTESIAN_POINT('',(-2.15,32.3,30.));
#2043=CARTESIAN_POINT('',(1.32869789389728E-15,-32.3,117.927477714059));
#2044=CARTESIAN_POINT('',(1.32869789389728E-15,-32.3,30.));
#2045=CARTESIAN_POINT('',(-2.15,-32.3,30.));
#2046=CARTESIAN_POINT('',(-68.75,-28.5,-86.9274777140595));
#2047=CARTESIAN_POINT('',(-19.75,-32.7122807017544,5.));
#2048=CARTESIAN_POINT('',(-23.,-32.4328947368421,5.));
#2049=CARTESIAN_POINT('',(-63.89,-28.9177894736842,15.5));
#2050=CARTESIAN_POINT('',(-66.6927103020166,-28.6768547284231,17.1453920392934));
#2051=CARTESIAN_POINT('',(-66.6927103020166,-28.6768547284231,13.8546079607066));
#2052=CARTESIAN_POINT('',(-66.6927103020166,-28.6768547284231,2.62217136096683E-17));
#2053=CARTESIAN_POINT('',(-13.8072896979834,-33.2231452715769,31.));
#2054=CARTESIAN_POINT('',(-13.8072896979834,-33.2231452715769,28.75));
#2055=CARTESIAN_POINT('',(-68.75,-28.5,28.75));
#2056=CARTESIAN_POINT('',(-18.0179491924311,-32.8611762974928,28.75));
#2057=CARTESIAN_POINT('',(-19.75,-32.7122807017544,26.));
#2058=CARTESIAN_POINT('',(-21.4820508075689,-32.563385106016,28.75));
#2059=CARTESIAN_POINT('',(-68.75,-28.5,28.75));
#2060=CARTESIAN_POINT('',(-66.6927103020166,-28.6768547284231,28.75));
#2061=CARTESIAN_POINT('',(-66.6927103020166,-28.6768547284231,2.62217136096683E-17));
#2062=CARTESIAN_POINT('',(-1.32869789389728E-15,32.3,147.927477714059));
#2063=CARTESIAN_POINT('',(-1.32869789389728E-15,32.3,30.));
#2064=CARTESIAN_POINT('',(4.25,32.3,30.));
#2065=CARTESIAN_POINT('',(-1.32869789389728E-15,32.3,30.));
#2066=CARTESIAN_POINT('',(-1.32869789389728E-15,-32.3,147.927477714059));
#2067=CARTESIAN_POINT('',(-1.32869789389728E-15,-32.3,30.));
#2068=CARTESIAN_POINT('',(4.25,-32.3,30.));
#2069=CARTESIAN_POINT('',(-1.32869789389728E-15,-32.3,30.));
#2070=CARTESIAN_POINT('',(-9.49999999999999,-35.65,41.));
#2071=CARTESIAN_POINT('',(-9.49999999999999,-35.65,4.));
#2072=CARTESIAN_POINT('',(-9.49999999999999,-35.65,33.));
#2073=CARTESIAN_POINT('',(-9.49999999999999,-29.9,33.));
#2074=CARTESIAN_POINT('',(-9.49999999999999,-29.9,38.75));
#2075=CARTESIAN_POINT('',(-9.49999999999999,-37.9,38.75));
#2076=CARTESIAN_POINT('',(-9.49999999999999,29.9,38.75));
#2077=CARTESIAN_POINT('',(-9.49999999999999,29.9,33.));
#2078=CARTESIAN_POINT('',(-9.49999999999999,35.65,33.));
#2079=CARTESIAN_POINT('',(-9.49999999999999,35.65,41.));
#2080=CARTESIAN_POINT('',(-9.49999999999999,35.65,4.));
#2081=CARTESIAN_POINT('',(9.5,35.65,41.));
#2082=CARTESIAN_POINT('',(9.5,35.65,33.));
#2083=CARTESIAN_POINT('',(9.5,29.9,33.));
#2084=CARTESIAN_POINT('',(9.5,29.9,38.75));
#2085=CARTESIAN_POINT('',(9.5,37.9,38.75));
#2086=CARTESIAN_POINT('',(9.5,-29.9,38.75));
#2087=CARTESIAN_POINT('',(9.5,-29.9,33.));
#2088=CARTESIAN_POINT('',(9.5,-35.65,33.));
#2089=CARTESIAN_POINT('',(9.5,-35.65,41.));
#2090=CARTESIAN_POINT('',(-63.89,-143.42747771406,15.5));
#2091=CARTESIAN_POINT('',(-63.89,-25.5,15.5));
#2092=CARTESIAN_POINT('',(-63.89,-25.5,18.75));
#2093=CARTESIAN_POINT('',(-66.6927103020166,-28.6768547284231,17.1453920392934));
#2094=CARTESIAN_POINT('',(-66.9867928119463,-28.6515739512537,16.6444609173848));
#2095=CARTESIAN_POINT('',(-67.2932325380886,-28.5327857164812,15.503519445354));
#2096=CARTESIAN_POINT('',(-66.9867402544269,-28.6515784693563,14.3554495577498));
#2097=CARTESIAN_POINT('',(-66.6927103020166,-28.6768547284231,13.8546079607066));
#2098=CARTESIAN_POINT('',(-63.89,-25.5,15.5));
#2099=CARTESIAN_POINT('',(-19.75,-143.42747771406,26.));
#2100=CARTESIAN_POINT('',(-19.75,-25.5,26.));
#2101=CARTESIAN_POINT('',(-19.75,-25.5,29.25));
#2102=CARTESIAN_POINT('',(-18.0179491924311,-32.8611762974928,28.75));
#2103=CARTESIAN_POINT('',(-18.5388858758111,-32.8163940212022,29.0781050193238));
#2104=CARTESIAN_POINT('',(-19.7353814303916,-32.6006082516916,29.4220049715342));
#2105=CARTESIAN_POINT('',(-20.9615141731747,-32.6081329921306,29.0778530538079));
#2106=CARTESIAN_POINT('',(-21.4820508075689,-32.563385106016,28.75));
#2107=CARTESIAN_POINT('',(-19.75,-25.5,26.));
#2108=CARTESIAN_POINT('',(-19.75,-143.42747771406,5.));
#2109=CARTESIAN_POINT('',(-19.75,-25.5,5.));
#2110=CARTESIAN_POINT('',(-19.75,-25.5,8.25));
#2111=CARTESIAN_POINT('',(-19.75,-25.5,5.));
#2112=CARTESIAN_POINT('',(-3.74999999999999,37.9,4.));
#2113=CARTESIAN_POINT('',(-3.74999999999999,35.15,4.));
#2114=CARTESIAN_POINT('',(-3.74999999999999,35.15,1.75));
#2115=CARTESIAN_POINT('',(-3.74999999999999,37.9,1.75));
#2116=CARTESIAN_POINT('',(-3.74999999999999,32.9,4.));
#2117=CARTESIAN_POINT('',(-3.74999999999999,32.9,1.75));
#2118=CARTESIAN_POINT('',(-5.99999999999999,32.9,1.75));
#2119=CARTESIAN_POINT('',(-5.99999999999999,32.9,0.));
#2120=CARTESIAN_POINT('',(-9.49999999999999,35.65,4.));
#2121=CARTESIAN_POINT('',(-5.99999999999999,35.65,4.));
#2122=CARTESIAN_POINT('',(-5.99999999999999,35.15,4.));
#2123=CARTESIAN_POINT('',(-9.49999999999999,35.15,4.));
#2124=CARTESIAN_POINT('',(-11.75,-33.4,4.));
#2125=CARTESIAN_POINT('',(-6.,-33.4,4.));
#2126=CARTESIAN_POINT('',(-6.,-33.4,1.75));
#2127=CARTESIAN_POINT('',(-11.75,-33.4,1.75));
#2128=CARTESIAN_POINT('',(-13.106254228762,-33.4,1.75));
#2129=CARTESIAN_POINT('',(-13.106254228762,-33.4,1.75));
#2130=CARTESIAN_POINT('',(-3.75,-33.4,4.));
#2131=CARTESIAN_POINT('',(-3.75,-33.4,1.75));
#2132=CARTESIAN_POINT('',(-3.75,-35.65,1.75));
#2133=CARTESIAN_POINT('',(-3.75,-35.65,0.));
#2134=CARTESIAN_POINT('',(-9.49999999999999,-35.65,4.));
#2135=CARTESIAN_POINT('',(-9.49999999999999,-35.65,4.));
#2136=CARTESIAN_POINT('',(-6.,-35.65,4.));
#2137=CARTESIAN_POINT('',(-6.,-35.65,4.));
#2138=CARTESIAN_POINT('',(-66.5,-16.75,0.));
#2139=CARTESIAN_POINT('',(-66.5,-16.75,28.75));
#2140=CARTESIAN_POINT('',(-66.5,-16.75,28.75));
#2141=CARTESIAN_POINT('',(-66.5,-16.75,28.75));
#2142=CARTESIAN_POINT('',(-66.5,-16.75,28.75));
#2143=CARTESIAN_POINT('',(-66.5,-26.4351226437403,3.91945537097626E-15));
#2144=CARTESIAN_POINT('',(-66.5,-26.4351226437402,28.75));
#2145=CARTESIAN_POINT('',(-66.5,-14.5,28.75));
#2146=CARTESIAN_POINT('',(-66.5,-26.4351226437403,28.75));
#2147=CARTESIAN_POINT('',(-68.75,-16.75,28.75));
#2148=CARTESIAN_POINT('',(-14.,-16.75,28.75));
#2149=CARTESIAN_POINT('',(-14.,-12.25,41.));
#2150=CARTESIAN_POINT('',(-13.3366750419296,-14.4,22.4742383096651));
#2151=CARTESIAN_POINT('',(-13.5561660049785,-14.467718062261,22.3344180091159));
#2152=CARTESIAN_POINT('',(-13.7780990950422,-14.5,22.1862820674559));
#2153=CARTESIAN_POINT('',(-13.9999999999999,-14.5,22.038348415311));
#2154=CARTESIAN_POINT('',(-14.,-12.25,28.75));
#2155=CARTESIAN_POINT('',(-66.5,-26.4351226437402,28.75));
#2156=CARTESIAN_POINT('',(-66.5,-26.4351226437402,28.75));
#2157=CARTESIAN_POINT('',(-14.,-16.75,28.75));
#2158=CARTESIAN_POINT('',(-14.,-16.75,33.25));
#2159=CARTESIAN_POINT('',(-69.751969824228,-26.155567343061,28.75));
#2160=CARTESIAN_POINT('',(-14.,-30.9482805384771,28.75));
#2161=CARTESIAN_POINT('',(-14.,-37.9,33.25));
#2162=CARTESIAN_POINT('',(-14.,-30.9482805384771,33.25));
#2163=CARTESIAN_POINT('',(-13.8072896979834,-33.2231452715769,28.75));
#2164=CARTESIAN_POINT('',(-11.75,-33.4,28.75));
#2165=CARTESIAN_POINT('',(-11.75,-35.4648773562597,28.75));
#2166=CARTESIAN_POINT('',(-13.8072896979874,-33.2231452715765,29.3390486322459));
#2167=CARTESIAN_POINT('',(-11.7500000000031,-33.4000000000049,29.3855198605007));
#2168=CARTESIAN_POINT('',(-11.75,-35.4648773562679,29.9280972644939));
#2169=CARTESIAN_POINT('',(-13.8490473482417,-32.7302136279525,30.5124561992165));
#2170=CARTESIAN_POINT('',(-11.7500000000002,-32.8111444161606,30.6570077720954));
#2171=CARTESIAN_POINT('',(-11.75,-34.486193454485,32.2749123984361));
#2172=CARTESIAN_POINT('',(-13.9495485600873,-31.5438387426548,31.));
#2173=CARTESIAN_POINT('',(-11.7499999999964,-31.5372357125843,31.0498920819665));
#2174=CARTESIAN_POINT('',(-11.75,-32.1307228396293,33.2499999999918));
#2175=CARTESIAN_POINT('',(-14.,-30.9482805384771,31.));
#2176=CARTESIAN_POINT('',(-11.75,-30.9482805384771,31.));
#2177=CARTESIAN_POINT('',(-11.75,-30.9482805384771,33.25));
#2178=CARTESIAN_POINT('',(-14.,-35.4648773562597,28.75));
#2179=CARTESIAN_POINT('',(-14.,-35.4648773562598,-86.9274777140595));
#2180=CARTESIAN_POINT('',(-13.106254228762,-33.4,1.75));
#2181=CARTESIAN_POINT('',(-13.106254228762,-33.4,2.0604091082511));
#2182=CARTESIAN_POINT('',(-12.8126750160591,-33.5245428323805,2.61379948636665));
#2183=CARTESIAN_POINT('',(-12.3112945165651,-33.9241767187555,3.26112032792361));
#2184=CARTESIAN_POINT('',(-11.8806943690535,-34.5670604467314,3.78619953681624));
#2185=CARTESIAN_POINT('',(-11.75,-35.1571281543686,3.96696468565529));
#2186=CARTESIAN_POINT('',(-11.75,-35.4648773562598,3.99237142480335));
#2187=CARTESIAN_POINT('',(-6.,-35.65,4.));
#2188=CARTESIAN_POINT('',(-6.,-35.65,1.75));
#2189=CARTESIAN_POINT('',(-9.49999999999999,-35.65,1.75));
#2190=CARTESIAN_POINT('',(-6.,-35.65,1.75));
#2191=CARTESIAN_POINT('',(-6.,-35.65,1.75));
#2192=CARTESIAN_POINT('',(-6.,-35.65,1.75));
#2193=CARTESIAN_POINT('',(-6.,-35.65,1.75));
#2194=CARTESIAN_POINT('',(-5.99999999999999,35.15,4.));
#2195=CARTESIAN_POINT('',(-5.99999999999999,35.15,1.75));
#2196=CARTESIAN_POINT('',(-5.99999999999999,35.65,1.75));
#2197=CARTESIAN_POINT('',(-5.99999999999999,35.15,1.75));
#2198=CARTESIAN_POINT('',(-5.99999999999999,35.15,1.75));
#2199=CARTESIAN_POINT('',(-5.99999999999999,35.15,1.75));
#2200=CARTESIAN_POINT('',(-9.49999999999999,35.15,1.75));
#2201=CARTESIAN_POINT('',(-14.,-12.25,41.));
#2202=CARTESIAN_POINT('',(-13.3366750419289,-14.4,8.5257616903349));
#2203=CARTESIAN_POINT('',(-13.5561660049779,-14.4677180622611,8.6655819908843));
#2204=CARTESIAN_POINT('',(-13.7780990950422,-14.5,8.81371793254371));
#2205=CARTESIAN_POINT('',(-13.9999999999999,-14.5,8.96165158468897));
#2206=CARTESIAN_POINT('',(-10.75,0.,15.5));
#2207=CARTESIAN_POINT('',(-11.1733339315552,-14.5,22.038348415311));
#2208=CARTESIAN_POINT('',(-11.0357842091285,-14.5,22.1947061605212));
#2209=CARTESIAN_POINT('',(-10.8928057081287,-14.4642889872874,22.34149816288));
#2210=CARTESIAN_POINT('',(-10.75,-14.4,22.4742383096651));
#2211=CARTESIAN_POINT('',(-11.1733339315676,-14.5,8.96165158468897));
#2212=CARTESIAN_POINT('',(-11.035784209143,-14.5,8.80529383947662));
#2213=CARTESIAN_POINT('',(-10.8928057081303,-14.4642889872867,8.65850183711854));
#2214=CARTESIAN_POINT('',(-10.75,-14.4,8.5257616903349));
#2215=CARTESIAN_POINT('',(-77.5746326608736,-13.5,22.038348415311));
#2216=CARTESIAN_POINT('',(-77.5746326608736,-13.5,8.96165158468897));
#2217=MECHANICAL_DESIGN_GEOMETRIC_PRESENTATION_REPRESENTATION('',(#1233),
#2218);
#2218=(
GEOMETRIC_REPRESENTATION_CONTEXT(3)
GLOBAL_UNCERTAINTY_ASSIGNED_CONTEXT((#2219))
GLOBAL_UNIT_ASSIGNED_CONTEXT((#2222,#2221,#2220))
REPRESENTATION_CONTEXT('blaze_ace2_adapter','TOP_LEVEL_ASSEMBLY_PART')
);
#2219=UNCERTAINTY_MEASURE_WITH_UNIT(LENGTH_MEASURE(0.005),#2222,
'DISTANCE_ACCURACY_VALUE','Maximum Tolerance applied to model');
#2220=(
NAMED_UNIT(*)
SI_UNIT($,.STERADIAN.)
SOLID_ANGLE_UNIT()
);
#2221=(
NAMED_UNIT(*)
PLANE_ANGLE_UNIT()
SI_UNIT($,.RADIAN.)
);
#2222=(
LENGTH_UNIT()
NAMED_UNIT(*)
SI_UNIT(.MILLI.,.METRE.)
);
#2223=PRODUCT_DEFINITION_SHAPE('','',#2224);
#2224=PRODUCT_DEFINITION('','',#2226,#2225);
#2225=PRODUCT_DEFINITION_CONTEXT('',#2232,'design');
#2226=PRODUCT_DEFINITION_FORMATION_WITH_SPECIFIED_SOURCE('','',#2228,
 .NOT_KNOWN.);
#2227=PRODUCT_RELATED_PRODUCT_CATEGORY('','',(#2228));
#2228=PRODUCT('blaze_ace2_adapter','blaze_ace2_adapter',
'blaze_ace2_adapter',(#2230));
#2229=PRODUCT_CATEGORY('','');
#2230=PRODUCT_CONTEXT('',#2232,'mechanical');
#2231=APPLICATION_PROTOCOL_DEFINITION('international standard',
'automotive_design',2010,#2232);
#2232=APPLICATION_CONTEXT(
'core data for automotive mechanical design processes');
ENDSEC;
END-ISO-10303-21;
