<?xml version="1.0" encoding="UTF-8"?>
<svg id="Layer_2" data-name="Layer 2" xmlns="http://www.w3.org/2000/svg" viewBox="0 0 649.82 360.69">
  <defs>
    <style>
      .cls-1 {
        fill: #231f20;
      }
    </style>
  </defs>
  <g id="JU_SE" data-name="JU SE">
    <g>
      <g>
        <path class="cls-1" d="M316.55,184.59v-96.76c0-7.69-6.24-13.93-13.93-13.93h-51.33s0,50.33,0,50.33c0,33.34,27.03,60.37,60.37,60.37h4.9Z"/>
        <path class="cls-1" d="M391.94,57.73c0-7.69-6.24-13.93-13.93-13.93h-51.33s0,140.79,0,140.79h4.89c33.34,0,60.37-27.03,60.37-60.37V57.73Z"/>
        <path class="cls-1" d="M391.94,19.74c0,7.69-6.24,13.93-13.93,13.93h-51.33s0-19.74,0-19.74c0-7.69,6.24-13.93,13.93-13.93h52.41c.07,0,.14.06.14.14,0,.05-.03.1-.07.12h0c-.64.35-1.09,1.01-1.13,1.78v17.7Z"/>
      </g>
      <g>
        <path class="cls-1" d="M15.02,257.96v20.11c0,4.21-2.03,6.73-5.42,6.73-2.71,0-4.52-1.14-6.45-4.06l-.22-.33-2.93,2.52.15.25c2.19,3.58,5.35,5.39,9.4,5.39,5.88,0,9.54-4.04,9.54-10.55v-20.07h-4.07Z"/>
        <g>
          <rect class="cls-1" x="47.73" y="251.35" width="4.49" height="4.7"/>
          <path class="cls-1" d="M46.31,257.46c-8.65,0-15.43,6.87-15.43,15.64s6.6,15.56,15.35,15.56,15.43-6.87,15.43-15.64-6.6-15.56-15.35-15.56ZM57.51,273.1c0,6.72-4.81,11.79-11.19,11.79s-11.28-5.1-11.28-11.87,4.81-11.79,11.19-11.79,11.28,5.1,11.28,11.87Z"/>
          <rect class="cls-1" x="40.32" y="251.35" width="4.49" height="4.7"/>
        </g>
        <polygon class="cls-1" points="95.02 257.96 95.02 280.94 76.96 257.96 73.33 257.96 73.33 288.15 77.27 288.15 77.27 264.63 95.69 288.02 95.79 288.15 98.97 288.15 98.97 257.96 95.02 257.96"/>
        <polygon class="cls-1" points="126.01 271.23 139.02 257.96 133.74 257.96 117.3 275.06 117.3 257.96 113.27 257.96 113.27 288.15 117.3 288.15 117.3 280.03 123.2 274.05 134.39 288.15 139.46 288.15 126.01 271.23"/>
        <g>
          <rect class="cls-1" x="155" y="251.35" width="4.49" height="4.7"/>
          <rect class="cls-1" x="162.42" y="251.35" width="4.49" height="4.7"/>
          <path class="cls-1" d="M161,257.46c-8.65,0-15.43,6.87-15.43,15.64s6.6,15.56,15.35,15.56,15.43-6.87,15.43-15.64-6.6-15.56-15.35-15.56ZM172.2,273.1c0,6.72-4.81,11.79-11.19,11.79s-11.28-5.1-11.28-11.87,4.81-11.79,11.19-11.79,11.28,5.1,11.28,11.87Z"/>
        </g>
        <path class="cls-1" d="M199.98,257.96h-11.39v30.19h4.03v-10.41h6.81c5.94,0,11.94-3.1,11.94-10.04,0-5.92-4.47-9.75-11.39-9.75ZM207.3,267.83c0,3.75-3.04,6.18-7.74,6.18h-6.94v-12.28h7.11c4.81,0,7.57,2.22,7.57,6.1Z"/>
        <rect class="cls-1" x="223.07" y="257.96" width="4.03" height="30.19"/>
        <polygon class="cls-1" points="263.15 257.96 263.15 280.94 245.09 257.96 241.45 257.96 241.45 288.15 245.39 288.15 245.39 264.63 263.81 288.02 263.92 288.15 267.09 288.15 267.09 257.96 263.15 257.96"/>
        <path class="cls-1" d="M294.54,271.7v3.69h8.97v6.81c-2.2,1.74-5.24,2.77-8.16,2.77-6.77,0-11.32-4.8-11.32-11.95,0-6.61,4.77-11.79,10.86-11.79,4.37,0,6.78,1.58,8.74,3.29l.27.23,2.61-3.07-.27-.23c-3.37-2.84-6.62-4-11.22-4-8.49,0-15.14,6.87-15.14,15.64s6.31,15.56,15.35,15.56c6.02,0,10.15-2.88,12.07-4.6l.12-.1v-12.26h-12.88Z"/>
        <path class="cls-1" d="M357.17,257.96v17.5c0,6.05-3.03,9.38-8.54,9.38s-8.67-3.5-8.67-9.59v-17.29h-4.03v17.5c0,8.12,4.83,13.16,12.61,13.16s12.65-5.01,12.65-13.41v-17.25h-4.03Z"/>
        <polygon class="cls-1" points="396.3 257.96 396.3 280.94 378.24 257.96 374.6 257.96 374.6 288.15 378.55 288.15 378.55 264.63 396.97 288.02 397.07 288.15 400.25 288.15 400.25 257.96 396.3 257.96"/>
        <rect class="cls-1" x="414.67" y="257.96" width="4.03" height="30.19"/>
        <polygon class="cls-1" points="454.83 257.96 444.53 282.8 434.28 257.96 429.8 257.96 442.69 288.15 442.78 288.37 446.2 288.37 459.18 257.96 454.83 257.96"/>
        <polygon class="cls-1" points="473.7 284.42 473.7 274.8 489.79 274.8 489.79 271.07 473.7 271.07 473.7 261.69 491.69 261.69 491.69 257.96 469.67 257.96 469.67 288.15 491.9 288.15 491.9 284.42 473.7 284.42"/>
        <path class="cls-1" d="M520.66,275.99c4.93-1.08,7.74-4.29,7.74-8.87,0-5.56-4.32-9.16-11.01-9.16h-13.03v30.19h4.03v-11.46h7.9l8.55,11.46h4.96l-9.15-12.17ZM524.33,267.24c0,3.5-2.84,5.76-7.23,5.76h-8.71v-11.27h8.75c4.57,0,7.19,2.01,7.19,5.51Z"/>
        <path class="cls-1" d="M551.8,271.12h0c-6.53-1.4-7.73-2.93-7.73-5.43s2.44-4.45,5.93-4.45c3.04,0,5.68.99,8.29,3.12l.28.23,2.36-3.13-.27-.21c-3.23-2.59-6.4-3.7-10.58-3.7-5.82,0-10.04,3.55-10.04,8.44,0,5.55,4.07,7.57,10.18,8.9,6.25,1.32,7.39,2.82,7.39,5.3,0,2.81-2.5,4.71-6.22,4.71s-6.67-1.18-9.88-4.08l-.27-.24-2.52,2.98.25.23c3.67,3.28,7.58,4.81,12.28,4.81,6.23,0,10.42-3.51,10.42-8.73,0-4.61-2.96-7.22-9.88-8.73Z"/>
        <rect class="cls-1" x="574.37" y="257.96" width="4.03" height="30.19"/>
        <polygon class="cls-1" points="589.31 257.96 589.31 261.74 599.21 261.74 599.21 288.15 603.28 288.15 603.28 261.74 613.18 261.74 613.18 257.96 589.31 257.96"/>
        <polygon class="cls-1" points="645.09 257.96 635.25 272.43 625.49 257.96 620.59 257.96 633.17 276.24 633.17 288.15 637.24 288.15 637.24 276.2 649.82 257.96 645.09 257.96"/>
      </g>
    </g>
    <path class="cls-1" d="M166.83,321.93c-2.48-.87-4.14-1.16-6.6-1.16-2.96,0-5.43.69-7.12,1.99-1.74,1.34-2.67,3.33-2.69,5.76,0,1.81.82,4.47,4.75,6.84.31.19.66.39,1.03.6,2.38,1.36,5.65,3.22,5.65,5.94,0,3.63-2.68,5.97-6.83,5.97-2.77,0-4.41-.84-6.31-1.82-.15-.08-.31-.16-.47-.24l-.04-.02-1.25,2.5.04.02c2.64,1.45,4.63,1.94,7.89,1.94,2.91,0,5.33-.75,6.99-2.16,1.74-1.48,2.63-3.6,2.65-6.32,0-2.41-.9-4.54-5.27-7.14-4.7-2.8-6.21-4.35-6.21-6.36,0-2.91,2.97-5.11,6.92-5.11,2.47,0,3.67.44,5.19,1.01.25.09.5.18.77.28l.05.02.88-2.46.02-.05-.05-.02Z"/>
    <path class="cls-1" d="M178.32,331.57c1.4,0,2.3.17,3.36,1.06l.04.04,1.15-1.59.03-.04-.04-.03c-1.67-1.07-2.77-1.43-4.37-1.43-2.52,0-5.08,1.53-7.02,4.2-2.03,2.79-3.16,6.46-3.18,10.34-.02,2.24.49,3.97,1.5,4.99.62.63,1.41.96,2.29.96,3.04,0,6.38-2.15,9.67-6.21l.03-.04-1.32-1.14-.03.04c-3.18,3.6-5.55,5.27-7.44,5.27-1.69,0-2.44-1.28-2.44-4.16.02-3.02.92-6.12,2.47-8.52,1.53-2.37,3.46-3.72,5.31-3.72Z"/>
    <path class="cls-1" d="M199.51,329.63c-.83,0-3.03.29-5.58,2.94-2.08,2.16-3.79,4.38-4.99,6.44l3.35-20.93v-.07s-2.17.4-2.17.4h-.04s-4.91,31.26-4.91,31.26v.06s2.11,0,2.11,0l.57-3.53c.31-1.93.99-3.92,1.89-5.44,1.06-1.83,2.69-4.01,4.34-5.84,1.43-1.59,3.52-3.21,4.74-3.21,1.13,0,1.28.87,1.28,1.71,0,.35-.07.93-.13,1.36-.02.14-.03.26-.04.35l-2.32,14.53v.06s2.11,0,2.11,0l2.33-15.18c.08-.48.13-1.12.13-1.68,0-2.3-.77-3.23-2.67-3.23Z"/>
    <path class="cls-1" d="M220.54,331.35c-1.03-1.04-2.41-1.59-3.97-1.59-2.51,0-5.02,1.32-6.89,3.63-1.95,2.41-3.03,5.62-3.05,9.06-.02,2.62.72,4.83,2.11,6.22,1.04,1.05,2.4,1.61,3.92,1.61,2.48,0,5-1.32,6.89-3.62,1.97-2.4,3.07-5.56,3.09-8.89.02-2.79-.7-5.01-2.1-6.41ZM220.38,337.63c-.04,5.21-2.98,10.83-7.65,10.83-.89,0-1.65-.32-2.27-.95-1.04-1.05-1.62-2.94-1.59-5.19.04-3.75,2.61-10.74,7.39-10.74,1.08,0,1.96.35,2.64,1.03,1,1.01,1.51,2.75,1.48,5.03Z"/>
    <path class="cls-1" d="M240.75,331.35c-1.03-1.04-2.41-1.59-3.97-1.59-2.51,0-5.02,1.32-6.89,3.63-1.95,2.41-3.03,5.62-3.05,9.06-.02,2.62.72,4.83,2.11,6.22,1.04,1.05,2.4,1.61,3.92,1.61,2.48,0,5-1.32,6.89-3.62,1.97-2.4,3.07-5.56,3.09-8.89.02-2.79-.7-5.01-2.1-6.41ZM240.59,337.63c-.04,5.21-2.98,10.83-7.65,10.83-.89,0-1.65-.32-2.27-.95-1.04-1.05-1.62-2.94-1.59-5.19.04-3.75,2.61-10.74,7.39-10.74,1.08,0,1.96.35,2.64,1.03,1,1.01,1.51,2.75,1.48,5.03Z"/>
    <polygon class="cls-1" points="251.88 318.4 251.84 318.41 246.93 349.66 246.92 349.72 249.05 349.72 254.04 318.07 254.05 318 251.88 318.4"/>
    <path class="cls-1" d="M281.38,331.35c-1.03-1.04-2.41-1.59-3.97-1.59-2.51,0-5.02,1.32-6.89,3.63-1.95,2.41-3.03,5.62-3.05,9.06-.02,2.62.72,4.83,2.11,6.22,1.04,1.05,2.4,1.61,3.92,1.61,2.48,0,5-1.32,6.89-3.62,1.97-2.4,3.07-5.56,3.09-8.89.02-2.79-.7-5.01-2.1-6.41ZM281.22,337.63c-.04,5.21-2.98,10.83-7.65,10.83-.89,0-1.65-.32-2.27-.95-1.04-1.05-1.62-2.94-1.59-5.19.04-3.75,2.61-10.74,7.39-10.74,1.08,0,1.96.35,2.64,1.03,1,1.01,1.51,2.75,1.48,5.03Z"/>
    <path class="cls-1" d="M304.5,319.44c-1.54-1.18-3.17-1.77-4.85-1.77-4.14,0-7.04,2.75-7.75,7.35l-.81,5.08-3.79.3h-.04s-.28,1.56-.28,1.56h3.79l-3,19.03c-.88,5.44-2.52,7.87-5.33,7.87-1.05,0-1.97-.58-2.98-1.28l-.04-.03-1.09,1.68.04.03c1.49.95,2.52,1.43,4.03,1.43,1.91,0,3.5-.71,4.72-2.11,1.29-1.48,2.17-3.73,2.63-6.7l3.13-19.91h4.04l.32-1.82h-4.04l.59-3.73c.42-2.54.51-2.99,1.11-4.16.96-1.84,2.48-2.77,4.51-2.77,1.56,0,2.67.41,3.97,1.45l.04.03,1.06-1.46.03-.04-.04-.03Z"/>
    <polygon class="cls-1" points="329.6 323.4 329.96 321.24 315.11 321.24 310.59 349.66 310.58 349.72 325.82 349.72 326.17 347.61 326.18 347.56 313.36 347.56 315.15 336.26 325.43 336.26 325.74 334.15 325.75 334.1 315.47 334.1 317.17 323.4 329.6 323.4"/>
    <path class="cls-1" d="M344.76,329.63c-.83,0-3.03.29-5.58,2.94-2.07,2.16-3.79,4.37-4.99,6.43l1.5-8.92v-.07s-2.17.4-2.17.4h-.04s-3.06,19.26-3.06,19.26v.06s2.11,0,2.11,0l.57-3.53c.3-1.93.99-3.92,1.88-5.44,1.07-1.83,2.69-4.01,4.34-5.84,1.43-1.59,3.52-3.21,4.74-3.21,1.13,0,1.28.87,1.28,1.71,0,.35-.07.93-.13,1.36-.02.14-.03.26-.04.35l-2.32,14.53v.06s2.11,0,2.11,0l2.33-15.18c.08-.48.13-1.12.13-1.68,0-2.3-.77-3.23-2.67-3.23Z"/>
    <path class="cls-1" d="M366.78,330.44h-2.86c-.93-.7-2.56-.95-3.67-.95-1.99,0-3.9.89-5.36,2.49-1.29,1.41-2.16,3.33-2.34,5.12-.38,3.97,1.18,5.57,2.42,6.42-2.19,2.16-3.5,4.13-3.5,5.28,0,.75.28,1.66,2.48,2.05-2.28,2.17-3.68,3.83-3.68,5.43,0,1.22.67,2.33,1.9,3.12,1.3.83,3.13,1.28,5.29,1.28,2.54,0,4.94-.81,6.77-2.27,1.86-1.5,2.9-3.52,2.92-5.69,0-2.58-1.21-3.53-4.48-3.53h-6.19c-2.48,0-2.66-.44-2.66-1.15,0-.92,1.72-2.94,2.46-3.81.79.3,1.82.33,2.52.33,3.17,0,7.17-3.35,7.79-7.83.24-1.77-.08-3.3-.94-4.56h3.47l.61-1.88.02-.07-2.95.22ZM352.51,355.82c0-1.35,1.1-2.49,3.09-4.56l.2-.2h5.78c2.44,0,3.3.32,3.3,2.1,0,3.2-3.26,5.71-7.43,5.71-2.95,0-4.94-1.22-4.94-3.05ZM364.32,337.02c-.51,3.22-3.07,5.85-5.71,5.85-1.1,0-2.06-.44-2.77-1.28-.95-1.11-1.33-2.77-1.05-4.55.51-3.22,3.07-5.85,5.71-5.85,1.1,0,2.06.44,2.77,1.28.95,1.11,1.33,2.77,1.05,4.55Z"/>
    <g>
      <polygon class="cls-1" points="374.11 330.41 371.05 349.66 371.04 349.72 373.16 349.72 376.31 330.07 376.32 330 374.14 330.4 374.11 330.41"/>
      <path class="cls-1" d="M377.74,319.78c-.17-.2-.38-.3-.62-.3-.73,0-1.47,1.06-1.68,2.41-.14.86,0,1.65.35,2.08.17.2.38.3.6.3.73,0,1.47-1.06,1.68-2.41.15-.88.02-1.66-.33-2.08Z"/>
    </g>
    <path class="cls-1" d="M394.44,329.63c-.83,0-3.03.29-5.58,2.94-2.07,2.16-3.79,4.37-4.99,6.43l1.5-8.92v-.07s-2.17.4-2.17.4h-.04s-3.06,19.26-3.06,19.26v.06s2.11,0,2.11,0l.57-3.53c.3-1.93.99-3.92,1.88-5.44,1.07-1.83,2.69-4.01,4.34-5.84,1.43-1.59,3.52-3.21,4.74-3.21,1.13,0,1.28.87,1.28,1.71,0,.35-.07.93-.13,1.36-.02.14-.03.26-.04.35l-2.32,14.53v.06s2.11,0,2.11,0l2.33-15.18c.08-.48.13-1.12.13-1.68,0-2.3-.77-3.23-2.67-3.23Z"/>
    <path class="cls-1" d="M414.25,342.76l-.03.04c-2.69,3.38-5.5,5.31-7.7,5.31s-2.79-2.29-2.79-4.21c0-.55,0-.64.08-1.3l9.4-6.01c2.2-1.41,2.43-2.19,2.43-3.65,0-2.1-1.51-3.36-4.05-3.36s-5.01,1.5-6.94,4.11c-2.02,2.73-3.15,6.3-3.17,10.05-.02,2.39.48,4.13,1.51,5.17.76.77,1.82,1.16,3.14,1.16,2.64,0,5.86-2.12,9.33-6.12l.03-.04-1.2-1.11-.04-.04ZM404.06,340.71c1.19-5.66,4.04-9.3,7.28-9.3,1.31,0,2.23.83,2.23,2.01,0,.04,0,.07,0,.11,0,.25.01.59-.16,1.06l-9.35,6.12Z"/>
    <path class="cls-1" d="M432.14,342.76l-.03.04c-2.69,3.38-5.5,5.31-7.7,5.31s-2.79-2.29-2.79-4.21c0-.55,0-.64.08-1.3l9.4-6.01c2.2-1.41,2.43-2.19,2.43-3.65,0-2.1-1.51-3.36-4.05-3.36s-5.01,1.5-6.94,4.11c-2.02,2.73-3.15,6.3-3.17,10.05-.02,2.4.48,4.13,1.51,5.17.76.77,1.82,1.16,3.14,1.16,2.64,0,5.86-2.12,9.33-6.12l.03-.04-1.2-1.11-.04-.04ZM421.94,340.71c1.19-5.66,4.04-9.3,7.28-9.3,1.31,0,2.23.83,2.23,2.01,0,.04,0,.07,0,.11,0,.25.01.59-.16,1.06l-9.35,6.12Z"/>
    <path class="cls-1" d="M450.04,330.19c-.51-.3-.93-.35-1.62-.35-2.11,0-4.68,2.84-7.08,7.8l1.23-7.57v-.07s-2.12.35-2.12.35h-.04s-3.06,19.31-3.06,19.31v.06s2.11,0,2.11,0l.74-4.64c.19-1.12.35-1.82.54-2.62.07-.3.15-.62.23-.99.45-1.89,4.93-9.46,7.26-9.46.33,0,.58.04.84.13h.04s.92-1.88.92-1.88l.02-.04-.04-.02Z"/>
    <g>
      <polygon class="cls-1" points="453.73 330.41 450.67 349.66 450.66 349.72 452.79 349.72 455.93 330.07 455.94 330 453.77 330.4 453.73 330.41"/>
      <path class="cls-1" d="M457.36,319.78c-.17-.2-.38-.3-.62-.3-.73,0-1.47,1.06-1.68,2.41-.14.86,0,1.65.35,2.08.17.2.38.3.6.3.73,0,1.47-1.06,1.68-2.41.15-.88.02-1.66-.33-2.08Z"/>
    </g>
    <path class="cls-1" d="M474.21,329.63c-.83,0-3.03.29-5.58,2.94-2.07,2.16-3.79,4.37-4.99,6.43l1.5-8.92v-.07s-2.17.4-2.17.4h-.04s-3.06,19.26-3.06,19.26v.06s2.11,0,2.11,0l.57-3.53c.3-1.93.99-3.92,1.88-5.44,1.07-1.83,2.69-4.01,4.34-5.84,1.43-1.59,3.52-3.21,4.74-3.21,1.13,0,1.28.87,1.28,1.71,0,.35-.07.93-.13,1.36-.02.14-.03.26-.04.35l-2.32,14.53v.06s2.11,0,2.11,0l2.33-15.18c.08-.48.13-1.12.13-1.68,0-2.3-.77-3.23-2.67-3.23Z"/>
    <path class="cls-1" d="M496.08,330.44h-2.86c-.93-.7-2.56-.95-3.67-.95-1.99,0-3.9.89-5.36,2.49-1.29,1.41-2.16,3.33-2.34,5.12-.38,3.97,1.18,5.57,2.42,6.42-2.19,2.16-3.5,4.13-3.5,5.28,0,.75.28,1.66,2.48,2.05-2.28,2.17-3.68,3.83-3.68,5.43,0,1.22.67,2.33,1.9,3.12,1.3.83,3.13,1.28,5.29,1.28,2.54,0,4.94-.81,6.77-2.27,1.86-1.5,2.9-3.52,2.92-5.69,0-2.58-1.21-3.53-4.48-3.53h-6.19c-2.48,0-2.66-.44-2.66-1.15,0-.92,1.72-2.94,2.46-3.81.79.3,1.82.33,2.52.33,3.17,0,7.17-3.35,7.79-7.83.24-1.77-.08-3.3-.94-4.56h3.47l.61-1.88.02-.07-2.95.22ZM481.81,355.82c0-1.35,1.1-2.49,3.09-4.56l.2-.2h5.78c2.44,0,3.3.32,3.3,2.1,0,3.2-3.26,5.71-7.43,5.71-2.95,0-4.94-1.22-4.94-3.05ZM493.62,337.02c-.51,3.22-3.07,5.85-5.71,5.85-1.1,0-2.06-.44-2.77-1.28-.95-1.11-1.33-2.77-1.05-4.55.51-3.22,3.07-5.85,5.71-5.85,1.1,0,2.06.44,2.77,1.28.95,1.11,1.33,2.77,1.05,4.55Z"/>
  </g>
</svg>