ISO-10303-21;
HEADER;
/* Generated by software containing ST-Developer
 * from STEP Tools, Inc. (www.steptools.com) 
 */

FILE_DESCRIPTION(
/* description */ (''),
/* implementation_level */ '2;1');

FILE_NAME(
/* name */ 'Knob.step',
/* time_stamp */ '2026-07-13T08:43:05+02:00',
/* author */ (''),
/* organization */ (''),
/* preprocessor_version */ 'ST-DEVELOPER v20.1',
/* originating_system */ 'Autodesk Translation Framework v15.8.0.0',
/* authorisation */ '');

FILE_SCHEMA (('AUTOMOTIVE_DESIGN { 1 0 10303 214 3 1 1 }'));
ENDSEC;

DATA;
#10=MECHANICAL_DESIGN_GEOMETRIC_PRESENTATION_REPRESENTATION('',(#13),#649);
#11=SHAPE_REPRESENTATION_RELATIONSHIP('SRR','None',#656,#12);
#12=ADVANCED_BREP_SHAPE_REPRESENTATION('',(#14),#648);
#13=STYLED_ITEM('',(#665),#14);
#14=MANIFOLD_SOLID_BREP('Knob',#343);
#15=(
BOUNDED_CURVE()
B_SPLINE_CURVE(2,(#596,#597,#598),.UNSPECIFIED.,.F.,.F.)
B_SPLINE_CURVE_WITH_KNOTS((3,3),(0.568027855954807,0.7668873457507),
 .UNSPECIFIED.)
CURVE()
GEOMETRIC_REPRESENTATION_ITEM()
RATIONAL_B_SPLINE_CURVE((8.55555555555548,9.80379428875261,10.9999999999999))
REPRESENTATION_ITEM('')
);
#16=(
BOUNDED_CURVE()
B_SPLINE_CURVE(2,(#614,#615,#616),.UNSPECIFIED.,.F.,.F.)
B_SPLINE_CURVE_WITH_KNOTS((3,3),(9.91019090628061,10.1090503960765),
 .UNSPECIFIED.)
CURVE()
GEOMETRIC_REPRESENTATION_ITEM()
RATIONAL_B_SPLINE_CURVE((11.0000000000004,9.80379428875288,8.55555555555552))
REPRESENTATION_ITEM('')
);
#17=(
BOUNDED_CURVE()
B_SPLINE_CURVE(2,(#621,#622,#623),.UNSPECIFIED.,.F.,.F.)
B_SPLINE_CURVE_WITH_KNOTS((3,3),(9.91019090628062,10.1090503960765),
 .UNSPECIFIED.)
CURVE()
GEOMETRIC_REPRESENTATION_ITEM()
RATIONAL_B_SPLINE_CURVE((11.0000000000005,9.80379428875296,8.55555555555556))
REPRESENTATION_ITEM('')
);
#18=(
BOUNDED_CURVE()
B_SPLINE_CURVE(2,(#632,#633,#634),.UNSPECIFIED.,.F.,.F.)
B_SPLINE_CURVE_WITH_KNOTS((3,3),(0.568027855954794,0.766887345750684),
 .UNSPECIFIED.)
CURVE()
GEOMETRIC_REPRESENTATION_ITEM()
RATIONAL_B_SPLINE_CURVE((8.55555555555552,9.80379428875266,11.))
REPRESENTATION_ITEM('')
);
#19=FACE_BOUND('',#108,.T.);
#20=CYLINDRICAL_SURFACE('',#372,15.);
#21=CYLINDRICAL_SURFACE('',#380,5.);
#22=CYLINDRICAL_SURFACE('',#382,5.);
#23=CYLINDRICAL_SURFACE('',#392,3.);
#24=CYLINDRICAL_SURFACE('',#395,7.);
#25=CYLINDRICAL_SURFACE('',#397,3.);
#26=CONICAL_SURFACE('',#369,13.5,0.785398163397449);
#27=CONICAL_SURFACE('',#375,14.,0.785398163397448);
#28=CONICAL_SURFACE('',#385,3.5,0.785398163397451);
#29=CONICAL_SURFACE('',#389,3.5,0.78539816339745);
#30=LINE('',#532,#50);
#31=LINE('',#536,#51);
#32=LINE('',#540,#52);
#33=LINE('',#545,#53);
#34=LINE('',#576,#54);
#35=LINE('',#580,#55);
#36=LINE('',#585,#56);
#37=LINE('',#592,#57);
#38=LINE('',#594,#58);
#39=LINE('',#599,#59);
#40=LINE('',#602,#60);
#41=LINE('',#606,#61);
#42=LINE('',#609,#62);
#43=LINE('',#612,#63);
#44=LINE('',#617,#64);
#45=LINE('',#627,#65);
#46=LINE('',#637,#66);
#47=LINE('',#639,#67);
#48=LINE('',#641,#68);
#49=LINE('',#643,#69);
#50=VECTOR('',#408,10.);
#51=VECTOR('',#411,10.);
#52=VECTOR('',#414,10.);
#53=VECTOR('',#419,10.);
#54=VECTOR('',#432,13.5);
#55=VECTOR('',#437,15.);
#56=VECTOR('',#444,14.);
#57=VECTOR('',#453,10.);
#58=VECTOR('',#454,10.);
#59=VECTOR('',#455,10.);
#60=VECTOR('',#458,10.);
#61=VECTOR('',#463,10.);
#62=VECTOR('',#466,10.);
#63=VECTOR('',#469,10.);
#64=VECTOR('',#470,10.);
#65=VECTOR('',#479,10.);
#66=VECTOR('',#488,10.);
#67=VECTOR('',#491,10.);
#68=VECTOR('',#494,10.);
#69=VECTOR('',#497,7.);
#70=PLANE('',#360);
#71=PLANE('',#374);
#72=PLANE('',#377);
#73=PLANE('',#379);
#74=PLANE('',#384);
#75=PLANE('',#388);
#76=PLANE('',#393);
#77=PLANE('',#394);
#78=PLANE('',#396);
#79=FACE_OUTER_BOUND('',#100,.T.);
#80=FACE_OUTER_BOUND('',#101,.T.);
#81=FACE_OUTER_BOUND('',#102,.T.);
#82=FACE_OUTER_BOUND('',#103,.T.);
#83=FACE_OUTER_BOUND('',#104,.T.);
#84=FACE_OUTER_BOUND('',#105,.T.);
#85=FACE_OUTER_BOUND('',#106,.T.);
#86=FACE_OUTER_BOUND('',#107,.T.);
#87=FACE_OUTER_BOUND('',#109,.T.);
#88=FACE_OUTER_BOUND('',#110,.T.);
#89=FACE_OUTER_BOUND('',#111,.T.);
#90=FACE_OUTER_BOUND('',#112,.T.);
#91=FACE_OUTER_BOUND('',#113,.T.);
#92=FACE_OUTER_BOUND('',#114,.T.);
#93=FACE_OUTER_BOUND('',#115,.T.);
#94=FACE_OUTER_BOUND('',#116,.T.);
#95=FACE_OUTER_BOUND('',#117,.T.);
#96=FACE_OUTER_BOUND('',#118,.T.);
#97=FACE_OUTER_BOUND('',#119,.T.);
#98=FACE_OUTER_BOUND('',#120,.T.);
#99=FACE_OUTER_BOUND('',#121,.T.);
#100=EDGE_LOOP('',(#224,#225,#226,#227));
#101=EDGE_LOOP('',(#228,#229,#230,#231,#232,#233,#234,#235,#236));
#102=EDGE_LOOP('',(#237,#238,#239,#240));
#103=EDGE_LOOP('',(#241,#242,#243,#244));
#104=EDGE_LOOP('',(#245,#246,#247,#248));
#105=EDGE_LOOP('',(#249));
#106=EDGE_LOOP('',(#250,#251,#252,#253));
#107=EDGE_LOOP('',(#254));
#108=EDGE_LOOP('',(#255));
#109=EDGE_LOOP('',(#256,#257,#258,#259,#260,#261));
#110=EDGE_LOOP('',(#262,#263,#264,#265));
#111=EDGE_LOOP('',(#266,#267,#268,#269));
#112=EDGE_LOOP('',(#270,#271,#272,#273,#274,#275));
#113=EDGE_LOOP('',(#276,#277,#278,#279));
#114=EDGE_LOOP('',(#280,#281,#282,#283));
#115=EDGE_LOOP('',(#284,#285,#286,#287));
#116=EDGE_LOOP('',(#288,#289,#290,#291));
#117=EDGE_LOOP('',(#292,#293,#294,#295,#296,#297));
#118=EDGE_LOOP('',(#298,#299,#300,#301,#302,#303));
#119=EDGE_LOOP('',(#304,#305,#306,#307,#308,#309,#310,#311));
#120=EDGE_LOOP('',(#312,#313,#314,#315));
#121=EDGE_LOOP('',(#316,#317,#318,#319));
#122=CIRCLE('',#358,7.);
#123=CIRCLE('',#359,5.);
#124=CIRCLE('',#361,7.);
#125=CIRCLE('',#362,3.);
#126=CIRCLE('',#363,7.);
#127=CIRCLE('',#364,7.);
#128=CIRCLE('',#365,3.);
#129=CIRCLE('',#367,7.);
#130=CIRCLE('',#368,5.);
#131=CIRCLE('',#370,12.);
#132=CIRCLE('',#371,15.);
#133=CIRCLE('',#373,15.);
#134=CIRCLE('',#376,13.);
#135=CIRCLE('',#378,7.);
#136=CIRCLE('',#381,5.);
#137=CIRCLE('',#383,5.);
#138=CIRCLE('',#386,3.);
#139=CIRCLE('',#387,4.);
#140=CIRCLE('',#390,3.);
#141=CIRCLE('',#391,4.);
#142=B_SPLINE_CURVE_WITH_KNOTS('',3,(#506,#507,#508,#509,#510,#511,#512,
#513,#514,#515),.UNSPECIFIED.,.F.,.F.,(4,2,2,2,4),(0.593194234938107,0.667210938890508,
0.74141358768693,0.815631024284182,0.889890406356779),.UNSPECIFIED.);
#143=B_SPLINE_CURVE_WITH_KNOTS('',3,(#519,#520,#521,#522,#523,#524,#525,
#526,#527,#528),.UNSPECIFIED.,.F.,.F.,(4,2,2,2,4),(0.2964980730576,0.370757455130197,
0.444974891727449,0.519177540523871,0.593194244476272),.UNSPECIFIED.);
#144=B_SPLINE_CURVE_WITH_KNOTS('',3,(#549,#550,#551,#552,#553,#554,#555,
#556,#557,#558),.UNSPECIFIED.,.F.,.F.,(4,2,2,2,4),(0.593194234938107,0.667210938890508,
0.74141358768693,0.815631024284182,0.889890406356779),.UNSPECIFIED.);
#145=B_SPLINE_CURVE_WITH_KNOTS('',3,(#561,#562,#563,#564,#565,#566,#567,
#568,#569,#570),.UNSPECIFIED.,.F.,.F.,(4,2,2,2,4),(0.2964980730576,0.370757455130197,
0.444974891727449,0.519177540523871,0.593194244476272),.UNSPECIFIED.);
#146=VERTEX_POINT('',#504);
#147=VERTEX_POINT('',#505);
#148=VERTEX_POINT('',#516);
#149=VERTEX_POINT('',#518);
#150=VERTEX_POINT('',#531);
#151=VERTEX_POINT('',#533);
#152=VERTEX_POINT('',#535);
#153=VERTEX_POINT('',#537);
#154=VERTEX_POINT('',#539);
#155=VERTEX_POINT('',#541);
#156=VERTEX_POINT('',#544);
#157=VERTEX_POINT('',#548);
#158=VERTEX_POINT('',#560);
#159=VERTEX_POINT('',#573);
#160=VERTEX_POINT('',#575);
#161=VERTEX_POINT('',#579);
#162=VERTEX_POINT('',#584);
#163=VERTEX_POINT('',#588);
#164=VERTEX_POINT('',#591);
#165=VERTEX_POINT('',#593);
#166=VERTEX_POINT('',#595);
#167=VERTEX_POINT('',#601);
#168=VERTEX_POINT('',#605);
#169=VERTEX_POINT('',#607);
#170=VERTEX_POINT('',#611);
#171=VERTEX_POINT('',#613);
#172=VERTEX_POINT('',#619);
#173=VERTEX_POINT('',#620);
#174=VERTEX_POINT('',#629);
#175=VERTEX_POINT('',#631);
#176=EDGE_CURVE('',#146,#147,#142,.T.);
#177=EDGE_CURVE('',#148,#147,#122,.T.);
#178=EDGE_CURVE('',#148,#149,#143,.T.);
#179=EDGE_CURVE('',#149,#146,#123,.T.);
#180=EDGE_CURVE('',#148,#150,#30,.T.);
#181=EDGE_CURVE('',#151,#148,#124,.T.);
#182=EDGE_CURVE('',#152,#151,#31,.T.);
#183=EDGE_CURVE('',#153,#152,#125,.T.);
#184=EDGE_CURVE('',#154,#153,#32,.T.);
#185=EDGE_CURVE('',#155,#154,#126,.T.);
#186=EDGE_CURVE('',#147,#155,#127,.T.);
#187=EDGE_CURVE('',#156,#147,#33,.T.);
#188=EDGE_CURVE('',#150,#156,#128,.T.);
#189=EDGE_CURVE('',#157,#151,#144,.T.);
#190=EDGE_CURVE('',#154,#151,#129,.T.);
#191=EDGE_CURVE('',#154,#158,#145,.T.);
#192=EDGE_CURVE('',#158,#157,#130,.T.);
#193=EDGE_CURVE('',#159,#159,#131,.T.);
#194=EDGE_CURVE('',#159,#160,#34,.T.);
#195=EDGE_CURVE('',#160,#160,#132,.T.);
#196=EDGE_CURVE('',#160,#161,#35,.T.);
#197=EDGE_CURVE('',#161,#161,#133,.T.);
#198=EDGE_CURVE('',#161,#162,#36,.T.);
#199=EDGE_CURVE('',#162,#162,#134,.T.);
#200=EDGE_CURVE('',#163,#163,#135,.T.);
#201=EDGE_CURVE('',#164,#157,#37,.T.);
#202=EDGE_CURVE('',#165,#164,#38,.T.);
#203=EDGE_CURVE('',#166,#165,#15,.F.);
#204=EDGE_CURVE('',#152,#166,#39,.T.);
#205=EDGE_CURVE('',#167,#158,#40,.T.);
#206=EDGE_CURVE('',#164,#167,#136,.T.);
#207=EDGE_CURVE('',#168,#149,#41,.T.);
#208=EDGE_CURVE('',#169,#168,#137,.T.);
#209=EDGE_CURVE('',#169,#146,#42,.T.);
#210=EDGE_CURVE('',#170,#150,#43,.T.);
#211=EDGE_CURVE('',#171,#170,#16,.F.);
#212=EDGE_CURVE('',#168,#171,#44,.T.);
#213=EDGE_CURVE('',#172,#173,#17,.F.);
#214=EDGE_CURVE('',#173,#166,#138,.T.);
#215=EDGE_CURVE('',#165,#172,#139,.T.);
#216=EDGE_CURVE('',#167,#172,#45,.T.);
#217=EDGE_CURVE('',#170,#174,#140,.T.);
#218=EDGE_CURVE('',#174,#175,#18,.F.);
#219=EDGE_CURVE('',#175,#171,#141,.T.);
#220=EDGE_CURVE('',#156,#174,#46,.T.);
#221=EDGE_CURVE('',#175,#169,#47,.T.);
#222=EDGE_CURVE('',#173,#153,#48,.T.);
#223=EDGE_CURVE('',#163,#155,#49,.T.);
#224=ORIENTED_EDGE('',*,*,#176,.T.);
#225=ORIENTED_EDGE('',*,*,#177,.F.);
#226=ORIENTED_EDGE('',*,*,#178,.T.);
#227=ORIENTED_EDGE('',*,*,#179,.T.);
#228=ORIENTED_EDGE('',*,*,#180,.F.);
#229=ORIENTED_EDGE('',*,*,#181,.F.);
#230=ORIENTED_EDGE('',*,*,#182,.F.);
#231=ORIENTED_EDGE('',*,*,#183,.F.);
#232=ORIENTED_EDGE('',*,*,#184,.F.);
#233=ORIENTED_EDGE('',*,*,#185,.F.);
#234=ORIENTED_EDGE('',*,*,#186,.F.);
#235=ORIENTED_EDGE('',*,*,#187,.F.);
#236=ORIENTED_EDGE('',*,*,#188,.F.);
#237=ORIENTED_EDGE('',*,*,#189,.T.);
#238=ORIENTED_EDGE('',*,*,#190,.F.);
#239=ORIENTED_EDGE('',*,*,#191,.T.);
#240=ORIENTED_EDGE('',*,*,#192,.T.);
#241=ORIENTED_EDGE('',*,*,#193,.T.);
#242=ORIENTED_EDGE('',*,*,#194,.T.);
#243=ORIENTED_EDGE('',*,*,#195,.T.);
#244=ORIENTED_EDGE('',*,*,#194,.F.);
#245=ORIENTED_EDGE('',*,*,#195,.F.);
#246=ORIENTED_EDGE('',*,*,#196,.T.);
#247=ORIENTED_EDGE('',*,*,#197,.F.);
#248=ORIENTED_EDGE('',*,*,#196,.F.);
#249=ORIENTED_EDGE('',*,*,#193,.F.);
#250=ORIENTED_EDGE('',*,*,#197,.T.);
#251=ORIENTED_EDGE('',*,*,#198,.T.);
#252=ORIENTED_EDGE('',*,*,#199,.T.);
#253=ORIENTED_EDGE('',*,*,#198,.F.);
#254=ORIENTED_EDGE('',*,*,#199,.F.);
#255=ORIENTED_EDGE('',*,*,#200,.T.);
#256=ORIENTED_EDGE('',*,*,#182,.T.);
#257=ORIENTED_EDGE('',*,*,#189,.F.);
#258=ORIENTED_EDGE('',*,*,#201,.F.);
#259=ORIENTED_EDGE('',*,*,#202,.F.);
#260=ORIENTED_EDGE('',*,*,#203,.F.);
#261=ORIENTED_EDGE('',*,*,#204,.F.);
#262=ORIENTED_EDGE('',*,*,#192,.F.);
#263=ORIENTED_EDGE('',*,*,#205,.F.);
#264=ORIENTED_EDGE('',*,*,#206,.F.);
#265=ORIENTED_EDGE('',*,*,#201,.T.);
#266=ORIENTED_EDGE('',*,*,#179,.F.);
#267=ORIENTED_EDGE('',*,*,#207,.F.);
#268=ORIENTED_EDGE('',*,*,#208,.F.);
#269=ORIENTED_EDGE('',*,*,#209,.T.);
#270=ORIENTED_EDGE('',*,*,#180,.T.);
#271=ORIENTED_EDGE('',*,*,#210,.F.);
#272=ORIENTED_EDGE('',*,*,#211,.F.);
#273=ORIENTED_EDGE('',*,*,#212,.F.);
#274=ORIENTED_EDGE('',*,*,#207,.T.);
#275=ORIENTED_EDGE('',*,*,#178,.F.);
#276=ORIENTED_EDGE('',*,*,#213,.T.);
#277=ORIENTED_EDGE('',*,*,#214,.T.);
#278=ORIENTED_EDGE('',*,*,#203,.T.);
#279=ORIENTED_EDGE('',*,*,#215,.T.);
#280=ORIENTED_EDGE('',*,*,#215,.F.);
#281=ORIENTED_EDGE('',*,*,#202,.T.);
#282=ORIENTED_EDGE('',*,*,#206,.T.);
#283=ORIENTED_EDGE('',*,*,#216,.T.);
#284=ORIENTED_EDGE('',*,*,#211,.T.);
#285=ORIENTED_EDGE('',*,*,#217,.T.);
#286=ORIENTED_EDGE('',*,*,#218,.T.);
#287=ORIENTED_EDGE('',*,*,#219,.T.);
#288=ORIENTED_EDGE('',*,*,#188,.T.);
#289=ORIENTED_EDGE('',*,*,#220,.T.);
#290=ORIENTED_EDGE('',*,*,#217,.F.);
#291=ORIENTED_EDGE('',*,*,#210,.T.);
#292=ORIENTED_EDGE('',*,*,#187,.T.);
#293=ORIENTED_EDGE('',*,*,#176,.F.);
#294=ORIENTED_EDGE('',*,*,#209,.F.);
#295=ORIENTED_EDGE('',*,*,#221,.F.);
#296=ORIENTED_EDGE('',*,*,#218,.F.);
#297=ORIENTED_EDGE('',*,*,#220,.F.);
#298=ORIENTED_EDGE('',*,*,#184,.T.);
#299=ORIENTED_EDGE('',*,*,#222,.F.);
#300=ORIENTED_EDGE('',*,*,#213,.F.);
#301=ORIENTED_EDGE('',*,*,#216,.F.);
#302=ORIENTED_EDGE('',*,*,#205,.T.);
#303=ORIENTED_EDGE('',*,*,#191,.F.);
#304=ORIENTED_EDGE('',*,*,#200,.F.);
#305=ORIENTED_EDGE('',*,*,#223,.T.);
#306=ORIENTED_EDGE('',*,*,#185,.T.);
#307=ORIENTED_EDGE('',*,*,#190,.T.);
#308=ORIENTED_EDGE('',*,*,#181,.T.);
#309=ORIENTED_EDGE('',*,*,#177,.T.);
#310=ORIENTED_EDGE('',*,*,#186,.T.);
#311=ORIENTED_EDGE('',*,*,#223,.F.);
#312=ORIENTED_EDGE('',*,*,#219,.F.);
#313=ORIENTED_EDGE('',*,*,#221,.T.);
#314=ORIENTED_EDGE('',*,*,#208,.T.);
#315=ORIENTED_EDGE('',*,*,#212,.T.);
#316=ORIENTED_EDGE('',*,*,#183,.T.);
#317=ORIENTED_EDGE('',*,*,#204,.T.);
#318=ORIENTED_EDGE('',*,*,#214,.F.);
#319=ORIENTED_EDGE('',*,*,#222,.T.);
#320=TOROIDAL_SURFACE('',#357,7.,2.);
#321=TOROIDAL_SURFACE('',#366,7.,2.);
#322=ADVANCED_FACE('',(#79),#320,.F.);
#323=ADVANCED_FACE('',(#80),#70,.F.);
#324=ADVANCED_FACE('',(#81),#321,.F.);
#325=ADVANCED_FACE('',(#82),#26,.T.);
#326=ADVANCED_FACE('',(#83),#20,.T.);
#327=ADVANCED_FACE('',(#84),#71,.T.);
#328=ADVANCED_FACE('',(#85),#27,.T.);
#329=ADVANCED_FACE('',(#86,#19),#72,.F.);
#330=ADVANCED_FACE('',(#87),#73,.F.);
#331=ADVANCED_FACE('',(#88),#21,.T.);
#332=ADVANCED_FACE('',(#89),#22,.T.);
#333=ADVANCED_FACE('',(#90),#74,.F.);
#334=ADVANCED_FACE('',(#91),#28,.F.);
#335=ADVANCED_FACE('',(#92),#75,.F.);
#336=ADVANCED_FACE('',(#93),#29,.F.);
#337=ADVANCED_FACE('',(#94),#23,.F.);
#338=ADVANCED_FACE('',(#95),#76,.F.);
#339=ADVANCED_FACE('',(#96),#77,.F.);
#340=ADVANCED_FACE('',(#97),#24,.F.);
#341=ADVANCED_FACE('',(#98),#78,.F.);
#342=ADVANCED_FACE('',(#99),#25,.F.);
#343=CLOSED_SHELL('',(#322,#323,#324,#325,#326,#327,#328,#329,#330,#331,
#332,#333,#334,#335,#336,#337,#338,#339,#340,#341,#342));
#344=DERIVED_UNIT_ELEMENT(#346,1.);
#345=DERIVED_UNIT_ELEMENT(#651,-3.);
#346=(
MASS_UNIT()
NAMED_UNIT(*)
SI_UNIT(.KILO.,.GRAM.)
);
#347=DERIVED_UNIT((#344,#345));
#348=MEASURE_REPRESENTATION_ITEM('density measure',
POSITIVE_RATIO_MEASURE(7850.),#347);
#349=PROPERTY_DEFINITION_REPRESENTATION(#354,#351);
#350=PROPERTY_DEFINITION_REPRESENTATION(#355,#352);
#351=REPRESENTATION('material name',(#353),#648);
#352=REPRESENTATION('density',(#348),#648);
#353=DESCRIPTIVE_REPRESENTATION_ITEM('Steel','Steel');
#354=PROPERTY_DEFINITION('material property','material name',#658);
#355=PROPERTY_DEFINITION('material property','density of part',#658);
#356=AXIS2_PLACEMENT_3D('',#502,#398,#399);
#357=AXIS2_PLACEMENT_3D('',#503,#400,#401);
#358=AXIS2_PLACEMENT_3D('',#517,#402,#403);
#359=AXIS2_PLACEMENT_3D('',#529,#404,#405);
#360=AXIS2_PLACEMENT_3D('',#530,#406,#407);
#361=AXIS2_PLACEMENT_3D('',#534,#409,#410);
#362=AXIS2_PLACEMENT_3D('',#538,#412,#413);
#363=AXIS2_PLACEMENT_3D('',#542,#415,#416);
#364=AXIS2_PLACEMENT_3D('',#543,#417,#418);
#365=AXIS2_PLACEMENT_3D('',#546,#420,#421);
#366=AXIS2_PLACEMENT_3D('',#547,#422,#423);
#367=AXIS2_PLACEMENT_3D('',#559,#424,#425);
#368=AXIS2_PLACEMENT_3D('',#571,#426,#427);
#369=AXIS2_PLACEMENT_3D('',#572,#428,#429);
#370=AXIS2_PLACEMENT_3D('',#574,#430,#431);
#371=AXIS2_PLACEMENT_3D('',#577,#433,#434);
#372=AXIS2_PLACEMENT_3D('',#578,#435,#436);
#373=AXIS2_PLACEMENT_3D('',#581,#438,#439);
#374=AXIS2_PLACEMENT_3D('',#582,#440,#441);
#375=AXIS2_PLACEMENT_3D('',#583,#442,#443);
#376=AXIS2_PLACEMENT_3D('',#586,#445,#446);
#377=AXIS2_PLACEMENT_3D('',#587,#447,#448);
#378=AXIS2_PLACEMENT_3D('',#589,#449,#450);
#379=AXIS2_PLACEMENT_3D('',#590,#451,#452);
#380=AXIS2_PLACEMENT_3D('',#600,#456,#457);
#381=AXIS2_PLACEMENT_3D('',#603,#459,#460);
#382=AXIS2_PLACEMENT_3D('',#604,#461,#462);
#383=AXIS2_PLACEMENT_3D('',#608,#464,#465);
#384=AXIS2_PLACEMENT_3D('',#610,#467,#468);
#385=AXIS2_PLACEMENT_3D('',#618,#471,#472);
#386=AXIS2_PLACEMENT_3D('',#624,#473,#474);
#387=AXIS2_PLACEMENT_3D('',#625,#475,#476);
#388=AXIS2_PLACEMENT_3D('',#626,#477,#478);
#389=AXIS2_PLACEMENT_3D('',#628,#480,#481);
#390=AXIS2_PLACEMENT_3D('',#630,#482,#483);
#391=AXIS2_PLACEMENT_3D('',#635,#484,#485);
#392=AXIS2_PLACEMENT_3D('',#636,#486,#487);
#393=AXIS2_PLACEMENT_3D('',#638,#489,#490);
#394=AXIS2_PLACEMENT_3D('',#640,#492,#493);
#395=AXIS2_PLACEMENT_3D('',#642,#495,#496);
#396=AXIS2_PLACEMENT_3D('',#644,#498,#499);
#397=AXIS2_PLACEMENT_3D('',#645,#500,#501);
#398=DIRECTION('axis',(0.,0.,1.));
#399=DIRECTION('refdir',(1.,0.,0.));
#400=DIRECTION('center_axis',(0.,0.,1.));
#401=DIRECTION('ref_axis',(1.,0.,0.));
#402=DIRECTION('center_axis',(0.,0.,-1.));
#403=DIRECTION('ref_axis',(-1.,0.,0.));
#404=DIRECTION('center_axis',(0.,0.,-1.));
#405=DIRECTION('ref_axis',(0.,1.,0.));
#406=DIRECTION('center_axis',(0.,0.,-1.));
#407=DIRECTION('ref_axis',(1.,0.,0.));
#408=DIRECTION('',(1.,0.,0.));
#409=DIRECTION('center_axis',(0.,0.,-1.));
#410=DIRECTION('ref_axis',(-1.,0.,0.));
#411=DIRECTION('',(-1.,-1.00929365875014E-16,0.));
#412=DIRECTION('center_axis',(0.,0.,-1.));
#413=DIRECTION('ref_axis',(-1.,0.,0.));
#414=DIRECTION('',(-1.,-1.00929365875014E-16,0.));
#415=DIRECTION('center_axis',(0.,0.,-1.));
#416=DIRECTION('ref_axis',(-1.,0.,0.));
#417=DIRECTION('center_axis',(0.,0.,-1.));
#418=DIRECTION('ref_axis',(-1.,0.,0.));
#419=DIRECTION('',(1.,0.,0.));
#420=DIRECTION('center_axis',(0.,0.,-1.));
#421=DIRECTION('ref_axis',(-1.,0.,0.));
#422=DIRECTION('center_axis',(0.,0.,1.));
#423=DIRECTION('ref_axis',(1.,0.,0.));
#424=DIRECTION('center_axis',(0.,0.,-1.));
#425=DIRECTION('ref_axis',(-1.,0.,0.));
#426=DIRECTION('center_axis',(0.,0.,-1.));
#427=DIRECTION('ref_axis',(0.,-1.,0.));
#428=DIRECTION('center_axis',(0.,0.,1.));
#429=DIRECTION('ref_axis',(-1.,0.,0.));
#430=DIRECTION('center_axis',(0.,0.,1.));
#431=DIRECTION('ref_axis',(-1.,0.,0.));
#432=DIRECTION('',(0.707106781186548,-8.65956056235494E-17,0.707106781186547));
#433=DIRECTION('center_axis',(0.,0.,-1.));
#434=DIRECTION('ref_axis',(-1.,0.,0.));
#435=DIRECTION('center_axis',(0.,0.,-1.));
#436=DIRECTION('ref_axis',(-1.,0.,0.));
#437=DIRECTION('',(0.,0.,1.));
#438=DIRECTION('center_axis',(0.,0.,1.));
#439=DIRECTION('ref_axis',(-1.,0.,0.));
#440=DIRECTION('center_axis',(0.,0.,-1.));
#441=DIRECTION('ref_axis',(-1.,0.,0.));
#442=DIRECTION('center_axis',(0.,0.,-1.));
#443=DIRECTION('ref_axis',(-1.,0.,0.));
#444=DIRECTION('',(-0.707106781186547,8.65956056235493E-17,0.707106781186548));
#445=DIRECTION('center_axis',(0.,0.,-1.));
#446=DIRECTION('ref_axis',(-1.,0.,0.));
#447=DIRECTION('center_axis',(0.,0.,-1.));
#448=DIRECTION('ref_axis',(-1.,0.,0.));
#449=DIRECTION('center_axis',(0.,0.,-1.));
#450=DIRECTION('ref_axis',(-1.,0.,0.));
#451=DIRECTION('center_axis',(1.00929365875014E-16,-1.,0.));
#452=DIRECTION('ref_axis',(-1.,-1.00929365875014E-16,0.));
#453=DIRECTION('',(0.,0.,-1.));
#454=DIRECTION('',(-1.,-1.00929365875014E-16,0.));
#455=DIRECTION('',(0.,0.,1.));
#456=DIRECTION('center_axis',(0.,0.,-1.));
#457=DIRECTION('ref_axis',(-1.,0.,0.));
#458=DIRECTION('',(0.,0.,-1.));
#459=DIRECTION('center_axis',(0.,0.,1.));
#460=DIRECTION('ref_axis',(-1.,0.,0.));
#461=DIRECTION('center_axis',(0.,0.,-1.));
#462=DIRECTION('ref_axis',(-1.,0.,0.));
#463=DIRECTION('',(0.,0.,-1.));
#464=DIRECTION('center_axis',(0.,0.,1.));
#465=DIRECTION('ref_axis',(-1.,0.,0.));
#466=DIRECTION('',(0.,0.,-1.));
#467=DIRECTION('center_axis',(0.,1.,0.));
#468=DIRECTION('ref_axis',(1.,0.,0.));
#469=DIRECTION('',(0.,0.,-1.));
#470=DIRECTION('',(1.,0.,0.));
#471=DIRECTION('center_axis',(0.,0.,1.));
#472=DIRECTION('ref_axis',(-1.,0.,0.));
#473=DIRECTION('center_axis',(0.,0.,-1.));
#474=DIRECTION('ref_axis',(-1.,0.,0.));
#475=DIRECTION('center_axis',(0.,0.,1.));
#476=DIRECTION('ref_axis',(-1.,0.,0.));
#477=DIRECTION('center_axis',(0.,0.,-1.));
#478=DIRECTION('ref_axis',(-1.,0.,0.));
#479=DIRECTION('',(-1.,-1.00929365875014E-16,0.));
#480=DIRECTION('center_axis',(0.,0.,1.));
#481=DIRECTION('ref_axis',(-1.,0.,0.));
#482=DIRECTION('center_axis',(0.,0.,-1.));
#483=DIRECTION('ref_axis',(-1.,0.,0.));
#484=DIRECTION('center_axis',(0.,0.,1.));
#485=DIRECTION('ref_axis',(-1.,0.,0.));
#486=DIRECTION('center_axis',(0.,0.,-1.));
#487=DIRECTION('ref_axis',(-1.,0.,0.));
#488=DIRECTION('',(0.,0.,1.));
#489=DIRECTION('center_axis',(0.,1.,0.));
#490=DIRECTION('ref_axis',(1.,0.,0.));
#491=DIRECTION('',(1.,0.,0.));
#492=DIRECTION('center_axis',(1.00929365875014E-16,-1.,0.));
#493=DIRECTION('ref_axis',(-1.,-1.00929365875014E-16,0.));
#494=DIRECTION('',(0.,0.,-1.));
#495=DIRECTION('center_axis',(0.,0.,-1.));
#496=DIRECTION('ref_axis',(-1.,0.,0.));
#497=DIRECTION('',(0.,0.,-1.));
#498=DIRECTION('center_axis',(0.,0.,-1.));
#499=DIRECTION('ref_axis',(-1.,0.,0.));
#500=DIRECTION('center_axis',(0.,0.,-1.));
#501=DIRECTION('ref_axis',(-1.,0.,0.));
#502=CARTESIAN_POINT('',(0.,0.,0.));
#503=CARTESIAN_POINT('Origin',(19.,-9.00000000000001,39.));
#504=CARTESIAN_POINT('',(23.9749371855331,-8.50000000000001,39.));
#505=CARTESIAN_POINT('',(25.9821200218845,-8.50000000000001,37.));
#506=CARTESIAN_POINT('Ctrl Pts',(23.9749371855331,-8.50000000000001,39.));
#507=CARTESIAN_POINT('Ctrl Pts',(23.9749371855331,-8.50000000000001,38.753277653492));
#508=CARTESIAN_POINT('Ctrl Pts',(24.0329741314774,-8.50000000000001,38.4629549497138));
#509=CARTESIAN_POINT('Ctrl Pts',(24.2226821561153,-8.50000000000001,38.0067635374731));
#510=CARTESIAN_POINT('Ctrl Pts',(24.3881144822838,-8.50000000000001,37.7603316505895));
#511=CARTESIAN_POINT('Ctrl Pts',(24.7386468486186,-8.50000000000001,37.4112064396547));
#512=CARTESIAN_POINT('Ctrl Pts',(24.9857775622866,-8.50000000000001,37.2467131064068));
#513=CARTESIAN_POINT('Ctrl Pts',(25.4432306519376,-8.50000000000001,37.0578078964467));
#514=CARTESIAN_POINT('Ctrl Pts',(25.7345887483092,-8.50000000000001,37.));
#515=CARTESIAN_POINT('Ctrl Pts',(25.9821200218845,-8.50000000000001,37.));
#516=CARTESIAN_POINT('',(12.0178799781155,-8.50000000000001,37.));
#517=CARTESIAN_POINT('Origin',(19.,-9.00000000000001,37.));
#518=CARTESIAN_POINT('',(14.0250628144669,-8.50000000000001,39.));
#519=CARTESIAN_POINT('Ctrl Pts',(12.0178799781156,-8.50000000000001,37.));
#520=CARTESIAN_POINT('Ctrl Pts',(12.2654112516909,-8.50000000000001,37.));
#521=CARTESIAN_POINT('Ctrl Pts',(12.5567693480625,-8.50000000000001,37.0578078964467));
#522=CARTESIAN_POINT('Ctrl Pts',(13.0142224377134,-8.50000000000001,37.2467131064068));
#523=CARTESIAN_POINT('Ctrl Pts',(13.2613531513815,-8.50000000000001,37.4112064396547));
#524=CARTESIAN_POINT('Ctrl Pts',(13.6118855177162,-8.50000000000001,37.7603316505895));
#525=CARTESIAN_POINT('Ctrl Pts',(13.7773178438847,-8.50000000000001,38.0067635374731));
#526=CARTESIAN_POINT('Ctrl Pts',(13.9670258685226,-8.50000000000001,38.4629549497138));
#527=CARTESIAN_POINT('Ctrl Pts',(14.0250628144669,-8.50000000000001,38.753277653492));
#528=CARTESIAN_POINT('Ctrl Pts',(14.0250628144669,-8.50000000000001,39.));
#529=CARTESIAN_POINT('Origin',(19.,-9.00000000000001,39.));
#530=CARTESIAN_POINT('Origin',(19.,-9.00000000000001,37.));
#531=CARTESIAN_POINT('',(16.0419601084502,-8.50000000000001,37.));
#532=CARTESIAN_POINT('',(16.5125314072335,-8.50000000000001,37.));
#533=CARTESIAN_POINT('',(12.0178799781155,-9.50000000000001,37.));
#534=CARTESIAN_POINT('Origin',(19.,-9.00000000000001,37.));
#535=CARTESIAN_POINT('',(16.0419601084502,-9.50000000000001,37.));
#536=CARTESIAN_POINT('',(17.5209800542251,-9.50000000000001,37.));
#537=CARTESIAN_POINT('',(21.9580398915498,-9.50000000000001,37.));
#538=CARTESIAN_POINT('Origin',(19.,-9.00000000000001,37.));
#539=CARTESIAN_POINT('',(25.9821200218845,-9.50000000000001,37.));
#540=CARTESIAN_POINT('',(21.4874685927666,-9.50000000000001,37.));
#541=CARTESIAN_POINT('',(26.,-9.00000000000001,37.));
#542=CARTESIAN_POINT('Origin',(19.,-9.00000000000001,37.));
#543=CARTESIAN_POINT('Origin',(19.,-9.00000000000001,37.));
#544=CARTESIAN_POINT('',(21.9580398915498,-8.50000000000001,37.));
#545=CARTESIAN_POINT('',(20.4790199457749,-8.50000000000001,37.));
#546=CARTESIAN_POINT('Origin',(19.,-9.00000000000001,37.));
#547=CARTESIAN_POINT('Origin',(19.,-9.00000000000001,39.));
#548=CARTESIAN_POINT('',(14.0250628144669,-9.50000000000001,39.));
#549=CARTESIAN_POINT('Ctrl Pts',(14.0250628144669,-9.50000000000001,39.));
#550=CARTESIAN_POINT('Ctrl Pts',(14.0250628144669,-9.50000000000001,38.753277653492));
#551=CARTESIAN_POINT('Ctrl Pts',(13.9670258685226,-9.50000000000001,38.4629549497138));
#552=CARTESIAN_POINT('Ctrl Pts',(13.7773178438847,-9.50000000000001,38.0067635374731));
#553=CARTESIAN_POINT('Ctrl Pts',(13.6118855177162,-9.50000000000001,37.7603316505895));
#554=CARTESIAN_POINT('Ctrl Pts',(13.2613531513815,-9.50000000000001,37.4112064396547));
#555=CARTESIAN_POINT('Ctrl Pts',(13.0142224377134,-9.50000000000001,37.2467131064068));
#556=CARTESIAN_POINT('Ctrl Pts',(12.5567693480625,-9.50000000000001,37.0578078964467));
#557=CARTESIAN_POINT('Ctrl Pts',(12.2654112516909,-9.50000000000001,37.));
#558=CARTESIAN_POINT('Ctrl Pts',(12.0178799781156,-9.50000000000001,37.));
#559=CARTESIAN_POINT('Origin',(19.,-9.00000000000001,37.));
#560=CARTESIAN_POINT('',(23.9749371855331,-9.50000000000001,39.));
#561=CARTESIAN_POINT('Ctrl Pts',(25.9821200218845,-9.50000000000001,37.));
#562=CARTESIAN_POINT('Ctrl Pts',(25.7345887483092,-9.50000000000001,37.));
#563=CARTESIAN_POINT('Ctrl Pts',(25.4432306519376,-9.50000000000001,37.0578078964467));
#564=CARTESIAN_POINT('Ctrl Pts',(24.9857775622866,-9.50000000000001,37.2467131064068));
#565=CARTESIAN_POINT('Ctrl Pts',(24.7386468486186,-9.50000000000001,37.4112064396547));
#566=CARTESIAN_POINT('Ctrl Pts',(24.3881144822838,-9.50000000000001,37.7603316505895));
#567=CARTESIAN_POINT('Ctrl Pts',(24.2226821561153,-9.50000000000001,38.0067635374731));
#568=CARTESIAN_POINT('Ctrl Pts',(24.0329741314774,-9.50000000000001,38.4629549497138));
#569=CARTESIAN_POINT('Ctrl Pts',(23.9749371855331,-9.50000000000001,38.753277653492));
#570=CARTESIAN_POINT('Ctrl Pts',(23.9749371855331,-9.50000000000001,39.));
#571=CARTESIAN_POINT('Origin',(19.,-9.00000000000001,39.));
#572=CARTESIAN_POINT('Origin',(19.,-9.00000000000001,32.5));
#573=CARTESIAN_POINT('',(31.,-9.00000000000001,31.));
#574=CARTESIAN_POINT('Origin',(19.,-9.00000000000001,31.));
#575=CARTESIAN_POINT('',(34.,-9.00000000000001,34.));
#576=CARTESIAN_POINT('',(32.5,-9.00000000000001,32.5));
#577=CARTESIAN_POINT('Origin',(19.,-9.00000000000001,34.));
#578=CARTESIAN_POINT('Origin',(19.,-9.00000000000001,49.));
#579=CARTESIAN_POINT('',(34.,-9.00000000000001,47.));
#580=CARTESIAN_POINT('',(34.,-9.00000000000001,49.));
#581=CARTESIAN_POINT('Origin',(19.,-9.00000000000001,47.));
#582=CARTESIAN_POINT('Origin',(19.,-9.00000000000001,31.));
#583=CARTESIAN_POINT('Origin',(19.,-9.00000000000001,48.));
#584=CARTESIAN_POINT('',(32.,-9.00000000000001,49.));
#585=CARTESIAN_POINT('',(33.,-9.00000000000001,48.));
#586=CARTESIAN_POINT('Origin',(19.,-9.00000000000001,49.));
#587=CARTESIAN_POINT('Origin',(19.,-9.00000000000001,49.));
#588=CARTESIAN_POINT('',(26.,-9.00000000000001,49.));
#589=CARTESIAN_POINT('Origin',(19.,-9.00000000000001,49.));
#590=CARTESIAN_POINT('Origin',(16.0419601084502,-9.50000000000001,49.));
#591=CARTESIAN_POINT('',(14.0250628144669,-9.50000000000001,43.));
#592=CARTESIAN_POINT('',(14.0250628144669,-9.50000000000001,49.));
#593=CARTESIAN_POINT('',(15.0313730334031,-9.50000000000001,43.));
#594=CARTESIAN_POINT('',(17.5209800542251,-9.50000000000001,43.));
#595=CARTESIAN_POINT('',(16.0419601084502,-9.50000000000001,42.));
#596=CARTESIAN_POINT('Ctrl Pts',(15.0313730334031,-9.50000000000001,43.));
#597=CARTESIAN_POINT('Ctrl Pts',(15.6088513620015,-9.50000000000001,42.4270509831248));
#598=CARTESIAN_POINT('Ctrl Pts',(16.0419601084502,-9.50000000000002,42.));
#599=CARTESIAN_POINT('',(16.0419601084502,-9.50000000000001,49.));
#600=CARTESIAN_POINT('Origin',(19.,-9.00000000000001,49.));
#601=CARTESIAN_POINT('',(23.9749371855331,-9.50000000000001,43.));
#602=CARTESIAN_POINT('',(23.9749371855331,-9.50000000000001,49.));
#603=CARTESIAN_POINT('Origin',(19.,-9.00000000000001,43.));
#604=CARTESIAN_POINT('Origin',(19.,-9.00000000000001,49.));
#605=CARTESIAN_POINT('',(14.0250628144669,-8.50000000000001,43.));
#606=CARTESIAN_POINT('',(14.0250628144669,-8.50000000000001,49.));
#607=CARTESIAN_POINT('',(23.9749371855331,-8.50000000000001,43.));
#608=CARTESIAN_POINT('Origin',(19.,-9.00000000000001,43.));
#609=CARTESIAN_POINT('',(23.9749371855331,-8.50000000000001,49.));
#610=CARTESIAN_POINT('Origin',(14.0250628144669,-8.50000000000001,49.));
#611=CARTESIAN_POINT('',(16.0419601084502,-8.50000000000001,42.));
#612=CARTESIAN_POINT('',(16.0419601084502,-8.50000000000001,49.));
#613=CARTESIAN_POINT('',(15.0313730334031,-8.50000000000001,43.));
#614=CARTESIAN_POINT('Ctrl Pts',(16.0419601084503,-8.50000000000001,41.9999999999999));
#615=CARTESIAN_POINT('Ctrl Pts',(15.6088513620015,-8.50000000000002,42.4270509831247));
#616=CARTESIAN_POINT('Ctrl Pts',(15.0313730334031,-8.50000000000002,43.));
#617=CARTESIAN_POINT('',(16.5125314072335,-8.50000000000001,43.));
#618=CARTESIAN_POINT('Origin',(19.,-9.00000000000001,42.5));
#619=CARTESIAN_POINT('',(22.9686269665969,-9.50000000000001,43.));
#620=CARTESIAN_POINT('',(21.9580398915498,-9.50000000000001,42.));
#621=CARTESIAN_POINT('Ctrl Pts',(21.9580398915497,-9.5,41.9999999999999));
#622=CARTESIAN_POINT('Ctrl Pts',(22.3911486379985,-9.5,42.4270509831247));
#623=CARTESIAN_POINT('Ctrl Pts',(22.9686269665969,-9.5,43.));
#624=CARTESIAN_POINT('Origin',(19.,-9.00000000000001,42.));
#625=CARTESIAN_POINT('Origin',(19.,-9.00000000000001,43.));
#626=CARTESIAN_POINT('Origin',(19.,-9.00000000000001,43.));
#627=CARTESIAN_POINT('',(21.4874685927666,-9.50000000000001,43.));
#628=CARTESIAN_POINT('Origin',(19.,-9.00000000000001,42.5));
#629=CARTESIAN_POINT('',(21.9580398915498,-8.50000000000001,42.));
#630=CARTESIAN_POINT('Origin',(19.,-9.00000000000001,42.));
#631=CARTESIAN_POINT('',(22.9686269665969,-8.50000000000001,43.));
#632=CARTESIAN_POINT('Ctrl Pts',(22.9686269665969,-8.50000000000002,43.));
#633=CARTESIAN_POINT('Ctrl Pts',(22.3911486379986,-8.50000000000002,42.4270509831248));
#634=CARTESIAN_POINT('Ctrl Pts',(21.9580398915498,-8.50000000000002,42.));
#635=CARTESIAN_POINT('Origin',(19.,-9.00000000000001,43.));
#636=CARTESIAN_POINT('Origin',(19.,-9.00000000000001,49.));
#637=CARTESIAN_POINT('',(21.9580398915498,-8.50000000000001,49.));
#638=CARTESIAN_POINT('Origin',(21.9580398915498,-8.50000000000001,49.));
#639=CARTESIAN_POINT('',(20.4790199457749,-8.50000000000001,43.));
#640=CARTESIAN_POINT('Origin',(23.9749371855331,-9.50000000000001,49.));
#641=CARTESIAN_POINT('',(21.9580398915498,-9.50000000000001,49.));
#642=CARTESIAN_POINT('Origin',(19.,-9.00000000000001,49.));
#643=CARTESIAN_POINT('',(26.,-9.00000000000001,49.));
#644=CARTESIAN_POINT('Origin',(19.,-9.00000000000001,43.));
#645=CARTESIAN_POINT('Origin',(19.,-9.00000000000001,49.));
#646=UNCERTAINTY_MEASURE_WITH_UNIT(LENGTH_MEASURE(0.01),#650,
'DISTANCE_ACCURACY_VALUE',
'Maximum model space distance between geometric entities at asserted c
onnectivities');
#647=UNCERTAINTY_MEASURE_WITH_UNIT(LENGTH_MEASURE(0.01),#650,
'DISTANCE_ACCURACY_VALUE',
'Maximum model space distance between geometric entities at asserted c
onnectivities');
#648=(
GEOMETRIC_REPRESENTATION_CONTEXT(3)
GLOBAL_UNCERTAINTY_ASSIGNED_CONTEXT((#646))
GLOBAL_UNIT_ASSIGNED_CONTEXT((#650,#652,#653))
REPRESENTATION_CONTEXT('','3D')
);
#649=(
GEOMETRIC_REPRESENTATION_CONTEXT(3)
GLOBAL_UNCERTAINTY_ASSIGNED_CONTEXT((#647))
GLOBAL_UNIT_ASSIGNED_CONTEXT((#650,#652,#653))
REPRESENTATION_CONTEXT('','3D')
);
#650=(
LENGTH_UNIT()
NAMED_UNIT(*)
SI_UNIT(.MILLI.,.METRE.)
);
#651=(
LENGTH_UNIT()
NAMED_UNIT(*)
SI_UNIT($,.METRE.)
);
#652=(
NAMED_UNIT(*)
PLANE_ANGLE_UNIT()
SI_UNIT($,.RADIAN.)
);
#653=(
NAMED_UNIT(*)
SI_UNIT($,.STERADIAN.)
SOLID_ANGLE_UNIT()
);
#654=SHAPE_DEFINITION_REPRESENTATION(#655,#656);
#655=PRODUCT_DEFINITION_SHAPE('',$,#658);
#656=SHAPE_REPRESENTATION('',(#356),#648);
#657=PRODUCT_DEFINITION_CONTEXT('part definition',#662,'design');
#658=PRODUCT_DEFINITION('MB01158401','40x40 Alu profile v9',#659,#657);
#659=PRODUCT_DEFINITION_FORMATION('',$,#664);
#660=PRODUCT_RELATED_PRODUCT_CATEGORY('40x40 Alu profile v9',
'40x40 Alu profile v9',(#664));
#661=APPLICATION_PROTOCOL_DEFINITION('international standard',
'automotive_design',2009,#662);
#662=APPLICATION_CONTEXT(
'Core Data for Automotive Mechanical Design Process');
#663=PRODUCT_CONTEXT('part definition',#662,'mechanical');
#664=PRODUCT('MB01158401','40x40 Alu profile v9',$,(#663));
#665=PRESENTATION_STYLE_ASSIGNMENT((#667));
#666=PRESENTATION_STYLE_ASSIGNMENT((#668));
#667=SURFACE_STYLE_USAGE(.BOTH.,#669);
#668=SURFACE_STYLE_USAGE(.BOTH.,#670);
#669=SURFACE_SIDE_STYLE('',(#671));
#670=SURFACE_SIDE_STYLE('',(#672));
#671=SURFACE_STYLE_FILL_AREA(#673);
#672=SURFACE_STYLE_FILL_AREA(#674);
#673=FILL_AREA_STYLE('Steel - Satin',(#675));
#674=FILL_AREA_STYLE('Opaque(216,214,214)',(#676));
#675=FILL_AREA_STYLE_COLOUR('Steel - Satin',#677);
#676=FILL_AREA_STYLE_COLOUR('Opaque(216,214,214)',#678);
#677=COLOUR_RGB('Steel - Satin',0.627450980392157,0.627450980392157,0.627450980392157);
#678=COLOUR_RGB('Opaque(216,214,214)',0.847058823529412,0.83921568627451,
0.83921568627451);
ENDSEC;
END-ISO-10303-21;
